<?xml version="1.0" encoding="UTF-8" standalone="no"?>
<svg xmlns:dc="http://purl.org/dc/elements/1.1/" xmlns:cc="http://creativecommons.org/ns#" xmlns:rdf="http://www.w3.org/1999/02/22-rdf-syntax-ns#" xmlns:svg="http://www.w3.org/2000/svg" xmlns="http://www.w3.org/2000/svg" xmlns:sodipodi="http://sodipodi.sourceforge.net/DTD/sodipodi-0.dtd" xmlns:inkscape="http://www.inkscape.org/namespaces/inkscape" width="94.5mm" height="89.5mm" viewBox="-51 -58.5 94.5 89.5" version="1.1" id="svg16" sodipodi:docname="Norns_top(no screen).svg" inkscape:version="1.0 (4035a4f, 2020-05-01)">
  
  <defs id="defs20"/>
  
  
  
  <path d="m -46.487171,-57.481197 0.382002,-0.01899 0.0019,9.5e-5 9.1e-5,-9.5e-5 h 1.047005 2.845011 27.519133 53.295184 l 0.002,0.0021 v -0.0021 l 0.381999,0.01899 0.378007,0.058 0.305302,0.079 0.0657,0.017 0.360001,0.133 0.345005,0.169 0.328001,0.203004 0.306997,0.234997 0.283005,0.265005 0.257001,0.293001 0.228,0.316999 0.196001,0.339001 0.163996,0.356005 0.128007,0.371999 0.093,0.383002 0.056,0.391005 0.019,0.393998 -9.1e-5,0.0019 9.1e-5,9.4e-5 v 4.332018 75.117344 l -0.0029,0.003 h 0.0029 l -0.019,0.394005 -0.056,0.390999 -0.06801,0.280078 -0.02499,0.102924 -0.128007,0.372003 -0.163996,0.356 -0.196001,0.339001 -0.228,0.317002 -0.257001,0.293003 -0.283005,0.265002 -0.115998,0.08879 -0.190999,0.146207 -0.328001,0.203 -0.08521,0.04174 -0.259794,0.127264 -0.360001,0.132998 -0.370997,0.096 -0.378007,0.058 -0.381999,0.019 -0.0019,-9.6e-5 -9.1e-5,9.6e-5 H 18.903085 10.865164 7.192015 -44.153161 -46.103169 l -0.002,-0.0021 v 0.0021 l -0.382002,-0.01899 -0.378004,-0.058 -0.370999,-0.096 -0.360001,-0.132998 -0.345004,-0.169 -0.328,-0.203003 -0.307,-0.235 -0.283002,-0.265001 -0.131569,-0.150001 -0.125433,-0.143002 -0.228001,-0.316999 -0.195999,-0.339005 -0.163998,-0.356 -0.128004,-0.372002 -0.093,-0.383003 -0.056,-0.390999 -0.019,-0.394005 9.1e-5,-0.0019 -9.1e-5,-9.6e-5 V 24.57618 21.954169 -53.475174 l 0.0019,-0.002 h -0.0019 l 0.019,-0.393998 0.056,-0.391005 0.093,-0.383002 0.128004,-0.371999 0.163998,-0.356005 0.195999,-0.339001 0.192002,-0.266947 0.036,-0.05005 0.257002,-0.293001 0.283002,-0.265005 0.307,-0.234997 0.328,-0.203004 0.345004,-0.169 0.360001,-0.133 0.370999,-0.096 0.378005,-0.058 m 67.913267,69.375317 -0.188123,0.170507 -0.313879,0.284494 -0.455,0.502002 -0.403003,0.544002 -0.348,0.581002 -0.290003,0.613004 -0.228001,0.637001 -0.165001,0.657006 -0.07403,0.501003 -0.02497,0.169 -0.033,0.677 0.033,0.677004 0.099,0.670003 0.165001,0.657002 0.228001,0.637004 0.288111,0.609004 0.0019,0.004 0.348,0.581005 0.403003,0.544002 0.455,0.502002 0.502002,0.455004 0.544001,0.403001 0.581003,0.348 0.613003,0.290003 0.637003,0.227998 0.657001,0.165002 0.118004,0.01743 0.551998,0.08156 0.677006,0.034 0.677002,-0.034 0.670002,-0.09901 0.657001,-0.165002 0.637003,-0.227998 0.226004,-0.106919 0.386999,-0.183084 0.581003,-0.348 0.544,-0.403 0.502006,-0.455005 0.13484,-0.14877 0.320161,-0.353232 0.402999,-0.544002 0.348004,-0.581005 0.289999,-0.613001 0.228001,-0.637005 0.165,-0.657002 0.0663,-0.448705 0.03271,-0.221298 0.034,-0.677004 -0.034,-0.677 -0.02497,-0.169 -0.07403,-0.501003 -0.05512,-0.219489 -0.109878,-0.437517 -0.228,-0.637001 -0.29,-0.613004 -0.348004,-0.581002 -0.402999,-0.544002 -0.455001,-0.502002 -0.502006,-0.455001 -0.544,-0.403004 -0.581003,-0.348 -0.386999,-0.183084 -0.226004,-0.106919 -0.637003,-0.228002 -0.219564,-0.05514 -0.05516,-0.01385 -0.382279,-0.09601 -0.670002,-0.09901 -0.677002,-0.034 -0.677006,0.034 -0.551998,0.08156 -0.118004,0.01744 -0.657001,0.164998 -0.637003,0.228002 -0.613002,0.290003 -0.581004,0.348 -0.544001,0.403004 m 12.71805,10.818048 -0.007,0.122998 0.007,0.123001 0.018,0.121004 0.029,0.119998 0.042,0.115001 0.052,0.111 0.064,0.106003 0.01549,0.021 0.05751,0.078 0.082,0.09101 0.091,0.082 0.099,0.073 0.105998,0.064 0.016,0.0075 0.09499,0.04451 0.115003,0.042 0.119999,0.029 0.121,0.018 0.123003,0.007 0.122999,-0.007 0.120999,-0.018 0.120003,-0.029 0.086,-0.0314 0.029,-0.0106 0.111,-0.052 0.105998,-0.064 0.09901,-0.073 0.091,-0.08199 0.07848,-0.0871 0.0035,-0.0039 0.05751,-0.078 0.01548,-0.021 0.064,-0.106002 0.052,-0.111 0.042,-0.115001 0.029,-0.119998 0.018,-0.121001 0.006,-0.123004 -0.006,-0.122998 -0.018,-0.121 -0.01523,-0.063 -0.01377,-0.057 -0.042,-0.115001 -0.052,-0.111 -0.064,-0.105999 -0.073,-0.099 -0.082,-0.09101 -0.091,-0.08199 -0.09901,-0.073 -0.105997,-0.064 -0.111002,-0.052 -0.029,-0.0106 -0.086,-0.0314 -0.120002,-0.029 -0.121,-0.018 -0.122999,-0.007 -0.123003,0.007 -0.121,0.018 -0.119999,0.029 -0.01523,0.0055 -0.09977,0.03644 -0.09499,0.04451 -0.016,0.0075 -0.105999,0.064 -0.099,0.073 -0.091,0.082 -0.082,0.09101 -0.073,0.099 -0.064,0.106 -0.052,0.110999 -0.042,0.115002 -0.01378,0.057 -0.01523,0.063 -0.018,0.121 m -21.760086,-4.805023 0.034,-0.677003 -0.034,-0.677001 -0.02497,-0.169 -0.07403,-0.501003 -0.164997,-0.657005 -0.228003,-0.637001 -0.290001,-0.613005 -0.347999,-0.581002 -0.403003,-0.544002 -0.455001,-0.502002 -0.5019758,-0.454981 -0.5440005,-0.403004 -0.581003,-0.348 -0.5770034,-0.272971 -0.035999,-0.01703 -0.6370032,-0.228001 -0.6570043,-0.165002 -0.6700026,-0.09901 -0.6770019,-0.034 -0.6770018,0.034 -0.6700027,0.09901 -0.6570042,0.165002 -0.6369997,0.228001 -0.6130026,0.29 L 1.6800531,11.491108 1.136049,11.894109 0.63404703,12.349113 0.17904627,12.851115 4.6992105e-5,13.092742 -0.22395381,13.395117 l -0.0516895,0.0863 -0.29631371,0.494703 -0.2899998,0.613005 -0.22800028,0.637001 -0.1650011,0.657002 -0.074029,0.501003 -0.024972,0.169 -0.032999,0.677004 0.00298,0.06105 0.030024,0.615954 0.099002,0.670006 0.1650011,0.657003 0.22800028,0.637001 0.28999978,0.613005 0.34800326,0.581002 0.223994775124,0.302365 0.178999274876,0.24163 0.45500076,0.502002 0.50200197,0.455001 0.5440041,0.403004 0.5810029,0.348 0.6130026,0.290003 0.00525,0.0019 0.631752,0.22612 0.6570042,0.165005 0.6700027,0.09901 0.6770018,0.034 0.6770019,-0.034 0.6304445,-0.09315 0.039559,-0.0058 0.6570043,-0.165005 0.6370032,-0.227998 0.035999,-0.01703 0.5770034,-0.272972 0.581003,-0.348 0.5440005,-0.403004 0.5020029,-0.455001 0.455001,-0.502002 0.403003,-0.544002 0.348,-0.581005 0.29,-0.613001 0.228002,-0.637005 0.164998,-0.657002 0.099,-0.670003 m 22.76209,-67.074305 0.100834,0.015 0.02017,0.003 0.123002,0.006 0.122999,-0.006 0.02016,-0.003 0.100834,-0.015 0.120003,-0.029 0.086,-0.0314 0.029,-0.01058 0.111,-0.052 0.105998,-0.064 0.09901,-0.07299 0.091,-0.08201 0.082,-0.091 0.073,-0.09901 0.064,-0.106 0.052,-0.111001 0.042,-0.114998 0.029,-0.120003 0.0037,-0.025 0.01428,-0.096 0.006,-0.123002 -0.006,-0.123001 -0.018,-0.120999 -0.029,-0.119999 -0.042,-0.115003 -0.052,-0.111001 -0.064,-0.105999 -0.073,-0.099 -0.009,-0.01002 -0.07299,-0.08099 -0.091,-0.08201 -0.09901,-0.073 -0.105998,-0.064 -0.111,-0.05199 -0.115,-0.042 -0.120003,-0.029 -0.120999,-0.01799 -0.122999,-0.007 -0.123003,0.007 -0.121,0.01799 -0.119999,0.029 -0.115003,0.042 -0.09499,0.04451 -0.016,0.0075 -0.105998,0.064 -0.099,0.073 -0.091,0.08201 -0.07299,0.08099 -0.009,0.01002 -0.073,0.099 -0.064,0.106 -0.052,0.111 -0.042,0.115002 -0.029,0.12 -0.018,0.120999 -0.007,0.123001 0.007,0.123002 0.01428,0.096 0.0037,0.025 0.029,0.120003 0.042,0.114998 0.052,0.111001 0.064,0.106 0.073,0.09901 0.082,0.091 0.091,0.08201 0.099,0.07299 0.105999,0.064 0.016,0.0075 0.09499,0.04451 0.115003,0.042 0.119999,0.029 m -8.664032,-2.832013 -0.677003,-0.034 -0.677005,0.034 -0.551999,0.08156 -0.118003,0.01743 -0.657001,0.165001 -0.637003,0.228003 -0.613003,0.290002 -0.581003,0.348001 -0.544001,0.403002 -0.502002,0.455 -0.455001,0.502004 -0.264471,0.357001 -0.138531,0.187001 -0.348,0.581004 -0.290004,0.613001 -0.228,0.637006 -0.165001,0.657 -0.099,0.670005 -0.033,0.677001 0.033,0.677006 0.099,0.67 0.165001,0.657005 0.228,0.637004 0.290004,0.613001 0.348,0.581004 0.248172,0.335001 0.15483,0.209001 0.455001,0.502001 0.502002,0.455003 0.544001,0.403002 0.581003,0.348001 0.613003,0.290003 0.637003,0.227998 0.657001,0.165001 0.118003,0.01744 0.551999,0.08156 0.677005,0.033 0.677003,-0.033 0.670003,-0.099 0.657,-0.165001 0.637003,-0.227998 0.613003,-0.290003 0.581003,-0.348001 0.544,-0.403002 0.502006,-0.455003 0.455,-0.502001 0.154831,-0.209001 0.248169,-0.335001 0.348004,-0.581004 0.289999,-0.613001 0.228001,-0.637004 0.165001,-0.657005 0.099,-0.67 0.034,-0.677006 -0.034,-0.677 -0.099,-0.670006 -0.165001,-0.657 -0.228001,-0.637006 -0.289999,-0.613001 -0.348004,-0.581004 -0.138532,-0.187001 -0.264468,-0.357001 -0.455,-0.502004 -0.502006,-0.455 -0.544,-0.403002 -0.581003,-0.348001 -0.613003,-0.290002 -0.637003,-0.228003 -0.657,-0.165001 -0.670003,-0.099 m -68.136268,74.957343 0.006,-0.123001 -0.006,-0.123001 -0.018,-0.121 -0.01524,-0.063 -0.01377,-0.057 -0.042,-0.115001 -0.052,-0.111 -0.064,-0.106002 -0.073,-0.099 -0.052,-0.05771 -0.03,-0.03329 -0.091,-0.08199 -0.099,-0.073 -0.106003,-0.064 -0.111,-0.052 -0.114999,-0.042 -0.119999,-0.029 -0.121003,-0.018 -0.123,-0.007 -0.108,0.0061 -0.01499,8.57e-4 -0.121002,0.018 -0.120001,0.029 -0.115001,0.042 -0.111001,0.052 -0.105999,0.064 -0.099,0.073 -0.091,0.08199 -0.082,0.09101 -0.073,0.099 -0.064,0.105999 -0.052,0.111003 -0.042,0.115001 -0.01378,0.057 -0.01523,0.063 -0.018,0.121001 -0.007,0.123001 0.007,0.123001 0.018,0.121004 0.029,0.119998 0.042,0.115001 0.052,0.111 0.064,0.105999 0.01549,0.021 0.05751,0.078 0.082,0.09101 0.091,0.08199 0.099,0.073 0.105999,0.064 0.111001,0.052 0.115001,0.042 0.120001,0.029 0.121002,0.018 0.01499,8.57e-4 0.108,0.0061 0.123,-0.007 0.121003,-0.018 0.119999,-0.029 0.114999,-0.042 0.111,-0.052 0.106003,-0.064 0.099,-0.073 0.091,-0.082 0.082,-0.09101 0.05751,-0.078 0.01548,-0.021 0.064,-0.106003 0.052,-0.110999 0.042,-0.115001 0.029,-0.119999 0.018,-0.121003 M 7.5580406,-38.683111 h 6.5050254 v -12.70506 H 7.5580406 v 12.70506 M -16.437053,10.782112 h -6.505025 v 12.70606 h 6.505025 v -12.70606 m -15.30106,0 h -6.505025 v 12.70606 h 6.505025 z" fill="none" stroke="#ff0000" stroke-width="0.001mm" id="path14" style="stroke:#0000ff;stroke-opacity:1;stroke-width:0.1;stroke-miterlimit:4;stroke-dasharray:none"/>
  <rect y="25.724531" x="-36.132141" height="2.3118923" width="0.47832254" id="rect17" style="fill:#000000;fill-rule:evenodd;stroke:none;stroke-width:0.1;stroke-linecap:round;stroke-linejoin:round;paint-order:stroke fill markers"/>
  <rect style="fill:#000000;fill-rule:evenodd;stroke:none;stroke-width:0.1;stroke-linecap:round;stroke-linejoin:round;paint-order:stroke fill markers" id="rect17-7" width="0.47832254" height="2.3118923" x="-34.577591" y="25.724627"/>
  <rect style="fill:#000000;fill-rule:evenodd;stroke:none;stroke-width:0.1;stroke-linecap:round;stroke-linejoin:round;paint-order:stroke fill markers" id="rect17-9" width="0.47832254" height="2.3118923" x="24.714472" y="25.724531"/>
  <rect y="25.724627" x="26.269022" height="2.3118923" width="0.47832254" id="rect17-7-0" style="fill:#000000;fill-rule:evenodd;stroke:none;stroke-width:0.1;stroke-linecap:round;stroke-linejoin:round;paint-order:stroke fill markers"/>
  <rect style="fill:#000000;fill-rule:evenodd;stroke:none;stroke-width:0.1;stroke-linecap:round;stroke-linejoin:round;paint-order:stroke fill markers" id="rect23" width="0.47832254" height="2.3118923" x="-21.378635" y="25.724531"/>
  <rect y="25.724627" x="-19.824085" height="2.3118923" width="0.47832254" id="rect25" style="fill:#000000;fill-rule:evenodd;stroke:none;stroke-width:0.1;stroke-linecap:round;stroke-linejoin:round;paint-order:stroke fill markers"/>
  <rect style="fill:#000000;fill-rule:evenodd;stroke:none;stroke-width:0.1;stroke-linecap:round;stroke-linejoin:round;paint-order:stroke fill markers" id="rect27" width="0.47832254" height="2.3118923" x="-18.26965" y="25.724627"/>
  <rect y="25.724531" x="3.930984" height="2.3118923" width="0.47832254" id="rect29" style="fill:#000000;fill-rule:evenodd;stroke:none;stroke-width:0.1;stroke-linecap:round;stroke-linejoin:round;paint-order:stroke fill markers"/>
  <rect style="fill:#000000;fill-rule:evenodd;stroke:none;stroke-width:0.1;stroke-linecap:round;stroke-linejoin:round;paint-order:stroke fill markers" id="rect31" width="0.47832254" height="2.3118923" x="5.4855342" y="25.724627"/>
  <rect y="25.724627" x="7.0399699" height="2.3118923" width="0.47832254" id="rect33" style="fill:#000000;fill-rule:evenodd;stroke:none;stroke-width:0.1;stroke-linecap:round;stroke-linejoin:round;paint-order:stroke fill markers"/>
  <rect style="fill:#000000;fill-rule:evenodd;stroke:none;stroke-width:0.1;stroke-linecap:round;stroke-linejoin:round;paint-order:stroke fill markers" id="rect35" width="0.47832254" height="2.3118923" x="10.66855" y="-36.763412"/>
  <rect y="-36.763428" x="25.731422" height="2.3118923" width="0.47832254" id="rect37" style="fill:#000000;fill-rule:evenodd;stroke:none;stroke-width:0.1;stroke-linecap:round;stroke-linejoin:round;paint-order:stroke fill markers"/>
</svg>
