999
dxfrw 0.6.3
  0
SECTION
  2
HEADER
  9
$ACADVER
  1
AC1021
  9
$DWGCODEPAGE
  3
ANSI_932
  9
$INSBASE
 10
0
 20
0
 30
0
  9
$EXTMIN
 10
16.18151921238323
 20
226.88736492183
 30
0
  9
$EXTMAX
 10
393.7566230427327
 20
603.1233925901047
 30
0
  9
$LIMMIN
 10
0
 20
0
  9
$LIMMAX
 10
12
 20
9
  9
$ORTHOMODE
 70
    0
  9
$REGENMODE
 70
    1
  9
$FILLMODE
 70
    1
  9
$QTEXTMODE
 70
    0
  9
$MIRRTEXT
 70
    1
  9
$LTSCALE
 40
1
  9
$ATTMODE
 70
    1
  9
$TEXTSIZE
 40
0.2
  9
$TRACEWID
 40
0.05
  9
$TEXTSTYLE
  7
Standard
  9
$CLAYER
  8
0
  9
$CELTYPE
  6
ByLayer
  9
$CECOLOR
 62
  256
  9
$CELTSCALE
 40
1
  9
$DISPSILH
 70
    0
  9
$DIMSCALE
 40
1
  9
$DIMASZ
 40
0.18
  9
$DIMEXO
 40
0.0625
  9
$DIMDLI
 40
0.38
  9
$DIMRND
 40
0
  9
$DIMDLE
 40
0
  9
$DIMEXE
 40
0.18
  9
$DIMTP
 40
0
  9
$DIMTM
 40
0
  9
$DIMTXT
 40
0.18
  9
$DIMCEN
 40
0.09
  9
$DIMTSZ
 40
0
  9
$DIMTOL
 70
    0
  9
$DIMLIM
 70
    0
  9
$DIMTIH
 70
    1
  9
$DIMTOH
 70
    1
  9
$DIMSE1
 70
    0
  9
$DIMSE2
 70
    0
  9
$DIMTAD
 70
    0
  9
$DIMZIN
 70
    0
  9
$DIMBLK
  1

  9
$DIMASO
 70
    1
  9
$DIMSHO
 70
    1
  9
$DIMPOST
  1

  9
$DIMAPOST
  1

  9
$DIMALT
 70
    0
  9
$DIMALTD
 70
    2
  9
$DIMALTF
 40
25.4
  9
$DIMLFAC
 40
1
  9
$DIMTOFL
 70
    0
  9
$DIMTVP
 40
0
  9
$DIMTIX
 70
    0
  9
$DIMSOXD
 70
    0
  9
$DIMSAH
 70
    0
  9
$DIMBLK1
  1

  9
$DIMBLK2
  1

  9
$DIMSTYLE
  2
Standard
  9
$DIMCLRD
 70
    0
  9
$DIMCLRE
 70
    0
  9
$DIMCLRT
 70
    0
  9
$DIMTFAC
 40
1
  9
$DIMGAP
 40
0.09
  9
$DIMJUST
 70
    0
  9
$DIMSD1
 70
    0
  9
$DIMSD2
 70
    0
  9
$DIMTOLJ
 70
    1
  9
$DIMTZIN
 70
    0
  9
$DIMALTZ
 70
    0
  9
$DIMALTTZ
 70
    0
  9
$DIMUPT
 70
    0
  9
$DIMDEC
 70
    4
  9
$DIMTDEC
 70
    4
  9
$DIMALTU
 70
    2
  9
$DIMALTTD
 70
    2
  9
$DIMTXSTY
  7
Standard
  9
$DIMAUNIT
 70
    0
  9
$DIMADEC
 70
    0
  9
$DIMALTRND
 40
0
  9
$DIMAZIN
 70
    0
  9
$DIMDSEP
 70
   46
  9
$DIMATFIT
 70
    3
  9
$DIMFRAC
 70
    0
  9
$DIMLDRBLK
  1

  9
$DIMLUNIT
 70
    2
  9
$DIMLWD
 70
   -2
  9
$DIMLWE
 70
   -2
  9
$DIMTMOVE
 70
    0
  9
$DIMFXL
 40
1
  9
$DIMFXLON
 70
    0
  9
$DIMJOGANG
 40
0.7854
  9
$DIMTFILL
 70
    0
  9
$DIMTFILLCLR
 70
    0
  9
$DIMARCSYM
 70
    0
  9
$DIMLTYPE
  6

  9
$DIMLTEX1
  6

  9
$DIMLTEX2
  6

  9
$LUNITS
 70
    2
  9
$LUPREC
 70
    4
  9
$SKETCHINC
 40
0.1
  9
$FILLETRAD
 40
0.5
  9
$AUNITS
 70
    0
  9
$AUPREC
 70
    0
  9
$MENU
  1
.
  9
$ELEVATION
 40
0
  9
$PELEVATION
 40
0
  9
$THICKNESS
 40
0
  9
$LIMCHECK
 70
    0
  9
$CHAMFERA
 40
0.5
  9
$CHAMFERB
 40
0.5
  9
$CHAMFERC
 40
1
  9
$CHAMFERD
 40
0
  9
$SKPOLY
 70
    0
  9
$USRTIMER
 70
    1
  9
$ANGBASE
 50
0
  9
$ANGDIR
 70
    0
  9
$PDMODE
 70
    0
  9
$PDSIZE
 40
0
  9
$PLINEWID
 40
0
  9
$SPLFRAME
 70
    0
  9
$SPLINETYPE
 70
    6
  9
$SPLINESEGS
 70
    8
  9
$HANDSEED
  5
20000
  9
$SURFTAB1
 70
    6
  9
$SURFTAB2
 70
    6
  9
$SURFTYPE
 70
    6
  9
$SURFU
 70
    6
  9
$SURFV
 70
    6
  9
$UCSBASE
  2

  9
$UCSNAME
  2

  9
$UCSORG
 10
0
 20
0
 30
0
  9
$UCSXDIR
 10
1
 20
0
 30
0
  9
$UCSYDIR
 10
0
 20
1
 30
0
  9
$UCSORTHOREF
  2

  9
$UCSORTHOVIEW
 70
    0
  9
$UCSORGTOP
 10
0
 20
0
 30
0
  9
$UCSORGBOTTOM
 10
0
 20
0
 30
0
  9
$UCSORGLEFT
 10
0
 20
0
 30
0
  9
$UCSORGRIGHT
 10
0
 20
0
 30
0
  9
$UCSORGFRONT
 10
0
 20
0
 30
0
  9
$UCSORGBACK
 10
0
 20
0
 30
0
  9
$PUCSBASE
  2

  9
$PUCSNAME
  2

  9
$PUCSORG
 10
0
 20
0
 30
0
  9
$PUCSXDIR
 10
1
 20
0
 30
0
  9
$PUCSYDIR
 10
0
 20
1
 30
0
  9
$PUCSORTHOREF
  2

  9
$PUCSORTHOVIEW
 70
    0
  9
$PUCSORGTOP
 10
0
 20
0
 30
0
  9
$PUCSORGBOTTOM
 10
0
 20
0
 30
0
  9
$PUCSORGLEFT
 10
0
 20
0
 30
0
  9
$PUCSORGRIGHT
 10
0
 20
0
 30
0
  9
$PUCSORGFRONT
 10
0
 20
0
 30
0
  9
$PUCSORGBACK
 10
0
 20
0
 30
0
  9
$USERI1
 70
    0
  9
$USERI2
 70
    0
  9
$USERI3
 70
    0
  9
$USERI4
 70
    0
  9
$USERI5
 70
    0
  9
$USERR1
 40
0
  9
$USERR2
 40
0
  9
$USERR3
 40
0
  9
$USERR4
 40
0
  9
$USERR5
 40
0
  9
$WORLDVIEW
 70
    1
  9
$SHADEDGE
 70
    3
  9
$SHADEDIF
 70
   70
  9
$TILEMODE
 70
    1
  9
$MAXACTVP
 70
   64
  9
$PINSBASE
 10
0
 20
0
 30
0
  9
$PLIMCHECK
 70
    0
  9
$PEXTMIN
 10
1e+20
 20
1e+20
 30
1e+20
  9
$PEXTMAX
 10
-1e+20
 20
-1e+20
 30
-1e+20
  9
$GRIDMODE
 70
    1
  9
$SNAPSTYLE
 70
    0
  9
$PLIMMIN
 10
0
 20
0
  9
$PLIMMAX
 10
12
 20
9
  9
$UNITMODE
 70
    0
  9
$VISRETAIN
 70
    1
  9
$PLINEGEN
 70
    0
  9
$PSLTSCALE
 70
    1
  9
$TREEDEPTH
 70
 3020
  9
$CMLSTYLE
  2
Standard
  9
$CMLJUST
 70
    0
  9
$CMLSCALE
 40
1
  9
$PROXYGRAPHICS
 70
    1
  9
$MEASUREMENT
 70
    0
  9
$CELWEIGHT
370
   -1
  9
$ENDCAPS
280
    0
  9
$JOINSTYLE
280
    0
  9
$LWDISPLAY
290
    1
  9
$INSUNITS
 70
    1
  9
$HYPERLINKBASE
  1

  9
$STYLESHEET
  1

  9
$XEDIT
290
    1
  9
$CEPSNTYPE
380
    0
  9
$PSTYLEMODE
290
    1
  9
$EXTNAMES
290
    1
  9
$PSVPSCALE
 40
0
  9
$OLESTARTUP
290
    0
  9
$SORTENTS
280
  127
  9
$INDEXCTL
280
    0
  9
$HIDETEXT
280
    1
  9
$XCLIPFRAME
290
    0
  9
$HALOGAP
280
    0
  9
$OBSCOLOR
 70
  257
  9
$OBSLTYPE
280
    0
  9
$INTERSECTIONDISPLAY
280
    0
  9
$INTERSECTIONCOLOR
 70
  257
  9
$DIMASSOC
280
    2
  9
$PROJECTNAME
  1

  9
$CAMERADISPLAY
290
    0
  9
$LENSLENGTH
 40
50
  9
$CAMERAHEIGHT
 40
0
  9
$STEPSPERSEC
 40
2
  9
$STEPSIZE
 40
50
  9
$3DDWFPREC
 40
2
  9
$PSOLWIDTH
 40
5
  9
$PSOLHEIGHT
 40
80
  9
$LOFTANG1
 40
1.570796326794897
  9
$LOFTANG2
 40
1.570796326794897
  9
$LOFTMAG1
 40
0
  9
$LOFTMAG2
 40
0
  9
$LOFTPARAM
 70
    7
  9
$LOFTNORMALS
280
    1
  9
$LATITUDE
 40
1
  9
$LONGITUDE
 40
1
  9
$NORTHDIRECTION
 40
0
  9
$TIMEZONE
 70
-8000
  9
$LIGHTGLYPHDISPLAY
280
    1
  9
$TILEMODELIGHTSYNCH
280
    1
  9
$SOLIDHIST
280
    1
  9
$SHOWHIST
280
    1
  9
$DWFFRAME
280
    2
  9
$DGNFRAME
280
    0
  9
$REALWORLDSCALE
290
    1
  9
$INTERFERECOLOR
 62
    1
  9
$CSHADOW
280
    0
  9
$SHADOWPLANELOCATION
 40
0
  0
ENDSEC
  0
SECTION
  2
CLASSES
  0
ENDSEC
  0
SECTION
  2
TABLES
  0
TABLE
  2
VPORT
  5
8
330
0
100
AcDbSymbolTable
 70
    1
  0
VPORT
  5
31
330
2
100
AcDbSymbolTableRecord
100
AcDbViewportTableRecord
  2
*ACTIVE
 70
    0
 10
0
 20
0
 11
1
 21
1
 12
397.2868662991987
 22
388.6726671166488
 13
0
 23
0
 14
10
 24
10
 15
10
 25
10
 16
0
 26
0
 36
1
 17
0
 27
0
 37
0
 40
576.8067772635374
 41
1.859020310633214
 42
50
 43
0
 44
0
 50
0
 51
0
 71
    0
 72
  100
 73
    1
 74
    3
 75
    0
 76
    1
 77
    0
 78
    0
281
    0
 65
    1
110
0
120
0
130
0
111
1
121
0
131
0
112
0
122
1
132
0
 79
    0
146
0
348
10020
 60
    7
 61
    5
292
1
282
    1
141
0
142
0
 63
  250
421
3358443
  0
ENDTAB
  0
TABLE
  2
LTYPE
  5
5
330
0
100
AcDbSymbolTable
 70
    4
  0
LTYPE
  5
14
330
5
100
AcDbSymbolTableRecord
100
AcDbLinetypeTableRecord
  2
ByBlock
 70
    0
  3

 72
   65
 73
    0
 40
0
  0
LTYPE
  5
15
330
5
100
AcDbSymbolTableRecord
100
AcDbLinetypeTableRecord
  2
ByLayer
 70
    0
  3

 72
   65
 73
    0
 40
0
  0
LTYPE
  5
16
330
5
100
AcDbSymbolTableRecord
100
AcDbLinetypeTableRecord
  2
Continuous
 70
    0
  3
Solid line
 72
   65
 73
    0
 40
0
  0
LTYPE
  5
32
330
5
100
AcDbSymbolTableRecord
100
AcDbLinetypeTableRecord
  2
DOT
 70
    0
  3
Dot . . . . . . . . . . . . . . . . . . . . . .
 72
   65
 73
    2
 40
6.35
 49
0
 74
    0
 49
-6.35
 74
    0
  0
LTYPE
  5
33
330
5
100
AcDbSymbolTableRecord
100
AcDbLinetypeTableRecord
  2
DOTTINY
 70
    0
  3
Dot (.15x) .....................................
 72
   65
 73
    2
 40
0.9525
 49
0
 74
    0
 49
-0.9525
 74
    0
  0
LTYPE
  5
34
330
5
100
AcDbSymbolTableRecord
100
AcDbLinetypeTableRecord
  2
DOT2
 70
    0
  3
Dot (.5x) .....................................
 72
   65
 73
    2
 40
3.175
 49
0
 74
    0
 49
-3.175
 74
    0
  0
LTYPE
  5
35
330
5
100
AcDbSymbolTableRecord
100
AcDbLinetypeTableRecord
  2
DOTX2
 70
    0
  3
Dot (2x) .  .  .  .  .  .  .  .  .  .  .  .  .
 72
   65
 73
    2
 40
12.7
 49
0
 74
    0
 49
-12.7
 74
    0
  0
LTYPE
  5
36
330
5
100
AcDbSymbolTableRecord
100
AcDbLinetypeTableRecord
  2
DASHED
 70
    0
  3
Dashed _ _ _ _ _ _ _ _ _ _ _ _ _ _ _ _ _
 72
   65
 73
    2
 40
19.05
 49
12.7
 74
    0
 49
-6.35
 74
    0
  0
LTYPE
  5
37
330
5
100
AcDbSymbolTableRecord
100
AcDbLinetypeTableRecord
  2
DASHEDTINY
 70
    0
  3
Dashed (.15x) _ _ _ _ _ _ _ _ _ _ _ _ _ _ _ _ _
 72
   65
 73
    2
 40
2.8575
 49
1.905
 74
    0
 49
-0.9525
 74
    0
  0
LTYPE
  5
38
330
5
100
AcDbSymbolTableRecord
100
AcDbLinetypeTableRecord
  2
DASHED2
 70
    0
  3
Dashed (.5x) _ _ _ _ _ _ _ _ _ _ _ _ _ _ _ _ _
 72
   65
 73
    2
 40
9.524999999999999
 49
6.35
 74
    0
 49
-3.175
 74
    0
  0
LTYPE
  5
39
330
5
100
AcDbSymbolTableRecord
100
AcDbLinetypeTableRecord
  2
DASHEDX2
 70
    0
  3
Dashed (2x) ____  ____  ____  ____  ____  ___
 72
   65
 73
    2
 40
38.09999999999999
 49
25.4
 74
    0
 49
-12.7
 74
    0
  0
LTYPE
  5
3A
330
5
100
AcDbSymbolTableRecord
100
AcDbLinetypeTableRecord
  2
DASHDOT
 70
    0
  3
Dash dot __ . __ . __ . __ . __ . __ . __ . __
 72
   65
 73
    4
 40
25.4
 49
12.7
 74
    0
 49
-6.35
 74
    0
 49
0
 74
    0
 49
-6.35
 74
    0
  0
LTYPE
  5
3B
330
5
100
AcDbSymbolTableRecord
100
AcDbLinetypeTableRecord
  2
DASHDOTTINY
 70
    0
  3
Dash dot (.15x) _._._._._._._._._._._._._._._.
 72
   65
 73
    4
 40
3.81
 49
1.905
 74
    0
 49
-0.9525
 74
    0
 49
0
 74
    0
 49
-0.9525
 74
    0
  0
LTYPE
  5
3C
330
5
100
AcDbSymbolTableRecord
100
AcDbLinetypeTableRecord
  2
DASHDOT2
 70
    0
  3
Dash dot (.5x) _._._._._._._._._._._._._._._.
 72
   65
 73
    4
 40
12.7
 49
6.35
 74
    0
 49
-3.175
 74
    0
 49
0
 74
    0
 49
-3.175
 74
    0
  0
LTYPE
  5
3D
330
5
100
AcDbSymbolTableRecord
100
AcDbLinetypeTableRecord
  2
DASHDOTX2
 70
    0
  3
Dash dot (2x) ____  .  ____  .  ____  .  ___
 72
   65
 73
    4
 40
50.8
 49
25.4
 74
    0
 49
-12.7
 74
    0
 49
0
 74
    0
 49
-12.7
 74
    0
  0
LTYPE
  5
3E
330
5
100
AcDbSymbolTableRecord
100
AcDbLinetypeTableRecord
  2
DIVIDE
 70
    0
  3
Divide ____ . . ____ . . ____ . . ____ . . ____
 72
   65
 73
    6
 40
31.75
 49
12.7
 74
    0
 49
-6.35
 74
    0
 49
0
 74
    0
 49
-6.35
 74
    0
 49
0
 74
    0
 49
-6.35
 74
    0
  0
LTYPE
  5
3F
330
5
100
AcDbSymbolTableRecord
100
AcDbLinetypeTableRecord
  2
DIVIDETINY
 70
    0
  3
Divide (.15x) __..__..__..__..__..__..__..__.._
 72
   65
 73
    6
 40
4.7625
 49
1.905
 74
    0
 49
-0.9525
 74
    0
 49
0
 74
    0
 49
-0.9525
 74
    0
 49
0
 74
    0
 49
-0.9525
 74
    0
  0
LTYPE
  5
40
330
5
100
AcDbSymbolTableRecord
100
AcDbLinetypeTableRecord
  2
DIVIDE2
 70
    0
  3
Divide (.5x) __..__..__..__..__..__..__..__.._
 72
   65
 73
    6
 40
15.875
 49
6.35
 74
    0
 49
-3.175
 74
    0
 49
0
 74
    0
 49
-3.175
 74
    0
 49
0
 74
    0
 49
-3.175
 74
    0
  0
LTYPE
  5
41
330
5
100
AcDbSymbolTableRecord
100
AcDbLinetypeTableRecord
  2
DIVIDEX2
 70
    0
  3
Divide (2x) ________  .  .  ________  .  .  _
 72
   65
 73
    6
 40
63.5
 49
25.4
 74
    0
 49
-12.7
 74
    0
 49
0
 74
    0
 49
-12.7
 74
    0
 49
0
 74
    0
 49
-12.7
 74
    0
  0
LTYPE
  5
42
330
5
100
AcDbSymbolTableRecord
100
AcDbLinetypeTableRecord
  2
BORDER
 70
    0
  3
Border __ __ . __ __ . __ __ . __ __ . __ __ .
 72
   65
 73
    6
 40
44.45
 49
12.7
 74
    0
 49
-6.35
 74
    0
 49
12.7
 74
    0
 49
-6.35
 74
    0
 49
0
 74
    0
 49
-6.35
 74
    0
  0
LTYPE
  5
43
330
5
100
AcDbSymbolTableRecord
100
AcDbLinetypeTableRecord
  2
BORDERTINY
 70
    0
  3
Border (.15x) __.__.__.__.__.__.__.__.__.__.__.
 72
   65
 73
    6
 40
6.6675
 49
1.905
 74
    0
 49
-0.9525
 74
    0
 49
1.905
 74
    0
 49
-0.9525
 74
    0
 49
0
 74
    0
 49
-0.9525
 74
    0
  0
LTYPE
  5
44
330
5
100
AcDbSymbolTableRecord
100
AcDbLinetypeTableRecord
  2
BORDER2
 70
    0
  3
Border (.5x) __.__.__.__.__.__.__.__.__.__.__.
 72
   65
 73
    6
 40
22.225
 49
6.35
 74
    0
 49
-3.175
 74
    0
 49
6.35
 74
    0
 49
-3.175
 74
    0
 49
0
 74
    0
 49
-3.175
 74
    0
  0
LTYPE
  5
45
330
5
100
AcDbSymbolTableRecord
100
AcDbLinetypeTableRecord
  2
BORDERX2
 70
    0
  3
Border (2x) ____  ____  .  ____  ____  .  ___
 72
   65
 73
    6
 40
88.89999999999999
 49
25.4
 74
    0
 49
-12.7
 74
    0
 49
25.4
 74
    0
 49
-12.7
 74
    0
 49
0
 74
    0
 49
-12.7
 74
    0
  0
LTYPE
  5
46
330
5
100
AcDbSymbolTableRecord
100
AcDbLinetypeTableRecord
  2
CENTER
 70
    0
  3
Center ____ _ ____ _ ____ _ ____ _ ____ _ ____
 72
   65
 73
    4
 40
50.8
 49
31.75
 74
    0
 49
-6.35
 74
    0
 49
6.35
 74
    0
 49
-6.35
 74
    0
  0
LTYPE
  5
47
330
5
100
AcDbSymbolTableRecord
100
AcDbLinetypeTableRecord
  2
CENTERTINY
 70
    0
  3
Center (.15x) ___ _ ___ _ ___ _ ___ _ ___ _ ___
 72
   65
 73
    4
 40
7.619999999999999
 49
4.7625
 74
    0
 49
-0.9525
 74
    0
 49
0.9525
 74
    0
 49
-0.9525
 74
    0
  0
LTYPE
  5
48
330
5
100
AcDbSymbolTableRecord
100
AcDbLinetypeTableRecord
  2
CENTER2
 70
    0
  3
Center (.5x) ___ _ ___ _ ___ _ ___ _ ___ _ ___
 72
   65
 73
    4
 40
28.575
 49
19.05
 74
    0
 49
-3.175
 74
    0
 49
3.175
 74
    0
 49
-3.175
 74
    0
  0
LTYPE
  5
49
330
5
100
AcDbSymbolTableRecord
100
AcDbLinetypeTableRecord
  2
CENTERX2
 70
    0
  3
Center (2x) ________  __  ________  __  _____
 72
   65
 73
    4
 40
101.6
 49
63.5
 74
    0
 49
-12.7
 74
    0
 49
12.7
 74
    0
 49
-12.7
 74
    0
  0
ENDTAB
  0
TABLE
  2
LAYER
  5
2
330
0
100
AcDbSymbolTable
 70
    1
  0
LAYER
  5
10
330
2
100
AcDbSymbolTableRecord
100
AcDbLayerTableRecord
  2
0
 70
    0
 62
    7
  6
CONTINUOUS
370
   -3
390
F
  0
LAYER
  5
4A
330
2
100
AcDbSymbolTableRecord
100
AcDbLayerTableRecord
  2
Layer 4
 70
    0
 62
    7
  6
CONTINUOUS
370
   -3
390
F
  0
LAYER
  5
4B
330
2
100
AcDbSymbolTableRecord
100
AcDbLayerTableRecord
  2
Layer 5
 70
    0
 62
    7
  6
CONTINUOUS
370
   -3
390
F
  0
LAYER
  5
4C
330
2
100
AcDbSymbolTableRecord
100
AcDbLayerTableRecord
  2
Layer 8
 70
    0
 62
    7
  6
CONTINUOUS
370
   -3
390
F
  0
ENDTAB
  0
TABLE
  2
STYLE
  5
3
330
0
100
AcDbSymbolTable
 70
    3
  0
STYLE
  5
4D
330
2
100
AcDbSymbolTableRecord
100
AcDbTextStyleTableRecord
  2
Standard
 70
    0
 40
0
 41
1
 50
0
 71
    0
 42
1
  3
txt
  4

  0
ENDTAB
  0
TABLE
  2
VIEW
  5
6
330
0
100
AcDbSymbolTable
 70
    0
  0
ENDTAB
  0
TABLE
  2
UCS
  5
7
330
0
100
AcDbSymbolTable
 70
    0
  0
ENDTAB
  0
TABLE
  2
APPID
  5
9
330
0
100
AcDbSymbolTable
 70
    1
  0
APPID
  5
12
330
9
100
AcDbSymbolTableRecord
100
AcDbRegAppTableRecord
  2
ACAD
 70
    0
  0
APPID
  5
4E
330
9
100
AcDbSymbolTableRecord
100
AcDbRegAppTableRecord
  2
LibreCad
 70
    0
  0
ENDTAB
  0
TABLE
  2
DIMSTYLE
  5
A
330
0
100
AcDbSymbolTable
 70
    1
100
AcDbDimStyleTable
 71
    1
  0
DIMSTYLE
105
4F
330
A
100
AcDbSymbolTableRecord
100
AcDbDimStyleTableRecord
  2
Standard
 70
    0
 40
1
 41
0.18
 42
0.0625
 43
0.38
 44
0.18
 45
0
 46
0
 47
0
 48
0
 49
1
140
0.18
141
0.09
142
0
143
25.4
144
1
145
0
146
1
147
0.09
148
0
 71
    0
 72
    0
 73
    1
 74
    1
 75
    0
 76
    0
 77
    0
 78
    0
 79
    0
170
    0
171
    2
172
    0
173
    0
174
    0
175
    0
176
    0
177
    0
178
    0
179
    0
271
    4
272
    4
273
    2
274
    2
275
    0
276
    0
277
    2
278
   46
279
    0
280
    0
281
    0
282
    0
283
    1
284
    0
285
    0
286
    0
288
    0
289
    3
340
Standard
341

371
   -2
372
   -2
  0
ENDTAB
  0
TABLE
  2
BLOCK_RECORD
  5
1
330
0
100
AcDbSymbolTable
 70
    2
  0
BLOCK_RECORD
  5
1F
330
1
100
AcDbSymbolTableRecord
100
AcDbBlockTableRecord
  2
*Model_Space
 70
    0
280
    1
281
    0
  0
BLOCK_RECORD
  5
1E
330
1
100
AcDbSymbolTableRecord
100
AcDbBlockTableRecord
  2
*Paper_Space
 70
    0
280
    1
281
    0
  0
BLOCK_RECORD
  5
50
330
1
100
AcDbSymbolTableRecord
100
AcDbBlockTableRecord
  2
block 2
 70
    0
280
    1
281
    0
  0
BLOCK_RECORD
  5
53
330
1
100
AcDbSymbolTableRecord
100
AcDbBlockTableRecord
  2
block 3
 70
    0
280
    1
281
    0
  0
BLOCK_RECORD
  5
56
330
1
100
AcDbSymbolTableRecord
100
AcDbBlockTableRecord
  2
block 4
 70
    0
280
    1
281
    0
  0
BLOCK_RECORD
  5
59
330
1
100
AcDbSymbolTableRecord
100
AcDbBlockTableRecord
  2
block 5
 70
    0
280
    1
281
    0
  0
BLOCK_RECORD
  5
5C
330
1
100
AcDbSymbolTableRecord
100
AcDbBlockTableRecord
  2
block 6
 70
    0
280
    1
281
    0
  0
BLOCK_RECORD
  5
5F
330
1
100
AcDbSymbolTableRecord
100
AcDbBlockTableRecord
  2
block 7
 70
    0
280
    1
281
    0
  0
BLOCK_RECORD
  5
62
330
1
100
AcDbSymbolTableRecord
100
AcDbBlockTableRecord
  2
block 8
 70
    0
280
    1
281
    0
  0
BLOCK_RECORD
  5
65
330
1
100
AcDbSymbolTableRecord
100
AcDbBlockTableRecord
  2
block 9
 70
    0
280
    1
281
    0
  0
BLOCK_RECORD
  5
68
330
1
100
AcDbSymbolTableRecord
100
AcDbBlockTableRecord
  2
block 10
 70
    0
280
    1
281
    0
  0
BLOCK_RECORD
  5
6B
330
1
100
AcDbSymbolTableRecord
100
AcDbBlockTableRecord
  2
block 11
 70
    0
280
    1
281
    0
  0
BLOCK_RECORD
  5
6E
330
1
100
AcDbSymbolTableRecord
100
AcDbBlockTableRecord
  2
block 12
 70
    0
280
    1
281
    0
  0
BLOCK_RECORD
  5
71
330
1
100
AcDbSymbolTableRecord
100
AcDbBlockTableRecord
  2
block 13
 70
    0
280
    1
281
    0
  0
BLOCK_RECORD
  5
74
330
1
100
AcDbSymbolTableRecord
100
AcDbBlockTableRecord
  2
block 14
 70
    0
280
    1
281
    0
  0
BLOCK_RECORD
  5
77
330
1
100
AcDbSymbolTableRecord
100
AcDbBlockTableRecord
  2
block 15
 70
    0
280
    1
281
    0
  0
BLOCK_RECORD
  5
7A
330
1
100
AcDbSymbolTableRecord
100
AcDbBlockTableRecord
  2
block 16
 70
    0
280
    1
281
    0
  0
BLOCK_RECORD
  5
7D
330
1
100
AcDbSymbolTableRecord
100
AcDbBlockTableRecord
  2
block 17
 70
    0
280
    1
281
    0
  0
BLOCK_RECORD
  5
80
330
1
100
AcDbSymbolTableRecord
100
AcDbBlockTableRecord
  2
block 18
 70
    0
280
    1
281
    0
  0
BLOCK_RECORD
  5
83
330
1
100
AcDbSymbolTableRecord
100
AcDbBlockTableRecord
  2
block 19
 70
    0
280
    1
281
    0
  0
BLOCK_RECORD
  5
86
330
1
100
AcDbSymbolTableRecord
100
AcDbBlockTableRecord
  2
block 20
 70
    0
280
    1
281
    0
  0
BLOCK_RECORD
  5
89
330
1
100
AcDbSymbolTableRecord
100
AcDbBlockTableRecord
  2
block 21
 70
    0
280
    1
281
    0
  0
BLOCK_RECORD
  5
8C
330
1
100
AcDbSymbolTableRecord
100
AcDbBlockTableRecord
  2
block 22
 70
    0
280
    1
281
    0
  0
BLOCK_RECORD
  5
8F
330
1
100
AcDbSymbolTableRecord
100
AcDbBlockTableRecord
  2
block 23
 70
    0
280
    1
281
    0
  0
BLOCK_RECORD
  5
92
330
1
100
AcDbSymbolTableRecord
100
AcDbBlockTableRecord
  2
block 24
 70
    0
280
    1
281
    0
  0
BLOCK_RECORD
  5
95
330
1
100
AcDbSymbolTableRecord
100
AcDbBlockTableRecord
  2
block 25
 70
    0
280
    1
281
    0
  0
BLOCK_RECORD
  5
98
330
1
100
AcDbSymbolTableRecord
100
AcDbBlockTableRecord
  2
block 26
 70
    0
280
    1
281
    0
  0
BLOCK_RECORD
  5
9B
330
1
100
AcDbSymbolTableRecord
100
AcDbBlockTableRecord
  2
block 27
 70
    0
280
    1
281
    0
  0
BLOCK_RECORD
  5
9E
330
1
100
AcDbSymbolTableRecord
100
AcDbBlockTableRecord
  2
block 28
 70
    0
280
    1
281
    0
  0
BLOCK_RECORD
  5
A1
330
1
100
AcDbSymbolTableRecord
100
AcDbBlockTableRecord
  2
block 29
 70
    0
280
    1
281
    0
  0
BLOCK_RECORD
  5
A4
330
1
100
AcDbSymbolTableRecord
100
AcDbBlockTableRecord
  2
block 30
 70
    0
280
    1
281
    0
  0
BLOCK_RECORD
  5
A7
330
1
100
AcDbSymbolTableRecord
100
AcDbBlockTableRecord
  2
block 31
 70
    0
280
    1
281
    0
  0
BLOCK_RECORD
  5
AA
330
1
100
AcDbSymbolTableRecord
100
AcDbBlockTableRecord
  2
block 32
 70
    0
280
    1
281
    0
  0
BLOCK_RECORD
  5
AD
330
1
100
AcDbSymbolTableRecord
100
AcDbBlockTableRecord
  2
block 33
 70
    0
280
    1
281
    0
  0
BLOCK_RECORD
  5
B0
330
1
100
AcDbSymbolTableRecord
100
AcDbBlockTableRecord
  2
block 34
 70
    0
280
    1
281
    0
  0
BLOCK_RECORD
  5
B3
330
1
100
AcDbSymbolTableRecord
100
AcDbBlockTableRecord
  2
block 35
 70
    0
280
    1
281
    0
  0
BLOCK_RECORD
  5
B6
330
1
100
AcDbSymbolTableRecord
100
AcDbBlockTableRecord
  2
block 36
 70
    0
280
    1
281
    0
  0
BLOCK_RECORD
  5
B9
330
1
100
AcDbSymbolTableRecord
100
AcDbBlockTableRecord
  2
block 37
 70
    0
280
    1
281
    0
  0
BLOCK_RECORD
  5
BC
330
1
100
AcDbSymbolTableRecord
100
AcDbBlockTableRecord
  2
block 38
 70
    0
280
    1
281
    0
  0
BLOCK_RECORD
  5
BF
330
1
100
AcDbSymbolTableRecord
100
AcDbBlockTableRecord
  2
block 39
 70
    0
280
    1
281
    0
  0
BLOCK_RECORD
  5
C2
330
1
100
AcDbSymbolTableRecord
100
AcDbBlockTableRecord
  2
block 40
 70
    0
280
    1
281
    0
  0
BLOCK_RECORD
  5
C5
330
1
100
AcDbSymbolTableRecord
100
AcDbBlockTableRecord
  2
block 41
 70
    0
280
    1
281
    0
  0
BLOCK_RECORD
  5
C8
330
1
100
AcDbSymbolTableRecord
100
AcDbBlockTableRecord
  2
block 42
 70
    0
280
    1
281
    0
  0
BLOCK_RECORD
  5
CB
330
1
100
AcDbSymbolTableRecord
100
AcDbBlockTableRecord
  2
block 43
 70
    0
280
    1
281
    0
  0
BLOCK_RECORD
  5
CE
330
1
100
AcDbSymbolTableRecord
100
AcDbBlockTableRecord
  2
block 44
 70
    0
280
    1
281
    0
  0
BLOCK_RECORD
  5
D1
330
1
100
AcDbSymbolTableRecord
100
AcDbBlockTableRecord
  2
block 45
 70
    0
280
    1
281
    0
  0
BLOCK_RECORD
  5
D4
330
1
100
AcDbSymbolTableRecord
100
AcDbBlockTableRecord
  2
block 46
 70
    0
280
    1
281
    0
  0
BLOCK_RECORD
  5
D7
330
1
100
AcDbSymbolTableRecord
100
AcDbBlockTableRecord
  2
block 11-0
 70
    0
280
    1
281
    0
  0
BLOCK_RECORD
  5
DA
330
1
100
AcDbSymbolTableRecord
100
AcDbBlockTableRecord
  2
block 11-1
 70
    0
280
    1
281
    0
  0
BLOCK_RECORD
  5
DD
330
1
100
AcDbSymbolTableRecord
100
AcDbBlockTableRecord
  2
block 2-0
 70
    0
280
    1
281
    0
  0
BLOCK_RECORD
  5
E0
330
1
100
AcDbSymbolTableRecord
100
AcDbBlockTableRecord
  2
block 2-1
 70
    0
280
    1
281
    0
  0
BLOCK_RECORD
  5
E3
330
1
100
AcDbSymbolTableRecord
100
AcDbBlockTableRecord
  2
block 2-2
 70
    0
280
    1
281
    0
  0
BLOCK_RECORD
  5
E6
330
1
100
AcDbSymbolTableRecord
100
AcDbBlockTableRecord
  2
block 2-3
 70
    0
280
    1
281
    0
  0
BLOCK_RECORD
  5
E9
330
1
100
AcDbSymbolTableRecord
100
AcDbBlockTableRecord
  2
block 2-4
 70
    0
280
    1
281
    0
  0
ENDTAB
  0
ENDSEC
  0
SECTION
  2
BLOCKS
  0
BLOCK
  5
20
330
1F
100
AcDbEntity
  8
0
100
AcDbBlockBegin
  2
*Model_Space
 70
    0
 10
0
 20
0
 30
0
  3
*Model_Space
  1

  0
ENDBLK
  5
21
330
1F
100
AcDbEntity
  8
0
100
AcDbBlockEnd
  0
BLOCK
  5
1C
330
1B
100
AcDbEntity
  8
0
100
AcDbBlockBegin
  2
*Paper_Space
 70
    0
 10
0
 20
0
 30
0
  3
*Paper_Space
  1

  0
ENDBLK
  5
1D
330
1F
100
AcDbEntity
  8
0
100
AcDbBlockEnd
  0
BLOCK
  5
51
330
50
100
AcDbEntity
  8
0
100
AcDbBlockBegin
  2
block 2
 70
    0
 10
0
 20
0
  3
block 2
  1

  0
INSERT
  5
EC
100
AcDbEntity
  8
Layer 8
  6
ByLayer
 62
  256
370
   -1
100
AcDbBlockReference
  2
block 3
 10
0
 20
0
 30
0
 41
1
 42
1
 43
0
 50
0
 70
    1
 71
    1
 44
0
 45
0
  0
INSERT
  5
ED
100
AcDbEntity
  8
Layer 8
  6
ByLayer
 62
  256
370
   -1
100
AcDbBlockReference
  2
block 10
 10
0
 20
0
 30
0
 41
1
 42
1
 43
0
 50
0
 70
    1
 71
    1
 44
0
 45
0
  0
ENDBLK
  5
52
330
50
100
AcDbEntity
  8
0
100
AcDbBlockEnd
  0
BLOCK
  5
54
330
53
100
AcDbEntity
  8
0
100
AcDbBlockBegin
  2
block 3
 70
    0
 10
0
 20
0
  3
block 3
  1

  0
INSERT
  5
EE
100
AcDbEntity
  8
Layer 8
  6
ByLayer
 62
  256
370
   -1
100
AcDbBlockReference
  2
block 4
 10
0
 20
0
 30
0
 41
1
 42
1
 43
0
 50
0
 70
    1
 71
    1
 44
0
 45
0
  0
INSERT
  5
EF
100
AcDbEntity
  8
Layer 8
  6
ByLayer
 62
  256
370
   -1
100
AcDbBlockReference
  2
block 5
 10
0
 20
0
 30
0
 41
1
 42
1
 43
0
 50
0
 70
    1
 71
    1
 44
0
 45
0
  0
INSERT
  5
F0
100
AcDbEntity
  8
Layer 8
  6
ByLayer
 62
  256
370
   -1
100
AcDbBlockReference
  2
block 6
 10
0
 20
0
 30
0
 41
1
 42
1
 43
0
 50
0
 70
    1
 71
    1
 44
0
 45
0
  0
INSERT
  5
F1
100
AcDbEntity
  8
Layer 8
  6
ByLayer
 62
  256
370
   -1
100
AcDbBlockReference
  2
block 7
 10
0
 20
0
 30
0
 41
1
 42
1
 43
0
 50
0
 70
    1
 71
    1
 44
0
 45
0
  0
LWPOLYLINE
  5
F2
100
AcDbEntity
  8
Layer 8
  6
ByLayer
 62
  256
370
    0
100
AcDbPolyline
 90
    5
 70
    0
 43
0
 10
22.82858072345952
 20
531.5744437690162
 10
19.82928059400101
 20
531.5744437690162
 10
19.82928059400101
 20
521.57470961353
 10
22.82858072345952
 20
521.57470961353
 10
22.82858072345952
 20
531.5744437690162
  0
LWPOLYLINE
  5
F3
100
AcDbEntity
  8
Layer 8
  6
ByLayer
 62
  256
370
    0
100
AcDbPolyline
 90
    5
 70
    0
 43
0
 10
22.82858072345952
 20
591.9883272174543
 10
19.82928059400101
 20
591.9883272174543
 10
19.82928059400101
 20
581.9885930619681
 10
22.82858072345952
 20
581.9885930619681
 10
22.82858072345952
 20
591.9883272174543
  0
LWPOLYLINE
  5
F4
100
AcDbEntity
  8
Layer 8
  6
ByLayer
 62
  256
370
    0
100
AcDbPolyline
 90
    5
 70
    0
 43
0
 10
111.5845757099511
 20
531.5744437690162
 10
108.5845865613955
 20
531.5744437690162
 10
108.5845865613955
 20
521.57470961353
 10
111.5845757099511
 20
521.57470961353
 10
111.5845757099511
 20
531.5744437690162
  0
LWPOLYLINE
  5
F5
100
AcDbEntity
  8
Layer 8
  6
ByLayer
 62
  256
370
    0
100
AcDbPolyline
 90
    5
 70
    0
 43
0
 10
111.5845757099511
 20
591.9883272174543
 10
108.5845865613955
 20
591.9883272174543
 10
108.5845865613955
 20
581.9885930619681
 10
111.5845757099511
 20
581.9885930619681
 10
111.5845757099511
 20
591.9883272174543
  0
INSERT
  5
F6
100
AcDbEntity
  8
Layer 8
  6
ByLayer
 62
  256
370
   -1
100
AcDbBlockReference
  2
block 8
 10
0
 20
0
 30
0
 41
1
 42
1
 43
0
 50
0
 70
    1
 71
    1
 44
0
 45
0
  0
INSERT
  5
F7
100
AcDbEntity
  8
Layer 8
  6
ByLayer
 62
  256
370
   -1
100
AcDbBlockReference
  2
block 9
 10
0
 20
0
 30
0
 41
1
 42
1
 43
0
 50
0
 70
    1
 71
    1
 44
0
 45
0
  0
SPLINE
  5
F8
100
AcDbEntity
  8
Layer 8
  6
ByLayer
 62
  256
370
    0
100
AcDbSpline
210
0
220
0
230
0
 70
   11
 71
    3
 72
   59
 73
   55
 74
    0
 42
1e-07
 43
1e-07
 40
0
 40
0
 40
0
 40
0
 40
1
 40
1
 40
1
 40
2
 40
2
 40
2
 40
3
 40
3
 40
3
 40
4
 40
4
 40
4
 40
5
 40
5
 40
5
 40
6
 40
6
 40
6
 40
7
 40
7
 40
7
 40
8
 40
8
 40
8
 40
9
 40
9
 40
9
 40
10
 40
10
 40
10
 40
11
 40
11
 40
11
 40
12
 40
12
 40
12
 40
13
 40
13
 40
13
 40
14
 40
14
 40
14
 40
15
 40
15
 40
15
 40
16
 40
16
 40
16
 40
17
 40
17
 40
17
 40
18
 40
18
 40
18
 40
18
 10
113.2389105619681
 20
602.7890460732611
 30
0
 10
113.2389105619681
 20
602.7890460732611
 30
0
 10
18.0846842402705
 20
602.7890460732611
 30
0
 10
18.0846842402705
 20
602.7890460732611
 30
0
 10
17.29851345053648
 20
602.7890460732611
 30
0
 10
16.66185980486231
 20
602.1503253702958
 30
0
 10
16.66185980486231
 20
601.3627765423677
 30
0
 10
16.66185980486231
 20
601.3627765423677
 30
0
 10
16.66185980486231
 20
577.3990368565184
 30
0
 10
16.66185980486231
 20
577.3990368565184
 30
0
 10
16.79656303833558
 20
576.7599716440045
 30
0
 10
17.36293673611065
 20
576.2797253333606
 30
0
 10
18.0419650562534
 20
576.2797253333606
 30
0
 10
18.0419650562534
 20
576.2797253333606
 30
0
 10
17.9937337194599
 20
576.2738686710358
 30
0
 10
17.9937337194599
 20
576.2738686710358
 30
0
 10
17.9937337194599
 20
576.2738686710358
 30
0
 10
22.39243163502689
 20
576.2738686710358
 30
0
 10
22.39243163502689
 20
576.2738686710358
 30
0
 10
23.2667968691833
 20
576.2738686710358
 30
0
 10
23.97579752004772
 20
575.6420381590409
 30
0
 10
23.97579752004772
 20
574.8627575602774
 30
0
 10
23.97579752004772
 20
574.8627575602774
 30
0
 10
23.97579752004772
 20
562.8173257056499
 30
0
 10
23.97579752004772
 20
562.8173257056499
 30
0
 10
23.97579752004772
 20
562.0380451068863
 30
0
 10
23.2667968691833
 20
561.4062145948915
 30
0
 10
22.39243163502689
 20
561.4062145948915
 30
0
 10
22.39243163502689
 20
561.4062145948915
 30
0
 10
18.0433430944475
 20
561.4096596903768
 30
0
 10
18.0433430944475
 20
561.4096596903768
 30
0
 10
18.0433430944475
 20
561.4096596903768
 30
0
 10
18.0378309416711
 20
561.4096596903768
 30
0
 10
18.0378309416711
 20
561.4096596903768
 30
0
 10
17.36362575520771
 20
561.4096596903768
 30
0
 10
16.80173068156346
 20
560.9359590611549
 30
0
 10
16.66185980486231
 20
560.3037840396116
 30
0
 10
16.66185980486231
 20
560.3037840396116
 30
0
 10
16.66185980486231
 20
512.2150741992032
 30
0
 10
16.66185980486231
 20
512.2150741992032
 30
0
 10
16.66185980486231
 20
511.4275253712751
 30
0
 10
17.29851345053648
 20
510.7888046683098
 30
0
 10
18.0846842402705
 20
510.7888046683098
 30
0
 10
18.0846842402705
 20
510.7888046683098
 30
0
 10
113.2389105619681
 20
510.7888046683098
 30
0
 10
113.2389105619681
 20
510.7888046683098
 30
0
 10
114.024392332605
 20
510.7888046683098
 30
0
 10
114.6617349973762
 20
511.4275253712751
 30
0
 10
114.6617349973762
 20
512.2150741992032
 30
0
 10
114.6617349973762
 20
512.2150741992032
 30
0
 10
114.6617349973762
 20
601.3627765423677
 30
0
 10
114.6617349973762
 20
601.3627765423677
 30
0
 10
114.6617349973762
 20
602.1503253702958
 30
0
 10
114.024392332605
 20
602.7890460732611
 30
0
 10
113.2389105619681
 20
602.7890460732611
 30
0
  0
ENDBLK
  5
55
330
53
100
AcDbEntity
  8
0
100
AcDbBlockEnd
  0
BLOCK
  5
57
330
56
100
AcDbEntity
  8
0
100
AcDbBlockBegin
  2
block 4
 70
    0
 10
0
 20
0
  3
block 4
  1

  0
SPLINE
  5
F9
100
AcDbEntity
  8
Layer 8
  6
ByLayer
 62
  256
370
    0
100
AcDbSpline
210
0
220
0
230
0
 70
   11
 71
    3
 72
   20
 73
   16
 74
    0
 42
1e-07
 43
1e-07
 40
0
 40
0
 40
0
 40
0
 40
1
 40
1
 40
1
 40
2
 40
2
 40
2
 40
3
 40
3
 40
3
 40
4
 40
4
 40
4
 40
5
 40
5
 40
5
 40
5
 10
104.6709580901517
 20
521.7541990883115
 30
0
 10
105.4991590448058
 20
521.7541990883115
 30
0
 10
106.1709526644295
 20
521.0827499782363
 30
0
 10
106.1709526644295
 20
520.2542045140337
 30
0
 10
106.1709526644295
 20
519.4256590498311
 30
0
 10
105.4991590448058
 20
518.7542099397559
 30
0
 10
104.6709580901517
 20
518.7542099397559
 30
0
 10
103.8420681164006
 20
518.7542099397559
 30
0
 10
103.1709635158739
 20
519.4256590498311
 30
0
 10
103.1709635158739
 20
520.2542045140337
 30
0
 10
103.1709635158739
 20
521.0827499782363
 30
0
 10
103.8420681164006
 20
521.7541990883115
 30
0
 10
104.6709580901517
 20
521.7541990883115
 30
0
 10
104.6709580901517
 20
521.7541990883115
 30
0
 10
104.6709580901517
 20
521.7541990883115
 30
0
 10
104.6709580901517
 20
521.7541990883115
 30
0
  0
ENDBLK
  5
58
330
56
100
AcDbEntity
  8
0
100
AcDbBlockEnd
  0
BLOCK
  5
5A
330
59
100
AcDbEntity
  8
0
100
AcDbBlockBegin
  2
block 5
 70
    0
 10
0
 20
0
  3
block 5
  1

  0
SPLINE
  5
FA
100
AcDbEntity
  8
Layer 8
  6
ByLayer
 62
  256
370
    0
100
AcDbSpline
210
0
220
0
230
0
 70
   11
 71
    3
 72
   20
 73
   16
 74
    0
 42
1e-07
 43
1e-07
 40
0
 40
0
 40
0
 40
0
 40
1
 40
1
 40
1
 40
2
 40
2
 40
2
 40
3
 40
3
 40
3
 40
4
 40
4
 40
4
 40
5
 40
5
 40
5
 40
5
 10
26.5706434395379
 20
521.7879610240669
 30
0
 10
27.39884439419196
 20
521.7879610240669
 30
0
 10
28.07063801381567
 20
521.1161674044432
 30
0
 10
28.07063801381567
 20
520.2879664497891
 30
0
 10
28.07063801381567
 20
519.4601100046837
 30
0
 10
27.39884439419196
 20
518.7879718755114
 30
0
 10
26.5706434395379
 20
518.7879718755114
 30
0
 10
25.74244248488383
 20
518.7879718755114
 30
0
 10
25.07064886526012
 20
519.4601100046837
 30
0
 10
25.07064886526012
 20
520.2879664497891
 30
0
 10
25.07064886526012
 20
521.1161674044432
 30
0
 10
25.74244248488383
 20
521.7879610240669
 30
0
 10
26.5706434395379
 20
521.7879610240669
 30
0
 10
26.5706434395379
 20
521.7879610240669
 30
0
 10
26.5706434395379
 20
521.7879610240669
 30
0
 10
26.5706434395379
 20
521.7879610240669
 30
0
  0
ENDBLK
  5
5B
330
59
100
AcDbEntity
  8
0
100
AcDbBlockEnd
  0
BLOCK
  5
5D
330
5C
100
AcDbEntity
  8
0
100
AcDbBlockBegin
  2
block 6
 70
    0
 10
0
 20
0
  3
block 6
  1

  0
SPLINE
  5
FB
100
AcDbEntity
  8
Layer 8
  6
ByLayer
 62
  256
370
    0
100
AcDbSpline
210
0
220
0
230
0
 70
   11
 71
    3
 72
   20
 73
   16
 74
    0
 42
1e-07
 43
1e-07
 40
0
 40
0
 40
0
 40
0
 40
1
 40
1
 40
1
 40
2
 40
2
 40
2
 40
3
 40
3
 40
3
 40
4
 40
4
 40
4
 40
5
 40
5
 40
5
 40
5
 10
84.59638669760091
 20
594.8091714007769
 30
0
 10
85.4249321618035
 20
594.8091714007769
 30
0
 10
86.09672578142721
 20
594.1370332716047
 30
0
 10
86.09672578142721
 20
593.3088323169505
 30
0
 10
86.09672578142721
 20
592.4806313622965
 30
0
 10
85.4249321618035
 20
591.8091822522214
 30
0
 10
84.59638669760091
 20
591.8091822522214
 30
0
 10
83.76784123339831
 20
591.8091822522214
 30
0
 10
83.0960476137746
 20
592.4806313622965
 30
0
 10
83.0960476137746
 20
593.3088323169505
 30
0
 10
83.0960476137746
 20
594.1370332716047
 30
0
 10
83.76784123339831
 20
594.8091714007769
 30
0
 10
84.59638669760091
 20
594.8091714007769
 30
0
 10
84.59638669760091
 20
594.8091714007769
 30
0
 10
84.59638669760091
 20
594.8091714007769
 30
0
 10
84.59638669760091
 20
594.8091714007769
 30
0
  0
ENDBLK
  5
5E
330
5C
100
AcDbEntity
  8
0
100
AcDbBlockEnd
  0
BLOCK
  5
60
330
5F
100
AcDbEntity
  8
0
100
AcDbBlockBegin
  2
block 7
 70
    0
 10
0
 20
0
  3
block 7
  1

  0
SPLINE
  5
FC
100
AcDbEntity
  8
Layer 8
  6
ByLayer
 62
  256
370
    0
100
AcDbSpline
210
0
220
0
230
0
 70
   11
 71
    3
 72
   20
 73
   16
 74
    0
 42
1e-07
 43
1e-07
 40
0
 40
0
 40
0
 40
0
 40
1
 40
1
 40
1
 40
2
 40
2
 40
2
 40
3
 40
3
 40
3
 40
4
 40
4
 40
4
 40
5
 40
5
 40
5
 40
5
 10
26.54446071385
 20
594.8091714007769
 30
0
 10
27.37335068760111
 20
594.8091714007769
 30
0
 10
28.04445528812778
 20
594.1373777811532
 30
0
 10
28.04445528812778
 20
593.3091768264991
 30
0
 10
28.04445528812778
 20
592.4806313622965
 30
0
 10
27.37335068760111
 20
591.8091822522214
 30
0
 10
26.54446071385
 20
591.8091822522214
 30
0
 10
25.71625975919594
 20
591.8091822522214
 30
0
 10
25.04446613957222
 20
592.4806313622965
 30
0
 10
25.04446613957222
 20
593.3091768264991
 30
0
 10
25.04446613957222
 20
594.1373777811532
 30
0
 10
25.71625975919594
 20
594.8091714007769
 30
0
 10
26.54446071385
 20
594.8091714007769
 30
0
 10
26.54446071385
 20
594.8091714007769
 30
0
 10
26.54446071385
 20
594.8091714007769
 30
0
 10
26.54446071385
 20
594.8091714007769
 30
0
  0
ENDBLK
  5
61
330
5F
100
AcDbEntity
  8
0
100
AcDbBlockEnd
  0
BLOCK
  5
63
330
62
100
AcDbEntity
  8
0
100
AcDbBlockBegin
  2
block 8
 70
    0
 10
0
 20
0
  3
block 8
  1

  0
LWPOLYLINE
  5
FD
100
AcDbEntity
  8
Layer 8
  6
ByLayer
 62
  256
370
    0
100
AcDbPolyline
 90
    5
 70
    0
 43
0
 10
92.94936521113766
 20
513.3957084219983
 10
92.94936521113766
 20
516.3956975705539
 10
82.94963105565148
 20
516.3960420801023
 10
82.94963105565148
 20
513.3960529315468
 10
92.94936521113766
 20
513.3957084219983
  0
LWPOLYLINE
  5
FE
100
AcDbEntity
  8
Layer 8
  6
ByLayer
 62
  256
370
    0
100
AcDbPolyline
 90
    5
 70
    0
 43
0
 10
48.18861760948062
 20
513.3957084219983
 10
48.18861760948062
 20
516.3956975705539
 10
38.18888345399445
 20
516.3960420801023
 10
38.18888345399445
 20
513.3960529315468
 10
48.18861760948062
 20
513.3957084219983
  0
ENDBLK
  5
64
330
62
100
AcDbEntity
  8
0
100
AcDbBlockEnd
  0
BLOCK
  5
66
330
65
100
AcDbEntity
  8
0
100
AcDbBlockBegin
  2
block 9
 70
    0
 10
0
 20
0
  3
block 9
  1

  0
LWPOLYLINE
  5
FF
100
AcDbEntity
  8
Layer 8
  6
ByLayer
 62
  256
370
    0
100
AcDbPolyline
 90
    5
 70
    0
 43
0
 10
92.94936521113766
 20
597.2238388263885
 10
92.94936521113766
 20
600.223827974944
 10
82.94963105565148
 20
600.223827974944
 10
82.94963105565148
 20
597.2238388263885
 10
92.94936521113766
 20
597.2238388263885
  0
LWPOLYLINE
  5
100
100
AcDbEntity
  8
Layer 8
  6
ByLayer
 62
  256
370
    0
100
AcDbPolyline
 90
    5
 70
    0
 43
0
 10
48.18861760948062
 20
597.2238388263885
 10
48.18861760948062
 20
600.223827974944
 10
38.18888345399445
 20
600.223827974944
 10
38.18888345399445
 20
597.2238388263885
 10
48.18861760948062
 20
597.2238388263885
  0
ENDBLK
  5
67
330
65
100
AcDbEntity
  8
0
100
AcDbBlockEnd
  0
BLOCK
  5
69
330
68
100
AcDbEntity
  8
0
100
AcDbBlockBegin
  2
block 10
 70
    0
 10
0
 20
0
  3
block 10
  1

  0
SPLINE
  5
101
100
AcDbEntity
  8
Layer 8
  6
ByLayer
 62
  256
370
    0
100
AcDbSpline
210
0
220
0
230
0
 70
   11
 71
    3
 72
   29
 73
   25
 74
    0
 42
1e-07
 43
1e-07
 40
0
 40
0
 40
0
 40
0
 40
1
 40
1
 40
1
 40
2
 40
2
 40
2
 40
3
 40
3
 40
3
 40
4
 40
4
 40
4
 40
5
 40
5
 40
5
 40
6
 40
6
 40
6
 40
7
 40
7
 40
7
 40
8
 40
8
 40
8
 40
8
 10
60.16962617853399
 20
551.326209714599
 30
0
 10
60.16962617853399
 20
550.9059080653985
 30
0
 10
60.72084145617396
 20
550.5655326314559
 30
0
 10
61.40055879541375
 20
550.5655326314559
 30
0
 10
61.40055879541375
 20
550.5655326314559
 30
0
 10
62.93913843912633
 20
550.5655326314559
 30
0
 10
62.93913843912633
 20
550.5655326314559
 30
0
 10
63.61885577836613
 20
550.5655326314559
 30
0
 10
64.16972654645757
 20
550.9059080653985
 30
0
 10
64.16972654645757
 20
551.326209714599
 30
0
 10
64.16972654645757
 20
551.326209714599
 30
0
 10
64.16972654645757
 20
589.804825698903
 30
0
 10
64.16972654645757
 20
589.804825698903
 30
0
 10
64.16972654645757
 20
590.2251273481035
 30
0
 10
63.61885577836613
 20
590.5655027820461
 30
0
 10
62.93913843912633
 20
590.5655027820461
 30
0
 10
62.93913843912633
 20
590.5655027820461
 30
0
 10
61.40055879541375
 20
590.5655027820461
 30
0
 10
61.40055879541375
 20
590.5655027820461
 30
0
 10
60.72084145617396
 20
590.5655027820461
 30
0
 10
60.16962617853399
 20
590.2251273481035
 30
0
 10
60.16962617853399
 20
589.804825698903
 30
0
 10
60.16962617853399
 20
589.804825698903
 30
0
 10
60.16962617853399
 20
551.326209714599
 30
0
 10
60.16962617853399
 20
551.326209714599
 30
0
  0
SPLINE
  5
102
100
AcDbEntity
  8
Layer 8
  6
ByLayer
 62
  256
370
    0
100
AcDbSpline
210
0
220
0
230
0
 70
   11
 71
    3
 72
   29
 73
   25
 74
    0
 42
1e-07
 43
1e-07
 40
0
 40
0
 40
0
 40
0
 40
1
 40
1
 40
1
 40
2
 40
2
 40
2
 40
3
 40
3
 40
3
 40
4
 40
4
 40
4
 40
5
 40
5
 40
5
 40
6
 40
6
 40
6
 40
7
 40
7
 40
7
 40
8
 40
8
 40
8
 40
8
 10
69.16959362420066
 20
561.1357745992995
 30
0
 10
69.16959362420066
 20
560.8208928719475
 30
0
 10
69.72080890184064
 20
560.5652667869421
 30
0
 10
70.40052624108043
 20
560.5652667869421
 30
0
 10
70.40052624108043
 20
560.5652667869421
 30
0
 10
71.93910588479301
 20
560.5652667869421
 30
0
 10
71.93910588479301
 20
560.5652667869421
 30
0
 10
72.61882322403279
 20
560.5652667869421
 30
0
 10
73.16969399212425
 20
560.8208928719475
 30
0
 10
73.16969399212425
 20
561.1357745992995
 30
0
 10
73.16969399212425
 20
561.1357745992995
 30
0
 10
73.16969399212425
 20
589.9949949696888
 30
0
 10
73.16969399212425
 20
589.9949949696888
 30
0
 10
73.16969399212425
 20
590.3102212065892
 30
0
 10
72.61882322403279
 20
590.5655027820461
 30
0
 10
71.93910588479301
 20
590.5655027820461
 30
0
 10
71.93910588479301
 20
590.5655027820461
 30
0
 10
70.40052624108043
 20
590.5655027820461
 30
0
 10
70.40052624108043
 20
590.5655027820461
 30
0
 10
69.72080890184064
 20
590.5655027820461
 30
0
 10
69.16959362420066
 20
590.3102212065892
 30
0
 10
69.16959362420066
 20
589.9949949696888
 30
0
 10
69.16959362420066
 20
589.9949949696888
 30
0
 10
69.16959362420066
 20
561.1357745992995
 30
0
 10
69.16959362420066
 20
561.1357745992995
 30
0
  0
SPLINE
  5
103
100
AcDbEntity
  8
Layer 8
  6
ByLayer
 62
  256
370
    0
100
AcDbSpline
210
0
220
0
230
0
 70
   11
 71
    3
 72
   29
 73
   25
 74
    0
 42
1e-07
 43
1e-07
 40
0
 40
0
 40
0
 40
0
 40
1
 40
1
 40
1
 40
2
 40
2
 40
2
 40
3
 40
3
 40
3
 40
4
 40
4
 40
4
 40
5
 40
5
 40
5
 40
6
 40
6
 40
6
 40
7
 40
7
 40
7
 40
8
 40
8
 40
8
 40
8
 10
78.16956106986734
 20
570.9460285030968
 30
0
 10
78.16956106986734
 20
570.7358776784966
 30
0
 10
78.72077634750731
 20
570.5656899615253
 30
0
 10
79.4004936867471
 20
570.5656899615253
 30
0
 10
79.4004936867471
 20
570.5656899615253
 30
0
 10
80.93907333045968
 20
570.5656899615253
 30
0
 10
80.93907333045968
 20
570.5656899615253
 30
0
 10
81.61879066969948
 20
570.5656899615253
 30
0
 10
82.16966143779092
 20
570.7358776784966
 30
0
 10
82.16966143779092
 20
570.9460285030968
 30
0
 10
82.16966143779092
 20
570.9460285030968
 30
0
 10
82.16966143779092
 20
590.1851642404746
 30
0
 10
82.16966143779092
 20
590.1851642404746
 30
0
 10
82.16966143779092
 20
590.3953150650748
 30
0
 10
81.61879066969948
 20
590.5655027820461
 30
0
 10
80.93907333045968
 20
590.5655027820461
 30
0
 10
80.93907333045968
 20
590.5655027820461
 30
0
 10
79.4004936867471
 20
590.5655027820461
 30
0
 10
79.4004936867471
 20
590.5655027820461
 30
0
 10
78.72077634750731
 20
590.5655027820461
 30
0
 10
78.16956106986734
 20
590.3953150650748
 30
0
 10
78.16956106986734
 20
590.1851642404746
 30
0
 10
78.16956106986734
 20
590.1851642404746
 30
0
 10
78.16956106986734
 20
570.9460285030968
 30
0
 10
78.16956106986734
 20
570.9460285030968
 30
0
  0
SPLINE
  5
104
100
AcDbEntity
  8
Layer 8
  6
ByLayer
 62
  256
370
    0
100
AcDbSpline
210
0
220
0
230
0
 70
   11
 71
    3
 72
   29
 73
   25
 74
    0
 42
1e-07
 43
1e-07
 40
0
 40
0
 40
0
 40
0
 40
1
 40
1
 40
1
 40
2
 40
2
 40
2
 40
3
 40
3
 40
3
 40
4
 40
4
 40
4
 40
5
 40
5
 40
5
 40
6
 40
6
 40
6
 40
7
 40
7
 40
7
 40
8
 40
8
 40
8
 40
8
 10
87.16952851553401
 20
580.7555933877973
 30
0
 10
87.16952851553401
 20
580.6505179754971
 30
0
 10
87.72074379317398
 20
580.5654241170115
 30
0
 10
88.40046113241378
 20
580.5654241170115
 30
0
 10
88.40046113241378
 20
580.5654241170115
 30
0
 10
89.93904077612636
 20
580.5654241170115
 30
0
 10
89.93904077612636
 20
580.5654241170115
 30
0
 10
90.61875811536615
 20
580.5654241170115
 30
0
 10
91.16962888345759
 20
580.6505179754971
 30
0
 10
91.16962888345759
 20
580.7555933877973
 30
0
 10
91.16962888345759
 20
580.7555933877973
 30
0
 10
91.16962888345759
 20
590.3753335112604
 30
0
 10
91.16962888345759
 20
590.3753335112604
 30
0
 10
91.16962888345759
 20
590.4804089235605
 30
0
 10
90.61875811536615
 20
590.5655027820461
 30
0
 10
89.93904077612636
 20
590.5655027820461
 30
0
 10
89.93904077612636
 20
590.5655027820461
 30
0
 10
88.40046113241378
 20
590.5655027820461
 30
0
 10
88.40046113241378
 20
590.5655027820461
 30
0
 10
87.72074379317398
 20
590.5655027820461
 30
0
 10
87.16952851553401
 20
590.4804089235605
 30
0
 10
87.16952851553401
 20
590.3753335112604
 30
0
 10
87.16952851553401
 20
590.3753335112604
 30
0
 10
87.16952851553401
 20
580.7555933877973
 30
0
 10
87.16952851553401
 20
580.7555933877973
 30
0
  0
SPLINE
  5
105
100
AcDbEntity
  8
Layer 8
  6
ByLayer
 62
  256
370
    0
100
AcDbSpline
210
0
220
0
230
0
 70
   11
 71
    3
 72
   29
 73
   25
 74
    0
 42
1e-07
 43
1e-07
 40
0
 40
0
 40
0
 40
0
 40
1
 40
1
 40
1
 40
2
 40
2
 40
2
 40
3
 40
3
 40
3
 40
4
 40
4
 40
4
 40
5
 40
5
 40
5
 40
6
 40
6
 40
6
 40
7
 40
7
 40
7
 40
8
 40
8
 40
8
 40
8
 10
96.16949596120068
 20
585.660720339696
 30
0
 10
96.16949596120068
 20
585.6080103787716
 30
0
 10
96.72071123884066
 20
585.5656357043031
 30
0
 10
97.40042857808045
 20
585.5656357043031
 30
0
 10
97.40042857808045
 20
585.5656357043031
 30
0
 10
98.93900822179303
 20
585.5656357043031
 30
0
 10
98.93900822179303
 20
585.5656357043031
 30
0
 10
99.61872556103282
 20
585.5656357043031
 30
0
 10
100.1695963291243
 20
585.6080103787716
 30
0
 10
100.1695963291243
 20
585.660720339696
 30
0
 10
100.1695963291243
 20
585.660720339696
 30
0
 10
100.1695963291243
 20
590.4704181466533
 30
0
 10
100.1695963291243
 20
590.4704181466533
 30
0
 10
100.1695963291243
 20
590.5231281075776
 30
0
 10
99.61872556103282
 20
590.5655027820461
 30
0
 10
98.93900822179303
 20
590.5655027820461
 30
0
 10
98.93900822179303
 20
590.5655027820461
 30
0
 10
97.40042857808045
 20
590.5655027820461
 30
0
 10
97.40042857808045
 20
590.5655027820461
 30
0
 10
96.72071123884066
 20
590.5655027820461
 30
0
 10
96.16949596120068
 20
590.5231281075776
 30
0
 10
96.16949596120068
 20
590.4704181466533
 30
0
 10
96.16949596120068
 20
590.4704181466533
 30
0
 10
96.16949596120068
 20
585.660720339696
 30
0
 10
96.16949596120068
 20
585.660720339696
 30
0
  0
SPLINE
  5
106
100
AcDbEntity
  8
Layer 8
  6
ByLayer
 62
  256
370
    0
100
AcDbSpline
210
0
220
0
230
0
 70
   11
 71
    3
 72
   29
 73
   25
 74
    0
 42
1e-07
 43
1e-07
 40
0
 40
0
 40
0
 40
0
 40
1
 40
1
 40
1
 40
2
 40
2
 40
2
 40
3
 40
3
 40
3
 40
4
 40
4
 40
4
 40
5
 40
5
 40
5
 40
6
 40
6
 40
6
 40
7
 40
7
 40
7
 40
8
 40
8
 40
8
 40
8
 10
42.16969128720064
 20
531.7063909261012
 30
0
 10
42.16969128720064
 20
531.076282961849
 30
0
 10
42.72090656484061
 20
530.5653753013864
 30
0
 10
43.4006239040804
 20
530.5653753013864
 30
0
 10
43.4006239040804
 20
530.5653753013864
 30
0
 10
44.93920354779298
 20
530.5653753013864
 30
0
 10
44.93920354779298
 20
530.5653753013864
 30
0
 10
45.61892088703277
 20
530.5653753013864
 30
0
 10
46.16979165512422
 20
531.076282961849
 30
0
 10
46.16979165512422
 20
531.7063909261012
 30
0
 10
46.16979165512422
 20
531.7063909261012
 30
0
 10
46.16979165512422
 20
589.4244871573314
 30
0
 10
46.16979165512422
 20
589.4244871573314
 30
0
 10
46.16979165512422
 20
590.0545951215836
 30
0
 10
45.61892088703277
 20
590.5655027820461
 30
0
 10
44.93920354779298
 20
590.5655027820461
 30
0
 10
44.93920354779298
 20
590.5655027820461
 30
0
 10
43.4006239040804
 20
590.5655027820461
 30
0
 10
43.4006239040804
 20
590.5655027820461
 30
0
 10
42.72090656484061
 20
590.5655027820461
 30
0
 10
42.16969128720064
 20
590.0545951215836
 30
0
 10
42.16969128720064
 20
589.4244871573314
 30
0
 10
42.16969128720064
 20
589.4244871573314
 30
0
 10
42.16969128720064
 20
531.7063909261012
 30
0
 10
42.16969128720064
 20
531.7063909261012
 30
0
  0
SPLINE
  5
107
100
AcDbEntity
  8
Layer 8
  6
ByLayer
 62
  256
370
    0
100
AcDbSpline
210
0
220
0
230
0
 70
   11
 71
    3
 72
   29
 73
   25
 74
    0
 42
1e-07
 43
1e-07
 40
0
 40
0
 40
0
 40
0
 40
1
 40
1
 40
1
 40
2
 40
2
 40
2
 40
3
 40
3
 40
3
 40
4
 40
4
 40
4
 40
5
 40
5
 40
5
 40
6
 40
6
 40
6
 40
7
 40
7
 40
7
 40
8
 40
8
 40
8
 40
8
 10
51.16965873286731
 20
541.5166448298986
 30
0
 10
51.16965873286731
 20
540.9912677683981
 30
0
 10
51.72087401050728
 20
540.5657984759697
 30
0
 10
52.40059134974707
 20
540.5657984759697
 30
0
 10
52.40059134974707
 20
540.5657984759697
 30
0
 10
53.93917099345965
 20
540.5657984759697
 30
0
 10
53.93917099345965
 20
540.5657984759697
 30
0
 10
54.61888833269945
 20
540.5657984759697
 30
0
 10
55.1697591007909
 20
540.9912677683981
 30
0
 10
55.1697591007909
 20
541.5166448298986
 30
0
 10
55.1697591007909
 20
541.5166448298986
 30
0
 10
55.1697591007909
 20
589.6146564281172
 30
0
 10
55.1697591007909
 20
589.6146564281172
 30
0
 10
55.1697591007909
 20
590.1400334896178
 30
0
 10
54.61888833269945
 20
590.5655027820461
 30
0
 10
53.93917099345965
 20
590.5655027820461
 30
0
 10
53.93917099345965
 20
590.5655027820461
 30
0
 10
52.40059134974707
 20
590.5655027820461
 30
0
 10
52.40059134974707
 20
590.5655027820461
 30
0
 10
51.72087401050728
 20
590.5655027820461
 30
0
 10
51.16965873286731
 20
590.1400334896178
 30
0
 10
51.16965873286731
 20
589.6146564281172
 30
0
 10
51.16965873286731
 20
589.6146564281172
 30
0
 10
51.16965873286731
 20
541.5166448298986
 30
0
 10
51.16965873286731
 20
541.5166448298986
 30
0
  0
SPLINE
  5
108
100
AcDbEntity
  8
Layer 8
  6
ByLayer
 62
  256
370
    0
100
AcDbSpline
210
0
220
0
230
0
 70
   11
 71
    3
 72
   29
 73
   25
 74
    0
 42
1e-07
 43
1e-07
 40
0
 40
0
 40
0
 40
0
 40
1
 40
1
 40
1
 40
2
 40
2
 40
2
 40
3
 40
3
 40
3
 40
4
 40
4
 40
4
 40
5
 40
5
 40
5
 40
6
 40
6
 40
6
 40
7
 40
7
 40
7
 40
8
 40
8
 40
8
 40
8
 10
33.16972384153396
 20
521.8968260414008
 30
0
 10
33.16972384153396
 20
521.1616426648485
 30
0
 10
33.72093911917393
 20
520.5656411459003
 30
0
 10
34.40065645841373
 20
520.5656411459003
 30
0
 10
34.40065645841373
 20
520.5656411459003
 30
0
 10
35.9392361021263
 20
520.5656411459003
 30
0
 10
35.9392361021263
 20
520.5656411459003
 30
0
 10
36.6189534413661
 20
520.5656411459003
 30
0
 10
37.16982420945754
 20
521.1616426648485
 30
0
 10
37.16982420945754
 20
521.8968260414008
 30
0
 10
37.16982420945754
 20
521.8968260414008
 30
0
 10
37.16982420945754
 20
589.2343178865456
 30
0
 10
37.16982420945754
 20
589.2343178865456
 30
0
 10
37.16982420945754
 20
589.969501263098
 30
0
 10
36.6189534413661
 20
590.5655027820461
 30
0
 10
35.9392361021263
 20
590.5655027820461
 30
0
 10
35.9392361021263
 20
590.5655027820461
 30
0
 10
34.40065645841373
 20
590.5655027820461
 30
0
 10
34.40065645841373
 20
590.5655027820461
 30
0
 10
33.72093911917393
 20
590.5655027820461
 30
0
 10
33.16972384153396
 20
589.969501263098
 30
0
 10
33.16972384153396
 20
589.2343178865456
 30
0
 10
33.16972384153396
 20
589.2343178865456
 30
0
 10
33.16972384153396
 20
521.8968260414008
 30
0
 10
33.16972384153396
 20
521.8968260414008
 30
0
  0
ENDBLK
  5
6A
330
68
100
AcDbEntity
  8
0
100
AcDbBlockEnd
  0
BLOCK
  5
6C
330
6B
100
AcDbEntity
  8
0
100
AcDbBlockBegin
  2
block 11
 70
    0
 10
0
 20
0
  3
block 11
  1

  0
INSERT
  5
109
100
AcDbEntity
  8
Layer 8
  6
ByLayer
 62
  256
370
   -1
100
AcDbBlockReference
  2
block 12
 10
0
 20
0
 30
0
 41
1
 42
1
 43
0
 50
0
 70
    1
 71
    1
 44
0
 45
0
  0
LWPOLYLINE
  5
10A
100
AcDbEntity
  8
Layer 8
  6
ByLayer
 62
  256
370
    0
100
AcDbPolyline
 90
    5
 70
    0
 43
0
 10
198.7069064173372
 20
573.8834891685951
 10
129.3786661460408
 20
573.8834891685951
 10
129.3786661460408
 20
538.9619342728116
 10
198.7069064173372
 20
538.9619342728116
 10
198.7069064173372
 20
573.8834891685951
  0
ENDBLK
  5
6D
330
6B
100
AcDbEntity
  8
0
100
AcDbBlockEnd
  0
BLOCK
  5
6F
330
6E
100
AcDbEntity
  8
0
100
AcDbBlockBegin
  2
block 12
 70
    0
 10
0
 20
0
  3
block 12
  1

  0
INSERT
  5
10B
100
AcDbEntity
  8
Layer 8
  6
ByLayer
 62
  256
370
   -1
100
AcDbBlockReference
  2
block 13
 10
0
 20
0
 30
0
 41
1
 42
1
 43
0
 50
0
 70
    1
 71
    1
 44
0
 45
0
  0
SPLINE
  5
10C
100
AcDbEntity
  8
Layer 8
  6
ByLayer
 62
  256
370
    0
100
AcDbSpline
210
0
220
0
230
0
 70
   11
 71
    3
 72
   17
 73
   13
 74
    0
 42
1e-07
 43
1e-07
 40
0
 40
0
 40
0
 40
0
 40
1
 40
1
 40
1
 40
2
 40
2
 40
2
 40
3
 40
3
 40
3
 40
4
 40
4
 40
4
 40
4
 10
132.4687445415356
 20
530.0484387238247
 30
0
 10
134.5952297298061
 20
530.0484387238247
 30
0
 10
136.3188110010765
 20
528.3248574525542
 30
0
 10
136.3188110010765
 20
526.198544519058
 30
0
 10
136.3188110010765
 20
524.0718870760134
 30
0
 10
134.5952297298061
 20
522.3486503142914
 30
0
 10
132.4687445415356
 20
522.3486503142914
 30
0
 10
130.3424316080394
 20
522.3486503142914
 30
0
 10
128.6186780819946
 20
524.0718870760134
 30
0
 10
128.6186780819946
 20
526.198544519058
 30
0
 10
128.6186780819946
 20
528.3248574525542
 30
0
 10
130.3424316080394
 20
530.0484387238247
 30
0
 10
132.4687445415356
 20
530.0484387238247
 30
0
  0
SPLINE
  5
10D
100
AcDbEntity
  8
Layer 8
  6
ByLayer
 62
  256
370
    0
100
AcDbSpline
210
0
220
0
230
0
 70
   11
 71
    3
 72
   17
 73
   13
 74
    0
 42
1e-07
 43
1e-07
 40
0
 40
0
 40
0
 40
0
 40
1
 40
1
 40
1
 40
2
 40
2
 40
2
 40
3
 40
3
 40
3
 40
4
 40
4
 40
4
 40
4
 10
147.7706529035955
 20
530.0484387238247
 30
0
 10
149.8969658370917
 20
530.0484387238247
 30
0
 10
151.6208916179108
 20
528.3252019621027
 30
0
 10
151.6208916179108
 20
526.198544519058
 30
0
 10
151.6208916179108
 20
524.0722315855618
 30
0
 10
149.8969658370917
 20
522.3486503142914
 30
0
 10
147.7706529035955
 20
522.3486503142914
 30
0
 10
145.6443399700993
 20
522.3486503142914
 30
0
 10
143.9207586988288
 20
524.0722315855618
 30
0
 10
143.9207586988288
 20
526.198544519058
 30
0
 10
143.9207586988288
 20
528.3252019621027
 30
0
 10
145.6443399700993
 20
530.0484387238247
 30
0
 10
147.7706529035955
 20
530.0484387238247
 30
0
  0
SPLINE
  5
10E
100
AcDbEntity
  8
Layer 8
  6
ByLayer
 62
  256
370
    0
100
AcDbSpline
210
0
220
0
230
0
 70
   11
 71
    3
 72
   17
 73
   13
 74
    0
 42
1e-07
 43
1e-07
 40
0
 40
0
 40
0
 40
0
 40
1
 40
1
 40
1
 40
2
 40
2
 40
2
 40
3
 40
3
 40
3
 40
4
 40
4
 40
4
 40
4
 10
178.2695664701896
 20
592.222421455677
 30
0
 10
180.3958794036858
 20
592.222421455677
 30
0
 10
182.1198051845048
 20
590.4988401844066
 30
0
 10
182.1198051845048
 20
588.3725272509104
 30
0
 10
182.1198051845048
 20
586.2462143174141
 30
0
 10
180.3958794036858
 20
584.5219440270466
 30
0
 10
178.2695664701896
 20
584.5219440270466
 30
0
 10
176.1432535366934
 20
584.5219440270466
 30
0
 10
174.4200167749714
 20
586.2462143174141
 30
0
 10
174.4200167749714
 20
588.3725272509104
 30
0
 10
174.4200167749714
 20
590.4988401844066
 30
0
 10
176.1432535366934
 20
592.222421455677
 30
0
 10
178.2695664701896
 20
592.222421455677
 30
0
  0
SPLINE
  5
10F
100
AcDbEntity
  8
Layer 8
  6
ByLayer
 62
  256
370
    0
100
AcDbSpline
210
0
220
0
230
0
 70
   11
 71
    3
 72
   17
 73
   13
 74
    0
 42
1e-07
 43
1e-07
 40
0
 40
0
 40
0
 40
0
 40
1
 40
1
 40
1
 40
2
 40
2
 40
2
 40
3
 40
3
 40
3
 40
4
 40
4
 40
4
 40
4
 10
193.5592447432769
 20
532.7266559540579
 30
0
 10
197.2179361486122
 20
532.7266559540579
 30
0
 10
200.1841633614123
 20
529.7607732508063
 30
0
 10
200.1841633614123
 20
526.102081845471
 30
0
 10
200.1841633614123
 20
522.4433904401357
 30
0
 10
197.2179361486122
 20
519.4771632273356
 30
0
 10
193.5592447432769
 20
519.4771632273356
 30
0
 10
189.9005533379415
 20
519.4771632273356
 30
0
 10
186.9343261251414
 20
522.4433904401357
 30
0
 10
186.9343261251414
 20
526.102081845471
 30
0
 10
186.9343261251414
 20
529.7607732508063
 30
0
 10
189.9005533379415
 20
532.7266559540579
 30
0
 10
193.5592447432769
 20
532.7266559540579
 30
0
  0
SPLINE
  5
110
100
AcDbEntity
  8
Layer 8
  6
ByLayer
 62
  256
370
    0
100
AcDbSpline
210
0
220
0
230
0
 70
   11
 71
    3
 72
   17
 73
   13
 74
    0
 42
1e-07
 43
1e-07
 40
0
 40
0
 40
0
 40
0
 40
1
 40
1
 40
1
 40
2
 40
2
 40
2
 40
3
 40
3
 40
3
 40
4
 40
4
 40
4
 40
4
 10
193.5275498648126
 20
594.938534736248
 30
0
 10
197.1862412701479
 20
594.938534736248
 30
0
 10
200.152468482948
 20
591.9726520329964
 30
0
 10
200.152468482948
 20
588.3139606276611
 30
0
 10
200.152468482948
 20
584.6549247127773
 30
0
 10
197.1862412701479
 20
581.6886974999771
 30
0
 10
193.5275498648126
 20
581.6886974999771
 30
0
 10
189.8688584594773
 20
581.6886974999771
 30
0
 10
186.9026312466771
 20
584.6549247127773
 30
0
 10
186.9026312466771
 20
588.3139606276611
 30
0
 10
186.9026312466771
 20
591.9726520329964
 30
0
 10
189.8688584594773
 20
594.938534736248
 30
0
 10
193.5275498648126
 20
594.938534736248
 30
0
  0
SPLINE
  5
111
100
AcDbEntity
  8
Layer 8
  6
ByLayer
 62
  256
370
    0
100
AcDbSpline
210
0
220
0
230
0
 70
   11
 71
    3
 72
   17
 73
   13
 74
    0
 42
1e-07
 43
1e-07
 40
0
 40
0
 40
0
 40
0
 40
1
 40
1
 40
1
 40
2
 40
2
 40
2
 40
3
 40
3
 40
3
 40
4
 40
4
 40
4
 40
4
 10
173.2745225261258
 20
532.7270004636065
 30
0
 10
176.9332139314612
 20
532.7270004636065
 30
0
 10
179.8994411442613
 20
529.7614622699034
 30
0
 10
179.8994411442613
 20
526.102081845471
 30
0
 10
179.8994411442613
 20
522.4440794592327
 30
0
 10
176.9332139314612
 20
519.4771632273356
 30
0
 10
173.2745225261258
 20
519.4771632273356
 30
0
 10
169.6158311207905
 20
519.4771632273356
 30
0
 10
166.6496039079904
 20
522.4440794592327
 30
0
 10
166.6496039079904
 20
526.102081845471
 30
0
 10
166.6496039079904
 20
529.7614622699034
 30
0
 10
169.6158311207905
 20
532.7270004636065
 30
0
 10
173.2745225261258
 20
532.7270004636065
 30
0
  0
ENDBLK
  5
70
330
6E
100
AcDbEntity
  8
0
100
AcDbBlockEnd
  0
BLOCK
  5
72
330
71
100
AcDbEntity
  8
0
100
AcDbBlockBegin
  2
block 13
 70
    0
 10
0
 20
0
  3
block 13
  1

  0
INSERT
  5
112
100
AcDbEntity
  8
Layer 8
  6
ByLayer
 62
  256
370
   -1
100
AcDbBlockReference
  2
block 14
 10
0
 20
0
 30
0
 41
1
 42
1
 43
0
 50
0
 70
    1
 71
    1
 44
0
 45
0
  0
INSERT
  5
113
100
AcDbEntity
  8
Layer 8
  6
ByLayer
 62
  256
370
   -1
100
AcDbBlockReference
  2
block 15
 10
0
 20
0
 30
0
 41
1
 42
1
 43
0
 50
0
 70
    1
 71
    1
 44
0
 45
0
  0
INSERT
  5
114
100
AcDbEntity
  8
Layer 8
  6
ByLayer
 62
  256
370
   -1
100
AcDbBlockReference
  2
block 16
 10
0
 20
0
 30
0
 41
1
 42
1
 43
0
 50
0
 70
    1
 71
    1
 44
0
 45
0
  0
INSERT
  5
115
100
AcDbEntity
  8
Layer 8
  6
ByLayer
 62
  256
370
   -1
100
AcDbBlockReference
  2
block 17
 10
0
 20
0
 30
0
 41
1
 42
1
 43
0
 50
0
 70
    1
 71
    1
 44
0
 45
0
  0
LWPOLYLINE
  5
116
100
AcDbEntity
  8
Layer 8
  6
ByLayer
 62
  256
370
    0
100
AcDbPolyline
 90
    5
 70
    0
 43
0
 10
206.4948892712929
 20
531.9091347954081
 10
209.4945339103
 20
531.9091347954081
 10
209.4945339103
 20
521.909400639922
 10
206.4948892712929
 20
521.909400639922
 10
206.4948892712929
 20
531.9091347954081
  0
LWPOLYLINE
  5
117
100
AcDbEntity
  8
Layer 8
  6
ByLayer
 62
  256
370
    0
100
AcDbPolyline
 90
    5
 70
    0
 43
0
 10
206.4948892712929
 20
592.3230182438464
 10
209.4945339103
 20
592.3230182438464
 10
209.4945339103
 20
582.3232840883602
 10
206.4948892712929
 20
582.3232840883602
 10
206.4948892712929
 20
592.3230182438464
  0
LWPOLYLINE
  5
118
100
AcDbEntity
  8
Layer 8
  6
ByLayer
 62
  256
370
    0
100
AcDbPolyline
 90
    5
 70
    0
 43
0
 10
117.7392387943499
 20
531.9091347954081
 10
120.7388834333569
 20
531.9091347954081
 10
120.7388834333569
 20
521.909400639922
 10
117.7392387943499
 20
521.909400639922
 10
117.7392387943499
 20
531.9091347954081
  0
LWPOLYLINE
  5
119
100
AcDbEntity
  8
Layer 8
  6
ByLayer
 62
  256
370
    0
100
AcDbPolyline
 90
    5
 70
    0
 43
0
 10
117.7392387943499
 20
592.3230182438464
 10
120.7388834333569
 20
592.3230182438464
 10
120.7388834333569
 20
582.3232840883602
 10
117.7392387943499
 20
582.3232840883602
 10
117.7392387943499
 20
592.3230182438464
  0
INSERT
  5
11A
100
AcDbEntity
  8
Layer 8
  6
ByLayer
 62
  256
370
   -1
100
AcDbBlockReference
  2
block 18
 10
0
 20
0
 30
0
 41
1
 42
1
 43
0
 50
0
 70
    1
 71
    1
 44
0
 45
0
  0
INSERT
  5
11B
100
AcDbEntity
  8
Layer 8
  6
ByLayer
 62
  256
370
   -1
100
AcDbBlockReference
  2
block 19
 10
0
 20
0
 30
0
 41
1
 42
1
 43
0
 50
0
 70
    1
 71
    1
 44
0
 45
0
  0
SPLINE
  5
11C
100
AcDbEntity
  8
Layer 8
  6
ByLayer
 62
  256
370
    0
100
AcDbSpline
210
0
220
0
230
0
 70
    8
 71
    3
 72
   26
 73
   22
 74
    0
 42
1e-07
 43
1e-07
 40
0
 40
0
 40
0
 40
0
 40
1
 40
1
 40
1
 40
2
 40
2
 40
2
 40
3
 40
3
 40
3
 40
4
 40
4
 40
4
 40
5
 40
5
 40
5
 40
6
 40
6
 40
6
 40
7
 40
7
 40
7
 40
7
 10
114.6617349973762
 20
601.6969508044369
 30
0
 10
114.6617349973762
 20
602.4846718871393
 30
0
 10
115.2987331525989
 20
603.1233925901046
 30
0
 10
116.0845594327844
 20
603.1233925901046
 30
0
 10
116.0845594327844
 20
603.1233925901046
 30
0
 10
211.238785754482
 20
603.1233925901046
 30
0
 10
211.238785754482
 20
603.1233925901046
 30
0
 10
212.0242675251189
 20
603.1233925901046
 30
0
 10
212.6616101898902
 20
602.4846718871393
 30
0
 10
212.6616101898902
 20
601.6969508044369
 30
0
 10
212.6616101898902
 20
601.6969508044369
 30
0
 10
212.6616101898902
 20
512.5497652255953
 30
0
 10
212.6616101898902
 20
512.5497652255953
 30
0
 10
212.6616101898902
 20
511.7622163976671
 30
0
 10
212.0242675251189
 20
511.1234956947018
 30
0
 10
211.238785754482
 20
511.1234956947018
 30
0
 10
211.238785754482
 20
511.1234956947018
 30
0
 10
116.0845594327844
 20
511.1234956947018
 30
0
 10
116.0845594327844
 20
511.1234956947018
 30
0
 10
115.2987331525989
 20
511.1234956947018
 30
0
 10
114.6617349973762
 20
511.7622163976671
 30
0
 10
114.6617349973762
 20
512.5497652255953
 30
0
  0
ENDBLK
  5
73
330
71
100
AcDbEntity
  8
0
100
AcDbBlockEnd
  0
BLOCK
  5
75
330
74
100
AcDbEntity
  8
0
100
AcDbBlockBegin
  2
block 14
 70
    0
 10
0
 20
0
  3
block 14
  1

  0
SPLINE
  5
11D
100
AcDbEntity
  8
Layer 8
  6
ByLayer
 62
  256
370
    0
100
AcDbSpline
210
0
220
0
230
0
 70
   11
 71
    3
 72
   20
 73
   16
 74
    0
 42
1e-07
 43
1e-07
 40
0
 40
0
 40
0
 40
0
 40
1
 40
1
 40
1
 40
2
 40
2
 40
2
 40
3
 40
3
 40
3
 40
4
 40
4
 40
4
 40
5
 40
5
 40
5
 40
5
 10
124.6528564141493
 20
522.0888901147035
 30
0
 10
123.8243109499467
 20
522.0888901147035
 30
0
 10
123.1528618398715
 20
521.4174410046284
 30
0
 10
123.1528618398715
 20
520.5888955404257
 30
0
 10
123.1528618398715
 20
519.7603500762232
 30
0
 10
123.8243109499467
 20
519.0889009661479
 30
0
 10
124.6528564141493
 20
519.0889009661479
 30
0
 10
125.4814018783519
 20
519.0889009661479
 30
0
 10
126.1528509884271
 20
519.7603500762232
 30
0
 10
126.1528509884271
 20
520.5888955404257
 30
0
 10
126.1528509884271
 20
521.4174410046284
 30
0
 10
125.4814018783519
 20
522.0888901147035
 30
0
 10
124.6528564141493
 20
522.0888901147035
 30
0
 10
124.6528564141493
 20
522.0888901147035
 30
0
 10
124.6528564141493
 20
522.0888901147035
 30
0
 10
124.6528564141493
 20
522.0888901147035
 30
0
  0
ENDBLK
  5
76
330
74
100
AcDbEntity
  8
0
100
AcDbBlockEnd
  0
BLOCK
  5
78
330
77
100
AcDbEntity
  8
0
100
AcDbBlockBegin
  2
block 15
 70
    0
 10
0
 20
0
  3
block 15
  1

  0
SPLINE
  5
11E
100
AcDbEntity
  8
Layer 8
  6
ByLayer
 62
  256
370
    0
100
AcDbSpline
210
0
220
0
230
0
 70
   11
 71
    3
 72
   20
 73
   16
 74
    0
 42
1e-07
 43
1e-07
 40
0
 40
0
 40
0
 40
0
 40
1
 40
1
 40
1
 40
2
 40
2
 40
2
 40
3
 40
3
 40
3
 40
4
 40
4
 40
4
 40
5
 40
5
 40
5
 40
5
 10
202.7528265552146
 20
522.1226520504589
 30
0
 10
201.9246256005605
 20
522.1226520504589
 30
0
 10
201.2528319809368
 20
521.4508584308352
 30
0
 10
201.2528319809368
 20
520.6226574761812
 30
0
 10
201.2528319809368
 20
519.7948010310756
 30
0
 10
201.9246256005605
 20
519.1226629019034
 30
0
 10
202.7528265552146
 20
519.1226629019034
 30
0
 10
203.5810275098686
 20
519.1226629019034
 30
0
 10
204.2528211294924
 20
519.7948010310756
 30
0
 10
204.2528211294924
 20
520.6226574761812
 30
0
 10
204.2528211294924
 20
521.4508584308352
 30
0
 10
203.5810275098686
 20
522.1226520504589
 30
0
 10
202.7528265552146
 20
522.1226520504589
 30
0
 10
202.7528265552146
 20
522.1226520504589
 30
0
 10
202.7528265552146
 20
522.1226520504589
 30
0
 10
202.7528265552146
 20
522.1226520504589
 30
0
  0
ENDBLK
  5
79
330
77
100
AcDbEntity
  8
0
100
AcDbBlockEnd
  0
BLOCK
  5
7B
330
7A
100
AcDbEntity
  8
0
100
AcDbBlockBegin
  2
block 16
 70
    0
 10
0
 20
0
  3
block 16
  1

  0
SPLINE
  5
11F
100
AcDbEntity
  8
Layer 8
  6
ByLayer
 62
  256
370
    0
100
AcDbSpline
210
0
220
0
230
0
 70
   11
 71
    3
 72
   20
 73
   16
 74
    0
 42
1e-07
 43
1e-07
 40
0
 40
0
 40
0
 40
0
 40
1
 40
1
 40
1
 40
2
 40
2
 40
2
 40
3
 40
3
 40
3
 40
4
 40
4
 40
4
 40
5
 40
5
 40
5
 40
5
 10
144.7272555519258
 20
595.1438624271689
 30
0
 10
143.8987100877233
 20
595.1438624271689
 30
0
 10
143.2269164680995
 20
594.4717242979967
 30
0
 10
143.2269164680995
 20
593.6435233433426
 30
0
 10
143.2269164680995
 20
592.8153223886885
 30
0
 10
143.8987100877233
 20
592.1438732786133
 30
0
 10
144.7272555519258
 20
592.1438732786133
 30
0
 10
145.5558010161284
 20
592.1438732786133
 30
0
 10
146.2275946357521
 20
592.8153223886885
 30
0
 10
146.2275946357521
 20
593.6435233433426
 30
0
 10
146.2275946357521
 20
594.4717242979967
 30
0
 10
145.5558010161284
 20
595.1438624271689
 30
0
 10
144.7272555519258
 20
595.1438624271689
 30
0
 10
144.7272555519258
 20
595.1438624271689
 30
0
 10
144.7272555519258
 20
595.1438624271689
 30
0
 10
144.7272555519258
 20
595.1438624271689
 30
0
  0
ENDBLK
  5
7C
330
7A
100
AcDbEntity
  8
0
100
AcDbBlockEnd
  0
BLOCK
  5
7E
330
7D
100
AcDbEntity
  8
0
100
AcDbBlockBegin
  2
block 17
 70
    0
 10
0
 20
0
  3
block 17
  1

  0
SPLINE
  5
120
100
AcDbEntity
  8
Layer 8
  6
ByLayer
 62
  256
370
    0
100
AcDbSpline
210
0
220
0
230
0
 70
   11
 71
    3
 72
   20
 73
   16
 74
    0
 42
1e-07
 43
1e-07
 40
0
 40
0
 40
0
 40
0
 40
1
 40
1
 40
1
 40
2
 40
2
 40
2
 40
3
 40
3
 40
3
 40
4
 40
4
 40
4
 40
5
 40
5
 40
5
 40
5
 10
202.779353790451
 20
595.1438624271689
 30
0
 10
201.9504638166999
 20
595.1438624271689
 30
0
 10
201.2793592161732
 20
594.4720688075452
 30
0
 10
201.2793592161732
 20
593.6438678528912
 30
0
 10
201.2793592161732
 20
592.8153223886885
 30
0
 10
201.9504638166999
 20
592.1438732786133
 30
0
 10
202.779353790451
 20
592.1438732786133
 30
0
 10
203.6075547451051
 20
592.1438732786133
 30
0
 10
204.2793483647288
 20
592.8153223886885
 30
0
 10
204.2793483647288
 20
593.6438678528912
 30
0
 10
204.2793483647288
 20
594.4720688075452
 30
0
 10
203.6075547451051
 20
595.1438624271689
 30
0
 10
202.779353790451
 20
595.1438624271689
 30
0
 10
202.779353790451
 20
595.1438624271689
 30
0
 10
202.779353790451
 20
595.1438624271689
 30
0
 10
202.779353790451
 20
595.1438624271689
 30
0
  0
ENDBLK
  5
7F
330
7D
100
AcDbEntity
  8
0
100
AcDbBlockEnd
  0
BLOCK
  5
81
330
80
100
AcDbEntity
  8
0
100
AcDbBlockBegin
  2
block 18
 70
    0
 10
0
 20
0
  3
block 18
  1

  0
LWPOLYLINE
  5
121
100
AcDbEntity
  8
Layer 8
  6
ByLayer
 62
  256
370
    0
100
AcDbPolyline
 90
    5
 70
    0
 43
0
 10
136.3741047836148
 20
513.7303994483904
 10
136.3741047836148
 20
516.7303885969459
 10
146.3741834486495
 20
516.7307331064944
 10
146.3741834486495
 20
513.7307439579389
 10
136.3741047836148
 20
513.7303994483904
  0
LWPOLYLINE
  5
122
100
AcDbEntity
  8
Layer 8
  6
ByLayer
 62
  256
370
    0
100
AcDbPolyline
 90
    5
 70
    0
 43
0
 10
181.1348523852718
 20
513.7303994483904
 10
181.1348523852718
 20
516.7303885969459
 10
191.134586540758
 20
516.7307331064944
 10
191.134586540758
 20
513.7307439579389
 10
181.1348523852718
 20
513.7303994483904
  0
ENDBLK
  5
82
330
80
100
AcDbEntity
  8
0
100
AcDbBlockEnd
  0
BLOCK
  5
84
330
83
100
AcDbEntity
  8
0
100
AcDbBlockBegin
  2
block 19
 70
    0
 10
0
 20
0
  3
block 19
  1

  0
LWPOLYLINE
  5
123
100
AcDbEntity
  8
Layer 8
  6
ByLayer
 62
  256
370
    0
100
AcDbPolyline
 90
    5
 70
    0
 43
0
 10
136.3741047836148
 20
597.5585298527806
 10
136.3741047836148
 20
600.5585190013361
 10
146.3741834486495
 20
600.5585190013361
 10
146.3741834486495
 20
597.5585298527806
 10
136.3741047836148
 20
597.5585298527806
  0
LWPOLYLINE
  5
124
100
AcDbEntity
  8
Layer 8
  6
ByLayer
 62
  256
370
    0
100
AcDbPolyline
 90
    5
 70
    0
 43
0
 10
181.1348523852718
 20
597.5585298527806
 10
181.1348523852718
 20
600.5585190013361
 10
191.134586540758
 20
600.5585190013361
 10
191.134586540758
 20
597.5585298527806
 10
181.1348523852718
 20
597.5585298527806
  0
ENDBLK
  5
85
330
83
100
AcDbEntity
  8
0
100
AcDbBlockEnd
  0
BLOCK
  5
87
330
86
100
AcDbEntity
  8
0
100
AcDbBlockBegin
  2
block 20
 70
    0
 10
0
 20
0
  3
block 20
  1

  0
INSERT
  5
125
100
AcDbEntity
  8
Layer 8
  6
ByLayer
 62
  256
370
   -1
100
AcDbBlockReference
  2
block 21
 10
0
 20
0
 30
0
 41
1
 42
1
 43
0
 50
0
 70
    1
 71
    1
 44
0
 45
0
  0
INSERT
  5
126
100
AcDbEntity
  8
Layer 8
  6
ByLayer
 62
  256
370
   -1
100
AcDbBlockReference
  2
block 25
 10
0
 20
0
 30
0
 41
1
 42
1
 43
0
 50
0
 70
    1
 71
    1
 44
0
 45
0
  0
ENDBLK
  5
88
330
86
100
AcDbEntity
  8
0
100
AcDbBlockEnd
  0
BLOCK
  5
8A
330
89
100
AcDbEntity
  8
0
100
AcDbBlockBegin
  2
block 21
 70
    0
 10
0
 20
0
  3
block 21
  1

  0
INSERT
  5
127
100
AcDbEntity
  8
Layer 8
  6
ByLayer
 62
  256
370
   -1
100
AcDbBlockReference
  2
block 22
 10
0
 20
0
 30
0
 41
1
 42
1
 43
0
 50
0
 70
    1
 71
    1
 44
0
 45
0
  0
ENDBLK
  5
8B
330
89
100
AcDbEntity
  8
0
100
AcDbBlockEnd
  0
BLOCK
  5
8D
330
8C
100
AcDbEntity
  8
0
100
AcDbBlockBegin
  2
block 22
 70
    0
 10
0
 20
0
  3
block 22
  1

  0
INSERT
  5
128
100
AcDbEntity
  8
Layer 8
  6
ByLayer
 62
  256
370
   -1
100
AcDbBlockReference
  2
block 23
 10
0
 20
0
 30
0
 41
1
 42
1
 43
0
 50
0
 70
    1
 71
    1
 44
0
 45
0
  0
ENDBLK
  5
8E
330
8C
100
AcDbEntity
  8
0
100
AcDbBlockEnd
  0
BLOCK
  5
90
330
8F
100
AcDbEntity
  8
0
100
AcDbBlockBegin
  2
block 23
 70
    0
 10
0
 20
0
  3
block 23
  1

  0
LWPOLYLINE
  5
129
100
AcDbEntity
  8
Layer 8
  6
ByLayer
 62
  256
370
    0
100
AcDbPolyline
 90
    2
 70
    0
 43
0
 10
308.6261229697185
 20
516.6373710188442
 10
345.1155408208392
 20
516.6373710188442
  0
SPLINE
  5
12A
100
AcDbEntity
  8
Layer 8
  6
ByLayer
 62
  256
370
    0
100
AcDbSpline
210
0
220
0
230
0
 70
    8
 71
    3
 72
  128
 73
  124
 74
    0
 42
1e-07
 43
1e-07
 40
0
 40
0
 40
0
 40
0
 40
1
 40
1
 40
1
 40
2
 40
2
 40
2
 40
3
 40
3
 40
3
 40
4
 40
4
 40
4
 40
5
 40
5
 40
5
 40
6
 40
6
 40
6
 40
7
 40
7
 40
7
 40
8
 40
8
 40
8
 40
9
 40
9
 40
9
 40
10
 40
10
 40
10
 40
11
 40
11
 40
11
 40
12
 40
12
 40
12
 40
13
 40
13
 40
13
 40
14
 40
14
 40
14
 40
15
 40
15
 40
15
 40
16
 40
16
 40
16
 40
17
 40
17
 40
17
 40
18
 40
18
 40
18
 40
19
 40
19
 40
19
 40
20
 40
20
 40
20
 40
21
 40
21
 40
21
 40
22
 40
22
 40
22
 40
23
 40
23
 40
23
 40
24
 40
24
 40
24
 40
25
 40
25
 40
25
 40
26
 40
26
 40
26
 40
27
 40
27
 40
27
 40
28
 40
28
 40
28
 40
29
 40
29
 40
29
 40
30
 40
30
 40
30
 40
31
 40
31
 40
31
 40
32
 40
32
 40
32
 40
33
 40
33
 40
33
 40
34
 40
34
 40
34
 40
35
 40
35
 40
35
 40
36
 40
36
 40
36
 40
37
 40
37
 40
37
 40
38
 40
38
 40
38
 40
39
 40
39
 40
39
 40
40
 40
40
 40
40
 40
41
 40
41
 40
41
 40
41
 10
345.1155408208392
 20
516.6380600379412
 30
0
 10
345.1155408208392
 20
516.6380600379412
 30
0
 10
345.1155408208392
 20
521.9614215817493
 30
0
 10
345.1155408208392
 20
521.9614215817493
 30
0
 10
345.1155408208392
 20
521.9614215817493
 30
0
 10
348.208892057045
 20
521.9614215817493
 30
0
 10
348.208892057045
 20
521.9614215817493
 30
0
 10
348.208892057045
 20
521.9614215817493
 30
0
 10
348.208892057045
 20
531.9611557372355
 30
0
 10
348.208892057045
 20
531.9611557372355
 30
0
 10
348.208892057045
 20
531.9611557372355
 30
0
 10
345.1155408208392
 20
531.9611557372355
 30
0
 10
345.1155408208392
 20
531.9611557372355
 30
0
 10
345.1155408208392
 20
531.9611557372355
 30
0
 10
345.1155408208392
 20
582.4290485197573
 30
0
 10
345.1155408208392
 20
582.4290485197573
 30
0
 10
345.1155408208392
 20
582.4290485197573
 30
0
 10
348.208892057045
 20
582.4290485197573
 30
0
 10
348.208892057045
 20
582.4290485197573
 30
0
 10
348.208892057045
 20
582.4290485197573
 30
0
 10
348.208892057045
 20
592.4287826752435
 30
0
 10
348.208892057045
 20
592.4287826752435
 30
0
 10
348.208892057045
 20
592.4287826752435
 30
0
 10
345.1155408208392
 20
592.4287826752435
 30
0
 10
345.1155408208392
 20
592.4287826752435
 30
0
 10
345.1155408208392
 20
592.4287826752435
 30
0
 10
345.1155408208392
 20
600.6088173954207
 30
0
 10
345.1155408208392
 20
600.6088173954207
 30
0
 10
345.1155408208392
 20
600.6088173954207
 30
0
 10
308.6261229697185
 20
600.6088173954207
 30
0
 10
308.6261229697185
 20
600.6088173954207
 30
0
 10
308.6261229697185
 20
600.6088173954207
 30
0
 10
308.6261229697185
 20
592.4287826752435
 30
0
 10
308.6261229697185
 20
592.4287826752435
 30
0
 10
308.6261229697185
 20
592.4287826752435
 30
0
 10
308.5251816720007
 20
592.4287826752435
 30
0
 10
308.5251816720007
 20
592.4287826752435
 30
0
 10
308.5251816720007
 20
592.4287826752435
 30
0
 10
308.5251816720007
 20
592.4294716943406
 30
0
 10
308.5251816720007
 20
592.4294716943406
 30
0
 10
308.5251816720007
 20
592.4294716943406
 30
0
 10
305.5768689557239
 20
592.4294716943406
 30
0
 10
305.5768689557239
 20
592.4294716943406
 30
0
 10
305.5765244461753
 20
592.4294716943406
 30
0
 10
305.5761799366268
 20
592.4287826752435
 30
0
 10
305.5758354270783
 20
592.4287826752435
 30
0
 10
305.5758354270783
 20
592.4287826752435
 30
0
 10
305.5324272239641
 20
592.4287826752435
 30
0
 10
305.5324272239641
 20
592.4287826752435
 30
0
 10
305.5324272239641
 20
592.4287826752435
 30
0
 10
305.5324272239641
 20
592.398293580199
 30
0
 10
305.5324272239641
 20
592.398293580199
 30
0
 10
303.9221895941583
 20
591.3242850626724
 30
0
 10
302.8573105796676
 20
589.4997624936841
 30
0
 10
302.8573105796676
 20
587.4182358014962
 30
0
 10
302.8573105796676
 20
585.3367091093082
 30
0
 10
303.9221895941583
 20
583.5114975212229
 30
0
 10
305.5324272239641
 20
582.438005768019
 30
0
 10
305.5324272239641
 20
582.438005768019
 30
0
 10
305.5324272239641
 20
582.4290485197573
 30
0
 10
305.5324272239641
 20
582.4290485197573
 30
0
 10
305.5324272239641
 20
582.4290485197573
 30
0
 10
305.544829567711
 20
582.4290485197573
 30
0
 10
305.544829567711
 20
582.4290485197573
 30
0
 10
305.5496527013904
 20
582.4256034242721
 30
0
 10
305.5537868159727
 20
582.4221583287868
 30
0
 10
305.558609949652
 20
582.4194022523986
 30
0
 10
305.558609949652
 20
582.4194022523986
 30
0
 10
305.5737683697871
 20
582.4194022523986
 30
0
 10
305.5737683697871
 20
582.4194022523986
 30
0
 10
305.5737683697871
 20
582.4194022523986
 30
0
 10
305.5737683697871
 20
582.4152681378164
 30
0
 10
305.5737683697871
 20
582.4152681378164
 30
0
 10
305.5737683697871
 20
582.4152681378164
 30
0
 10
308.6261229697185
 20
582.4152681378164
 30
0
 10
308.6261229697185
 20
582.4152681378164
 30
0
 10
308.6261229697185
 20
582.4152681378164
 30
0
 10
308.6261229697185
 20
531.9611557372355
 30
0
 10
308.6261229697185
 20
531.9611557372355
 30
0
 10
308.6261229697185
 20
531.9611557372355
 30
0
 10
308.5251816720007
 20
531.9611557372355
 30
0
 10
308.5251816720007
 20
531.9611557372355
 30
0
 10
308.5251816720007
 20
531.9611557372355
 30
0
 10
308.5251816720007
 20
531.9632227945266
 30
0
 10
308.5251816720007
 20
531.9632227945266
 30
0
 10
308.5251816720007
 20
531.9632227945266
 30
0
 10
305.5768689557239
 20
531.9632227945266
 30
0
 10
305.5768689557239
 20
531.9632227945266
 30
0
 10
305.5758354270783
 20
531.9625337754295
 30
0
 10
305.5748018984327
 20
531.9618447563324
 30
0
 10
305.5737683697871
 20
531.9611557372355
 30
0
 10
305.5737683697871
 20
531.9611557372355
 30
0
 10
305.5324272239641
 20
531.9611557372355
 30
0
 10
305.5324272239641
 20
531.9611557372355
 30
0
 10
305.5324272239641
 20
531.9611557372355
 30
0
 10
305.5324272239641
 20
531.9322169351593
 30
0
 10
305.5324272239641
 20
531.9322169351593
 30
0
 10
303.9221895941583
 20
530.8587251819555
 30
0
 10
302.8573105796676
 20
529.0335135938701
 30
0
 10
302.8573105796676
 20
526.9526759207793
 30
0
 10
302.8573105796676
 20
524.8704602094942
 30
0
 10
303.9221895941583
 20
523.0452486214089
 30
0
 10
305.5324272239641
 20
521.971756868205
 30
0
 10
305.5324272239641
 20
521.971756868205
 30
0
 10
305.5324272239641
 20
521.9614215817493
 30
0
 10
305.5324272239641
 20
521.9614215817493
 30
0
 10
305.5324272239641
 20
521.9614215817493
 30
0
 10
305.5468966250022
 20
521.9614215817493
 30
0
 10
305.5468966250022
 20
521.9614215817493
 30
0
 10
305.5510307395845
 20
521.9586655053611
 30
0
 10
305.5544758350698
 20
521.9559094289729
 30
0
 10
305.558609949652
 20
521.9531533525846
 30
0
 10
305.558609949652
 20
521.9531533525846
 30
0
 10
305.5737683697871
 20
521.9531533525846
 30
0
 10
305.5737683697871
 20
521.9531533525846
 30
0
 10
305.5737683697871
 20
521.9531533525846
 30
0
 10
305.5737683697871
 20
521.9497082570994
 30
0
 10
305.5737683697871
 20
521.9497082570994
 30
0
 10
305.5737683697871
 20
521.9497082570994
 30
0
 10
308.6261229697185
 20
521.9497082570994
 30
0
 10
308.6261229697185
 20
521.9497082570994
 30
0
 10
308.6261229697185
 20
521.9497082570994
 30
0
 10
308.6261229697185
 20
516.6373710188442
 30
0
 10
308.6261229697185
 20
516.6373710188442
 30
0
  0
INSERT
  5
12B
100
AcDbEntity
  8
Layer 8
  6
ByLayer
 62
  256
370
   -1
100
AcDbBlockReference
  2
block 24
 10
0
 20
0
 30
0
 41
1
 42
1
 43
0
 50
0
 70
    1
 71
    1
 44
0
 45
0
  0
ENDBLK
  5
91
330
8F
100
AcDbEntity
  8
0
100
AcDbBlockEnd
  0
BLOCK
  5
93
330
92
100
AcDbEntity
  8
0
100
AcDbBlockBegin
  2
block 24
 70
    0
 10
0
 20
0
  3
block 24
  1

  0
SPLINE
  5
12C
100
AcDbEntity
  8
Layer 8
  6
ByLayer
 62
  256
370
    0
100
AcDbSpline
210
0
220
0
230
0
 70
   11
 71
    3
 72
   29
 73
   25
 74
    0
 42
1e-07
 43
1e-07
 40
0
 40
0
 40
0
 40
0
 40
1
 40
1
 40
1
 40
2
 40
2
 40
2
 40
3
 40
3
 40
3
 40
4
 40
4
 40
4
 40
5
 40
5
 40
5
 40
6
 40
6
 40
6
 40
7
 40
7
 40
7
 40
8
 40
8
 40
8
 40
8
 10
313.0916557376993
 20
594.324963230325
 30
0
 10
312.3123751389358
 20
594.324963230325
 30
0
 10
311.680544626941
 20
593.6931327183302
 30
0
 10
311.680544626941
 20
592.9138521195667
 30
0
 10
311.680544626941
 20
592.9138521195667
 30
0
 10
311.680544626941
 20
543.9535331213901
 30
0
 10
311.680544626941
 20
543.9535331213901
 30
0
 10
311.680544626941
 20
543.1742525226266
 30
0
 10
312.3123751389358
 20
542.5424220106318
 30
0
 10
313.0916557376993
 20
542.5424220106318
 30
0
 10
313.0916557376993
 20
542.5424220106318
 30
0
 10
327.5834498964028
 20
542.5424220106318
 30
0
 10
327.5834498964028
 20
542.5424220106318
 30
0
 10
328.3627304951663
 20
542.5424220106318
 30
0
 10
328.9945610071611
 20
543.1742525226266
 30
0
 10
328.9945610071611
 20
543.9535331213901
 30
0
 10
328.9945610071611
 20
543.9535331213901
 30
0
 10
328.9945610071611
 20
592.9138521195667
 30
0
 10
328.9945610071611
 20
592.9138521195667
 30
0
 10
328.9945610071611
 20
593.6931327183302
 30
0
 10
328.3627304951663
 20
594.324963230325
 30
0
 10
327.5834498964028
 20
594.324963230325
 30
0
 10
327.5834498964028
 20
594.324963230325
 30
0
 10
313.0916557376993
 20
594.324963230325
 30
0
 10
313.0916557376993
 20
594.324963230325
 30
0
  0
ENDBLK
  5
94
330
92
100
AcDbEntity
  8
0
100
AcDbBlockEnd
  0
BLOCK
  5
96
330
95
100
AcDbEntity
  8
0
100
AcDbBlockBegin
  2
block 25
 70
    0
 10
0
 20
0
  3
block 25
  1

  0
LWPOLYLINE
  5
12D
100
AcDbEntity
  8
Layer 8
  6
ByLayer
 62
  256
370
    0
100
AcDbPolyline
 90
    4
 70
    0
 43
0
 10
348.208892057045
 20
521.9083671112764
 10
351.3022432932509
 20
521.9083671112764
 10
351.2726154720777
 20
521.8828734046856
 10
351.2726154720777
 20
513.6373818702886
  0
LWPOLYLINE
  5
12E
100
AcDbEntity
  8
Layer 8
  6
ByLayer
 62
  256
370
    0
100
AcDbPolyline
 90
    4
 70
    0
 43
0
 10
348.208892057045
 20
582.4200912714957
 10
351.3022432932509
 20
582.4200912714957
 10
351.3022432932509
 20
531.9081012667626
 10
348.208892057045
 20
531.9081012667626
  0
SPLINE
  5
12F
100
AcDbEntity
  8
Layer 8
  6
ByLayer
 62
  256
370
    0
100
AcDbSpline
210
0
220
0
230
0
 70
    8
 71
    3
 72
  110
 73
  106
 74
    0
 42
1e-07
 43
1e-07
 40
0
 40
0
 40
0
 40
0
 40
1
 40
1
 40
1
 40
2
 40
2
 40
2
 40
3
 40
3
 40
3
 40
4
 40
4
 40
4
 40
5
 40
5
 40
5
 40
6
 40
6
 40
6
 40
7
 40
7
 40
7
 40
8
 40
8
 40
8
 40
9
 40
9
 40
9
 40
10
 40
10
 40
10
 40
11
 40
11
 40
11
 40
12
 40
12
 40
12
 40
13
 40
13
 40
13
 40
14
 40
14
 40
14
 40
15
 40
15
 40
15
 40
16
 40
16
 40
16
 40
17
 40
17
 40
17
 40
18
 40
18
 40
18
 40
19
 40
19
 40
19
 40
20
 40
20
 40
20
 40
21
 40
21
 40
21
 40
22
 40
22
 40
22
 40
23
 40
23
 40
23
 40
24
 40
24
 40
24
 40
25
 40
25
 40
25
 40
26
 40
26
 40
26
 40
27
 40
27
 40
27
 40
28
 40
28
 40
28
 40
29
 40
29
 40
29
 40
30
 40
30
 40
30
 40
31
 40
31
 40
31
 40
32
 40
32
 40
32
 40
33
 40
33
 40
33
 40
34
 40
34
 40
34
 40
35
 40
35
 40
35
 40
35
 10
351.2471217654868
 20
521.8291299151157
 30
0
 10
351.2471217654868
 20
521.8291299151157
 30
0
 10
351.2471217654868
 20
513.6373818702886
 30
0
 10
351.2471217654868
 20
513.6373818702886
 30
0
 10
351.2471217654868
 20
513.6373818702886
 30
0
 10
387.8991481235113
 20
513.6373818702886
 30
0
 10
387.8991481235113
 20
513.6373818702886
 30
0
 10
387.8991481235113
 20
513.6373818702886
 30
0
 10
387.8991481235113
 20
521.8566906789977
 30
0
 10
387.8991481235113
 20
521.8566906789977
 30
0
 10
387.8991481235113
 20
521.8566906789977
 30
0
 10
387.9539251417268
 20
521.9083671112764
 30
0
 10
387.9539251417268
 20
521.9083671112764
 30
0
 10
387.9539251417268
 20
521.9083671112764
 30
0
 10
388.0889728847486
 20
521.9083671112764
 30
0
 10
388.0889728847486
 20
521.9083671112764
 30
0
 10
388.0889728847486
 20
521.9083671112764
 30
0
 10
388.0889728847486
 20
521.9076780921794
 30
0
 10
388.0889728847486
 20
521.9076780921794
 30
0
 10
388.0889728847486
 20
521.9076780921794
 30
0
 10
391.0372856010254
 20
521.9076780921794
 30
0
 10
391.0372856010254
 20
521.9076780921794
 30
0
 10
391.037630110574
 20
521.9083671112764
 30
0
 10
391.0379746201224
 20
521.9083671112764
 30
0
 10
391.0386636392195
 20
521.9083671112764
 30
0
 10
391.0386636392195
 20
521.9083671112764
 30
0
 10
391.0476208874812
 20
521.9083671112764
 30
0
 10
391.0476208874812
 20
521.9083671112764
 30
0
 10
391.0476208874812
 20
521.9083671112764
 30
0
 10
391.0476208874812
 20
521.9152573022469
 30
0
 10
391.0476208874812
 20
521.9152573022469
 30
0
 10
392.6771510520043
 20
522.9859929790625
 30
0
 10
393.7568439770816
 20
524.8222288727007
 30
0
 10
393.7568439770816
 20
526.9189139850238
 30
0
 10
393.7568439770816
 20
529.0121540018615
 30
0
 10
392.6805961474896
 20
530.8463228382086
 30
0
 10
391.0555446070973
 20
531.9177475341213
 30
0
 10
391.0555446070973
 20
531.9177475341213
 30
0
 10
391.0403861869622
 20
531.9177475341213
 30
0
 10
391.0403861869622
 20
531.9177475341213
 30
0
 10
391.0403861869622
 20
531.9177475341213
 30
0
 10
391.0403861869622
 20
531.9218816487036
 30
0
 10
391.0403861869622
 20
531.9218816487036
 30
0
 10
391.0403861869622
 20
531.9218816487036
 30
0
 10
387.9539251417268
 20
531.9218816487036
 30
0
 10
387.9539251417268
 20
531.9218816487036
 30
0
 10
387.9539251417268
 20
531.9218816487036
 30
0
 10
387.9539251417268
 20
561.9073037332212
 30
0
 10
387.9539251417268
 20
561.9073037332212
 30
0
 10
387.7854599724981
 20
561.8652735683011
 30
0
 10
387.5656628805392
 20
561.8390908426131
 30
0
 10
387.322094629732
 20
561.8390908426131
 30
0
 10
387.322094629732
 20
561.8390908426131
 30
0
 10
386.1318141395782
 20
561.8397798617102
 30
0
 10
386.1318141395782
 20
561.8397798617102
 30
0
 10
385.6057480589805
 20
561.8397798617102
 30
0
 10
384.4523300905189
 20
561.9582911464028
 30
0
 10
384.4523300905189
 20
562.1050522140745
 30
0
 10
384.4523300905189
 20
562.1050522140745
 30
0
 10
384.4523300905189
 20
576.41184474522
 30
0
 10
384.4523300905189
 20
576.41184474522
 30
0
 10
384.4523300905189
 20
576.5586058128916
 30
0
 10
385.6067815876261
 20
576.6771170975842
 30
0
 10
386.1328476682237
 20
576.6771170975842
 30
0
 10
386.1328476682237
 20
576.6771170975842
 30
0
 10
387.322094629732
 20
576.6778061166813
 30
0
 10
387.322094629732
 20
576.6778061166813
 30
0
 10
387.5656628805392
 20
576.6778061166813
 30
0
 10
387.7854599724981
 20
576.6509343718964
 30
0
 10
387.9539251417268
 20
576.6089042069763
 30
0
 10
387.9539251417268
 20
576.6089042069763
 30
0
 10
387.9539251417268
 20
582.4200912714957
 30
0
 10
387.9539251417268
 20
582.4200912714957
 30
0
 10
387.9539251417268
 20
582.4200912714957
 30
0
 10
391.0476208874812
 20
582.4200912714957
 30
0
 10
391.0476208874812
 20
582.4200912714957
 30
0
 10
391.0476208874812
 20
582.4200912714957
 30
0
 10
391.0476208874812
 20
582.4407618444072
 30
0
 10
391.0476208874812
 20
582.4407618444072
 30
0
 10
392.6771510520043
 20
583.5114975212229
 30
0
 10
393.7568439770816
 20
585.347733414861
 30
0
 10
393.7568439770816
 20
587.4444185271841
 30
0
 10
393.7568439770816
 20
589.5376585440218
 30
0
 10
392.6805961474896
 20
591.3718273803689
 30
0
 10
391.0555446070973
 20
592.4432520762816
 30
0
 10
391.0555446070973
 20
592.4432520762816
 30
0
 10
391.0403861869622
 20
592.4432520762816
 30
0
 10
391.0403861869622
 20
592.4432520762816
 30
0
 10
391.0403861869622
 20
592.4432520762816
 30
0
 10
391.0403861869622
 20
592.4473861908639
 30
0
 10
391.0403861869622
 20
592.4473861908639
 30
0
 10
391.0403861869622
 20
592.4473861908639
 30
0
 10
387.9539251417268
 20
592.4473861908639
 30
0
 10
387.9539251417268
 20
592.4473861908639
 30
0
 10
387.9539251417268
 20
592.4473861908639
 30
0
 10
387.9539251417268
 20
597.6088282468652
 30
0
 10
387.9539251417268
 20
597.6088282468652
 30
0
 10
387.9539251417268
 20
597.6088282468652
 30
0
 10
351.3022432932509
 20
597.6088282468652
 30
0
 10
351.3022432932509
 20
597.6088282468652
 30
0
 10
351.3022432932509
 20
597.6088282468652
 30
0
 10
351.3022432932509
 20
592.4198254269819
 30
0
 10
351.3022432932509
 20
592.4198254269819
 30
0
 10
351.3022432932509
 20
592.4198254269819
 30
0
 10
348.208892057045
 20
592.4198254269819
 30
0
 10
348.208892057045
 20
592.4198254269819
 30
0
  0
INSERT
  5
130
100
AcDbEntity
  8
Layer 8
  6
ByLayer
 62
  256
370
   -1
100
AcDbBlockReference
  2
block 26
 10
0
 20
0
 30
0
 41
1
 42
1
 43
0
 50
0
 70
    1
 71
    1
 44
0
 45
0
  0
ENDBLK
  5
97
330
95
100
AcDbEntity
  8
0
100
AcDbBlockEnd
  0
BLOCK
  5
99
330
98
100
AcDbEntity
  8
0
100
AcDbBlockBegin
  2
block 26
 70
    0
 10
0
 20
0
  3
block 26
  1

  0
INSERT
  5
131
100
AcDbEntity
  8
Layer 8
  6
ByLayer
 62
  256
370
   -1
100
AcDbBlockReference
  2
block 27
 10
0
 20
0
 30
0
 41
1
 42
1
 43
0
 50
0
 70
    1
 71
    1
 44
0
 45
0
  0
INSERT
  5
132
100
AcDbEntity
  8
Layer 8
  6
ByLayer
 62
  256
370
   -1
100
AcDbBlockReference
  2
block 29
 10
0
 20
0
 30
0
 41
1
 42
1
 43
0
 50
0
 70
    1
 71
    1
 44
0
 45
0
  0
INSERT
  5
133
100
AcDbEntity
  8
Layer 8
  6
ByLayer
 62
  256
370
   -1
100
AcDbBlockReference
  2
block 37
 10
0
 20
0
 30
0
 41
1
 42
1
 43
0
 50
0
 70
    1
 71
    1
 44
0
 45
0
  0
ENDBLK
  5
9A
330
98
100
AcDbEntity
  8
0
100
AcDbBlockEnd
  0
BLOCK
  5
9C
330
9B
100
AcDbEntity
  8
0
100
AcDbBlockBegin
  2
block 27
 70
    0
 10
0
 20
0
  3
block 27
  1

  0
INSERT
  5
134
100
AcDbEntity
  8
Layer 8
  6
ByLayer
 62
  256
370
   -1
100
AcDbBlockReference
  2
block 28
 10
0
 20
0
 30
0
 41
1
 42
1
 43
0
 50
0
 70
    1
 71
    1
 44
0
 45
0
  0
ENDBLK
  5
9D
330
9B
100
AcDbEntity
  8
0
100
AcDbBlockEnd
  0
BLOCK
  5
9F
330
9E
100
AcDbEntity
  8
0
100
AcDbBlockBegin
  2
block 28
 70
    0
 10
0
 20
0
  3
block 28
  1

  0
SPLINE
  5
135
100
AcDbEntity
  8
Layer 8
  6
ByLayer
 62
  256
370
    0
100
AcDbSpline
210
0
220
0
230
0
 70
   11
 71
    3
 72
   20
 73
   16
 74
    0
 42
1e-07
 43
1e-07
 40
0
 40
0
 40
0
 40
0
 40
1
 40
1
 40
1
 40
2
 40
2
 40
2
 40
3
 40
3
 40
3
 40
4
 40
4
 40
4
 40
5
 40
5
 40
5
 40
5
 10
383.3395642487832
 20
590.8819348023663
 30
0
 10
382.7869709329491
 20
590.8819348023663
 30
0
 10
382.3391085198666
 20
590.4333833701868
 30
0
 10
382.3391085198666
 20
589.8814790734498
 30
0
 10
382.3391085198666
 20
589.3288857576157
 30
0
 10
382.7869709329491
 20
588.8817123636303
 30
0
 10
383.3395642487832
 20
588.8817123636303
 30
0
 10
383.8918130550687
 20
588.8817123636303
 30
0
 10
384.3396754681512
 20
589.3288857576157
 30
0
 10
384.3396754681512
 20
589.8814790734498
 30
0
 10
384.3396754681512
 20
590.4333833701868
 30
0
 10
383.8918130550687
 20
590.8819348023663
 30
0
 10
383.3395642487832
 20
590.8819348023663
 30
0
 10
383.3395642487832
 20
590.8819348023663
 30
0
 10
383.3395642487832
 20
590.8819348023663
 30
0
 10
383.3395642487832
 20
590.8819348023663
 30
0
  0
ENDBLK
  5
A0
330
9E
100
AcDbEntity
  8
0
100
AcDbBlockEnd
  0
BLOCK
  5
A2
330
A1
100
AcDbEntity
  8
0
100
AcDbBlockBegin
  2
block 29
 70
    0
 10
0
 20
0
  3
block 29
  1

  0
SPLINE
  5
136
100
AcDbEntity
  8
Layer 8
  6
ByLayer
 62
  256
370
    0
100
AcDbSpline
210
0
220
0
230
0
 70
   11
 71
    3
 72
   29
 73
   25
 74
    0
 42
1e-07
 43
1e-07
 40
0
 40
0
 40
0
 40
0
 40
1
 40
1
 40
1
 40
2
 40
2
 40
2
 40
3
 40
3
 40
3
 40
4
 40
4
 40
4
 40
5
 40
5
 40
5
 40
6
 40
6
 40
6
 40
7
 40
7
 40
7
 40
8
 40
8
 40
8
 40
8
 10
377.6182941764288
 20
584.9667058541924
 30
0
 10
377.8005397275985
 20
584.8619749514407
 30
0
 10
377.7409395757037
 20
584.4185911624892
 30
0
 10
377.4863470193437
 20
583.9772744308286
 30
0
 10
377.4863470193437
 20
583.9772744308286
 30
0
 10
376.9089490160158
 20
582.9778522305577
 30
0
 10
376.9089490160158
 20
582.9778522305577
 30
0
 10
376.6540119501074
 20
582.5361909893486
 30
0
 10
376.3005451533207
 20
582.2633394269168
 30
0
 10
376.118299602151
 20
582.3687593487655
 30
0
 10
376.118299602151
 20
582.3687593487655
 30
0
 10
359.4567843068372
 20
591.9884994722286
 30
0
 10
359.4567843068372
 20
591.9884994722286
 30
0
 10
359.274883265216
 20
592.0932303749802
 30
0
 10
359.3341389075623
 20
592.5362696543833
 30
0
 10
359.5890759734708
 20
592.9779308955923
 30
0
 10
359.5890759734708
 20
592.9779308955923
 30
0
 10
360.1657849577016
 20
593.9770085863148
 30
0
 10
360.1657849577016
 20
593.9770085863148
 30
0
 10
360.4207220236101
 20
594.4186698275238
 30
0
 10
360.7748778394938
 20
594.6913491351813
 30
0
 10
360.956778881115
 20
594.5864459776554
 30
0
 10
360.956778881115
 20
594.5864459776554
 30
0
 10
377.6182941764288
 20
584.9667058541924
 30
0
 10
377.6182941764288
 20
584.9667058541924
 30
0
  0
INSERT
  5
137
100
AcDbEntity
  8
Layer 8
  6
ByLayer
 62
  256
370
   -1
100
AcDbBlockReference
  2
block 30
 10
0
 20
0
 30
0
 41
1
 42
1
 43
0
 50
0
 70
    1
 71
    1
 44
0
 45
0
  0
INSERT
  5
138
100
AcDbEntity
  8
Layer 8
  6
ByLayer
 62
  256
370
   -1
100
AcDbBlockReference
  2
block 31
 10
0
 20
0
 30
0
 41
1
 42
1
 43
0
 50
0
 70
    1
 71
    1
 44
0
 45
0
  0
INSERT
  5
139
100
AcDbEntity
  8
Layer 8
  6
ByLayer
 62
  256
370
   -1
100
AcDbBlockReference
  2
block 32
 10
0
 20
0
 30
0
 41
1
 42
1
 43
0
 50
0
 70
    1
 71
    1
 44
0
 45
0
  0
INSERT
  5
13A
100
AcDbEntity
  8
Layer 8
  6
ByLayer
 62
  256
370
   -1
100
AcDbBlockReference
  2
block 33
 10
0
 20
0
 30
0
 41
1
 42
1
 43
0
 50
0
 70
    1
 71
    1
 44
0
 45
0
  0
INSERT
  5
13B
100
AcDbEntity
  8
Layer 8
  6
ByLayer
 62
  256
370
   -1
100
AcDbBlockReference
  2
block 34
 10
0
 20
0
 30
0
 41
1
 42
1
 43
0
 50
0
 70
    1
 71
    1
 44
0
 45
0
  0
INSERT
  5
13C
100
AcDbEntity
  8
Layer 8
  6
ByLayer
 62
  256
370
   -1
100
AcDbBlockReference
  2
block 35
 10
0
 20
0
 30
0
 41
1
 42
1
 43
0
 50
0
 70
    1
 71
    1
 44
0
 45
0
  0
INSERT
  5
13D
100
AcDbEntity
  8
Layer 8
  6
ByLayer
 62
  256
370
   -1
100
AcDbBlockReference
  2
block 36
 10
0
 20
0
 30
0
 41
1
 42
1
 43
0
 50
0
 70
    1
 71
    1
 44
0
 45
0
  0
ENDBLK
  5
A3
330
A1
100
AcDbEntity
  8
0
100
AcDbBlockEnd
  0
BLOCK
  5
A5
330
A4
100
AcDbEntity
  8
0
100
AcDbBlockBegin
  2
block 30
 70
    0
 10
0
 20
0
  3
block 30
  1

  0
SPLINE
  5
13E
100
AcDbEntity
  8
Layer 8
  6
ByLayer
 62
  256
370
    0
100
AcDbSpline
210
0
220
0
230
0
 70
   11
 71
    3
 72
   29
 73
   25
 74
    0
 42
1e-07
 43
1e-07
 40
0
 40
0
 40
0
 40
0
 40
1
 40
1
 40
1
 40
2
 40
2
 40
2
 40
3
 40
3
 40
3
 40
4
 40
4
 40
4
 40
5
 40
5
 40
5
 40
6
 40
6
 40
6
 40
7
 40
7
 40
7
 40
8
 40
8
 40
8
 40
8
 10
377.6182941764288
 20
576.9661606087967
 30
0
 10
377.8005397275985
 20
576.8614297060451
 30
0
 10
377.7409395757037
 20
576.418390426642
 30
0
 10
377.4863470193437
 20
575.9767291854329
 30
0
 10
377.4863470193437
 20
575.9767291854329
 30
0
 10
376.9089490160158
 20
574.9776514947105
 30
0
 10
376.9089490160158
 20
574.9776514947105
 30
0
 10
376.6540119501074
 20
574.5359902535015
 30
0
 10
376.3005451533207
 20
574.2631386910697
 30
0
 10
376.118299602151
 20
574.3685586129183
 30
0
 10
376.118299602151
 20
574.3685586129183
 30
0
 10
359.4567843068372
 20
583.9882987363815
 30
0
 10
359.4567843068372
 20
583.9882987363815
 30
0
 10
359.274883265216
 20
584.093029639133
 30
0
 10
359.3341389075623
 20
584.5360689185361
 30
0
 10
359.5890759734708
 20
584.9777301597452
 30
0
 10
359.5890759734708
 20
584.9777301597452
 30
0
 10
360.1657849577016
 20
585.9768078504676
 30
0
 10
360.1657849577016
 20
585.9768078504676
 30
0
 10
360.4207220236101
 20
586.4184690916767
 30
0
 10
360.7748778394938
 20
586.6913206541085
 30
0
 10
360.956778881115
 20
586.5865897513569
 30
0
 10
360.956778881115
 20
586.5865897513569
 30
0
 10
377.6182941764288
 20
576.9661606087967
 30
0
 10
377.6182941764288
 20
576.9661606087967
 30
0
  0
ENDBLK
  5
A6
330
A4
100
AcDbEntity
  8
0
100
AcDbBlockEnd
  0
BLOCK
  5
A8
330
A7
100
AcDbEntity
  8
0
100
AcDbBlockBegin
  2
block 31
 70
    0
 10
0
 20
0
  3
block 31
  1

  0
SPLINE
  5
13F
100
AcDbEntity
  8
Layer 8
  6
ByLayer
 62
  256
370
    0
100
AcDbSpline
210
0
220
0
230
0
 70
   11
 71
    3
 72
   29
 73
   25
 74
    0
 42
1e-07
 43
1e-07
 40
0
 40
0
 40
0
 40
0
 40
1
 40
1
 40
1
 40
2
 40
2
 40
2
 40
3
 40
3
 40
3
 40
4
 40
4
 40
4
 40
5
 40
5
 40
5
 40
6
 40
6
 40
6
 40
7
 40
7
 40
7
 40
8
 40
8
 40
8
 40
8
 10
377.6182941764288
 20
568.9666488920466
 30
0
 10
377.8005397275985
 20
568.861917989295
 30
0
 10
377.7409395757037
 20
568.4181896907947
 30
0
 10
377.4863470193437
 20
567.9772174686829
 30
0
 10
377.4863470193437
 20
567.9772174686829
 30
0
 10
376.9089490160158
 20
566.9774507588633
 30
0
 10
376.9089490160158
 20
566.9774507588633
 30
0
 10
376.6540119501074
 20
566.5364785367514
 30
0
 10
376.3005451533207
 20
566.2636269743195
 30
0
 10
376.118299602151
 20
566.3683578770712
 30
0
 10
376.118299602151
 20
566.3683578770712
 30
0
 10
359.4567843068372
 20
575.9884425100828
 30
0
 10
359.4567843068372
 20
575.9884425100828
 30
0
 10
359.274883265216
 20
576.0931734128344
 30
0
 10
359.3341389075623
 20
576.5362126922375
 30
0
 10
359.5890759734708
 20
576.9778739334465
 30
0
 10
359.5890759734708
 20
576.9778739334465
 30
0
 10
360.1657849577016
 20
577.976951624169
 30
0
 10
360.1657849577016
 20
577.976951624169
 30
0
 10
360.4207220236101
 20
578.418612865378
 30
0
 10
360.7748778394938
 20
578.6914644278098
 30
0
 10
360.956778881115
 20
578.5860445059611
 30
0
 10
360.956778881115
 20
578.5860445059611
 30
0
 10
377.6182941764288
 20
568.9666488920466
 30
0
 10
377.6182941764288
 20
568.9666488920466
 30
0
  0
ENDBLK
  5
A9
330
A7
100
AcDbEntity
  8
0
100
AcDbBlockEnd
  0
BLOCK
  5
AB
330
AA
100
AcDbEntity
  8
0
100
AcDbBlockBegin
  2
block 32
 70
    0
 10
0
 20
0
  3
block 32
  1

  0
SPLINE
  5
140
100
AcDbEntity
  8
Layer 8
  6
ByLayer
 62
  256
370
    0
100
AcDbSpline
210
0
220
0
230
0
 70
   11
 71
    3
 72
   29
 73
   25
 74
    0
 42
1e-07
 43
1e-07
 40
0
 40
0
 40
0
 40
0
 40
1
 40
1
 40
1
 40
2
 40
2
 40
2
 40
3
 40
3
 40
3
 40
4
 40
4
 40
4
 40
5
 40
5
 40
5
 40
6
 40
6
 40
6
 40
7
 40
7
 40
7
 40
8
 40
8
 40
8
 40
8
 10
377.6182941764288
 20
560.9664481561994
 30
0
 10
377.8005397275985
 20
560.8617172534478
 30
0
 10
377.7409395757037
 20
560.4179889549476
 30
0
 10
377.4863470193437
 20
559.9770167328356
 30
0
 10
377.4863470193437
 20
559.9770167328356
 30
0
 10
376.9089490160158
 20
558.9772500230162
 30
0
 10
376.9089490160158
 20
558.9772500230162
 30
0
 10
376.6540119501074
 20
558.5362778009041
 30
0
 10
376.3005451533207
 20
558.2634262384723
 30
0
 10
376.118299602151
 20
558.368846160321
 30
0
 10
376.118299602151
 20
558.368846160321
 30
0
 10
359.4567843068372
 20
567.9882417742356
 30
0
 10
359.4567843068372
 20
567.9882417742356
 30
0
 10
359.274883265216
 20
568.0929726769872
 30
0
 10
359.3341389075623
 20
568.5360119563903
 30
0
 10
359.5890759734708
 20
568.9776731975993
 30
0
 10
359.5890759734708
 20
568.9776731975993
 30
0
 10
360.1657849577016
 20
569.9767508883218
 30
0
 10
360.1657849577016
 20
569.9767508883218
 30
0
 10
360.4207220236101
 20
570.4184121295308
 30
0
 10
360.7748778394938
 20
570.6912636919626
 30
0
 10
360.956778881115
 20
570.585843770114
 30
0
 10
360.956778881115
 20
570.585843770114
 30
0
 10
377.6182941764288
 20
560.9664481561994
 30
0
 10
377.6182941764288
 20
560.9664481561994
 30
0
  0
ENDBLK
  5
AC
330
AA
100
AcDbEntity
  8
0
100
AcDbBlockEnd
  0
BLOCK
  5
AE
330
AD
100
AcDbEntity
  8
0
100
AcDbBlockBegin
  2
block 33
 70
    0
 10
0
 20
0
  3
block 33
  1

  0
SPLINE
  5
141
100
AcDbEntity
  8
Layer 8
  6
ByLayer
 62
  256
370
    0
100
AcDbSpline
210
0
220
0
230
0
 70
   11
 71
    3
 72
   29
 73
   25
 74
    0
 42
1e-07
 43
1e-07
 40
0
 40
0
 40
0
 40
0
 40
1
 40
1
 40
1
 40
2
 40
2
 40
2
 40
3
 40
3
 40
3
 40
4
 40
4
 40
4
 40
5
 40
5
 40
5
 40
6
 40
6
 40
6
 40
7
 40
7
 40
7
 40
8
 40
8
 40
8
 40
8
 10
377.6182941764288
 20
552.9662474203523
 30
0
 10
377.8005397275985
 20
552.8615165176006
 30
0
 10
377.7409395757037
 20
552.4184772381975
 30
0
 10
377.4863470193437
 20
551.9768159969884
 30
0
 10
377.4863470193437
 20
551.9768159969884
 30
0
 10
376.9089490160158
 20
550.977738306266
 30
0
 10
376.9089490160158
 20
550.977738306266
 30
0
 10
376.6540119501074
 20
550.536766084154
 30
0
 10
376.3005451533207
 20
550.2639145217222
 30
0
 10
376.118299602151
 20
550.3686454244738
 30
0
 10
376.118299602151
 20
550.3686454244738
 30
0
 10
359.4567843068372
 20
559.9880410383885
 30
0
 10
359.4567843068372
 20
559.9880410383885
 30
0
 10
359.274883265216
 20
560.09277194114
 30
0
 10
359.3341389075623
 20
560.5358112205431
 30
0
 10
359.5890759734708
 20
560.9774724617522
 30
0
 10
359.5890759734708
 20
560.9774724617522
 30
0
 10
360.1657849577016
 20
561.9765501524746
 30
0
 10
360.1657849577016
 20
561.9765501524746
 30
0
 10
360.4207220236101
 20
562.4182113936837
 30
0
 10
360.7748778394938
 20
562.6910629561155
 30
0
 10
360.956778881115
 20
562.5863320533639
 30
0
 10
360.956778881115
 20
562.5863320533639
 30
0
 10
377.6182941764288
 20
552.9662474203523
 30
0
 10
377.6182941764288
 20
552.9662474203523
 30
0
  0
ENDBLK
  5
AF
330
AD
100
AcDbEntity
  8
0
100
AcDbBlockEnd
  0
BLOCK
  5
B1
330
B0
100
AcDbEntity
  8
0
100
AcDbBlockBegin
  2
block 34
 70
    0
 10
0
 20
0
  3
block 34
  1

  0
SPLINE
  5
142
100
AcDbEntity
  8
Layer 8
  6
ByLayer
 62
  256
370
    0
100
AcDbSpline
210
0
220
0
230
0
 70
   11
 71
    3
 72
   29
 73
   25
 74
    0
 42
1e-07
 43
1e-07
 40
0
 40
0
 40
0
 40
0
 40
1
 40
1
 40
1
 40
2
 40
2
 40
2
 40
3
 40
3
 40
3
 40
4
 40
4
 40
4
 40
5
 40
5
 40
5
 40
6
 40
6
 40
6
 40
7
 40
7
 40
7
 40
8
 40
8
 40
8
 40
8
 10
377.6182941764288
 20
544.9667357036021
 30
0
 10
377.8005397275985
 20
544.8620048008505
 30
0
 10
377.7409395757037
 20
544.4182765023503
 30
0
 10
377.4863470193437
 20
543.9773042802383
 30
0
 10
377.4863470193437
 20
543.9773042802383
 30
0
 10
376.9089490160158
 20
542.9775375704188
 30
0
 10
376.9089490160158
 20
542.9775375704188
 30
0
 10
376.6540119501074
 20
542.5365653483069
 30
0
 10
376.3005451533207
 20
542.2637137858751
 30
0
 10
376.118299602151
 20
542.3691337077237
 30
0
 10
376.118299602151
 20
542.3691337077237
 30
0
 10
359.4567843068372
 20
551.9885293216383
 30
0
 10
359.4567843068372
 20
551.9885293216383
 30
0
 10
359.274883265216
 20
552.09326022439
 30
0
 10
359.3341389075623
 20
552.5362995037931
 30
0
 10
359.5890759734708
 20
552.9779607450021
 30
0
 10
359.5890759734708
 20
552.9779607450021
 30
0
 10
360.1657849577016
 20
553.9770384357245
 30
0
 10
360.1657849577016
 20
553.9770384357245
 30
0
 10
360.4207220236101
 20
554.4186996769336
 30
0
 10
360.7748778394938
 20
554.6915512393654
 30
0
 10
360.956778881115
 20
554.5861313175167
 30
0
 10
360.956778881115
 20
554.5861313175167
 30
0
 10
377.6182941764288
 20
544.9667357036021
 30
0
 10
377.6182941764288
 20
544.9667357036021
 30
0
  0
ENDBLK
  5
B2
330
B0
100
AcDbEntity
  8
0
100
AcDbBlockEnd
  0
BLOCK
  5
B4
330
B3
100
AcDbEntity
  8
0
100
AcDbBlockBegin
  2
block 35
 70
    0
 10
0
 20
0
  3
block 35
  1

  0
SPLINE
  5
143
100
AcDbEntity
  8
Layer 8
  6
ByLayer
 62
  256
370
    0
100
AcDbSpline
210
0
220
0
230
0
 70
   11
 71
    3
 72
   29
 73
   25
 74
    0
 42
1e-07
 43
1e-07
 40
0
 40
0
 40
0
 40
0
 40
1
 40
1
 40
1
 40
2
 40
2
 40
2
 40
3
 40
3
 40
3
 40
4
 40
4
 40
4
 40
5
 40
5
 40
5
 40
6
 40
6
 40
6
 40
7
 40
7
 40
7
 40
8
 40
8
 40
8
 40
8
 10
377.6182941764288
 20
536.9665349677549
 30
0
 10
377.8005397275985
 20
536.8618040650033
 30
0
 10
377.7409395757037
 20
536.4187647856002
 30
0
 10
377.4863470193437
 20
535.9771035443912
 30
0
 10
377.4863470193437
 20
535.9771035443912
 30
0
 10
376.9089490160158
 20
534.9780258536687
 30
0
 10
376.9089490160158
 20
534.9780258536687
 30
0
 10
376.6540119501074
 20
534.5370536315568
 30
0
 10
376.3005451533207
 20
534.264202069125
 30
0
 10
376.118299602151
 20
534.3689329718766
 30
0
 10
376.118299602151
 20
534.3689329718766
 30
0
 10
359.4567843068372
 20
543.9883285857911
 30
0
 10
359.4567843068372
 20
543.9883285857911
 30
0
 10
359.274883265216
 20
544.0930594885427
 30
0
 10
359.3341389075623
 20
544.5360987679459
 30
0
 10
359.5890759734708
 20
544.9777600091548
 30
0
 10
359.5890759734708
 20
544.9777600091548
 30
0
 10
360.1657849577016
 20
545.9768376998774
 30
0
 10
360.1657849577016
 20
545.9768376998774
 30
0
 10
360.4207220236101
 20
546.4184989410863
 30
0
 10
360.7748778394938
 20
546.6913505035182
 30
0
 10
360.956778881115
 20
546.5866196007665
 30
0
 10
360.956778881115
 20
546.5866196007665
 30
0
 10
377.6182941764288
 20
536.9665349677549
 30
0
 10
377.6182941764288
 20
536.9665349677549
 30
0
  0
ENDBLK
  5
B5
330
B3
100
AcDbEntity
  8
0
100
AcDbBlockEnd
  0
BLOCK
  5
B7
330
B6
100
AcDbEntity
  8
0
100
AcDbBlockBegin
  2
block 36
 70
    0
 10
0
 20
0
  3
block 36
  1

  0
SPLINE
  5
144
100
AcDbEntity
  8
Layer 8
  6
ByLayer
 62
  256
370
    0
100
AcDbSpline
210
0
220
0
230
0
 70
   11
 71
    3
 72
   29
 73
   25
 74
    0
 42
1e-07
 43
1e-07
 40
0
 40
0
 40
0
 40
0
 40
1
 40
1
 40
1
 40
2
 40
2
 40
2
 40
3
 40
3
 40
3
 40
4
 40
4
 40
4
 40
5
 40
5
 40
5
 40
6
 40
6
 40
6
 40
7
 40
7
 40
7
 40
8
 40
8
 40
8
 40
8
 10
377.6182941764288
 20
528.9670232510048
 30
0
 10
377.8005397275985
 20
528.8622923482532
 30
0
 10
377.7409395757037
 20
528.4185640497531
 30
0
 10
377.4863470193437
 20
527.977591827641
 30
0
 10
377.4863470193437
 20
527.977591827641
 30
0
 10
376.9089490160158
 20
526.9778251178216
 30
0
 10
376.9089490160158
 20
526.9778251178216
 30
0
 10
376.6540119501074
 20
526.5368528957096
 30
0
 10
376.3005451533207
 20
526.2640013332777
 30
0
 10
376.118299602151
 20
526.3694212551264
 30
0
 10
376.118299602151
 20
526.3694212551264
 30
0
 10
359.4567843068372
 20
535.988816869041
 30
0
 10
359.4567843068372
 20
535.988816869041
 30
0
 10
359.274883265216
 20
536.0935477717926
 30
0
 10
359.3341389075623
 20
536.5365870511957
 30
0
 10
359.5890759734708
 20
536.9782482924047
 30
0
 10
359.5890759734708
 20
536.9782482924047
 30
0
 10
360.1657849577016
 20
537.9773259831272
 30
0
 10
360.1657849577016
 20
537.9773259831272
 30
0
 10
360.4207220236101
 20
538.4189872243362
 30
0
 10
360.7748778394938
 20
538.691838786768
 30
0
 10
360.956778881115
 20
538.5864188649194
 30
0
 10
360.956778881115
 20
538.5864188649194
 30
0
 10
377.6182941764288
 20
528.9670232510048
 30
0
 10
377.6182941764288
 20
528.9670232510048
 30
0
  0
ENDBLK
  5
B8
330
B6
100
AcDbEntity
  8
0
100
AcDbBlockEnd
  0
BLOCK
  5
BA
330
B9
100
AcDbEntity
  8
0
100
AcDbBlockBegin
  2
block 37
 70
    0
 10
0
 20
0
  3
block 37
  1

  0
INSERT
  5
145
100
AcDbEntity
  8
Layer 8
  6
ByLayer
 62
  256
370
   -1
100
AcDbBlockReference
  2
block 38
 10
0
 20
0
 30
0
 41
1
 42
1
 43
0
 50
0
 70
    1
 71
    1
 44
0
 45
0
  0
ENDBLK
  5
BB
330
B9
100
AcDbEntity
  8
0
100
AcDbBlockEnd
  0
BLOCK
  5
BD
330
BC
100
AcDbEntity
  8
0
100
AcDbBlockBegin
  2
block 38
 70
    0
 10
0
 20
0
  3
block 38
  1

  0
SPLINE
  5
146
100
AcDbEntity
  8
Layer 8
  6
ByLayer
 62
  256
370
    0
100
AcDbSpline
210
0
220
0
230
0
 70
   11
 71
    3
 72
   20
 73
   16
 74
    0
 42
1e-07
 43
1e-07
 40
0
 40
0
 40
0
 40
0
 40
1
 40
1
 40
1
 40
2
 40
2
 40
2
 40
3
 40
3
 40
3
 40
4
 40
4
 40
4
 40
5
 40
5
 40
5
 40
5
 10
383.3395642487832
 20
587.8819456538108
 30
0
 10
382.7869709329491
 20
587.8819456538108
 30
0
 10
382.3391085198666
 20
587.4333942216313
 30
0
 10
382.3391085198666
 20
586.8814899248943
 30
0
 10
382.3391085198666
 20
586.3288966090602
 30
0
 10
382.7869709329491
 20
585.8817232150748
 30
0
 10
383.3395642487832
 20
585.8817232150748
 30
0
 10
383.8918130550687
 20
585.8817232150748
 30
0
 10
384.3396754681512
 20
586.3288966090602
 30
0
 10
384.3396754681512
 20
586.8814899248943
 30
0
 10
384.3396754681512
 20
587.4333942216313
 30
0
 10
383.8918130550687
 20
587.8819456538108
 30
0
 10
383.3395642487832
 20
587.8819456538108
 30
0
 10
383.3395642487832
 20
587.8819456538108
 30
0
 10
383.3395642487832
 20
587.8819456538108
 30
0
 10
383.3395642487832
 20
587.8819456538108
 30
0
  0
ENDBLK
  5
BE
330
BC
100
AcDbEntity
  8
0
100
AcDbBlockEnd
  0
BLOCK
  5
C0
330
BF
100
AcDbEntity
  8
0
100
AcDbBlockBegin
  2
block 39
 70
    0
 10
0
 20
0
  3
block 39
  1

  0
INSERT
  5
147
100
AcDbEntity
  8
Layer 8
  6
ByLayer
 62
  256
370
   -1
100
AcDbBlockReference
  2
block 40
 10
0
 20
0
 30
0
 41
1
 42
1
 43
0
 50
0
 70
    1
 71
    1
 44
0
 45
0
  0
INSERT
  5
148
100
AcDbEntity
  8
Layer 8
  6
ByLayer
 62
  256
370
   -1
100
AcDbBlockReference
  2
block 42
 10
0
 20
0
 30
0
 41
1
 42
1
 43
0
 50
0
 70
    1
 71
    1
 44
0
 45
0
  0
ENDBLK
  5
C1
330
BF
100
AcDbEntity
  8
0
100
AcDbBlockEnd
  0
BLOCK
  5
C3
330
C2
100
AcDbEntity
  8
0
100
AcDbBlockBegin
  2
block 40
 70
    0
 10
0
 20
0
  3
block 40
  1

  0
INSERT
  5
149
100
AcDbEntity
  8
Layer 8
  6
ByLayer
 62
  256
370
   -1
100
AcDbBlockReference
  2
block 41
 10
0
 20
0
 30
0
 41
1
 42
1
 43
0
 50
0
 70
    1
 71
    1
 44
0
 45
0
  0
LWPOLYLINE
  5
14A
100
AcDbEntity
  8
Layer 8
  6
ByLayer
 62
  256
370
    0
100
AcDbPolyline
 90
    3
 70
    0
 43
0
 10
258.9860866323021
 20
539.8555920416854
 10
255.8923908865478
 20
539.8555920416854
 10
255.8923908865478
 20
559.9666814463799
  0
SPLINE
  5
14B
100
AcDbEntity
  8
Layer 8
  6
ByLayer
 62
  256
370
    0
100
AcDbSpline
210
0
220
0
230
0
 70
    8
 71
    3
 72
   89
 73
   85
 74
    0
 42
1e-07
 43
1e-07
 40
0
 40
0
 40
0
 40
0
 40
1
 40
1
 40
1
 40
2
 40
2
 40
2
 40
3
 40
3
 40
3
 40
4
 40
4
 40
4
 40
5
 40
5
 40
5
 40
6
 40
6
 40
6
 40
7
 40
7
 40
7
 40
8
 40
8
 40
8
 40
9
 40
9
 40
9
 40
10
 40
10
 40
10
 40
11
 40
11
 40
11
 40
12
 40
12
 40
12
 40
13
 40
13
 40
13
 40
14
 40
14
 40
14
 40
15
 40
15
 40
15
 40
16
 40
16
 40
16
 40
17
 40
17
 40
17
 40
18
 40
18
 40
18
 40
19
 40
19
 40
19
 40
20
 40
20
 40
20
 40
21
 40
21
 40
21
 40
22
 40
22
 40
22
 40
23
 40
23
 40
23
 40
24
 40
24
 40
24
 40
25
 40
25
 40
25
 40
26
 40
26
 40
26
 40
27
 40
27
 40
27
 40
28
 40
28
 40
28
 40
28
 10
258.9860866323021
 20
584.6163396433425
 30
0
 10
258.9860866323021
 20
584.6163396433425
 30
0
 10
255.8923908865478
 20
584.6163396433425
 30
0
 10
255.8923908865478
 20
584.6163396433425
 30
0
 10
255.8923908865478
 20
584.6163396433425
 30
0
 10
255.8923908865478
 20
602.8684555241961
 30
0
 10
255.8923908865478
 20
602.8684555241961
 30
0
 10
255.8923908865478
 20
602.8684555241961
 30
0
 10
219.4450032003471
 20
602.8684555241961
 30
0
 10
219.4450032003471
 20
602.8684555241961
 30
0
 10
219.4450032003471
 20
602.8684555241961
 30
0
 10
219.4450032003471
 20
584.6163396433425
 30
0
 10
219.4450032003471
 20
584.6163396433425
 30
0
 10
219.4450032003471
 20
584.6163396433425
 30
0
 10
219.3023762472577
 20
584.6163396433425
 30
0
 10
219.3023762472577
 20
584.6163396433425
 30
0
 10
219.3023762472577
 20
584.6163396433425
 30
0
 10
219.3023762472577
 20
584.6259859107012
 30
0
 10
219.3023762472577
 20
584.6259859107012
 30
0
 10
219.3023762472577
 20
584.6259859107012
 30
0
 10
216.3361490344576
 20
584.6259859107012
 30
0
 10
216.3361490344576
 20
584.6259859107012
 30
0
 10
214.7107529845168
 20
583.5545612147885
 30
0
 10
213.6345051549247
 20
581.7197033593444
 30
0
 10
213.6345051549247
 20
579.6264633425066
 30
0
 10
213.6345051549247
 20
577.5270221537953
 30
0
 10
214.7176431754873
 20
575.688030183769
 30
0
 10
216.3513074545927
 20
574.6179835260504
 30
0
 10
216.3513074545927
 20
574.6179835260504
 30
0
 10
216.3513074545927
 20
574.6166054878563
 30
0
 10
216.3513074545927
 20
574.6166054878563
 30
0
 10
216.3513074545927
 20
574.6166054878563
 30
0
 10
216.3526854927868
 20
574.6166054878563
 30
0
 10
216.3526854927868
 20
574.6166054878563
 30
0
 10
216.3533745118839
 20
574.6159164687592
 30
0
 10
216.3540635309809
 20
574.6159164687592
 30
0
 10
216.3540635309809
 20
574.6159164687592
 30
0
 10
216.3540635309809
 20
574.6159164687592
 30
0
 10
219.3023762472577
 20
574.6159164687592
 30
0
 10
219.3023762472577
 20
574.6159164687592
 30
0
 10
219.3023762472577
 20
574.6159164687592
 30
0
 10
219.3023762472577
 20
574.6166054878563
 30
0
 10
219.3023762472577
 20
574.6166054878563
 30
0
 10
219.3023762472577
 20
574.6166054878563
 30
0
 10
219.4450032003471
 20
574.6166054878563
 30
0
 10
219.4450032003471
 20
574.6166054878563
 30
0
 10
219.4450032003471
 20
574.6166054878563
 30
0
 10
219.4450032003471
 20
539.8555920416854
 30
0
 10
219.4450032003471
 20
539.8555920416854
 30
0
 10
219.4450032003471
 20
539.8555920416854
 30
0
 10
216.3513074545927
 20
539.8555920416854
 30
0
 10
216.3513074545927
 20
539.8555920416854
 30
0
 10
216.3513074545927
 20
539.8555920416854
 30
0
 10
216.3513074545927
 20
539.8521469462002
 30
0
 10
216.3513074545927
 20
539.8521469462002
 30
0
 10
216.3513074545927
 20
539.8521469462002
 30
0
 10
216.3361490344576
 20
539.8521469462002
 30
0
 10
216.3361490344576
 20
539.8521469462002
 30
0
 10
214.7107529845168
 20
538.7807222502875
 30
0
 10
213.6345051549247
 20
536.9458643948434
 30
0
 10
213.6345051549247
 20
534.8526243780057
 30
0
 10
213.6345051549247
 20
532.7518051511003
 30
0
 10
214.7190212136814
 20
530.9114351428798
 30
0
 10
216.3540635309809
 20
529.8420775042582
 30
0
 10
216.3540635309809
 20
529.8420775042582
 30
0
 10
219.3023762472577
 20
529.8420775042582
 30
0
 10
219.3023762472577
 20
529.8420775042582
 30
0
 10
219.3023762472577
 20
529.8420775042582
 30
0
 10
219.3023762472577
 20
529.8558578861993
 30
0
 10
219.3023762472577
 20
529.8558578861993
 30
0
 10
219.3023762472577
 20
529.8558578861993
 30
0
 10
219.4450032003471
 20
529.8558578861993
 30
0
 10
219.4450032003471
 20
529.8558578861993
 30
0
 10
219.4450032003471
 20
529.8558578861993
 30
0
 10
219.4450032003471
 20
514.3784219091658
 30
0
 10
219.4450032003471
 20
514.3784219091658
 30
0
 10
219.4450032003471
 20
514.3784219091658
 30
0
 10
255.8923908865478
 20
514.3784219091658
 30
0
 10
255.8923908865478
 20
514.3784219091658
 30
0
 10
255.8923908865478
 20
514.3784219091658
 30
0
 10
255.8923908865478
 20
529.8558578861993
 30
0
 10
255.8923908865478
 20
529.8558578861993
 30
0
 10
255.8923908865478
 20
529.8558578861993
 30
0
 10
258.9860866323021
 20
529.8558578861993
 30
0
 10
258.9860866323021
 20
529.8558578861993
 30
0
  0
LWPOLYLINE
  5
14C
100
AcDbEntity
  8
Layer 8
  6
ByLayer
 62
  256
370
    0
100
AcDbPolyline
 90
    3
 70
    0
 43
0
 10
255.8923908865478
 20
559.9597912554094
 10
255.8923908865478
 20
574.6166054878563
 10
258.9860866323021
 20
574.6166054878563
  0
ENDBLK
  5
C4
330
C2
100
AcDbEntity
  8
0
100
AcDbBlockEnd
  0
BLOCK
  5
C6
330
C5
100
AcDbEntity
  8
0
100
AcDbBlockBegin
  2
block 41
 70
    0
 10
0
 20
0
  3
block 41
  1

  0
SPLINE
  5
14D
100
AcDbEntity
  8
Layer 8
  6
ByLayer
 62
  256
370
    0
100
AcDbSpline
210
0
220
0
230
0
 70
   11
 71
    3
 72
   29
 73
   25
 74
    0
 42
1e-07
 43
1e-07
 40
0
 40
0
 40
0
 40
0
 40
1
 40
1
 40
1
 40
2
 40
2
 40
2
 40
3
 40
3
 40
3
 40
4
 40
4
 40
4
 40
5
 40
5
 40
5
 40
6
 40
6
 40
6
 40
7
 40
7
 40
7
 40
8
 40
8
 40
8
 40
8
 10
239.5864094453117
 20
531.3634316705446
 30
0
 10
239.4954589245012
 20
531.4157971219204
 30
0
 10
239.5595377005268
 20
531.6969169135168
 30
0
 10
239.7290363984011
 20
531.9911280679571
 30
0
 10
239.7290363984011
 20
531.9911280679571
 30
0
 10
240.114198073652
 20
532.6574095348044
 30
0
 10
240.114198073652
 20
532.6574095348044
 30
0
 10
240.2843857906234
 20
532.9516206892448
 30
0
 10
240.4952256343207
 20
533.147302112807
 30
0
 10
240.5861761551313
 20
533.0949366614311
 30
0
 10
240.5861761551313
 20
533.0949366614311
 30
0
 10
248.9167615480139
 20
528.2848943449253
 30
0
 10
248.9167615480139
 20
528.2848943449253
 30
0
 10
249.0077120688245
 20
528.2325288935496
 30
0
 10
248.9436332927988
 20
527.9514091019531
 30
0
 10
248.7734455758275
 20
527.6571979475128
 30
0
 10
248.7734455758275
 20
527.6571979475128
 30
0
 10
248.3889729196736
 20
526.9909164806655
 30
0
 10
248.3889729196736
 20
526.9909164806655
 30
0
 10
248.2187852027023
 20
526.6967053262251
 30
0
 10
248.0072563399079
 20
526.501023902663
 30
0
 10
247.9163058190973
 20
526.5533893540388
 30
0
 10
247.9163058190973
 20
526.5533893540388
 30
0
 10
239.5864094453117
 20
531.3634316705446
 30
0
 10
239.5864094453117
 20
531.3634316705446
 30
0
  0
SPLINE
  5
14E
100
AcDbEntity
  8
Layer 8
  6
ByLayer
 62
  256
370
    0
100
AcDbSpline
210
0
220
0
230
0
 70
   11
 71
    3
 72
   29
 73
   25
 74
    0
 42
1e-07
 43
1e-07
 40
0
 40
0
 40
0
 40
0
 40
1
 40
1
 40
1
 40
2
 40
2
 40
2
 40
3
 40
3
 40
3
 40
4
 40
4
 40
4
 40
5
 40
5
 40
5
 40
6
 40
6
 40
6
 40
7
 40
7
 40
7
 40
8
 40
8
 40
8
 40
8
 10
239.5864094453117
 20
537.3634099676557
 30
0
 10
239.4954589245012
 20
537.4157754190315
 30
0
 10
239.5595377005268
 20
537.6968952106279
 30
0
 10
239.7290363984011
 20
537.9911063650683
 30
0
 10
239.7290363984011
 20
537.9911063650683
 30
0
 10
240.114198073652
 20
538.6573878319156
 30
0
 10
240.114198073652
 20
538.6573878319156
 30
0
 10
240.2843857906234
 20
538.9515989863559
 30
0
 10
240.4952256343207
 20
539.147280409918
 30
0
 10
240.5861761551313
 20
539.0949149585423
 30
0
 10
240.5861761551313
 20
539.0949149585423
 30
0
 10
248.9167615480139
 20
534.2848726420365
 30
0
 10
248.9167615480139
 20
534.2848726420365
 30
0
 10
249.0077120688245
 20
534.2325071906606
 30
0
 10
248.9436332927988
 20
533.9513873990643
 30
0
 10
248.7734455758275
 20
533.6571762446239
 30
0
 10
248.7734455758275
 20
533.6571762446239
 30
0
 10
248.3889729196736
 20
532.9908947777766
 30
0
 10
248.3889729196736
 20
532.9908947777766
 30
0
 10
248.2187852027023
 20
532.6966836233363
 30
0
 10
248.0072563399079
 20
532.5010021997741
 30
0
 10
247.9163058190973
 20
532.5533676511499
 30
0
 10
247.9163058190973
 20
532.5533676511499
 30
0
 10
239.5864094453117
 20
537.3634099676557
 30
0
 10
239.5864094453117
 20
537.3634099676557
 30
0
  0
SPLINE
  5
14F
100
AcDbEntity
  8
Layer 8
  6
ByLayer
 62
  256
370
    0
100
AcDbSpline
210
0
220
0
230
0
 70
   11
 71
    3
 72
   29
 73
   25
 74
    0
 42
1e-07
 43
1e-07
 40
0
 40
0
 40
0
 40
0
 40
1
 40
1
 40
1
 40
2
 40
2
 40
2
 40
3
 40
3
 40
3
 40
4
 40
4
 40
4
 40
5
 40
5
 40
5
 40
6
 40
6
 40
6
 40
7
 40
7
 40
7
 40
8
 40
8
 40
8
 40
8
 10
239.5864094453117
 20
543.3633882647669
 30
0
 10
239.4954589245012
 20
543.4157537161426
 30
0
 10
239.5595377005268
 20
543.696873507739
 30
0
 10
239.7290363984011
 20
543.9910846621793
 30
0
 10
239.7290363984011
 20
543.9910846621793
 30
0
 10
240.114198073652
 20
544.6573661290266
 30
0
 10
240.114198073652
 20
544.6573661290266
 30
0
 10
240.2843857906234
 20
544.951577283467
 30
0
 10
240.4952256343207
 20
545.1472587070292
 30
0
 10
240.5861761551313
 20
545.0948932556533
 30
0
 10
240.5861761551313
 20
545.0948932556533
 30
0
 10
248.9167615480139
 20
540.2848509391475
 30
0
 10
248.9167615480139
 20
540.2848509391475
 30
0
 10
249.0077120688245
 20
540.2324854877718
 30
0
 10
248.9436332927988
 20
539.9513656961753
 30
0
 10
248.7734455758275
 20
539.6571545417351
 30
0
 10
248.7734455758275
 20
539.6571545417351
 30
0
 10
248.3889729196736
 20
538.9908730748878
 30
0
 10
248.3889729196736
 20
538.9908730748878
 30
0
 10
248.2187852027023
 20
538.6966619204474
 30
0
 10
248.0072563399079
 20
538.5009804968852
 30
0
 10
247.9163058190973
 20
538.553345948261
 30
0
 10
247.9163058190973
 20
538.553345948261
 30
0
 10
239.5864094453117
 20
543.3633882647669
 30
0
 10
239.5864094453117
 20
543.3633882647669
 30
0
  0
SPLINE
  5
150
100
AcDbEntity
  8
Layer 8
  6
ByLayer
 62
  256
370
    0
100
AcDbSpline
210
0
220
0
230
0
 70
   11
 71
    3
 72
   29
 73
   25
 74
    0
 42
1e-07
 43
1e-07
 40
0
 40
0
 40
0
 40
0
 40
1
 40
1
 40
1
 40
2
 40
2
 40
2
 40
3
 40
3
 40
3
 40
4
 40
4
 40
4
 40
5
 40
5
 40
5
 40
6
 40
6
 40
6
 40
7
 40
7
 40
7
 40
8
 40
8
 40
8
 40
8
 10
239.5864094453117
 20
549.3633665618779
 30
0
 10
239.4954589245012
 20
549.4157320132538
 30
0
 10
239.5595377005268
 20
549.6968518048501
 30
0
 10
239.7290363984011
 20
549.9910629592905
 30
0
 10
239.7290363984011
 20
549.9910629592905
 30
0
 10
240.114198073652
 20
550.6573444261378
 30
0
 10
240.114198073652
 20
550.6573444261378
 30
0
 10
240.2843857906234
 20
550.9515555805781
 30
0
 10
240.4952256343207
 20
551.1472370041403
 30
0
 10
240.5861761551313
 20
551.0948715527645
 30
0
 10
240.5861761551313
 20
551.0948715527645
 30
0
 10
248.9167615480139
 20
546.2855182553558
 30
0
 10
248.9167615480139
 20
546.2855182553558
 30
0
 10
249.0077120688245
 20
546.2324637848828
 30
0
 10
248.9436332927988
 20
545.9513439932865
 30
0
 10
248.7734455758275
 20
545.6571328388461
 30
0
 10
248.7734455758275
 20
545.6571328388461
 30
0
 10
248.3889729196736
 20
544.9915403910959
 30
0
 10
248.3889729196736
 20
544.9915403910959
 30
0
 10
248.2187852027023
 20
544.6966402175585
 30
0
 10
248.0072563399079
 20
544.5009587939963
 30
0
 10
247.9163058190973
 20
544.5533242453721
 30
0
 10
247.9163058190973
 20
544.5533242453721
 30
0
 10
239.5864094453117
 20
549.3633665618779
 30
0
 10
239.5864094453117
 20
549.3633665618779
 30
0
  0
SPLINE
  5
151
100
AcDbEntity
  8
Layer 8
  6
ByLayer
 62
  256
370
    0
100
AcDbSpline
210
0
220
0
230
0
 70
   11
 71
    3
 72
   29
 73
   25
 74
    0
 42
1e-07
 43
1e-07
 40
0
 40
0
 40
0
 40
0
 40
1
 40
1
 40
1
 40
2
 40
2
 40
2
 40
3
 40
3
 40
3
 40
4
 40
4
 40
4
 40
5
 40
5
 40
5
 40
6
 40
6
 40
6
 40
7
 40
7
 40
7
 40
8
 40
8
 40
8
 40
8
 10
239.5864094453117
 20
555.3633448589891
 30
0
 10
239.4954589245012
 20
555.4157103103648
 30
0
 10
239.5595377005268
 20
555.6968301019613
 30
0
 10
239.7290363984011
 20
555.9910412564016
 30
0
 10
239.7290363984011
 20
555.9910412564016
 30
0
 10
240.114198073652
 20
556.6573227232489
 30
0
 10
240.114198073652
 20
556.6573227232489
 30
0
 10
240.2843857906234
 20
556.9515338776893
 30
0
 10
240.4952256343207
 20
557.1472153012514
 30
0
 10
240.5861761551313
 20
557.0948498498756
 30
0
 10
240.5861761551313
 20
557.0948498498756
 30
0
 10
248.9167615480139
 20
552.2848075333698
 30
0
 10
248.9167615480139
 20
552.2848075333698
 30
0
 10
249.0077120688245
 20
552.232442081994
 30
0
 10
248.9436332927988
 20
551.9513222903976
 30
0
 10
248.7734455758275
 20
551.6571111359573
 30
0
 10
248.7734455758275
 20
551.6571111359573
 30
0
 10
248.3889729196736
 20
550.99082966911
 30
0
 10
248.3889729196736
 20
550.99082966911
 30
0
 10
248.2187852027023
 20
550.6966185146696
 30
0
 10
248.0072563399079
 20
550.5009370911074
 30
0
 10
247.9163058190973
 20
550.5533025424833
 30
0
 10
247.9163058190973
 20
550.5533025424833
 30
0
 10
239.5864094453117
 20
555.3633448589891
 30
0
 10
239.5864094453117
 20
555.3633448589891
 30
0
  0
SPLINE
  5
152
100
AcDbEntity
  8
Layer 8
  6
ByLayer
 62
  256
370
    0
100
AcDbSpline
210
0
220
0
230
0
 70
   11
 71
    3
 72
   29
 73
   25
 74
    0
 42
1e-07
 43
1e-07
 40
0
 40
0
 40
0
 40
0
 40
1
 40
1
 40
1
 40
2
 40
2
 40
2
 40
3
 40
3
 40
3
 40
4
 40
4
 40
4
 40
5
 40
5
 40
5
 40
6
 40
6
 40
6
 40
7
 40
7
 40
7
 40
8
 40
8
 40
8
 40
8
 10
239.5864094453117
 20
561.3633231561001
 30
0
 10
239.4954589245012
 20
561.415688607476
 30
0
 10
239.5595377005268
 20
561.6968083990723
 30
0
 10
239.7290363984011
 20
561.9910195535127
 30
0
 10
239.7290363984011
 20
561.9910195535127
 30
0
 10
240.114198073652
 20
562.65730102036
 30
0
 10
240.114198073652
 20
562.65730102036
 30
0
 10
240.2843857906234
 20
562.9515121748003
 30
0
 10
240.4952256343207
 20
563.1471935983625
 30
0
 10
240.5861761551313
 20
563.0948281469867
 30
0
 10
240.5861761551313
 20
563.0948281469867
 30
0
 10
248.9167615480139
 20
558.2847858304809
 30
0
 10
248.9167615480139
 20
558.2847858304809
 30
0
 10
249.0077120688245
 20
558.2324203791051
 30
0
 10
248.9436332927988
 20
557.9513005875087
 30
0
 10
248.7734455758275
 20
557.6570894330683
 30
0
 10
248.7734455758275
 20
557.6570894330683
 30
0
 10
248.3889729196736
 20
556.990807966221
 30
0
 10
248.3889729196736
 20
556.990807966221
 30
0
 10
248.2187852027023
 20
556.6965968117808
 30
0
 10
248.0072563399079
 20
556.5009153882186
 30
0
 10
247.9163058190973
 20
556.5532808395943
 30
0
 10
247.9163058190973
 20
556.5532808395943
 30
0
 10
239.5864094453117
 20
561.3633231561001
 30
0
 10
239.5864094453117
 20
561.3633231561001
 30
0
  0
SPLINE
  5
153
100
AcDbEntity
  8
Layer 8
  6
ByLayer
 62
  256
370
    0
100
AcDbSpline
210
0
220
0
230
0
 70
   11
 71
    3
 72
   29
 73
   25
 74
    0
 42
1e-07
 43
1e-07
 40
0
 40
0
 40
0
 40
0
 40
1
 40
1
 40
1
 40
2
 40
2
 40
2
 40
3
 40
3
 40
3
 40
4
 40
4
 40
4
 40
5
 40
5
 40
5
 40
6
 40
6
 40
6
 40
7
 40
7
 40
7
 40
8
 40
8
 40
8
 40
8
 10
239.5864094453117
 20
567.3633014532113
 30
0
 10
239.4954589245012
 20
567.4156669045871
 30
0
 10
239.5595377005268
 20
567.6967866961835
 30
0
 10
239.7290363984011
 20
567.9909978506238
 30
0
 10
239.7290363984011
 20
567.9909978506238
 30
0
 10
240.114198073652
 20
568.6572793174711
 30
0
 10
240.114198073652
 20
568.6572793174711
 30
0
 10
240.2843857906234
 20
568.9514904719115
 30
0
 10
240.4952256343207
 20
569.1471718954737
 30
0
 10
240.5861761551313
 20
569.0948064440978
 30
0
 10
240.5861761551313
 20
569.0948064440978
 30
0
 10
248.9167615480139
 20
564.284764127592
 30
0
 10
248.9167615480139
 20
564.284764127592
 30
0
 10
249.0077120688245
 20
564.2323986762162
 30
0
 10
248.9436332927988
 20
563.9512788846198
 30
0
 10
248.7734455758275
 20
563.6570677301795
 30
0
 10
248.7734455758275
 20
563.6570677301795
 30
0
 10
248.3889729196736
 20
562.9907862633322
 30
0
 10
248.3889729196736
 20
562.9907862633322
 30
0
 10
248.2187852027023
 20
562.6965751088918
 30
0
 10
248.0072563399079
 20
562.5008936853296
 30
0
 10
247.9163058190973
 20
562.5532591367055
 30
0
 10
247.9163058190973
 20
562.5532591367055
 30
0
 10
239.5864094453117
 20
567.3633014532113
 30
0
 10
239.5864094453117
 20
567.3633014532113
 30
0
  0
SPLINE
  5
154
100
AcDbEntity
  8
Layer 8
  6
ByLayer
 62
  256
370
    0
100
AcDbSpline
210
0
220
0
230
0
 70
   11
 71
    3
 72
   29
 73
   25
 74
    0
 42
1e-07
 43
1e-07
 40
0
 40
0
 40
0
 40
0
 40
1
 40
1
 40
1
 40
2
 40
2
 40
2
 40
3
 40
3
 40
3
 40
4
 40
4
 40
4
 40
5
 40
5
 40
5
 40
6
 40
6
 40
6
 40
7
 40
7
 40
7
 40
8
 40
8
 40
8
 40
8
 10
239.5864094453117
 20
525.3634533734335
 30
0
 10
239.4954589245012
 20
525.4158188248092
 30
0
 10
239.5595377005268
 20
525.6969386164056
 30
0
 10
239.7290363984011
 20
525.9911497708459
 30
0
 10
239.7290363984011
 20
525.9911497708459
 30
0
 10
240.114198073652
 20
526.6574312376933
 30
0
 10
240.114198073652
 20
526.6574312376933
 30
0
 10
240.2843857906234
 20
526.9516423921336
 30
0
 10
240.4952256343207
 20
527.1473238156958
 30
0
 10
240.5861761551313
 20
527.0949583643201
 30
0
 10
240.5861761551313
 20
527.0949583643201
 30
0
 10
248.9167615480139
 20
522.2856050669112
 30
0
 10
248.9167615480139
 20
522.2856050669112
 30
0
 10
249.0077120688245
 20
522.2325505964384
 30
0
 10
248.9436332927988
 20
521.9514308048421
 30
0
 10
248.7734455758275
 20
521.6572196504017
 30
0
 10
248.7734455758275
 20
521.6572196504017
 30
0
 10
248.3889729196736
 20
520.9909381835544
 30
0
 10
248.3889729196736
 20
520.9909381835544
 30
0
 10
248.2187852027023
 20
520.6967270291141
 30
0
 10
248.007945359005
 20
520.5010456055519
 30
0
 10
247.9163058190973
 20
520.5534110569276
 30
0
 10
247.9163058190973
 20
520.5534110569276
 30
0
 10
239.5864094453117
 20
525.3634533734335
 30
0
 10
239.5864094453117
 20
525.3634533734335
 30
0
  0
ENDBLK
  5
C7
330
C5
100
AcDbEntity
  8
0
100
AcDbBlockEnd
  0
BLOCK
  5
C9
330
C8
100
AcDbEntity
  8
0
100
AcDbBlockBegin
  2
block 42
 70
    0
 10
0
 20
0
  3
block 42
  1

  0
INSERT
  5
155
100
AcDbEntity
  8
Layer 8
  6
ByLayer
 62
  256
370
   -1
100
AcDbBlockReference
  2
block 43
 10
0
 20
0
 30
0
 41
1
 42
1
 43
0
 50
0
 70
    1
 71
    1
 44
0
 45
0
  0
LWPOLYLINE
  5
156
100
AcDbEntity
  8
Layer 8
  6
ByLayer
 62
  256
370
    0
100
AcDbPolyline
 90
    2
 70
    0
 43
0
 10
258.9860866323021
 20
529.8558578861993
 10
258.9860866323021
 20
539.8555920416854
  0
LWPOLYLINE
  5
157
100
AcDbEntity
  8
Layer 8
  6
ByLayer
 62
  256
370
    0
100
AcDbPolyline
 90
    2
 70
    0
 43
0
 10
258.9860866323021
 20
574.6166054878563
 10
258.9860866323021
 20
584.6163396433425
  0
INSERT
  5
158
100
AcDbEntity
  8
Layer 8
  6
ByLayer
 62
  256
370
   -1
100
AcDbBlockReference
  2
block 45
 10
0
 20
0
 30
0
 41
1
 42
1
 43
0
 50
0
 70
    1
 71
    1
 44
0
 45
0
  0
INSERT
  5
159
100
AcDbEntity
  8
Layer 8
  6
ByLayer
 62
  256
370
   -1
100
AcDbBlockReference
  2
block 46
 10
0
 20
0
 30
0
 41
1
 42
1
 43
0
 50
0
 70
    1
 71
    1
 44
0
 45
0
  0
ENDBLK
  5
CA
330
C8
100
AcDbEntity
  8
0
100
AcDbBlockEnd
  0
BLOCK
  5
CC
330
CB
100
AcDbEntity
  8
0
100
AcDbBlockBegin
  2
block 43
 70
    0
 10
0
 20
0
  3
block 43
  1

  0
INSERT
  5
15A
100
AcDbEntity
  8
Layer 8
  6
ByLayer
 62
  256
370
   -1
100
AcDbBlockReference
  2
block 44
 10
0
 20
0
 30
0
 41
1
 42
1
 43
0
 50
0
 70
    1
 71
    1
 44
0
 45
0
  0
SPLINE
  5
15B
100
AcDbEntity
  8
Layer 8
  6
ByLayer
 62
  256
370
    0
100
AcDbSpline
210
0
220
0
230
0
 70
   11
 71
    3
 72
   17
 73
   13
 74
    0
 42
1e-07
 43
1e-07
 40
0
 40
0
 40
0
 40
0
 40
1
 40
1
 40
1
 40
2
 40
2
 40
2
 40
3
 40
3
 40
3
 40
4
 40
4
 40
4
 40
4
 10
281.3702500381644
 20
563.9517956489426
 30
0
 10
283.5795897728551
 20
563.9517956489426
 30
0
 10
285.370350406088
 20
565.7427285369498
 30
0
 10
285.370350406088
 20
567.951723762092
 30
0
 10
285.370350406088
 20
570.1607189872342
 30
0
 10
283.5795897728551
 20
571.9516518752413
 30
0
 10
281.3702500381644
 20
571.9516518752413
 30
0
 10
279.1612548130222
 20
571.9516518752413
 30
0
 10
277.3704941797893
 20
570.1607189872342
 30
0
 10
277.3704941797893
 20
567.951723762092
 30
0
 10
277.3704941797893
 20
565.7427285369498
 30
0
 10
279.1612548130222
 20
563.9517956489426
 30
0
 10
281.3702500381644
 20
563.9517956489426
 30
0
  0
SPLINE
  5
15C
100
AcDbEntity
  8
Layer 8
  6
ByLayer
 62
  256
370
    0
100
AcDbSpline
210
0
220
0
230
0
 70
   11
 71
    3
 72
   17
 73
   13
 74
    0
 42
1e-07
 43
1e-07
 40
0
 40
0
 40
0
 40
0
 40
1
 40
1
 40
1
 40
2
 40
2
 40
2
 40
3
 40
3
 40
3
 40
4
 40
4
 40
4
 40
4
 10
281.3702500381644
 20
551.5454900422352
 30
0
 10
283.5795897728551
 20
551.5454900422352
 30
0
 10
285.370350406088
 20
553.336250675468
 30
0
 10
285.370350406088
 20
555.5452459006102
 30
0
 10
285.370350406088
 20
557.7542411257524
 30
0
 10
283.5795897728551
 20
559.5451740137596
 30
0
 10
281.3702500381644
 20
559.5451740137596
 30
0
 10
279.1612548130222
 20
559.5451740137596
 30
0
 10
277.3704941797893
 20
557.7542411257524
 30
0
 10
277.3704941797893
 20
555.5452459006102
 30
0
 10
277.3704941797893
 20
553.336250675468
 30
0
 10
279.1612548130222
 20
551.5454900422352
 30
0
 10
281.3702500381644
 20
551.5454900422352
 30
0
  0
ENDBLK
  5
CD
330
CB
100
AcDbEntity
  8
0
100
AcDbBlockEnd
  0
BLOCK
  5
CF
330
CE
100
AcDbEntity
  8
0
100
AcDbBlockBegin
  2
block 44
 70
    0
 10
0
 20
0
  3
block 44
  1

  0
SPLINE
  5
15D
100
AcDbEntity
  8
Layer 8
  6
ByLayer
 62
  256
370
    0
100
AcDbSpline
210
0
220
0
230
0
 70
   11
 71
    3
 72
   17
 73
   13
 74
    0
 42
1e-07
 43
1e-07
 40
0
 40
0
 40
0
 40
0
 40
1
 40
1
 40
1
 40
2
 40
2
 40
2
 40
3
 40
3
 40
3
 40
4
 40
4
 40
4
 40
4
 10
286.7973089560784
 20
567.8449258020493
 30
0
 10
286.7973089560784
 20
565.63524155781
 30
0
 10
288.5880695893113
 20
563.8444809245771
 30
0
 10
290.797409324002
 20
563.8444809245771
 30
0
 10
293.0064045491442
 20
563.8444809245771
 30
0
 10
294.7971651823771
 20
565.63524155781
 30
0
 10
294.7971651823771
 20
567.8449258020493
 30
0
 10
294.7971651823771
 20
570.0539210271914
 30
0
 10
293.0064045491442
 20
571.8446816604243
 30
0
 10
290.797409324002
 20
571.8446816604243
 30
0
 10
288.5880695893113
 20
571.8446816604243
 30
0
 10
286.7973089560784
 20
570.0539210271914
 30
0
 10
286.7973089560784
 20
567.8449258020493
 30
0
  0
SPLINE
  5
15E
100
AcDbEntity
  8
Layer 8
  6
ByLayer
 62
  256
370
    0
100
AcDbSpline
210
0
220
0
230
0
 70
   11
 71
    3
 72
   29
 73
   25
 74
    0
 42
1e-07
 43
1e-07
 40
0
 40
0
 40
0
 40
0
 40
1
 40
1
 40
1
 40
2
 40
2
 40
2
 40
3
 40
3
 40
3
 40
4
 40
4
 40
4
 40
5
 40
5
 40
5
 40
6
 40
6
 40
6
 40
7
 40
7
 40
7
 40
8
 40
8
 40
8
 40
8
 10
286.9454480619442
 20
519.3242009877905
 30
0
 10
286.9454480619442
 20
518.5959078022087
 30
0
 10
287.5342148803734
 20
518.0054184360368
 30
0
 10
288.2604410086641
 20
518.0054184360368
 30
0
 10
288.2604410086641
 20
518.0054184360368
 30
0
 10
293.630311341523
 20
518.0054184360368
 30
0
 10
293.630311341523
 20
518.0054184360368
 30
0
 10
294.3565374698136
 20
518.0054184360368
 30
0
 10
294.9453042882429
 20
518.5959078022087
 30
0
 10
294.9453042882429
 20
519.3242009877905
 30
0
 10
294.9453042882429
 20
519.3242009877905
 30
0
 10
294.9453042882429
 20
558.6871729831581
 30
0
 10
294.9453042882429
 20
558.6871729831581
 30
0
 10
294.9453042882429
 20
559.41546616874
 30
0
 10
294.3565374698136
 20
560.0059555349118
 30
0
 10
293.630311341523
 20
560.0059555349118
 30
0
 10
293.630311341523
 20
560.0059555349118
 30
0
 10
288.2604410086641
 20
560.0059555349118
 30
0
 10
288.2604410086641
 20
560.0059555349118
 30
0
 10
287.5342148803734
 20
560.0059555349118
 30
0
 10
286.9454480619442
 20
559.41546616874
 30
0
 10
286.9454480619442
 20
558.6871729831581
 30
0
 10
286.9454480619442
 20
558.6871729831581
 30
0
 10
286.9454480619442
 20
519.3242009877905
 30
0
 10
286.9454480619442
 20
519.3242009877905
 30
0
  0
LWPOLYLINE
  5
15F
100
AcDbEntity
  8
Layer 8
  6
ByLayer
 62
  256
370
    0
100
AcDbPolyline
 90
    3
 70
    0
 43
0
 10
258.9860866323021
 20
574.5966239340419
 10
262.0797823780564
 20
574.5966239340419
 10
262.0797823780564
 20
554.2802068384265
  0
SPLINE
  5
160
100
AcDbEntity
  8
Layer 8
  6
ByLayer
 62
  256
370
    0
100
AcDbSpline
210
0
220
0
230
0
 70
    8
 71
    3
 72
   89
 73
   85
 74
    0
 42
1e-07
 43
1e-07
 40
0
 40
0
 40
0
 40
0
 40
1
 40
1
 40
1
 40
2
 40
2
 40
2
 40
3
 40
3
 40
3
 40
4
 40
4
 40
4
 40
5
 40
5
 40
5
 40
6
 40
6
 40
6
 40
7
 40
7
 40
7
 40
8
 40
8
 40
8
 40
9
 40
9
 40
9
 40
10
 40
10
 40
10
 40
11
 40
11
 40
11
 40
12
 40
12
 40
12
 40
13
 40
13
 40
13
 40
14
 40
14
 40
14
 40
15
 40
15
 40
15
 40
16
 40
16
 40
16
 40
17
 40
17
 40
17
 40
18
 40
18
 40
18
 40
19
 40
19
 40
19
 40
20
 40
20
 40
20
 40
21
 40
21
 40
21
 40
22
 40
22
 40
22
 40
23
 40
23
 40
23
 40
24
 40
24
 40
24
 40
25
 40
25
 40
25
 40
26
 40
26
 40
26
 40
27
 40
27
 40
27
 40
28
 40
28
 40
28
 40
28
 10
258.9860866323021
 20
529.8358763323848
 30
0
 10
258.9860866323021
 20
529.8358763323848
 30
0
 10
262.0797823780564
 20
529.8358763323848
 30
0
 10
262.0797823780564
 20
529.8358763323848
 30
0
 10
262.0797823780564
 20
529.8358763323848
 30
0
 10
262.0797823780564
 20
511.3784327606103
 30
0
 10
262.0797823780564
 20
511.3784327606103
 30
0
 10
262.0797823780564
 20
511.3784327606103
 30
0
 10
298.5275145738057
 20
511.3784327606103
 30
0
 10
298.5275145738057
 20
511.3784327606103
 30
0
 10
298.5275145738057
 20
511.3784327606103
 30
0
 10
298.5275145738057
 20
529.8455225997435
 30
0
 10
298.5275145738057
 20
529.8455225997435
 30
0
 10
298.5275145738057
 20
529.8455225997435
 30
0
 10
298.6697970173465
 20
529.8455225997435
 30
0
 10
298.6697970173465
 20
529.8455225997435
 30
0
 10
298.6697970173465
 20
529.8455225997435
 30
0
 10
298.6697970173465
 20
529.8358763323848
 30
0
 10
298.6697970173465
 20
529.8358763323848
 30
0
 10
298.6697970173465
 20
529.8358763323848
 30
0
 10
301.6363687396951
 20
529.8358763323848
 30
0
 10
301.6363687396951
 20
529.8358763323848
 30
0
 10
303.2614202800875
 20
530.9073010282975
 30
0
 10
304.3376681096795
 20
532.7421588837416
 30
0
 10
304.3376681096795
 20
534.8353989005793
 30
0
 10
304.3376681096795
 20
536.9348400892907
 30
0
 10
303.2548745986655
 20
538.773832059317
 30
0
 10
301.62121031956
 20
539.8438787170356
 30
0
 10
301.62121031956
 20
539.8438787170356
 30
0
 10
301.62121031956
 20
539.8452567552297
 30
0
 10
301.62121031956
 20
539.8452567552297
 30
0
 10
301.62121031956
 20
539.8452567552297
 30
0
 10
301.6194877718174
 20
539.8452567552297
 30
0
 10
301.6194877718174
 20
539.8452567552297
 30
0
 10
301.6187987527203
 20
539.8459457743268
 30
0
 10
301.6184542431718
 20
539.8459457743268
 30
0
 10
301.6181097336233
 20
539.8459457743268
 30
0
 10
301.6181097336233
 20
539.8459457743268
 30
0
 10
298.6697970173465
 20
539.8459457743268
 30
0
 10
298.6697970173465
 20
539.8459457743268
 30
0
 10
298.6697970173465
 20
539.8459457743268
 30
0
 10
298.6697970173465
 20
539.8452567552297
 30
0
 10
298.6697970173465
 20
539.8452567552297
 30
0
 10
298.6697970173465
 20
539.8452567552297
 30
0
 10
298.5275145738057
 20
539.8452567552297
 30
0
 10
298.5275145738057
 20
539.8452567552297
 30
0
 10
298.5275145738057
 20
539.8452567552297
 30
0
 10
298.5275145738057
 20
574.5966239340419
 30
0
 10
298.5275145738057
 20
574.5966239340419
 30
0
 10
298.5275145738057
 20
574.5966239340419
 30
0
 10
301.62121031956
 20
574.5966239340419
 30
0
 10
301.62121031956
 20
574.5966239340419
 30
0
 10
301.62121031956
 20
574.5966239340419
 30
0
 10
301.62121031956
 20
574.600069029527
 30
0
 10
301.62121031956
 20
574.600069029527
 30
0
 10
301.62121031956
 20
574.600069029527
 30
0
 10
301.6363687396951
 20
574.600069029527
 30
0
 10
301.6363687396951
 20
574.600069029527
 30
0
 10
303.2614202800875
 20
575.6714937254397
 30
0
 10
304.3376681096795
 20
577.5063515808838
 30
0
 10
304.3376681096795
 20
579.5995915977217
 30
0
 10
304.3376681096795
 20
581.7004108246271
 30
0
 10
303.2534965604714
 20
583.5407808328474
 30
0
 10
301.6181097336233
 20
584.610138471469
 30
0
 10
301.6181097336233
 20
584.610138471469
 30
0
 10
298.6697970173465
 20
584.610138471469
 30
0
 10
298.6697970173465
 20
584.610138471469
 30
0
 10
298.6697970173465
 20
584.610138471469
 30
0
 10
298.6697970173465
 20
584.5963580895281
 30
0
 10
298.6697970173465
 20
584.5963580895281
 30
0
 10
298.6697970173465
 20
584.5963580895281
 30
0
 10
298.5275145738057
 20
584.5963580895281
 30
0
 10
298.5275145738057
 20
584.5963580895281
 30
0
 10
298.5275145738057
 20
584.5963580895281
 30
0
 10
298.5275145738057
 20
599.8684663756405
 30
0
 10
298.5275145738057
 20
599.8684663756405
 30
0
 10
298.5275145738057
 20
599.8684663756405
 30
0
 10
262.0797823780564
 20
599.8684663756405
 30
0
 10
262.0797823780564
 20
599.8684663756405
 30
0
 10
262.0797823780564
 20
599.8684663756405
 30
0
 10
262.0797823780564
 20
584.5963580895281
 30
0
 10
262.0797823780564
 20
584.5963580895281
 30
0
 10
262.0797823780564
 20
584.5963580895281
 30
0
 10
258.9860866323021
 20
584.5963580895281
 30
0
 10
258.9860866323021
 20
584.5963580895281
 30
0
  0
LWPOLYLINE
  5
161
100
AcDbEntity
  8
Layer 8
  6
ByLayer
 62
  256
370
    0
100
AcDbPolyline
 90
    3
 70
    0
 43
0
 10
262.0797823780564
 20
554.287097029397
 10
262.0797823780564
 20
539.8359549974195
 10
258.9860866323021
 20
539.8359549974195
  0
ENDBLK
  5
D0
330
CE
100
AcDbEntity
  8
0
100
AcDbBlockEnd
  0
BLOCK
  5
D2
330
D1
100
AcDbEntity
  8
0
100
AcDbBlockBegin
  2
block 45
 70
    0
 10
0
 20
0
  3
block 45
  1

  0
SPLINE
  5
162
100
AcDbEntity
  8
Layer 8
  6
ByLayer
 62
  256
370
    0
100
AcDbSpline
210
0
220
0
230
0
 70
   11
 71
    3
 72
   17
 73
   13
 74
    0
 42
1e-07
 43
1e-07
 40
0
 40
0
 40
0
 40
0
 40
1
 40
1
 40
1
 40
2
 40
2
 40
2
 40
3
 40
3
 40
3
 40
4
 40
4
 40
4
 40
4
 10
272.4274711775529
 20
567.0229260192687
 30
0
 10
272.5545952009586
 20
567.0270601338509
 30
0
 10
272.6562255177735
 20
566.9340425557491
 30
0
 10
272.6562255177735
 20
566.7859034498834
 30
0
 10
272.6562255177735
 20
566.6549898214439
 30
0
 10
272.5545952009586
 20
566.5616277337937
 30
0
 10
272.4274711775529
 20
566.5616277337937
 30
0
 10
272.2965575491133
 20
566.5616277337937
 30
0
 10
272.1949272322985
 20
566.6591239360262
 30
0
 10
272.1949272322985
 20
566.7945161885965
 30
0
 10
272.1949272322985
 20
566.9340425557491
 30
0
 10
272.2965575491133
 20
567.0229260192687
 30
0
 10
272.4274711775529
 20
567.0229260192687
 30
0
  0
LWPOLYLINE
  5
163
100
AcDbEntity
  8
Layer 8
  6
ByLayer
 62
  256
370
    0
100
AcDbPolyline
 90
    5
 70
    0
 43
0
 10
275.0509113895706
 20
566.608481032393
 10
273.0031466331381
 20
566.608481032393
 10
273.0031466331381
 20
566.9805513448
 10
275.0509113895706
 20
566.9805513448
 10
275.0509113895706
 20
566.608481032393
  0
SPLINE
  5
164
100
AcDbEntity
  8
Layer 8
  6
ByLayer
 62
  256
370
    0
100
AcDbSpline
210
0
220
0
230
0
 70
   11
 71
    3
 72
   17
 73
   13
 74
    0
 42
1e-07
 43
1e-07
 40
0
 40
0
 40
0
 40
0
 40
1
 40
1
 40
1
 40
2
 40
2
 40
2
 40
3
 40
3
 40
3
 40
4
 40
4
 40
4
 40
4
 10
272.4271266680043
 20
566.9769339945406
 30
0
 10
272.5289292395935
 20
566.9802068352515
 30
0
 10
272.6102334930454
 20
566.9057927727702
 30
0
 10
272.6102334930454
 20
566.7872814880775
 30
0
 10
272.6102334930454
 20
566.6825505853259
 30
0
 10
272.5289292395935
 20
566.607792013296
 30
0
 10
272.4271266680043
 20
566.607792013296
 30
0
 10
272.3223957652527
 20
566.607792013296
 30
0
 10
272.2410915118008
 20
566.6858234260369
 30
0
 10
272.2410915118008
 20
566.794171679048
 30
0
 10
272.2410915118008
 20
566.9057927727702
 30
0
 10
272.3223957652527
 20
566.9769339945406
 30
0
 10
272.4271266680043
 20
566.9769339945406
 30
0
  0
SPLINE
  5
165
100
AcDbEntity
  8
Layer 8
  6
ByLayer
 62
  256
370
    0
100
AcDbSpline
210
0
220
0
230
0
 70
   11
 71
    3
 72
   17
 73
   13
 74
    0
 42
1e-07
 43
1e-07
 40
0
 40
0
 40
0
 40
0
 40
1
 40
1
 40
1
 40
2
 40
2
 40
2
 40
3
 40
3
 40
3
 40
4
 40
4
 40
4
 40
4
 10
272.4269544132301
 20
566.9400714728483
 30
0
 10
272.508258666682
 20
566.9426552944623
 30
0
 10
272.5733709713532
 20
566.8832273973417
 30
0
 10
272.5733709713532
 20
566.7883150167231
 30
0
 10
272.5733709713532
 20
566.7045991964316
 30
0
 10
272.508258666682
 20
566.6448267897624
 30
0
 10
272.4269544132301
 20
566.6448267897624
 30
0
 10
272.3430663381642
 20
566.6448267897624
 30
0
 10
272.2781262882673
 20
566.7071830180455
 30
0
 10
272.2781262882673
 20
566.7938271694995
 30
0
 10
272.2781262882673
 20
566.8832273973417
 30
0
 10
272.3430663381642
 20
566.9400714728483
 30
0
 10
272.4269544132301
 20
566.9400714728483
 30
0
  0
SPLINE
  5
166
100
AcDbEntity
  8
Layer 8
  6
ByLayer
 62
  256
370
    0
100
AcDbSpline
210
0
220
0
230
0
 70
   11
 71
    3
 72
   17
 73
   13
 74
    0
 42
1e-07
 43
1e-07
 40
0
 40
0
 40
0
 40
0
 40
1
 40
1
 40
1
 40
2
 40
2
 40
2
 40
3
 40
3
 40
3
 40
4
 40
4
 40
4
 40
4
 10
272.4266099036815
 20
566.8958019958628
 30
0
 10
272.4834539791882
 20
566.8976967983798
 30
0
 10
272.5291014943678
 20
566.8560111430082
 30
0
 10
272.5291014943678
 20
566.7895208001429
 30
0
 10
272.5291014943678
 20
566.7309541768936
 30
0
 10
272.4834539791882
 20
566.6890962667479
 30
0
 10
272.4266099036815
 20
566.6890962667479
 30
0
 10
272.367871025658
 20
566.6890962667479
 30
0
 10
272.3223957652527
 20
566.7328489794106
 30
0
 10
272.3223957652527
 20
566.793482659951
 30
0
 10
272.3223957652527
 20
566.8560111430082
 30
0
 10
272.367871025658
 20
566.8958019958628
 30
0
 10
272.4266099036815
 20
566.8958019958628
 30
0
  0
SPLINE
  5
167
100
AcDbEntity
  8
Layer 8
  6
ByLayer
 62
  256
370
    0
100
AcDbSpline
210
0
220
0
230
0
 70
   11
 71
    3
 72
   17
 73
   13
 74
    0
 42
1e-07
 43
1e-07
 40
0
 40
0
 40
0
 40
0
 40
1
 40
1
 40
1
 40
2
 40
2
 40
2
 40
3
 40
3
 40
3
 40
4
 40
4
 40
4
 40
4
 10
272.4260931393588
 20
566.8441255635842
 30
0
 10
272.4546874318863
 20
566.8449868374554
 30
0
 10
272.477425062089
 20
566.824316264544
 30
0
 10
272.477425062089
 20
566.7908988383371
 30
0
 10
272.477425062089
 20
566.7616155267124
 30
0
 10
272.4546874318863
 20
566.7407726990266
 30
0
 10
272.4260931393588
 20
566.7407726990266
 30
0
 10
272.3968098277342
 20
566.7407726990266
 30
0
 10
272.3740721975315
 20
566.762649055358
 30
0
 10
272.3740721975315
 20
566.7929658956282
 30
0
 10
272.3740721975315
 20
566.824316264544
 30
0
 10
272.3968098277342
 20
566.8441255635842
 30
0
 10
272.4260931393588
 20
566.8441255635842
 30
0
  0
SPLINE
  5
168
100
AcDbEntity
  8
Layer 8
  6
ByLayer
 62
  256
370
    0
100
AcDbSpline
210
0
220
0
230
0
 70
   11
 71
    3
 72
   50
 73
   46
 74
    0
 42
1e-07
 43
1e-07
 40
0
 40
0
 40
0
 40
0
 40
1
 40
1
 40
1
 40
2
 40
2
 40
2
 40
3
 40
3
 40
3
 40
4
 40
4
 40
4
 40
5
 40
5
 40
5
 40
6
 40
6
 40
6
 40
7
 40
7
 40
7
 40
8
 40
8
 40
8
 40
9
 40
9
 40
9
 40
10
 40
10
 40
10
 40
11
 40
11
 40
11
 40
12
 40
12
 40
12
 40
13
 40
13
 40
13
 40
14
 40
14
 40
14
 40
15
 40
15
 40
15
 40
15
 10
273.5571179871663
 20
567.5989459844023
 30
0
 10
273.3455891243719
 20
567.5989459844023
 30
0
 10
273.1723008214639
 20
567.5944673602716
 30
0
 10
273.0031466331381
 20
567.5817205069761
 30
0
 10
273.0031466331381
 20
567.5817205069761
 30
0
 10
273.0031466331381
 20
567.911760654463
 30
0
 10
273.0031466331381
 20
567.911760654463
 30
0
 10
273.0031466331381
 20
567.911760654463
 30
0
 10
273.3414550097896
 20
567.9331202464716
 30
0
 10
273.3414550097896
 20
567.9331202464716
 30
0
 10
273.3414550097896
 20
567.9331202464716
 30
0
 10
273.3414550097896
 20
567.9413884756362
 30
0
 10
273.3414550097896
 20
567.9413884756362
 30
0
 10
273.146807114873
 20
568.0430187924511
 30
0
 10
272.9566378440873
 20
568.2800413618363
 30
0
 10
272.9566378440873
 20
568.6183497384878
 30
0
 10
272.9566378440873
 20
568.9018810969238
 30
0
 10
273.125792032413
 20
569.3418197903902
 30
0
 10
273.8279024923069
 20
569.3418197903902
 30
0
 10
273.8279024923069
 20
569.3418197903902
 30
0
 10
275.0509113895706
 20
569.3418197903902
 30
0
 10
275.0509113895706
 20
569.3418197903902
 30
0
 10
275.0509113895706
 20
569.3418197903902
 30
0
 10
275.0509113895706
 20
568.9697494779833
 30
0
 10
275.0509113895706
 20
568.9697494779833
 30
0
 10
275.0509113895706
 20
568.9697494779833
 30
0
 10
273.8702771667755
 20
568.9697494779833
 30
0
 10
273.8702771667755
 20
568.9697494779833
 30
0
 10
273.5402370192886
 20
568.9697494779833
 30
0
 10
273.2653183995656
 20
568.8467595691599
 30
0
 10
273.2653183995656
 20
568.4957043392129
 30
0
 10
273.2653183995656
 20
568.2504135406631
 30
0
 10
273.4389512120222
 20
568.0598997603288
 30
0
 10
273.6460014506857
 20
567.9965100034002
 30
0
 10
273.6925102397366
 20
567.9796290355225
 30
0
 10
273.7562445062137
 20
567.9710162968094
 30
0
 10
273.8196342631423
 20
567.9710162968094
 30
0
 10
273.8196342631423
 20
567.9710162968094
 30
0
 10
275.0509113895706
 20
567.9710162968094
 30
0
 10
275.0509113895706
 20
567.9710162968094
 30
0
 10
275.0509113895706
 20
567.9710162968094
 30
0
 10
275.0509113895706
 20
567.5989459844023
 30
0
 10
275.0509113895706
 20
567.5989459844023
 30
0
 10
275.0509113895706
 20
567.5989459844023
 30
0
 10
273.5571179871663
 20
567.5989459844023
 30
0
 10
273.5571179871663
 20
567.5989459844023
 30
0
  0
ENDBLK
  5
D3
330
D1
100
AcDbEntity
  8
0
100
AcDbBlockEnd
  0
BLOCK
  5
D5
330
D4
100
AcDbEntity
  8
0
100
AcDbBlockBegin
  2
block 46
 70
    0
 10
0
 20
0
  3
block 46
  1

  0
SPLINE
  5
169
100
AcDbEntity
  8
Layer 8
  6
ByLayer
 62
  256
370
    0
100
AcDbSpline
210
0
220
0
230
0
 70
   11
 71
    3
 72
   17
 73
   13
 74
    0
 42
1e-07
 43
1e-07
 40
0
 40
0
 40
0
 40
0
 40
1
 40
1
 40
1
 40
2
 40
2
 40
2
 40
3
 40
3
 40
3
 40
4
 40
4
 40
4
 40
4
 10
274.2302896449841
 20
554.7041258378865
 30
0
 10
274.987521632642
 20
554.7041258378865
 30
0
 10
275.317561780129
 20
554.179437795483
 30
0
 10
275.317561780129
 20
553.6843775742525
 30
0
 10
275.317561780129
 20
553.1300617106758
 30
0
 10
274.911385022418
 20
552.7028698705049
 30
0
 10
274.2640515807395
 20
552.7028698705049
 30
0
 10
273.5784775791748
 20
552.7028698705049
 30
0
 10
273.1767794455947
 20
553.1510767931359
 30
0
 10
273.1767794455947
 20
553.718139510008
 30
0
 10
273.1767794455947
 20
554.3062173093401
 30
0
 10
273.6039712857657
 20
554.7041258378865
 30
0
 10
274.2302896449841
 20
554.7041258378865
 30
0
  0
SPLINE
  5
16A
100
AcDbEntity
  8
Layer 8
  6
ByLayer
 62
  256
370
    0
100
AcDbSpline
210
0
220
0
230
0
 70
   11
 71
    3
 72
   17
 73
   13
 74
    0
 42
1e-07
 43
1e-07
 40
0
 40
0
 40
0
 40
0
 40
1
 40
1
 40
1
 40
2
 40
2
 40
2
 40
3
 40
3
 40
3
 40
4
 40
4
 40
4
 40
4
 10
274.2513047274441
 20
553.0794188070427
 30
0
 10
274.6998561596237
 20
553.0794188070427
 30
0
 10
275.0381645362752
 20
553.3374564588879
 30
0
 10
275.0381645362752
 20
553.7012585421303
 30
0
 10
275.0381645362752
 20
554.056792396208
 30
0
 10
274.703990274206
 20
554.3230982772178
 30
0
 10
274.242691988731
 20
554.3230982772178
 30
0
 10
273.8957708733664
 20
554.3230982772178
 30
0
 10
273.4558321799
 20
554.1498099743098
 30
0
 10
273.4558321799
 20
553.7098712808433
 30
0
 10
273.4558321799
 20
553.2695880778284
 30
0
 10
273.8620089376109
 20
553.0794188070427
 30
0
 10
274.2513047274441
 20
553.0794188070427
 30
0
  0
SPLINE
  5
16B
100
AcDbEntity
  8
Layer 8
  6
ByLayer
 62
  256
370
    0
100
AcDbSpline
210
0
220
0
230
0
 70
   11
 71
    3
 72
   50
 73
   46
 74
    0
 42
1e-07
 43
1e-07
 40
0
 40
0
 40
0
 40
0
 40
1
 40
1
 40
1
 40
2
 40
2
 40
2
 40
3
 40
3
 40
3
 40
4
 40
4
 40
4
 40
5
 40
5
 40
5
 40
6
 40
6
 40
6
 40
7
 40
7
 40
7
 40
8
 40
8
 40
8
 40
9
 40
9
 40
9
 40
10
 40
10
 40
10
 40
11
 40
11
 40
11
 40
12
 40
12
 40
12
 40
13
 40
13
 40
13
 40
14
 40
14
 40
14
 40
15
 40
15
 40
15
 40
15
 10
274.7126030129191
 20
556.8883163755349
 30
0
 10
274.9241318757134
 20
556.8883163755349
 30
0
 10
275.1101670319169
 20
556.8927949996657
 30
0
 10
275.2710529910781
 20
556.9055418529612
 30
0
 10
275.2710529910781
 20
556.9055418529612
 30
0
 10
275.2710529910781
 20
556.5755017054742
 30
0
 10
275.2710529910781
 20
556.5755017054742
 30
0
 10
275.2710529910781
 20
556.5755017054742
 30
0
 10
274.9368787290089
 20
556.5541421134657
 30
0
 10
274.9368787290089
 20
556.5541421134657
 30
0
 10
274.9368787290089
 20
556.5541421134657
 30
0
 10
274.9368787290089
 20
556.545873884301
 30
0
 10
274.9368787290089
 20
556.545873884301
 30
0
 10
275.1018988027523
 20
556.4483776820684
 30
0
 10
275.317561780129
 20
556.2327147046918
 30
0
 10
275.317561780129
 20
555.8689126214495
 30
0
 10
275.317561780129
 20
555.5471407031272
 30
0
 10
275.1397948530901
 20
555.1623235374248
 30
0
 10
274.4204589157699
 20
555.1623235374248
 30
0
 10
274.4204589157699
 20
555.1623235374248
 30
0
 10
273.2232882346456
 20
555.1623235374248
 30
0
 10
273.2232882346456
 20
555.1623235374248
 30
0
 10
273.2232882346456
 20
555.1623235374248
 30
0
 10
273.2232882346456
 20
555.5343938498318
 30
0
 10
273.2232882346456
 20
555.5343938498318
 30
0
 10
273.2232882346456
 20
555.5343938498318
 30
0
 10
274.3570691588413
 20
555.5343938498318
 30
0
 10
274.3570691588413
 20
555.5343938498318
 30
0
 10
274.7463649486745
 20
555.5343938498318
 30
0
 10
275.008536715102
 20
555.6529051345243
 30
0
 10
275.008536715102
 20
555.9915580207244
 30
0
 10
275.008536715102
 20
556.2409829338565
 30
0
 10
274.835248412194
 20
556.4146157463131
 30
0
 10
274.6702283384505
 20
556.4821396178239
 30
0
 10
274.6151068106865
 20
556.5034992098325
 30
0
 10
274.5475829391756
 20
556.5162460631279
 30
0
 10
274.4797145581162
 20
556.5162460631279
 30
0
 10
274.4797145581162
 20
556.5162460631279
 30
0
 10
273.2232882346456
 20
556.5162460631279
 30
0
 10
273.2232882346456
 20
556.5162460631279
 30
0
 10
273.2232882346456
 20
556.5162460631279
 30
0
 10
273.2232882346456
 20
556.8883163755349
 30
0
 10
273.2232882346456
 20
556.8883163755349
 30
0
 10
273.2232882346456
 20
556.8883163755349
 30
0
 10
274.7126030129191
 20
556.8883163755349
 30
0
 10
274.7126030129191
 20
556.8883163755349
 30
0
  0
SPLINE
  5
16C
100
AcDbEntity
  8
Layer 8
  6
ByLayer
 62
  256
370
    0
100
AcDbSpline
210
0
220
0
230
0
 70
   11
 71
    3
 72
   56
 73
   52
 74
    0
 42
1e-07
 43
1e-07
 40
0
 40
0
 40
0
 40
0
 40
1
 40
1
 40
1
 40
2
 40
2
 40
2
 40
3
 40
3
 40
3
 40
4
 40
4
 40
4
 40
5
 40
5
 40
5
 40
6
 40
6
 40
6
 40
7
 40
7
 40
7
 40
8
 40
8
 40
8
 40
9
 40
9
 40
9
 40
10
 40
10
 40
10
 40
11
 40
11
 40
11
 40
12
 40
12
 40
12
 40
13
 40
13
 40
13
 40
14
 40
14
 40
14
 40
15
 40
15
 40
15
 40
16
 40
16
 40
16
 40
17
 40
17
 40
17
 40
17
 10
272.6352104353134
 20
557.9559514664138
 30
0
 10
272.6352104353134
 20
557.9559514664138
 30
0
 10
273.2232882346456
 20
557.9559514664138
 30
0
 10
273.2232882346456
 20
557.9559514664138
 30
0
 10
273.2232882346456
 20
557.9559514664138
 30
0
 10
273.2232882346456
 20
558.4892522475305
 30
0
 10
273.2232882346456
 20
558.4892522475305
 30
0
 10
273.2232882346456
 20
558.4892522475305
 30
0
 10
273.5064750835331
 20
558.4892522475305
 30
0
 10
273.5064750835331
 20
558.4892522475305
 30
0
 10
273.5064750835331
 20
558.4892522475305
 30
0
 10
273.5064750835331
 20
557.9559514664138
 30
0
 10
273.5064750835331
 20
557.9559514664138
 30
0
 10
273.5064750835331
 20
557.9559514664138
 30
0
 10
274.6109726961042
 20
557.9559514664138
 30
0
 10
274.6109726961042
 20
557.9559514664138
 30
0
 10
274.8648762333671
 20
557.9559514664138
 30
0
 10
275.008536715102
 20
558.0279539620556
 30
0
 10
275.008536715102
 20
558.2353487102675
 30
0
 10
275.008536715102
 20
558.3325004029516
 30
0
 10
274.9957898618066
 20
558.4045028985934
 30
0
 10
274.9833875180597
 20
558.4510116876443
 30
0
 10
274.9833875180597
 20
558.4510116876443
 30
0
 10
275.262440252365
 20
558.467892655522
 30
0
 10
275.262440252365
 20
558.467892655522
 30
0
 10
275.2920680735381
 20
558.3962346694287
 30
0
 10
275.3134276655467
 20
558.2818574993184
 30
0
 10
275.3134276655467
 20
558.1378525080351
 30
0
 10
275.3134276655467
 20
557.964564205127
 30
0
 10
275.2583061377827
 20
557.8250378379744
 30
0
 10
275.1566758209678
 20
557.7361543744548
 30
0
 10
275.0467772749883
 20
557.6303899430577
 30
0
 10
274.8648762333671
 20
557.5921493831714
 30
0
 10
274.6237195493997
 20
557.5921493831714
 30
0
 10
274.6237195493997
 20
557.5921493831714
 30
0
 10
273.5064750835331
 20
557.5921493831714
 30
0
 10
273.5064750835331
 20
557.5921493831714
 30
0
 10
273.5064750835331
 20
557.5921493831714
 30
0
 10
273.5064750835331
 20
557.27485608898
 30
0
 10
273.5064750835331
 20
557.27485608898
 30
0
 10
273.5064750835331
 20
557.27485608898
 30
0
 10
273.2232882346456
 20
557.27485608898
 30
0
 10
273.2232882346456
 20
557.27485608898
 30
0
 10
273.2232882346456
 20
557.27485608898
 30
0
 10
273.2232882346456
 20
557.5921493831714
 30
0
 10
273.2232882346456
 20
557.5921493831714
 30
0
 10
273.2232882346456
 20
557.5921493831714
 30
0
 10
272.7323621279975
 20
557.5921493831714
 30
0
 10
272.7323621279975
 20
557.5921493831714
 30
0
 10
272.7323621279975
 20
557.5921493831714
 30
0
 10
272.6352104353134
 20
557.9559514664138
 30
0
 10
272.6352104353134
 20
557.9559514664138
 30
0
  0
ENDBLK
  5
D6
330
D4
100
AcDbEntity
  8
0
100
AcDbBlockEnd
  0
BLOCK
  5
D8
330
D7
100
AcDbEntity
  8
0
100
AcDbBlockBegin
  2
block 11-0
 70
    0
 10
0
 20
0
  3
block 11-0
  1

  0
INSERT
  5
16D
100
AcDbEntity
  8
Layer 8
  6
ByLayer
 62
  256
370
   -1
100
AcDbBlockReference
  2
block 12
 10
0
 20
0
 30
0
 41
1
 42
1
 43
0
 50
0
 70
    1
 71
    1
 44
0
 45
0
  0
LWPOLYLINE
  5
16E
100
AcDbEntity
  8
Layer 8
  6
ByLayer
 62
  256
370
    0
100
AcDbPolyline
 90
    5
 70
    0
 43
0
 10
198.7069064173372
 20
573.8834891685951
 10
129.3786661460408
 20
573.8834891685951
 10
129.3786661460408
 20
538.9619342728116
 10
198.7069064173372
 20
538.9619342728116
 10
198.7069064173372
 20
573.8834891685951
  0
ENDBLK
  5
D9
330
D7
100
AcDbEntity
  8
0
100
AcDbBlockEnd
  0
BLOCK
  5
DB
330
DA
100
AcDbEntity
  8
0
100
AcDbBlockBegin
  2
block 11-1
 70
    0
 10
0
 20
0
  3
block 11-1
  1

  0
INSERT
  5
16F
100
AcDbEntity
  8
Layer 8
  6
ByLayer
 62
  256
370
   -1
100
AcDbBlockReference
  2
block 12
 10
0
 20
0
 30
0
 41
1
 42
1
 43
0
 50
0
 70
    1
 71
    1
 44
0
 45
0
  0
LWPOLYLINE
  5
170
100
AcDbEntity
  8
Layer 8
  6
ByLayer
 62
  256
370
    0
100
AcDbPolyline
 90
    5
 70
    0
 43
0
 10
198.7069064173372
 20
573.8834891685951
 10
129.3786661460408
 20
573.8834891685951
 10
129.3786661460408
 20
538.9619342728116
 10
198.7069064173372
 20
538.9619342728116
 10
198.7069064173372
 20
573.8834891685951
  0
ENDBLK
  5
DC
330
DA
100
AcDbEntity
  8
0
100
AcDbBlockEnd
  0
BLOCK
  5
DE
330
DD
100
AcDbEntity
  8
0
100
AcDbBlockBegin
  2
block 2-0
 70
    0
 10
0
 20
0
  3
block 2-0
  1

  0
INSERT
  5
171
100
AcDbEntity
  8
Layer 8
  6
ByLayer
 62
  256
370
   -1
100
AcDbBlockReference
  2
block 3
 10
0
 20
0
 30
0
 41
1
 42
1
 43
0
 50
0
 70
    1
 71
    1
 44
0
 45
0
  0
INSERT
  5
172
100
AcDbEntity
  8
Layer 8
  6
ByLayer
 62
  256
370
   -1
100
AcDbBlockReference
  2
block 10
 10
0
 20
0
 30
0
 41
1
 42
1
 43
0
 50
0
 70
    1
 71
    1
 44
0
 45
0
  0
ENDBLK
  5
DF
330
DD
100
AcDbEntity
  8
0
100
AcDbBlockEnd
  0
BLOCK
  5
E1
330
E0
100
AcDbEntity
  8
0
100
AcDbBlockBegin
  2
block 2-1
 70
    0
 10
0
 20
0
  3
block 2-1
  1

  0
INSERT
  5
173
100
AcDbEntity
  8
Layer 8
  6
ByLayer
 62
  256
370
   -1
100
AcDbBlockReference
  2
block 3
 10
0
 20
0
 30
0
 41
1
 42
1
 43
0
 50
0
 70
    1
 71
    1
 44
0
 45
0
  0
INSERT
  5
174
100
AcDbEntity
  8
Layer 8
  6
ByLayer
 62
  256
370
   -1
100
AcDbBlockReference
  2
block 10
 10
0
 20
0
 30
0
 41
1
 42
1
 43
0
 50
0
 70
    1
 71
    1
 44
0
 45
0
  0
ENDBLK
  5
E2
330
E0
100
AcDbEntity
  8
0
100
AcDbBlockEnd
  0
BLOCK
  5
E4
330
E3
100
AcDbEntity
  8
0
100
AcDbBlockBegin
  2
block 2-2
 70
    0
 10
0
 20
0
  3
block 2-2
  1

  0
INSERT
  5
175
100
AcDbEntity
  8
Layer 8
  6
ByLayer
 62
  256
370
   -1
100
AcDbBlockReference
  2
block 3
 10
0
 20
0
 30
0
 41
1
 42
1
 43
0
 50
0
 70
    1
 71
    1
 44
0
 45
0
  0
INSERT
  5
176
100
AcDbEntity
  8
Layer 8
  6
ByLayer
 62
  256
370
   -1
100
AcDbBlockReference
  2
block 10
 10
0
 20
0
 30
0
 41
1
 42
1
 43
0
 50
0
 70
    1
 71
    1
 44
0
 45
0
  0
ENDBLK
  5
E5
330
E3
100
AcDbEntity
  8
0
100
AcDbBlockEnd
  0
BLOCK
  5
E7
330
E6
100
AcDbEntity
  8
0
100
AcDbBlockBegin
  2
block 2-3
 70
    0
 10
0
 20
0
  3
block 2-3
  1

  0
INSERT
  5
177
100
AcDbEntity
  8
Layer 8
  6
ByLayer
 62
  256
370
   -1
100
AcDbBlockReference
  2
block 3
 10
0
 20
0
 30
0
 41
1
 42
1
 43
0
 50
0
 70
    1
 71
    1
 44
0
 45
0
  0
INSERT
  5
178
100
AcDbEntity
  8
Layer 8
  6
ByLayer
 62
  256
370
   -1
100
AcDbBlockReference
  2
block 10
 10
0
 20
0
 30
0
 41
1
 42
1
 43
0
 50
0
 70
    1
 71
    1
 44
0
 45
0
  0
ENDBLK
  5
E8
330
E6
100
AcDbEntity
  8
0
100
AcDbBlockEnd
  0
BLOCK
  5
EA
330
E9
100
AcDbEntity
  8
0
100
AcDbBlockBegin
  2
block 2-4
 70
    0
 10
0
 20
0
  3
block 2-4
  1

  0
INSERT
  5
179
100
AcDbEntity
  8
Layer 8
  6
ByLayer
 62
  256
370
   -1
100
AcDbBlockReference
  2
block 3
 10
0
 20
0
 30
0
 41
1
 42
1
 43
0
 50
0
 70
    1
 71
    1
 44
0
 45
0
  0
INSERT
  5
17A
100
AcDbEntity
  8
Layer 8
  6
ByLayer
 62
  256
370
   -1
100
AcDbBlockReference
  2
block 10
 10
0
 20
0
 30
0
 41
1
 42
1
 43
0
 50
0
 70
    1
 71
    1
 44
0
 45
0
  0
ENDBLK
  5
EB
330
E9
100
AcDbEntity
  8
0
100
AcDbBlockEnd
  0
ENDSEC
  0
SECTION
  2
ENTITIES
  0
INSERT
  5
17B
100
AcDbEntity
  8
Layer 8
  6
ByLayer
 62
  256
370
   -1
100
AcDbBlockReference
  2
block 2
 10
0
 20
0
 30
0
 41
1
 42
1
 43
0
 50
0
 70
    1
 71
    1
 44
0
 45
0
  0
INSERT
  5
17C
100
AcDbEntity
  8
Layer 8
  6
ByLayer
 62
  256
370
   -1
100
AcDbBlockReference
  2
block 11
 10
0
 20
0
 30
0
 41
1
 42
1
 43
0
 50
0
 70
    1
 71
    1
 44
0
 45
0
  0
INSERT
  5
17D
100
AcDbEntity
  8
Layer 8
  6
ByLayer
 62
  256
370
   -1
100
AcDbBlockReference
  2
block 20
 10
0
 20
0
 30
0
 41
1
 42
1
 43
0
 50
0
 70
    1
 71
    1
 44
0
 45
0
  0
INSERT
  5
17E
100
AcDbEntity
  8
Layer 8
  6
ByLayer
 62
  256
370
   -1
100
AcDbBlockReference
  2
block 39
 10
0
 20
0
 30
0
 41
1
 42
1
 43
0
 50
0
 70
    1
 71
    1
 44
0
 45
0
  0
INSERT
  5
17F
100
AcDbEntity
  8
Layer 8
  6
ByLayer
 62
  256
370
   -1
100
AcDbBlockReference
  2
block 2-0
 10
0
 20
-93.92957064946557
 30
0
 41
1
 42
1
 43
0
 50
0
 70
    1
 71
    1
 44
0
 45
0
  0
INSERT
  5
180
100
AcDbEntity
  8
Layer 8
  6
ByLayer
 62
  256
370
   -1
100
AcDbBlockReference
  2
block 11
 10
0
 20
-93.92957064946557
 30
0
 41
1
 42
1
 43
0
 50
0
 70
    1
 71
    1
 44
0
 45
0
  0
INSERT
  5
181
100
AcDbEntity
  8
Layer 8
  6
ByLayer
 62
  256
370
   -1
100
AcDbBlockReference
  2
block 20
 10
0
 20
-93.92957064946557
 30
0
 41
1
 42
1
 43
0
 50
0
 70
    1
 71
    1
 44
0
 45
0
  0
INSERT
  5
182
100
AcDbEntity
  8
Layer 8
  6
ByLayer
 62
  256
370
   -1
100
AcDbBlockReference
  2
block 39
 10
0
 20
-93.92957064946557
 30
0
 41
1
 42
1
 43
0
 50
0
 70
    1
 71
    1
 44
0
 45
0
  0
INSERT
  5
183
100
AcDbEntity
  8
Layer 8
  6
ByLayer
 62
  256
370
   -1
100
AcDbBlockReference
  2
block 2
 10
-0.4803405924790809
 20
-188.2524947677529
 30
0
 41
1
 42
1
 43
0
 50
0
 70
    1
 71
    1
 44
0
 45
0
  0
INSERT
  5
184
100
AcDbEntity
  8
Layer 8
  6
ByLayer
 62
  256
370
   -1
100
AcDbBlockReference
  2
block 11
 10
-0.4803405924790809
 20
-188.2524947677529
 30
0
 41
1
 42
1
 43
0
 50
0
 70
    1
 71
    1
 44
0
 45
0
  0
INSERT
  5
185
100
AcDbEntity
  8
Layer 8
  6
ByLayer
 62
  256
370
   -1
100
AcDbBlockReference
  2
block 20
 10
-0.4803405924790809
 20
-188.2524947677529
 30
0
 41
1
 42
1
 43
0
 50
0
 70
    1
 71
    1
 44
0
 45
0
  0
INSERT
  5
186
100
AcDbEntity
  8
Layer 8
  6
ByLayer
 62
  256
370
   -1
100
AcDbBlockReference
  2
block 39
 10
-0.4803405924790809
 20
-188.2524947677529
 30
0
 41
1
 42
1
 43
0
 50
0
 70
    1
 71
    1
 44
0
 45
0
  0
INSERT
  5
187
100
AcDbEntity
  8
Layer 8
  6
ByLayer
 62
  256
370
   -1
100
AcDbBlockReference
  2
block 2
 10
-0.3224621616081436
 20
-283.9014397464798
 30
0
 41
1
 42
1
 43
0
 50
0
 70
    1
 71
    1
 44
0
 45
0
  0
INSERT
  5
188
100
AcDbEntity
  8
Layer 8
  6
ByLayer
 62
  256
370
   -1
100
AcDbBlockReference
  2
block 11
 10
-0.3224621616081436
 20
-283.9014397464798
 30
0
 41
1
 42
1
 43
0
 50
0
 70
    1
 71
    1
 44
0
 45
0
  0
INSERT
  5
189
100
AcDbEntity
  8
Layer 8
  6
ByLayer
 62
  256
370
   -1
100
AcDbBlockReference
  2
block 20
 10
-0.3224621616081436
 20
-283.9014397464798
 30
0
 41
1
 42
1
 43
0
 50
0
 70
    1
 71
    1
 44
0
 45
0
  0
INSERT
  5
18A
100
AcDbEntity
  8
Layer 8
  6
ByLayer
 62
  256
370
   -1
100
AcDbBlockReference
  2
block 39
 10
-0.3224621616081436
 20
-283.9014397464798
 30
0
 41
1
 42
1
 43
0
 50
0
 70
    1
 71
    1
 44
0
 45
0
  0
ENDSEC
  0
SECTION
  2
OBJECTS
  0
DICTIONARY
  5
C
330
0
100
AcDbDictionary
281
    1
  3
ACAD_GROUP
350
D
  0
DICTIONARY
  5
D
330
C
100
AcDbDictionary
281
    1
  0
ENDSEC
  0
EOF
