  0
SECTION
  2
HEADER
  9
$ACADVER
  1
AC1024
  9
$ACADMAINTVER
 70
     6
  9
$DWGCODEPAGE
  3
UNDEFINED
  9
$INSBASE
 10
0.0
 20
0.0
 30
0.0
  9
$EXTMIN
 10
1.000000000000000E+20
 20
1.000000000000000E+20
 30
1.000000000000000E+20
  9
$EXTMAX
 10
-1.000000000000000E+20
 20
-1.000000000000000E+20
 30
-1.000000000000000E+20
  9
$LIMMIN
 10
0.0
 20
0.0
  9
$LIMMAX
 10
12.0
 20
9.0
  9
$ORTHOMODE
 70
     0
  9
$REGENMODE
 70
     1
  9
$FILLMODE
 70
     1
  9
$QTEXTMODE
 70
     0
  9
$MIRRTEXT
 70
     1
  9
$LTSCALE
 40
1.0
  9
$ATTMODE
 70
     1
  9
$TEXTSIZE
 40
0.2
  9
$TRACEWID
 40
0.05
  9
$TEXTSTYLE
  7
Standard
  9
$CLAYER
  8
0
  9
$CELTYPE
  6
ByLayer
  9
$CECOLOR
 62
   256
  9
$CELTSCALE
 40
1.0
  9
$DISPSILH
 70
     0
  9
$DIMSCALE
 40
1.0
  9
$DIMASZ
 40
0.18
  9
$DIMEXO
 40
0.0625
  9
$DIMDLI
 40
0.38
  9
$DIMRND
 40
0.0
  9
$DIMDLE
 40
0.0
  9
$DIMEXE
 40
0.18
  9
$DIMTP
 40
0.0
  9
$DIMTM
 40
0.0
  9
$DIMTXT
 40
0.18
  9
$DIMCEN
 40
0.09
  9
$DIMTSZ
 40
0.0
  9
$DIMTOL
 70
     0
  9
$DIMLIM
 70
     0
  9
$DIMTIH
 70
     1
  9
$DIMTOH
 70
     1
  9
$DIMSE1
 70
     0
  9
$DIMSE2
 70
     0
  9
$DIMTAD
 70
     0
  9
$DIMZIN
 70
     0
  9
$DIMBLK
  1

  9
$DIMASO
 70
     1
  9
$DIMSHO
 70
     1
  9
$DIMPOST
  1

  9
$DIMAPOST
  1

  9
$DIMALT
 70
     0
  9
$DIMALTD
 70
     2
  9
$DIMALTF
 40
25.4
  9
$DIMLFAC
 40
1.0
  9
$DIMTOFL
 70
     0
  9
$DIMTVP
 40
0.0
  9
$DIMTIX
 70
     0
  9
$DIMSOXD
 70
     0
  9
$DIMSAH
 70
     0
  9
$DIMBLK1
  1

  9
$DIMBLK2
  1

  9
$DIMSTYLE
  2
Standard
  9
$DIMCLRD
 70
     0
  9
$DIMCLRE
 70
     0
  9
$DIMCLRT
 70
     0
  9
$DIMTFAC
 40
1.0
  9
$DIMGAP
 40
0.09
  9
$DIMJUST
 70
     0
  9
$DIMSD1
 70
     0
  9
$DIMSD2
 70
     0
  9
$DIMTOLJ
 70
     1
  9
$DIMTZIN
 70
     0
  9
$DIMALTZ
 70
     0
  9
$DIMALTTZ
 70
     0
  9
$DIMUPT
 70
     0
  9
$DIMDEC
 70
     4
  9
$DIMTDEC
 70
     4
  9
$DIMALTU
 70
     2
  9
$DIMALTTD
 70
     2
  9
$DIMTXSTY
  7
Standard
  9
$DIMAUNIT
 70
     0
  9
$DIMADEC
 70
     0
  9
$DIMALTRND
 40
0.0
  9
$DIMAZIN
 70
     0
  9
$DIMDSEP
 70
    46
  9
$DIMATFIT
 70
     3
  9
$DIMFRAC
 70
     0
  9
$DIMLDRBLK
  1

  9
$DIMLUNIT
 70
     2
  9
$DIMLWD
 70
    -2
  9
$DIMLWE
 70
    -2
  9
$DIMTMOVE
 70
     0
  9
$DIMFXL
 40
1.0
  9
$DIMFXLON
 70
     0
  9
$DIMJOGANG
 40
0.7853981633974483
  9
$DIMTFILL
 70
     0
  9
$DIMTFILLCLR
 70
     0
  9
$DIMARCSYM
 70
     0
  9
$DIMLTYPE
  6

  9
$DIMLTEX1
  6

  9
$DIMLTEX2
  6

  9
$DIMTXTDIRECTION
 70
     0
  9
$LUNITS
 70
     2
  9
$LUPREC
 70
     4
  9
$SKETCHINC
 40
0.1
  9
$FILLETRAD
 40
0.5
  9
$AUNITS
 70
     0
  9
$AUPREC
 70
     0
  9
$MENU
  1
.
  9
$ELEVATION
 40
0.0
  9
$PELEVATION
 40
0.0
  9
$THICKNESS
 40
0.0
  9
$LIMCHECK
 70
     0
  9
$CHAMFERA
 40
0.5
  9
$CHAMFERB
 40
0.5
  9
$CHAMFERC
 40
1.0
  9
$CHAMFERD
 40
0.0
  9
$SKPOLY
 70
     0
  9
$TDCREATE
 40
2458835.918645822
  9
$TDUCREATE
 40
2458836.168645833
  9
$TDUPDATE
 40
2458835.918645822
  9
$TDUUPDATE
 40
2458836.168645833
  9
$TDINDWG
 40
0.0000000116
  9
$TDUSRTIMER
 40
0.0000000116
  9
$USRTIMER
 70
     1
  9
$ANGBASE
 50
0.0
  9
$ANGDIR
 70
     0
  9
$PDMODE
 70
     0
  9
$PDSIZE
 40
0.0
  9
$PLINEWID
 40
0.0
  9
$SPLFRAME
 70
     0
  9
$SPLINETYPE
 70
     6
  9
$SPLINESEGS
 70
     8
  9
$HANDSEED
  5
19A
  9
$SURFTAB1
 70
     6
  9
$SURFTAB2
 70
     6
  9
$SURFTYPE
 70
     6
  9
$SURFU
 70
     6
  9
$SURFV
 70
     6
  9
$UCSBASE
  2

  9
$UCSNAME
  2

  9
$UCSORG
 10
0.0
 20
0.0
 30
0.0
  9
$UCSXDIR
 10
1.0
 20
0.0
 30
0.0
  9
$UCSYDIR
 10
0.0
 20
1.0
 30
0.0
  9
$UCSORTHOREF
  2

  9
$UCSORTHOVIEW
 70
     0
  9
$UCSORGTOP
 10
0.0
 20
0.0
 30
0.0
  9
$UCSORGBOTTOM
 10
0.0
 20
0.0
 30
0.0
  9
$UCSORGLEFT
 10
0.0
 20
0.0
 30
0.0
  9
$UCSORGRIGHT
 10
0.0
 20
0.0
 30
0.0
  9
$UCSORGFRONT
 10
0.0
 20
0.0
 30
0.0
  9
$UCSORGBACK
 10
0.0
 20
0.0
 30
0.0
  9
$PUCSBASE
  2

  9
$PUCSNAME
  2

  9
$PUCSORG
 10
0.0
 20
0.0
 30
0.0
  9
$PUCSXDIR
 10
1.0
 20
0.0
 30
0.0
  9
$PUCSYDIR
 10
0.0
 20
1.0
 30
0.0
  9
$PUCSORTHOREF
  2

  9
$PUCSORTHOVIEW
 70
     0
  9
$PUCSORGTOP
 10
0.0
 20
0.0
 30
0.0
  9
$PUCSORGBOTTOM
 10
0.0
 20
0.0
 30
0.0
  9
$PUCSORGLEFT
 10
0.0
 20
0.0
 30
0.0
  9
$PUCSORGRIGHT
 10
0.0
 20
0.0
 30
0.0
  9
$PUCSORGFRONT
 10
0.0
 20
0.0
 30
0.0
  9
$PUCSORGBACK
 10
0.0
 20
0.0
 30
0.0
  9
$USERI1
 70
     0
  9
$USERI2
 70
     0
  9
$USERI3
 70
     0
  9
$USERI4
 70
     0
  9
$USERI5
 70
     0
  9
$USERR1
 40
0.0
  9
$USERR2
 40
0.0
  9
$USERR3
 40
0.0
  9
$USERR4
 40
0.0
  9
$USERR5
 40
0.0
  9
$WORLDVIEW
 70
     1
  9
$SHADEDGE
 70
     3
  9
$SHADEDIF
 70
    70
  9
$TILEMODE
 70
     1
  9
$MAXACTVP
 70
    64
  9
$PINSBASE
 10
0.0
 20
0.0
 30
0.0
  9
$PLIMCHECK
 70
     0
  9
$PEXTMIN
 10
1.000000000000000E+20
 20
1.000000000000000E+20
 30
1.000000000000000E+20
  9
$PEXTMAX
 10
-1.000000000000000E+20
 20
-1.000000000000000E+20
 30
-1.000000000000000E+20
  9
$PLIMMIN
 10
0.0
 20
0.0
  9
$PLIMMAX
 10
12.0
 20
9.0
  9
$UNITMODE
 70
     0
  9
$VISRETAIN
 70
     1
  9
$PLINEGEN
 70
     0
  9
$PSLTSCALE
 70
     1
  9
$TREEDEPTH
 70
  3020
  9
$CMLSTYLE
  2
Standard
  9
$CMLJUST
 70
     0
  9
$CMLSCALE
 40
1.0
  9
$PROXYGRAPHICS
 70
     1
  9
$MEASUREMENT
 70
     0
  9
$CELWEIGHT
370
    -1
  9
$ENDCAPS
280
     0
  9
$JOINSTYLE
280
     0
  9
$LWDISPLAY
290
     1
  9
$INSUNITS
 70
     4
  9
$HYPERLINKBASE
  1

  9
$STYLESHEET
  1

  9
$XEDIT
290
     1
  9
$CEPSNTYPE
380
     0
  9
$PSTYLEMODE
290
     1
  9
$FINGERPRINTGUID
  2
{0651939F-79BD-FA71-16AD-59D695712B5F}
  9
$VERSIONGUID
  2
{FAEB1C32-E019-11D5-929B-00C0DF256EC4}
  9
$EXTNAMES
290
     1
  9
$PSVPSCALE
 40
0.0
  9
$OLESTARTUP
290
     0
  9
$SORTENTS
280
   127
  9
$INDEXCTL
280
     0
  9
$HIDETEXT
280
     1
  9
$XCLIPFRAME
280
     2
  9
$HALOGAP
280
     0
  9
$OBSCOLOR
 70
   257
  9
$OBSLTYPE
280
     0
  9
$INTERSECTIONDISPLAY
280
     0
  9
$INTERSECTIONCOLOR
 70
   257
  9
$DIMASSOC
280
     2
  9
$PROJECTNAME
  1

  9
$CAMERADISPLAY
290
     0
  9
$LENSLENGTH
 40
50.0
  9
$CAMERAHEIGHT
 40
0.0
  9
$STEPSPERSEC
 40
2.0
  9
$STEPSIZE
 40
6.0
  9
$3DDWFPREC
 40
2.0
  9
$PSOLWIDTH
 40
0.25
  9
$PSOLHEIGHT
 40
4.0
  9
$LOFTANG1
 40
1.570796326794897
  9
$LOFTANG2
 40
1.570796326794897
  9
$LOFTMAG1
 40
0.0
  9
$LOFTMAG2
 40
0.0
  9
$LOFTPARAM
 70
     7
  9
$LOFTNORMALS
280
     1
  9
$LATITUDE
 40
37.795
  9
$LONGITUDE
 40
-122.394
  9
$NORTHDIRECTION
 40
0.0
  9
$TIMEZONE
 70
 -8000
  9
$LIGHTGLYPHDISPLAY
280
     1
  9
$TILEMODELIGHTSYNCH
280
     1
  9
$CMATERIAL
347
3C
  9
$SOLIDHIST
280
     1
  9
$SHOWHIST
280
     1
  9
$DWFFRAME
280
     2
  9
$DGNFRAME
280
     2
  9
$REALWORLDSCALE
290
     1
  9
$INTERFERECOLOR
 62
   256
  9
$CSHADOW
280
     0
  9
$SHADOWPLANELOCATION
 40
0.0
  0
ENDSEC
  0
SECTION
  2
CLASSES
  0
CLASS
  1
ACDBDICTIONARYWDFLT
  2
AcDbDictionaryWithDefault
  3
ObjectDBX Classes
 90
        0
 91
        4
280
     0
281
     0
  0
CLASS
  1
VISUALSTYLE
  2
AcDbVisualStyle
  3
ObjectDBX Classes
 90
     4095
 91
        4
280
     0
281
     0
  0
CLASS
  1
MATERIAL
  2
AcDbMaterial
  3
ObjectDBX Classes
 90
     1153
 91
        4
280
     0
281
     0
  0
CLASS
  1
SUN
  2
AcDbSun
  3
SCENEOE
 90
     1024
 91
        4
280
     0
281
     0
  0
ENDSEC
  0
SECTION
  2
TABLES
  0
TABLE
  2
VPORT
  5
8
330
0
100
AcDbSymbolTable
 70
     1
  0
VPORT
  5
29
330
8
100
AcDbSymbolTableRecord
100
AcDbViewportTableRecord
  2
*Active
 70
     0
 10
0.0
 20
0.0
 11
1.0
 21
1.0
 12
0.0
 22
0.0
 13
0.0
 23
0.0
 14
0.5
 24
0.5
 15
0.5
 25
0.5
 16
0.0
 26
0.0
 36
1.0
 17
579.9938110961554
 27
279.4349779296094
 37
0.0
 40
139.6910843958844
 41
2.067581797628372
 42
50.0
 43
0.0
 44
0.0
 50
0.0
 51
0.0
 71
     0
 72
   100
 73
     1
 74
     3
 75
     0
 76
     0
 77
     0
 78
     0
281
     0
 65
     1
110
0.0
120
0.0
130
0.0
111
1.0
121
0.0
131
0.0
112
0.0
122
1.0
132
0.0
 79
     0
146
0.0
 60
     3
 61
     5
292
     1
282
     1
141
0.0
142
0.0
 63
   250
361
3F
  0
ENDTAB
  0
TABLE
  2
LTYPE
  5
5
330
0
100
AcDbSymbolTable
 70
     1
  0
LTYPE
  5
14
330
5
100
AcDbSymbolTableRecord
100
AcDbLinetypeTableRecord
  2
ByBlock
 70
     0
  3

 72
    65
 73
     0
 40
0.0
  0
LTYPE
  5
15
330
5
100
AcDbSymbolTableRecord
100
AcDbLinetypeTableRecord
  2
ByLayer
 70
     0
  3

 72
    65
 73
     0
 40
0.0
  0
LTYPE
  5
16
330
5
100
AcDbSymbolTableRecord
100
AcDbLinetypeTableRecord
  2
Continuous
 70
     0
  3
Solid line
 72
    65
 73
     0
 40
0.0
  0
ENDTAB
  0
TABLE
  2
LAYER
  5
2
330
0
100
AcDbSymbolTable
 70
     2
  0
LAYER
  5
10
330
2
100
AcDbSymbolTableRecord
100
AcDbLayerTableRecord
  2
0
 70
     0
 62
     7
  6
Continuous
370
    -3
390
F
347
3E
  0
LAYER
  5
40
330
2
100
AcDbSymbolTableRecord
100
AcDbLayerTableRecord
  2
Layer 2
 70
     0
 62
     7
  6
Continuous
370
    -3
390
F
347
3E
  0
ENDTAB
  0
TABLE
  2
STYLE
  5
3
330
0
100
AcDbSymbolTable
 70
     1
  0
STYLE
  5
11
330
3
100
AcDbSymbolTableRecord
100
AcDbTextStyleTableRecord
  2
Standard
 70
     0
 40
0.0
 41
1.0
 50
0.0
 71
     0
 42
0.2
  3
txt
  4

  0
ENDTAB
  0
TABLE
  2
VIEW
  5
6
330
0
100
AcDbSymbolTable
 70
     0
  0
ENDTAB
  0
TABLE
  2
UCS
  5
7
330
0
100
AcDbSymbolTable
 70
     0
  0
ENDTAB
  0
TABLE
  2
APPID
  5
9
330
0
100
AcDbSymbolTable
 70
     1
  0
APPID
  5
12
330
9
100
AcDbSymbolTableRecord
100
AcDbRegAppTableRecord
  2
ACAD
 70
     0
  0
ENDTAB
  0
TABLE
  2
DIMSTYLE
  5
A
330
0
100
AcDbSymbolTable
 70
     1
100
AcDbDimStyleTable
  0
DIMSTYLE
105
27
330
A
100
AcDbSymbolTableRecord
100
AcDbDimStyleTableRecord
  2
Standard
 70
     0
178
     0
340
11
  0
ENDTAB
  0
TABLE
  2
BLOCK_RECORD
  5
1
330
0
100
AcDbSymbolTable
 70
    16
  0
BLOCK_RECORD
  5
1F
330
1
100
AcDbSymbolTableRecord
100
AcDbBlockTableRecord
  2
*Model_Space
340
22
 70
     0
280
     1
281
     0
  0
BLOCK_RECORD
  5
1B
330
1
100
AcDbSymbolTableRecord
100
AcDbBlockTableRecord
  2
*Paper_Space
340
1E
 70
     0
280
     1
281
     0
  0
BLOCK_RECORD
  5
23
330
1
100
AcDbSymbolTableRecord
100
AcDbBlockTableRecord
  2
*Paper_Space0
340
26
 70
     0
280
     1
281
     0
  0
BLOCK_RECORD
  5
58
330
1
100
AcDbSymbolTableRecord
100
AcDbBlockTableRecord
  2
block 2
340
0
102
{BLKREFS
331
59
102
}
 70
     0
280
     1
281
     0
  0
BLOCK_RECORD
  5
86
330
1
100
AcDbSymbolTableRecord
100
AcDbBlockTableRecord
  2
block 3
340
0
102
{BLKREFS
331
87
102
}
 70
     0
280
     1
281
     0
  0
BLOCK_RECORD
  5
8A
330
1
100
AcDbSymbolTableRecord
100
AcDbBlockTableRecord
  2
block 4
340
0
102
{BLKREFS
331
8B
102
}
 70
     0
280
     1
281
     0
  0
BLOCK_RECORD
  5
9D
330
1
100
AcDbSymbolTableRecord
100
AcDbBlockTableRecord
  2
block 5
340
0
102
{BLKREFS
331
9E
102
}
 70
     0
280
     1
281
     0
  0
BLOCK_RECORD
  5
A4
330
1
100
AcDbSymbolTableRecord
100
AcDbBlockTableRecord
  2
block 6
340
0
102
{BLKREFS
331
A5
102
}
 70
     0
280
     1
281
     0
  0
BLOCK_RECORD
  5
A9
330
1
100
AcDbSymbolTableRecord
100
AcDbBlockTableRecord
  2
block 7
340
0
102
{BLKREFS
331
AA
102
}
 70
     0
280
     1
281
     0
  0
BLOCK_RECORD
  5
AE
330
1
100
AcDbSymbolTableRecord
100
AcDbBlockTableRecord
  2
block 8
340
0
102
{BLKREFS
331
AF
102
}
 70
     0
280
     1
281
     0
  0
BLOCK_RECORD
  5
B3
330
1
100
AcDbSymbolTableRecord
100
AcDbBlockTableRecord
  2
block 9
340
0
102
{BLKREFS
331
B4
102
}
 70
     0
280
     1
281
     0
  0
BLOCK_RECORD
  5
FB
330
1
100
AcDbSymbolTableRecord
100
AcDbBlockTableRecord
  2
block 10
340
0
102
{BLKREFS
331
FC
102
}
 70
     0
280
     1
281
     0
  0
BLOCK_RECORD
  5
FF
330
1
100
AcDbSymbolTableRecord
100
AcDbBlockTableRecord
  2
block 11
340
0
102
{BLKREFS
331
100
102
}
 70
     0
280
     1
281
     0
  0
BLOCK_RECORD
  5
104
330
1
100
AcDbSymbolTableRecord
100
AcDbBlockTableRecord
  2
block 12
340
0
102
{BLKREFS
331
105
102
}
 70
     0
280
     1
281
     0
  0
BLOCK_RECORD
  5
109
330
1
100
AcDbSymbolTableRecord
100
AcDbBlockTableRecord
  2
block 13
340
0
102
{BLKREFS
331
10A
102
}
 70
     0
280
     1
281
     0
  0
BLOCK_RECORD
  5
10E
330
1
100
AcDbSymbolTableRecord
100
AcDbBlockTableRecord
  2
block 14
340
0
102
{BLKREFS
331
10F
102
}
 70
     0
280
     1
281
     0
  0
BLOCK_RECORD
  5
14C
330
1
100
AcDbSymbolTableRecord
100
AcDbBlockTableRecord
  2
block 15
340
0
102
{BLKREFS
331
14D
102
}
 70
     0
280
     1
281
     0
  0
BLOCK_RECORD
  5
167
330
1
100
AcDbSymbolTableRecord
100
AcDbBlockTableRecord
  2
block 16
340
0
102
{BLKREFS
331
168
102
}
 70
     0
280
     1
281
     0
  0
ENDTAB
  0
ENDSEC
  0
SECTION
  2
BLOCKS
  0
BLOCK
  5
20
330
1F
100
AcDbEntity
  8
0
100
AcDbBlockBegin
  2
*Model_Space
 70
     0
 10
0.0
 20
0.0
 30
0.0
  3
*Model_Space
  1

  0
ENDBLK
  5
21
330
1F
100
AcDbEntity
  8
0
100
AcDbBlockEnd
  0
BLOCK
  5
1C
330
1B
100
AcDbEntity
 67
     1
  8
0
100
AcDbBlockBegin
  2
*Paper_Space
 70
     0
 10
0.0
 20
0.0
 30
0.0
  3
*Paper_Space
  1

  0
ENDBLK
  5
1D
330
1B
100
AcDbEntity
 67
     1
  8
0
100
AcDbBlockEnd
  0
BLOCK
  5
24
330
23
100
AcDbEntity
  8
0
100
AcDbBlockBegin
  2
*Paper_Space0
 70
     0
 10
0.0
 20
0.0
 30
0.0
  3
*Paper_Space0
  1

  0
ENDBLK
  5
25
330
23
100
AcDbEntity
  8
0
100
AcDbBlockEnd
  0
BLOCK
  5
5A
330
58
100
AcDbEntity
  8
0
100
AcDbBlockBegin
  2
block 2
 70
     0
 10
0.0
 20
0.0
 30
0.0
  3
block 2
  1

  0
POLYLINE
  5
5C
330
58
100
AcDbEntity
  8
Layer 2
 62
     1
420
 16711680
370
     5
100
AcDb2dPolyline
 66
     1
 10
0.0
 20
0.0
 30
0.0
  0
VERTEX
  5
5D
330
5C
100
AcDbEntity
  8
Layer 2
 62
     1
420
 16711680
370
     5
100
AcDbVertex
100
AcDb2dVertex
 10
550.8607899143916
 20
247.7155450273905
 30
0.0
  0
VERTEX
  5
5E
330
5C
100
AcDbEntity
  8
Layer 2
 62
     1
420
 16711680
370
     5
100
AcDbVertex
100
AcDb2dVertex
 10
562.9336081334461
 20
247.7155450268489
 30
0.0
  0
VERTEX
  5
5F
330
5C
100
AcDbEntity
  8
Layer 2
 62
     1
420
 16711680
370
     5
100
AcDbVertex
100
AcDb2dVertex
 10
562.9336081330441
 20
238.8790041471513
 30
0.0
  0
VERTEX
  5
60
330
5C
100
AcDbEntity
  8
Layer 2
 62
     1
420
 16711680
370
     5
100
AcDbVertex
100
AcDb2dVertex
 10
550.8607899139967
 20
238.8790041476929
 30
0.0
  0
VERTEX
  5
61
330
5C
100
AcDbEntity
  8
Layer 2
 62
     1
420
 16711680
370
     5
100
AcDbVertex
100
AcDb2dVertex
 10
550.8607899143916
 20
247.7155450273905
 30
0.0
  0
SEQEND
  5
62
330
5C
100
AcDbEntity
  8
Layer 2
 62
     1
420
 16711680
370
     5
  0
POLYLINE
  5
63
330
58
100
AcDbEntity
  8
Layer 2
370
     0
100
AcDb2dPolyline
 66
     1
 10
0.0
 20
0.0
 30
0.0
  0
VERTEX
  5
64
330
63
100
AcDbEntity
  8
Layer 2
370
     0
100
AcDbVertex
100
AcDb2dVertex
 10
570.3106620026552
 20
246.1155965501892
 30
0.0
  0
VERTEX
  5
65
330
63
100
AcDbEntity
  8
Layer 2
370
     0
100
AcDbVertex
100
AcDb2dVertex
 10
587.3106619984043
 20
246.1155965494256
 30
0.0
  0
VERTEX
  5
66
330
63
100
AcDbEntity
  8
Layer 2
370
     0
100
AcDbVertex
100
AcDb2dVertex
 10
587.3106619980725
 20
238.6155965512994
 30
0.0
  0
VERTEX
  5
67
330
63
100
AcDbEntity
  8
Layer 2
370
     0
100
AcDbVertex
100
AcDb2dVertex
 10
570.3106620023165
 20
238.6155965520617
 30
0.0
  0
VERTEX
  5
68
330
63
100
AcDbEntity
  8
Layer 2
370
     0
100
AcDbVertex
100
AcDb2dVertex
 10
570.3106620026552
 20
246.1155965501892
 30
0.0
  0
SEQEND
  5
6A
330
63
100
AcDbEntity
  8
Layer 2
370
     0
  0
HATCH
  5
69
330
58
100
AcDbEntity
  8
Layer 2
 62
     7
420
 16777215
100
AcDbHatch
 10
0.0
 20
0.0
 30
0.0
210
0.0
220
0.0
230
1.0
  2
SOLID
 70
     1
 71
     0
 91
        1
 92
        1
 93
        4
 72
     1
 10
570.3106620026552
 20
246.1155965501892
 11
587.3106619984043
 21
246.1155965494256
 72
     1
 10
587.3106619984043
 20
246.1155965494256
 11
587.3106619980725
 21
238.6155965512994
 72
     1
 10
587.3106619980725
 20
238.6155965512994
 11
570.3106620023165
 21
238.6155965520617
 72
     1
 10
570.3106620023165
 20
238.6155965520617
 11
570.3106620026552
 21
246.1155965501892
 97
        0
 75
     2
 76
     1
 98
        0
  0
POLYLINE
  5
6B
330
58
100
AcDbEntity
  8
Layer 2
 62
     1
420
 16711680
370
     5
100
AcDb2dPolyline
 66
     1
 10
0.0
 20
0.0
 30
0.0
  0
VERTEX
  5
6C
330
6B
100
AcDbEntity
  8
Layer 2
 62
     1
420
 16711680
370
     5
100
AcDbVertex
100
AcDb2dVertex
 10
622.6803422234743
 20
249.3090827689921
 30
0.0
  0
VERTEX
  5
6D
330
6B
100
AcDbEntity
  8
Layer 2
 62
     1
420
 16711680
370
     5
100
AcDbVertex
100
AcDb2dVertex
 10
622.6803422234743
 20
252.3087058761523
 30
0.0
  0
VERTEX
  5
6E
330
6B
100
AcDbEntity
  8
Layer 2
 62
     1
420
 16711680
370
     5
100
AcDbVertex
100
AcDb2dVertex
 10
612.68058653614
 20
252.3087058761523
 30
0.0
  0
VERTEX
  5
6F
330
6B
100
AcDbEntity
  8
Layer 2
 62
     1
420
 16711680
370
     5
100
AcDbVertex
100
AcDb2dVertex
 10
612.68058653614
 20
249.3090827689921
 30
0.0
  0
VERTEX
  5
70
330
6B
100
AcDbEntity
  8
Layer 2
 62
     1
420
 16711680
370
     5
100
AcDbVertex
100
AcDb2dVertex
 10
566.3812808226185
 20
249.3090827689921
 30
0.0
  0
VERTEX
  5
71
330
6B
100
AcDbEntity
  8
Layer 2
 62
     1
420
 16711680
370
     5
100
AcDbVertex
100
AcDb2dVertex
 10
566.3812808226185
 20
252.3087058761523
 30
0.0
  0
VERTEX
  5
72
330
6B
100
AcDbEntity
  8
Layer 2
 62
     1
420
 16711680
370
     5
100
AcDbVertex
100
AcDb2dVertex
 10
556.3815466671323
 20
252.3087058761523
 30
0.0
  0
VERTEX
  5
73
330
6B
100
AcDbEntity
  8
Layer 2
 62
     1
420
 16711680
370
     5
100
AcDbVertex
100
AcDb2dVertex
 10
556.3815466671323
 20
249.3090827689921
 30
0.0
  0
VERTEX
  5
74
330
6B
100
AcDbEntity
  8
Layer 2
 62
     1
420
 16711680
370
     5
100
AcDbVertex
100
AcDb2dVertex
 10
541.2568884677885
 20
249.3090827689921
 30
0.0
  0
VERTEX
  5
75
330
6B
100
AcDbEntity
  8
Layer 2
 62
     1
420
 16711680
370
     5
100
AcDbVertex
100
AcDb2dVertex
 10
541.2568884677885
 20
212.5890803706743
 30
0.0
  0
VERTEX
  5
76
330
6B
100
AcDbEntity
  8
Layer 2
 62
     1
420
 16711680
370
     5
100
AcDbVertex
100
AcDb2dVertex
 10
556.3815466671323
 20
212.5890803706743
 30
0.0
  0
VERTEX
  5
77
330
6B
100
AcDbEntity
  8
Layer 2
 62
     1
420
 16711680
370
     5
100
AcDbVertex
100
AcDb2dVertex
 10
556.3815466671323
 20
209.5894357316672
 30
0.0
  0
VERTEX
  5
78
330
6B
100
AcDbEntity
  8
Layer 2
 62
     1
420
 16711680
370
     5
100
AcDbVertex
100
AcDb2dVertex
 10
566.3812808226185
 20
209.5894357316672
 30
0.0
  0
VERTEX
  5
79
330
6B
100
AcDbEntity
  8
Layer 2
 62
     1
420
 16711680
370
     5
100
AcDbVertex
100
AcDb2dVertex
 10
566.3812808226185
 20
212.5890803706743
 30
0.0
  0
VERTEX
  5
7A
330
6B
100
AcDbEntity
  8
Layer 2
 62
     1
420
 16711680
370
     5
100
AcDbVertex
100
AcDb2dVertex
 10
612.68058653614
 20
212.5890803706743
 30
0.0
  0
VERTEX
  5
7B
330
6B
100
AcDbEntity
  8
Layer 2
 62
     1
420
 16711680
370
     5
100
AcDbVertex
100
AcDb2dVertex
 10
612.68058653614
 20
209.5894357316672
 30
0.0
  0
VERTEX
  5
7C
330
6B
100
AcDbEntity
  8
Layer 2
 62
     1
420
 16711680
370
     5
100
AcDbVertex
100
AcDb2dVertex
 10
622.6803422234743
 20
209.5894357316672
 30
0.0
  0
VERTEX
  5
7D
330
6B
100
AcDbEntity
  8
Layer 2
 62
     1
420
 16711680
370
     5
100
AcDbVertex
100
AcDb2dVertex
 10
622.6803422234743
 20
212.5890803706743
 30
0.0
  0
VERTEX
  5
7E
330
6B
100
AcDbEntity
  8
Layer 2
 62
     1
420
 16711680
370
     5
100
AcDbVertex
100
AcDb2dVertex
 10
637.805021954663
 20
212.5890803706743
 30
0.0
  0
VERTEX
  5
7F
330
6B
100
AcDbEntity
  8
Layer 2
 62
     1
420
 16711680
370
     5
100
AcDbVertex
100
AcDb2dVertex
 10
637.805021954663
 20
249.3090827689921
 30
0.0
  0
VERTEX
  5
80
330
6B
100
AcDbEntity
  8
Layer 2
 62
     1
420
 16711680
370
     5
100
AcDbVertex
100
AcDb2dVertex
 10
622.6803422234743
 20
249.3090827689921
 30
0.0
  0
SEQEND
  5
81
330
6B
100
AcDbEntity
  8
Layer 2
 62
     1
420
 16711680
370
     5
  0
SPLINE
  5
82
330
58
100
AcDbEntity
  8
Layer 2
370
     0
100
AcDbSpline
210
0.0
220
0.0
230
1.0
 70
    11
 71
     3
 72
    17
 73
    13
 74
     0
 42
0.0000000001
 43
0.0000000001
 12
1.0
 22
0.0
 32
0.0
 13
1.0
 23
0.0
 33
0.0
 40
0.0
 40
0.0
 40
0.0
 40
0.0
 40
1.0
 40
1.0
 40
1.0
 40
2.0
 40
2.0
 40
2.0
 40
3.0
 40
3.0
 40
3.0
 40
4.0
 40
4.0
 40
4.0
 40
4.0
 10
604.3597980457466
 20
242.0940445811014
 30
0.0
 10
604.3597980458455
 20
244.3031835797515
 30
0.0
 10
602.5689370455744
 20
246.0940445801839
 30
0.0
 10
600.3597980469285
 20
246.0940445802828
 30
0.0
 10
598.1506590482824
 20
246.0940445803816
 30
0.0
 10
596.3597980478457
 20
244.3031835801095
 30
0.0
 10
596.3597980477468
 20
242.0940445814608
 30
0.0
 10
596.359798047648
 20
239.8849055828146
 30
0.0
 10
598.1506590479191
 20
238.0940445823821
 30
0.0
 10
600.3597980465721
 20
238.0940445822833
 30
0.0
 10
602.5689370452183
 20
238.0940445821832
 30
0.0
 10
604.3597980456478
 20
239.8849055824552
 30
0.0
 10
604.3597980457466
 20
242.0940445811014
 30
0.0
  0
HATCH
  5
83
330
58
100
AcDbEntity
  8
Layer 2
 62
     7
420
 16777215
100
AcDbHatch
 10
0.0
 20
0.0
 30
0.0
210
0.0
220
0.0
230
1.0
  2
SOLID
 70
     1
 71
     0
 91
        1
 92
        1
 93
        1
 72
     4
 94
        3
 73
     0
 74
     1
 95
       17
 96
       13
 40
0.0
 40
0.0
 40
0.0
 40
0.0
 40
1.0
 40
1.0
 40
1.0
 40
2.0
 40
2.0
 40
2.0
 40
3.0
 40
3.0
 40
3.0
 40
4.0
 40
4.0
 40
4.0
 40
4.0
 10
604.3597980457466
 20
242.0940445811014
 10
604.3597980458455
 20
244.3031835797515
 10
602.5689370455744
 20
246.0940445801839
 10
600.3597980469285
 20
246.0940445802828
 10
598.1506590482824
 20
246.0940445803816
 10
596.3597980478457
 20
244.3031835801095
 10
596.3597980477468
 20
242.0940445814608
 10
596.359798047648
 20
239.8849055828146
 10
598.1506590479191
 20
238.0940445823821
 10
600.3597980465721
 20
238.0940445822833
 10
602.5689370452183
 20
238.0940445821832
 10
604.3597980456478
 20
239.8849055824552
 10
604.3597980457466
 20
242.0940445811014
 97
        0
 97
        0
 75
     2
 76
     1
 98
        0
  0
SPLINE
  5
84
330
58
100
AcDbEntity
  8
Layer 2
 62
     1
420
 16711680
370
     5
100
AcDbSpline
210
0.0
220
0.0
230
1.0
 70
    11
 71
     3
 72
    17
 73
    13
 74
     0
 42
0.0000000001
 43
0.0000000001
 12
1.0
 22
0.0
 32
0.0
 13
1.0
 23
0.0
 33
0.0
 40
0.0
 40
0.0
 40
0.0
 40
0.0
 40
1.0
 40
1.0
 40
1.0
 40
2.0
 40
2.0
 40
2.0
 40
3.0
 40
3.0
 40
3.0
 40
4.0
 40
4.0
 40
4.0
 40
4.0
 10
591.8070269966302
 20
231.6240141655597
 30
0.0
 10
591.8070269967286
 20
233.8331531642098
 30
0.0
 10
590.0161659964575
 20
235.6240141646422
 30
0.0
 10
587.8070269978117
 20
235.6240141647411
 30
0.0
 10
585.5978879991658
 20
235.6240141648412
 30
0.0
 10
583.8070269987288
 20
233.8331531645691
 30
0.0
 10
583.80702699863
 20
231.6240141659191
 30
0.0
 10
583.8070269985315
 20
229.4148751672729
 30
0.0
 10
585.5978879988022
 20
227.6240141668404
 30
0.0
 10
587.807026997452
 20
227.6240141667416
 30
0.0
 10
590.0161659961013
 20
227.6240141666428
 30
0.0
 10
591.8070269965312
 20
229.4148751669148
 30
0.0
 10
591.8070269966302
 20
231.6240141655597
 30
0.0
  0
SPLINE
  5
85
330
58
100
AcDbEntity
  8
Layer 2
 62
     1
420
 16711680
370
     5
100
AcDbSpline
210
0.0
220
0.0
230
1.0
 70
    11
 71
     3
 72
    17
 73
    13
 74
     0
 42
0.0000000001
 43
0.0000000001
 12
1.0
 22
0.0
 32
0.0
 13
1.0
 23
0.0
 33
0.0
 40
0.0
 40
0.0
 40
0.0
 40
0.0
 40
1.0
 40
1.0
 40
1.0
 40
2.0
 40
2.0
 40
2.0
 40
3.0
 40
3.0
 40
3.0
 40
4.0
 40
4.0
 40
4.0
 40
4.0
 10
604.3597980452811
 20
231.6240141649963
 30
0.0
 10
604.3597980453796
 20
233.8331531636464
 30
0.0
 10
602.5689370451089
 20
235.6240141640788
 30
0.0
 10
600.3597980464591
 20
235.6240141641777
 30
0.0
 10
598.1506590478062
 20
235.6240141642778
 30
0.0
 10
596.3597980473766
 20
233.8331531640057
 30
0.0
 10
596.359798047281
 20
231.6240141653557
 30
0.0
 10
596.359798047179
 20
229.4148751667095
 30
0.0
 10
598.1506590474497
 20
227.624014166277
 30
0.0
 10
600.3597980460994
 20
227.6240141661782
 30
0.0
 10
602.5689370447453
 20
227.6240141660793
 30
0.0
 10
604.3597980451823
 20
229.4148751663501
 30
0.0
 10
604.3597980452811
 20
231.6240141649963
 30
0.0
  0
ENDBLK
  5
5B
330
58
100
AcDbEntity
  8
0
100
AcDbBlockEnd
  0
BLOCK
  5
88
330
86
100
AcDbEntity
  8
0
100
AcDbBlockBegin
  2
block 3
 70
     0
 10
0.0
 20
0.0
 30
0.0
  3
block 3
  1

  0
INSERT
  5
8B
330
86
100
AcDbEntity
  8
Layer 2
100
AcDbBlockReference
  2
block 4
 10
0.0
 20
0.0
 30
0.0
  0
INSERT
  5
9E
330
86
100
AcDbEntity
  8
Layer 2
100
AcDbBlockReference
  2
block 5
 10
0.0
 20
0.0
 30
0.0
  0
ENDBLK
  5
89
330
86
100
AcDbEntity
  8
0
100
AcDbBlockEnd
  0
BLOCK
  5
8C
330
8A
100
AcDbEntity
  8
0
100
AcDbBlockBegin
  2
block 4
 70
     0
 10
0.0
 20
0.0
 30
0.0
  3
block 4
  1

  0
POLYLINE
  5
8E
330
8A
100
AcDbEntity
  8
Layer 2
370
     0
100
AcDb2dPolyline
 66
     1
 10
0.0
 20
0.0
 30
0.0
  0
VERTEX
  5
8F
330
8E
100
AcDbEntity
  8
Layer 2
370
     0
100
AcDbVertex
100
AcDb2dVertex
 10
444.70166900945
 20
328.5089408299907
 30
0.0
  0
VERTEX
  5
90
330
8E
100
AcDbEntity
  8
Layer 2
370
     0
100
AcDbVertex
100
AcDb2dVertex
 10
444.70166900945
 20
277.0104408428651
 30
0.0
  0
VERTEX
  5
91
330
8E
100
AcDbEntity
  8
Layer 2
370
     0
100
AcDbVertex
100
AcDb2dVertex
 10
530.6348078768552
 20
277.0104408428651
 30
0.0
  0
VERTEX
  5
92
330
8E
100
AcDbEntity
  8
Layer 2
370
     0
100
AcDbVertex
100
AcDb2dVertex
 10
530.6348078768552
 20
328.5089408299907
 30
0.0
  0
VERTEX
  5
93
330
8E
100
AcDbEntity
  8
Layer 2
370
     0
100
AcDbVertex
100
AcDb2dVertex
 10
444.70166900945
 20
328.5089408299907
 30
0.0
  0
SEQEND
  5
94
330
8E
100
AcDbEntity
  8
Layer 2
370
     0
  0
POLYLINE
  5
95
330
8A
100
AcDbEntity
  8
Layer 2
370
     0
100
AcDb2dPolyline
 66
     1
 10
0.0
 20
0.0
 30
0.0
  0
VERTEX
  5
96
330
95
100
AcDbEntity
  8
Layer 2
370
     0
100
AcDbVertex
100
AcDb2dVertex
 10
450.8541134523562
 20
282.5208297303768
 30
0.0
  0
VERTEX
  5
97
330
95
100
AcDbEntity
  8
Layer 2
370
     0
100
AcDbVertex
100
AcDb2dVertex
 10
450.8541134523562
 20
324.9423574975492
 30
0.0
  0
VERTEX
  5
98
330
95
100
AcDbEntity
  8
Layer 2
370
     0
100
AcDbVertex
100
AcDb2dVertex
 10
524.1825023229128
 20
324.9423574975492
 30
0.0
  0
VERTEX
  5
99
330
95
100
AcDbEntity
  8
Layer 2
370
     0
100
AcDbVertex
100
AcDb2dVertex
 10
524.1825023229128
 20
282.5208297303768
 30
0.0
  0
VERTEX
  5
9A
330
95
100
AcDbEntity
  8
Layer 2
370
     0
100
AcDbVertex
100
AcDb2dVertex
 10
450.8541134523562
 20
282.5208297303768
 30
0.0
  0
SEQEND
  5
9B
330
95
100
AcDbEntity
  8
Layer 2
370
     0
  0
HATCH
  5
9C
330
8A
100
AcDbEntity
  8
Layer 2
 62
     7
420
 16777215
100
AcDbHatch
 10
0.0
 20
0.0
 30
0.0
210
0.0
220
0.0
230
1.0
  2
SOLID
 70
     1
 71
     0
 91
        2
 92
        1
 93
        4
 72
     1
 10
444.70166900945
 20
328.5089408299907
 11
444.70166900945
 21
277.0104408428651
 72
     1
 10
444.70166900945
 20
277.0104408428651
 11
530.6348078768552
 21
277.0104408428651
 72
     1
 10
530.6348078768552
 20
277.0104408428651
 11
530.6348078768552
 21
328.5089408299907
 72
     1
 10
530.6348078768552
 20
328.5089408299907
 11
444.70166900945
 21
328.5089408299907
 97
        0
 92
        1
 93
        4
 72
     1
 10
450.8541134523562
 20
282.5208297303768
 11
450.8541134523562
 21
324.9423574975492
 72
     1
 10
450.8541134523562
 20
324.9423574975492
 11
524.1825023229128
 21
324.9423574975492
 72
     1
 10
524.1825023229128
 20
324.9423574975492
 11
524.1825023229128
 21
282.5208297303768
 72
     1
 10
524.1825023229128
 20
282.5208297303768
 11
450.8541134523562
 21
282.5208297303768
 97
        0
 75
     2
 76
     1
 98
        0
  0
ENDBLK
  5
8D
330
8A
100
AcDbEntity
  8
0
100
AcDbBlockEnd
  0
BLOCK
  5
9F
330
9D
100
AcDbEntity
  8
0
100
AcDbBlockBegin
  2
block 5
 70
     0
 10
0.0
 20
0.0
 30
0.0
  3
block 5
  1

  0
ENDBLK
  5
A0
330
9D
100
AcDbEntity
  8
0
100
AcDbBlockEnd
  0
BLOCK
  5
A6
330
A4
100
AcDbEntity
  8
0
100
AcDbBlockBegin
  2
block 6
 70
     0
 10
0.0
 20
0.0
 30
0.0
  3
block 6
  1

  0
SPLINE
  5
A8
330
A4
100
AcDbEntity
  8
Layer 2
 62
     1
420
 16711680
370
     5
100
AcDbSpline
210
0.0
220
0.0
230
1.0
 70
    11
 71
     3
 72
    20
 73
    16
 74
     0
 42
0.0000000001
 43
0.0000000001
 12
1.0
 22
0.0
 32
0.0
 13
1.0
 23
0.0
 33
0.0
 40
0.0
 40
0.0
 40
0.0
 40
0.0
 40
1.0
 40
1.0
 40
1.0
 40
2.0
 40
2.0
 40
2.0
 40
3.0
 40
3.0
 40
3.0
 40
4.0
 40
4.0
 40
4.0
 40
5.0
 40
5.0
 40
5.0
 40
5.0
 10
526.7198682426083
 20
266.4762054054925
 30
0.0
 10
527.5484021312934
 20
266.4762054054553
 30
0.0
 10
528.2198440755385
 20
265.8047634781112
 30
0.0
 10
528.2198440754996
 20
264.9761943325818
 30
0.0
 10
528.2198440754609
 20
264.1476604648306
 30
0.0
 10
527.5484021311561
 20
263.4762185375482
 30
0.0
 10
526.7198682424706
 20
263.4762185375854
 30
0.0
 10
525.8913343537888
 20
263.4762185376226
 30
0.0
 10
525.2198571317697
 20
264.1476604649654
 30
0.0
 10
525.2198571318017
 20
264.9761943327166
 30
0.0
 10
525.2198571318438
 20
265.804763478246
 30
0.0
 10
525.8913343539265
 20
266.4762054055297
 30
0.0
 10
526.7198682426083
 20
266.4762054054925
 30
0.0
 10
526.7198682426083
 20
266.4762054054925
 30
0.0
 10
526.7198682426083
 20
266.4762054054925
 30
0.0
 10
526.7198682426083
 20
266.4762054054925
 30
0.0
  0
ENDBLK
  5
A7
330
A4
100
AcDbEntity
  8
0
100
AcDbBlockEnd
  0
BLOCK
  5
AB
330
A9
100
AcDbEntity
  8
0
100
AcDbBlockBegin
  2
block 7
 70
     0
 10
0.0
 20
0.0
 30
0.0
  3
block 7
  1

  0
SPLINE
  5
AD
330
A9
100
AcDbEntity
  8
Layer 2
 62
     1
420
 16711680
370
     5
100
AcDbSpline
210
0.0
220
0.0
230
1.0
 70
    11
 71
     3
 72
    20
 73
    16
 74
     0
 42
0.0000000001
 43
0.0000000001
 12
1.0
 22
0.0
 32
0.0
 13
1.0
 23
0.0
 33
0.0
 40
0.0
 40
0.0
 40
0.0
 40
0.0
 40
1.0
 40
1.0
 40
1.0
 40
2.0
 40
2.0
 40
2.0
 40
3.0
 40
3.0
 40
3.0
 40
4.0
 40
4.0
 40
4.0
 40
5.0
 40
5.0
 40
5.0
 40
5.0
 10
448.6198777065778
 20
266.5099662414707
 30
0.0
 10
449.4480940952632
 20
266.5099662414335
 30
0.0
 10
450.1198888172822
 20
265.8381715363207
 30
0.0
 10
450.1198888172502
 20
265.0099551685627
 30
0.0
 10
450.1198888172116
 20
264.182126856349
 30
0.0
 10
449.4480940951256
 20
263.5099793735264
 30
0.0
 10
448.6198777064471
 20
263.5099793735636
 30
0.0
 10
447.7916965955395
 20
263.5099793736009
 30
0.0
 10
447.119901873517
 20
264.1821268564838
 30
0.0
 10
447.1199018735558
 20
265.0099551686974
 30
0.0
 10
447.1199018735876
 20
265.8381715364555
 30
0.0
 10
447.7916965956772
 20
266.509966241508
 30
0.0
 10
448.6198777065778
 20
266.5099662414707
 30
0.0
 10
448.6198777065778
 20
266.5099662414707
 30
0.0
 10
448.6198777065778
 20
266.5099662414707
 30
0.0
 10
448.6198777065778
 20
266.5099662414707
 30
0.0
  0
ENDBLK
  5
AC
330
A9
100
AcDbEntity
  8
0
100
AcDbBlockEnd
  0
BLOCK
  5
B0
330
AE
100
AcDbEntity
  8
0
100
AcDbBlockBegin
  2
block 8
 70
     0
 10
0.0
 20
0.0
 30
0.0
  3
block 8
  1

  0
SPLINE
  5
B2
330
AE
100
AcDbEntity
  8
Layer 2
 62
     1
420
 16711680
370
     5
100
AcDbSpline
210
0.0
220
0.0
230
1.0
 70
    11
 71
     3
 72
    20
 73
    16
 74
     0
 42
0.0000000001
 43
0.0000000001
 12
1.0
 22
0.0
 32
0.0
 13
1.0
 23
0.0
 33
0.0
 40
0.0
 40
0.0
 40
0.0
 40
0.0
 40
1.0
 40
1.0
 40
1.0
 40
2.0
 40
2.0
 40
2.0
 40
3.0
 40
3.0
 40
3.0
 40
4.0
 40
4.0
 40
4.0
 40
5.0
 40
5.0
 40
5.0
 40
5.0
 10
506.6454721397965
 20
339.5311543759407
 30
0.0
 10
507.4740060284783
 20
339.5311543759038
 30
0.0
 10
508.1458007505009
 20
338.8590421707984
 30
0.0
 10
508.1458007504656
 20
338.0308258030394
 30
0.0
 10
508.1458007504268
 20
337.2026447130589
 30
0.0
 10
507.4740060283407
 20
336.531167507997
 30
0.0
 10
506.6454721396623
 20
336.5311675080336
 30
0.0
 10
505.8169029731995
 20
336.5311675080702
 30
0.0
 10
505.1451082511769
 20
337.2026447131936
 30
0.0
 10
505.1451082512157
 20
338.0308258031742
 30
0.0
 10
505.145108251251
 20
338.8590421709332
 30
0.0
 10
505.8169029733371
 20
339.5311543759776
 30
0.0
 10
506.6454721397965
 20
339.5311543759407
 30
0.0
 10
506.6454721397965
 20
339.5311543759407
 30
0.0
 10
506.6454721397965
 20
339.5311543759407
 30
0.0
 10
506.6454721397965
 20
339.5311543759407
 30
0.0
  0
ENDBLK
  5
B1
330
AE
100
AcDbEntity
  8
0
100
AcDbBlockEnd
  0
BLOCK
  5
B5
330
B3
100
AcDbEntity
  8
0
100
AcDbBlockBegin
  2
block 9
 70
     0
 10
0.0
 20
0.0
 30
0.0
  3
block 9
  1

  0
SPLINE
  5
B7
330
B3
100
AcDbEntity
  8
Layer 2
 62
     1
420
 16711680
370
     5
100
AcDbSpline
210
0.0
220
0.0
230
1.0
 70
    11
 71
     3
 72
    20
 73
    16
 74
     0
 42
0.0000000001
 43
0.0000000001
 12
1.0
 22
0.0
 32
0.0
 13
1.0
 23
0.0
 33
0.0
 40
0.0
 40
0.0
 40
0.0
 40
0.0
 40
1.0
 40
1.0
 40
1.0
 40
2.0
 40
2.0
 40
2.0
 40
3.0
 40
3.0
 40
3.0
 40
4.0
 40
4.0
 40
4.0
 40
5.0
 40
5.0
 40
5.0
 40
5.0
 10
448.5933488209764
 20
339.5311543785467
 30
0.0
 10
449.42227076521
 20
339.5311543785098
 30
0.0
 10
450.0933599316841
 20
338.8593682856346
 30
0.0
 10
450.0933599316418
 20
338.0311785834161
 30
0.0
 10
450.09335993161
 20
337.2026447156649
 30
0.0
 10
449.4222707650794
 20
336.5311675106026
 30
0.0
 10
448.5933488208388
 20
336.5311675106395
 30
0.0
 10
447.7651677099382
 20
336.5311675106771
 30
0.0
 10
447.0933729879156
 20
337.2026447158005
 30
0.0
 10
447.0933729879474
 20
338.0311785835509
 30
0.0
 10
447.0933729879898
 20
338.8593682857693
 30
0.0
 10
447.7651677100688
 20
339.5311543785842
 30
0.0
 10
448.5933488209764
 20
339.5311543785467
 30
0.0
 10
448.5933488209764
 20
339.5311543785467
 30
0.0
 10
448.5933488209764
 20
339.5311543785467
 30
0.0
 10
448.5933488209764
 20
339.5311543785467
 30
0.0
  0
ENDBLK
  5
B6
330
B3
100
AcDbEntity
  8
0
100
AcDbBlockEnd
  0
BLOCK
  5
FD
330
FB
100
AcDbEntity
  8
0
100
AcDbBlockBegin
  2
block 10
 70
     0
 10
0.0
 20
0.0
 30
0.0
  3
block 10
  1

  0
INSERT
  5
100
330
FB
100
AcDbEntity
  8
Layer 2
100
AcDbBlockReference
  2
block 11
 10
0.0
 20
0.0
 30
0.0
  0
INSERT
  5
105
330
FB
100
AcDbEntity
  8
Layer 2
100
AcDbBlockReference
  2
block 12
 10
0.0
 20
0.0
 30
0.0
  0
INSERT
  5
10A
330
FB
100
AcDbEntity
  8
Layer 2
100
AcDbBlockReference
  2
block 13
 10
0.0
 20
0.0
 30
0.0
  0
INSERT
  5
10F
330
FB
100
AcDbEntity
  8
Layer 2
100
AcDbBlockReference
  2
block 14
 10
0.0
 20
0.0
 30
0.0
  0
POLYLINE
  5
113
330
FB
100
AcDbEntity
  8
Layer 2
 62
     1
420
 16711680
370
     5
100
AcDb2dPolyline
 66
     1
 10
0.0
 20
0.0
 30
0.0
  0
VERTEX
  5
114
330
113
100
AcDbEntity
  8
Layer 2
 62
     1
420
 16711680
370
     5
100
AcDbVertex
100
AcDb2dVertex
 10
544.2495897441248
 20
278.3257975329662
 30
0.0
  0
VERTEX
  5
115
330
113
100
AcDbEntity
  8
Layer 2
 62
     1
420
 16711680
370
     5
100
AcDbVertex
100
AcDb2dVertex
 10
541.2499555782082
 20
278.325797533101
 30
0.0
  0
VERTEX
  5
116
330
113
100
AcDbEntity
  8
Layer 2
 62
     1
420
 16711680
370
     5
100
AcDbVertex
100
AcDb2dVertex
 10
541.2499555777564
 20
268.3260647326586
 30
0.0
  0
VERTEX
  5
117
330
113
100
AcDbEntity
  8
Layer 2
 62
     1
420
 16711680
370
     5
100
AcDbVertex
100
AcDb2dVertex
 10
544.2495897436698
 20
268.3260647325238
 30
0.0
  0
VERTEX
  5
118
330
113
100
AcDbEntity
  8
Layer 2
 62
     1
420
 16711680
370
     5
100
AcDbVertex
100
AcDb2dVertex
 10
544.2495897441248
 20
278.3257975329662
 30
0.0
  0
SEQEND
  5
119
330
113
100
AcDbEntity
  8
Layer 2
 62
     1
420
 16711680
370
     5
  0
POLYLINE
  5
11A
330
FB
100
AcDbEntity
  8
Layer 2
 62
     1
420
 16711680
370
     5
100
AcDb2dPolyline
 66
     1
 10
0.0
 20
0.0
 30
0.0
  0
VERTEX
  5
11B
330
11A
100
AcDbEntity
  8
Layer 2
 62
     1
420
 16711680
370
     5
100
AcDbVertex
100
AcDb2dVertex
 10
544.2495897466473
 20
334.6248608188803
 30
0.0
  0
VERTEX
  5
11C
330
11A
100
AcDbEntity
  8
Layer 2
 62
     1
420
 16711680
370
     5
100
AcDbVertex
100
AcDb2dVertex
 10
541.249955580734
 20
334.6248608190151
 30
0.0
  0
VERTEX
  5
11D
330
11A
100
AcDbEntity
  8
Layer 2
 62
     1
420
 16711680
370
     5
100
AcDbVertex
100
AcDb2dVertex
 10
541.249955580286
 20
324.625092740799
 30
0.0
  0
VERTEX
  5
11E
330
11A
100
AcDbEntity
  8
Layer 2
 62
     1
420
 16711680
370
     5
100
AcDbVertex
100
AcDb2dVertex
 10
544.2495897462026
 20
324.6250927406643
 30
0.0
  0
VERTEX
  5
11F
330
11A
100
AcDbEntity
  8
Layer 2
 62
     1
420
 16711680
370
     5
100
AcDbVertex
100
AcDb2dVertex
 10
544.2495897466473
 20
334.6248608188803
 30
0.0
  0
SEQEND
  5
120
330
11A
100
AcDbEntity
  8
Layer 2
 62
     1
420
 16711680
370
     5
  0
SPLINE
  5
121
330
FB
100
AcDbEntity
  8
Layer 2
 62
     1
420
 16711680
370
     5
100
AcDbSpline
210
0.0
220
0.0
230
1.0
 70
    11
 71
     3
 72
    29
 73
    25
 74
     0
 42
0.0000000001
 43
0.0000000001
 12
1.0
 22
0.0
 32
0.0
 13
1.0
 23
0.0
 33
0.0
 40
0.0
 40
0.0
 40
0.0
 40
0.0
 40
1.0
 40
1.0
 40
1.0
 40
2.0
 40
2.0
 40
2.0
 40
3.0
 40
3.0
 40
3.0
 40
4.0
 40
4.0
 40
4.0
 40
5.0
 40
5.0
 40
5.0
 40
6.0
 40
6.0
 40
6.0
 40
7.0
 40
7.0
 40
7.0
 40
8.0
 40
8.0
 40
8.0
 40
8.0
 10
539.7499869053722
 20
256.7953195890849
 30
0.0
 10
539.7499869053405
 20
256.0061022797449
 30
0.0
 10
540.3974739350406
 20
255.366038698567
 30
0.0
 10
541.1954893343582
 20
255.366038698531
 30
0.0
 10
541.1954893343582
 20
255.366038698531
 30
0.0
 10
637.8664210839659
 20
255.3660386941906
 30
0.0
 10
637.8664210839659
 20
255.3660386941906
 30
0.0
 10
638.6647590440676
 20
255.3660386941546
 30
0.0
 10
639.3119235130365
 20
256.0061022752748
 30
0.0
 10
639.311923513068
 20
256.7953195846148
 30
0.0
 10
639.311923513068
 20
256.7953195846148
 30
0.0
 10
639.3119235170831
 20
346.1326137141509
 30
0.0
 10
639.3119235170831
 20
346.1326137141509
 30
0.0
 10
639.3119235171146
 20
346.9218222100113
 30
0.0
 10
638.664759048206
 20
347.5619299936425
 30
0.0
 10
637.8664210881036
 20
347.5619299936778
 30
0.0
 10
637.8664210881036
 20
347.5619299936778
 30
0.0
 10
541.1954893384965
 20
347.5619299980189
 30
0.0
 10
541.1954893384965
 20
347.5619299980189
 30
0.0
 10
540.3974739391821
 20
347.5619299980542
 30
0.0
 10
539.749986909422
 20
346.9218222144813
 30
0.0
 10
539.7499869093832
 20
346.1326137186203
 30
0.0
 10
539.7499869093832
 20
346.1326137186203
 30
0.0
 10
539.7499869053722
 20
256.7953195890849
 30
0.0
 10
539.7499869053722
 20
256.7953195890849
 30
0.0
  0
POLYLINE
  5
122
330
FB
100
AcDbEntity
  8
Layer 2
 62
     1
420
 16711680
370
     5
100
AcDb2dPolyline
 66
     1
 10
0.0
 20
0.0
 30
0.0
  0
VERTEX
  5
123
330
122
100
AcDbEntity
  8
Layer 2
 62
     1
420
 16711680
370
     5
100
AcDbVertex
100
AcDb2dVertex
 10
634.7984466733403
 20
278.3257975289004
 30
0.0
  0
VERTEX
  5
124
330
122
100
AcDbEntity
  8
Layer 2
 62
     1
420
 16711680
370
     5
100
AcDbVertex
100
AcDb2dVertex
 10
637.798080839257
 20
278.3257975287657
 30
0.0
  0
VERTEX
  5
125
330
122
100
AcDbEntity
  8
Layer 2
 62
     1
420
 16711680
370
     5
100
AcDbVertex
100
AcDb2dVertex
 10
637.798080838809
 20
268.3260647283246
 30
0.0
  0
VERTEX
  5
126
330
122
100
AcDbEntity
  8
Layer 2
 62
     1
420
 16711680
370
     5
100
AcDbVertex
100
AcDb2dVertex
 10
634.7984466728957
 20
268.3260647284593
 30
0.0
  0
VERTEX
  5
127
330
122
100
AcDbEntity
  8
Layer 2
 62
     1
420
 16711680
370
     5
100
AcDbVertex
100
AcDb2dVertex
 10
634.7984466733403
 20
278.3257975289004
 30
0.0
  0
SEQEND
  5
128
330
122
100
AcDbEntity
  8
Layer 2
 62
     1
420
 16711680
370
     5
  0
POLYLINE
  5
129
330
FB
100
AcDbEntity
  8
Layer 2
 62
     1
420
 16711680
370
     5
100
AcDb2dPolyline
 66
     1
 10
0.0
 20
0.0
 30
0.0
  0
VERTEX
  5
12A
330
129
100
AcDbEntity
  8
Layer 2
 62
     1
420
 16711680
370
     5
100
AcDbVertex
100
AcDb2dVertex
 10
634.7984466758661
 20
334.6248608148152
 30
0.0
  0
VERTEX
  5
12B
330
129
100
AcDbEntity
  8
Layer 2
 62
     1
420
 16711680
370
     5
100
AcDbVertex
100
AcDb2dVertex
 10
637.7980808417833
 20
334.6248608146807
 30
0.0
  0
VERTEX
  5
12C
330
129
100
AcDbEntity
  8
Layer 2
 62
     1
420
 16711680
370
     5
100
AcDbVertex
100
AcDb2dVertex
 10
637.7980808413347
 20
324.6250927364644
 30
0.0
  0
VERTEX
  5
12D
330
129
100
AcDbEntity
  8
Layer 2
 62
     1
420
 16711680
370
     5
100
AcDbVertex
100
AcDb2dVertex
 10
634.7984466754182
 20
324.6250927365991
 30
0.0
  0
VERTEX
  5
12E
330
129
100
AcDbEntity
  8
Layer 2
 62
     1
420
 16711680
370
     5
100
AcDbVertex
100
AcDb2dVertex
 10
634.7984466758661
 20
334.6248608148152
 30
0.0
  0
SEQEND
  5
12F
330
129
100
AcDbEntity
  8
Layer 2
 62
     1
420
 16711680
370
     5
  0
POLYLINE
  5
130
330
FB
100
AcDbEntity
  8
Layer 2
 62
     1
420
 16711680
370
     5
100
AcDb2dPolyline
 66
     1
 10
0.0
 20
0.0
 30
0.0
  0
VERTEX
  5
131
330
130
100
AcDbEntity
  8
Layer 2
 62
     1
420
 16711680
370
     5
100
AcDbVertex
100
AcDb2dVertex
 10
566.3743529689024
 20
343.0622958313447
 30
0.0
  0
VERTEX
  5
132
330
130
100
AcDbEntity
  8
Layer 2
 62
     1
420
 16711680
370
     5
100
AcDbVertex
100
AcDb2dVertex
 10
566.3743529690396
 20
346.0619299972614
 30
0.0
  0
VERTEX
  5
133
330
130
100
AcDbEntity
  8
Layer 2
 62
     1
420
 16711680
370
     5
100
AcDbVertex
100
AcDb2dVertex
 10
556.374620168594
 20
346.0619299977105
 30
0.0
  0
VERTEX
  5
134
330
130
100
AcDbEntity
  8
Layer 2
 62
     1
420
 16711680
370
     5
100
AcDbVertex
100
AcDb2dVertex
 10
556.3746201684638
 20
343.062295831794
 30
0.0
  0
VERTEX
  5
135
330
130
100
AcDbEntity
  8
Layer 2
 62
     1
420
 16711680
370
     5
100
AcDbVertex
100
AcDb2dVertex
 10
566.3743529689024
 20
343.0622958313447
 30
0.0
  0
SEQEND
  5
136
330
130
100
AcDbEntity
  8
Layer 2
 62
     1
420
 16711680
370
     5
  0
POLYLINE
  5
137
330
FB
100
AcDbEntity
  8
Layer 2
 62
     1
420
 16711680
370
     5
100
AcDb2dPolyline
 66
     1
 10
0.0
 20
0.0
 30
0.0
  0
VERTEX
  5
138
330
137
100
AcDbEntity
  8
Layer 2
 62
     1
420
 16711680
370
     5
100
AcDbVertex
100
AcDb2dVertex
 10
622.6734162548152
 20
343.0622958288171
 30
0.0
  0
VERTEX
  5
139
330
137
100
AcDbEntity
  8
Layer 2
 62
     1
420
 16711680
370
     5
100
AcDbVertex
100
AcDb2dVertex
 10
622.673416254953
 20
346.0619299947337
 30
0.0
  0
VERTEX
  5
13A
330
137
100
AcDbEntity
  8
Layer 2
 62
     1
420
 16711680
370
     5
100
AcDbVertex
100
AcDb2dVertex
 10
612.67364817673
 20
346.0619299951829
 30
0.0
  0
VERTEX
  5
13B
330
137
100
AcDbEntity
  8
Layer 2
 62
     1
420
 16711680
370
     5
100
AcDbVertex
100
AcDb2dVertex
 10
612.673648176599
 20
343.0622958292663
 30
0.0
  0
VERTEX
  5
13C
330
137
100
AcDbEntity
  8
Layer 2
 62
     1
420
 16711680
370
     5
100
AcDbVertex
100
AcDb2dVertex
 10
622.6734162548152
 20
343.0622958288171
 30
0.0
  0
SEQEND
  5
13D
330
137
100
AcDbEntity
  8
Layer 2
 62
     1
420
 16711680
370
     5
  0
POLYLINE
  5
13E
330
FB
100
AcDbEntity
  8
Layer 2
 62
     1
420
 16711680
370
     5
100
AcDb2dPolyline
 66
     1
 10
0.0
 20
0.0
 30
0.0
  0
VERTEX
  5
13F
330
13E
100
AcDbEntity
  8
Layer 2
 62
     1
420
 16711680
370
     5
100
AcDbVertex
100
AcDb2dVertex
 10
566.3743529651696
 20
259.8886297180721
 30
0.0
  0
VERTEX
  5
140
330
13E
100
AcDbEntity
  8
Layer 2
 62
     1
420
 16711680
370
     5
100
AcDbVertex
100
AcDb2dVertex
 10
566.3743529650322
 20
256.8889955521555
 30
0.0
  0
VERTEX
  5
141
330
13E
100
AcDbEntity
  8
Layer 2
 62
     1
420
 16711680
370
     5
100
AcDbVertex
100
AcDb2dVertex
 10
556.3746201645902
 20
256.8889955526047
 30
0.0
  0
VERTEX
  5
142
330
13E
100
AcDbEntity
  8
Layer 2
 62
     1
420
 16711680
370
     5
100
AcDbVertex
100
AcDb2dVertex
 10
556.3746201647278
 20
259.8886297185213
 30
0.0
  0
VERTEX
  5
143
330
13E
100
AcDbEntity
  8
Layer 2
 62
     1
420
 16711680
370
     5
100
AcDbVertex
100
AcDb2dVertex
 10
566.3743529651696
 20
259.8886297180721
 30
0.0
  0
SEQEND
  5
144
330
13E
100
AcDbEntity
  8
Layer 2
 62
     1
420
 16711680
370
     5
  0
POLYLINE
  5
145
330
FB
100
AcDbEntity
  8
Layer 2
 62
     1
420
 16711680
370
     5
100
AcDb2dPolyline
 66
     1
 10
0.0
 20
0.0
 30
0.0
  0
VERTEX
  5
146
330
145
100
AcDbEntity
  8
Layer 2
 62
     1
420
 16711680
370
     5
100
AcDbVertex
100
AcDb2dVertex
 10
622.6734162510799
 20
259.8886297155451
 30
0.0
  0
VERTEX
  5
147
330
145
100
AcDbEntity
  8
Layer 2
 62
     1
420
 16711680
370
     5
100
AcDbVertex
100
AcDb2dVertex
 10
622.6734162509489
 20
256.8889955496285
 30
0.0
  0
VERTEX
  5
148
330
145
100
AcDbEntity
  8
Layer 2
 62
     1
420
 16711680
370
     5
100
AcDbVertex
100
AcDb2dVertex
 10
612.6736481727257
 20
256.8889955500777
 30
0.0
  0
VERTEX
  5
149
330
145
100
AcDbEntity
  8
Layer 2
 62
     1
420
 16711680
370
     5
100
AcDbVertex
100
AcDb2dVertex
 10
612.6736481728631
 20
259.8886297159943
 30
0.0
  0
VERTEX
  5
14A
330
145
100
AcDbEntity
  8
Layer 2
 62
     1
420
 16711680
370
     5
100
AcDbVertex
100
AcDb2dVertex
 10
622.6734162510799
 20
259.8886297155451
 30
0.0
  0
SEQEND
  5
14B
330
145
100
AcDbEntity
  8
Layer 2
 62
     1
420
 16711680
370
     5
  0
ENDBLK
  5
FE
330
FB
100
AcDbEntity
  8
0
100
AcDbBlockEnd
  0
BLOCK
  5
101
330
FF
100
AcDbEntity
  8
0
100
AcDbBlockBegin
  2
block 11
 70
     0
 10
0.0
 20
0.0
 30
0.0
  3
block 11
  1

  0
SPLINE
  5
103
330
FF
100
AcDbEntity
  8
Layer 2
 62
     1
420
 16711680
370
     5
100
AcDbSpline
210
0.0
220
0.0
230
1.0
 70
    11
 71
     3
 72
    20
 73
    16
 74
     0
 42
0.0000000001
 43
0.0000000001
 12
1.0
 22
0.0
 32
0.0
 13
1.0
 23
0.0
 33
0.0
 40
0.0
 40
0.0
 40
0.0
 40
0.0
 40
1.0
 40
1.0
 40
1.0
 40
2.0
 40
2.0
 40
2.0
 40
3.0
 40
3.0
 40
3.0
 40
4.0
 40
4.0
 40
4.0
 40
5.0
 40
5.0
 40
5.0
 40
5.0
 10
628.5707986188131
 20
266.4762054054938
 30
0.0
 10
629.3993325074914
 20
266.4762054054565
 30
0.0
 10
630.0707744517359
 20
265.8047634781112
 30
0.0
 10
630.0707744517044
 20
264.9761943325818
 30
0.0
 10
630.0707744516621
 20
264.1476604648306
 30
0.0
 10
629.3993325073606
 20
263.4762185375494
 30
0.0
 10
628.5707986186751
 20
263.4762185375866
 30
0.0
 10
627.7422647299975
 20
263.4762185376239
 30
0.0
 10
627.0707875079678
 20
264.1476604649654
 30
0.0
 10
627.0707875080101
 20
264.9761943327166
 30
0.0
 10
627.0707875080416
 20
265.804763478246
 30
0.0
 10
627.7422647301277
 20
266.476205405531
 30
0.0
 10
628.5707986188131
 20
266.4762054054938
 30
0.0
 10
628.5707986188131
 20
266.4762054054938
 30
0.0
 10
628.5707986188131
 20
266.4762054054938
 30
0.0
 10
628.5707986188131
 20
266.4762054054938
 30
0.0
  0
ENDBLK
  5
102
330
FF
100
AcDbEntity
  8
0
100
AcDbBlockEnd
  0
BLOCK
  5
106
330
104
100
AcDbEntity
  8
0
100
AcDbBlockBegin
  2
block 12
 70
     0
 10
0.0
 20
0.0
 30
0.0
  3
block 12
  1

  0
SPLINE
  5
108
330
104
100
AcDbEntity
  8
Layer 2
 62
     1
420
 16711680
370
     5
100
AcDbSpline
210
0.0
220
0.0
230
1.0
 70
    11
 71
     3
 72
    20
 73
    16
 74
     0
 42
0.0000000001
 43
0.0000000001
 12
1.0
 22
0.0
 32
0.0
 13
1.0
 23
0.0
 33
0.0
 40
0.0
 40
0.0
 40
0.0
 40
0.0
 40
1.0
 40
1.0
 40
1.0
 40
2.0
 40
2.0
 40
2.0
 40
3.0
 40
3.0
 40
3.0
 40
4.0
 40
4.0
 40
4.0
 40
5.0
 40
5.0
 40
5.0
 40
5.0
 10
550.4708080827825
 20
266.5099662414707
 30
0.0
 10
551.2990244714606
 20
266.5099662414335
 30
0.0
 10
551.9708191934902
 20
265.838171536322
 30
0.0
 10
551.9708191934478
 20
265.0099551685627
 30
0.0
 10
551.9708191934161
 20
264.182126856349
 30
0.0
 10
551.2990244713303
 20
263.5099793735264
 30
0.0
 10
550.4708080826449
 20
263.5099793735636
 30
0.0
 10
549.6426269717443
 20
263.5099793736009
 30
0.0
 10
548.9708322497218
 20
264.1821268564838
 30
0.0
 10
548.9708322497535
 20
265.0099551686974
 30
0.0
 10
548.9708322497959
 20
265.8381715364567
 30
0.0
 10
549.642626971875
 20
266.509966241508
 30
0.0
 10
550.4708080827825
 20
266.5099662414707
 30
0.0
 10
550.4708080827825
 20
266.5099662414707
 30
0.0
 10
550.4708080827825
 20
266.5099662414707
 30
0.0
 10
550.4708080827825
 20
266.5099662414707
 30
0.0
  0
ENDBLK
  5
107
330
104
100
AcDbEntity
  8
0
100
AcDbBlockEnd
  0
BLOCK
  5
10B
330
109
100
AcDbEntity
  8
0
100
AcDbBlockBegin
  2
block 13
 70
     0
 10
0.0
 20
0.0
 30
0.0
  3
block 13
  1

  0
SPLINE
  5
10D
330
109
100
AcDbEntity
  8
Layer 2
 62
     1
420
 16711680
370
     5
100
AcDbSpline
210
0.0
220
0.0
230
1.0
 70
    11
 71
     3
 72
    20
 73
    16
 74
     0
 42
0.0000000001
 43
0.0000000001
 12
1.0
 22
0.0
 32
0.0
 13
1.0
 23
0.0
 33
0.0
 40
0.0
 40
0.0
 40
0.0
 40
0.0
 40
1.0
 40
1.0
 40
1.0
 40
2.0
 40
2.0
 40
2.0
 40
3.0
 40
3.0
 40
3.0
 40
4.0
 40
4.0
 40
4.0
 40
5.0
 40
5.0
 40
5.0
 40
5.0
 10
608.4964025159977
 20
339.5311543759404
 30
0.0
 10
609.3249364046831
 20
339.5311543759032
 30
0.0
 10
609.9967311267021
 20
338.8590421707978
 30
0.0
 10
609.996731126663
 20
338.0308258030391
 30
0.0
 10
609.9967311266315
 20
337.2026447130586
 30
0.0
 10
609.3249364045455
 20
336.531167507996
 30
0.0
 10
608.4964025158636
 20
336.5311675080333
 30
0.0
 10
607.6678333494042
 20
336.5311675080705
 30
0.0
 10
606.9960386273817
 20
337.2026447131934
 30
0.0
 10
606.9960386274134
 20
338.0308258031739
 30
0.0
 10
606.9960386274522
 20
338.8590421709326
 30
0.0
 10
607.6678333495419
 20
339.5311543759776
 30
0.0
 10
608.4964025159977
 20
339.5311543759404
 30
0.0
 10
608.4964025159977
 20
339.5311543759404
 30
0.0
 10
608.4964025159977
 20
339.5311543759404
 30
0.0
 10
608.4964025159977
 20
339.5311543759404
 30
0.0
  0
ENDBLK
  5
10C
330
109
100
AcDbEntity
  8
0
100
AcDbBlockEnd
  0
BLOCK
  5
110
330
10E
100
AcDbEntity
  8
0
100
AcDbBlockBegin
  2
block 14
 70
     0
 10
0.0
 20
0.0
 30
0.0
  3
block 14
  1

  0
SPLINE
  5
112
330
10E
100
AcDbEntity
  8
Layer 2
 62
     1
420
 16711680
370
     5
100
AcDbSpline
210
0.0
220
0.0
230
1.0
 70
    11
 71
     3
 72
    20
 73
    16
 74
     0
 42
0.0000000001
 43
0.0000000001
 12
1.0
 22
0.0
 32
0.0
 13
1.0
 23
0.0
 33
0.0
 40
0.0
 40
0.0
 40
0.0
 40
0.0
 40
1.0
 40
1.0
 40
1.0
 40
2.0
 40
2.0
 40
2.0
 40
3.0
 40
3.0
 40
3.0
 40
4.0
 40
4.0
 40
4.0
 40
5.0
 40
5.0
 40
5.0
 40
5.0
 10
550.4442791971809
 20
339.531154378547
 30
0.0
 10
551.2732011414145
 20
339.5311543785098
 30
0.0
 10
551.9442903078818
 20
338.8593682856346
 30
0.0
 10
551.9442903078501
 20
338.0311785834164
 30
0.0
 10
551.9442903078077
 20
337.2026447156658
 30
0.0
 10
551.2732011412771
 20
336.5311675106026
 30
0.0
 10
550.4442791970436
 20
336.5311675106399
 30
0.0
 10
549.6160980861391
 20
336.5311675106771
 30
0.0
 10
548.9443033641134
 20
337.2026447158005
 30
0.0
 10
548.9443033641554
 20
338.0311785835511
 30
0.0
 10
548.9443033641907
 20
338.8593682857693
 30
0.0
 10
549.6160980862733
 20
339.5311543785842
 30
0.0
 10
550.4442791971809
 20
339.531154378547
 30
0.0
 10
550.4442791971809
 20
339.531154378547
 30
0.0
 10
550.4442791971809
 20
339.531154378547
 30
0.0
 10
550.4442791971809
 20
339.531154378547
 30
0.0
  0
ENDBLK
  5
111
330
10E
100
AcDbEntity
  8
0
100
AcDbBlockEnd
  0
BLOCK
  5
14E
330
14C
100
AcDbEntity
  8
0
100
AcDbBlockBegin
  2
block 15
 70
     0
 10
0.0
 20
0.0
 30
0.0
  3
block 15
  1

  0
POLYLINE
  5
150
330
14C
100
AcDbEntity
  8
Layer 2
 62
     1
420
 16711680
370
     5
100
AcDb2dPolyline
 66
     1
 10
0.0
 20
0.0
 30
0.0
  0
VERTEX
  5
151
330
150
100
AcDbEntity
  8
Layer 2
 62
     1
420
 16711680
370
     5
100
AcDbVertex
100
AcDb2dVertex
 10
705.967979154305
 20
220.0863002993442
 30
0.0
  0
VERTEX
  5
152
330
150
100
AcDbEntity
  8
Layer 2
 62
     1
420
 16711680
370
     5
100
AcDbVertex
100
AcDb2dVertex
 10
715.9677563734873
 20
220.0863002993442
 30
0.0
  0
VERTEX
  5
153
330
150
100
AcDbEntity
  8
Layer 2
 62
     1
420
 16711680
370
     5
100
AcDbVertex
100
AcDb2dVertex
 10
715.9677563734873
 20
223.0859449383512
 30
0.0
  0
VERTEX
  5
154
330
150
100
AcDbEntity
  8
Layer 2
 62
     1
420
 16711680
370
     5
100
AcDbVertex
100
AcDb2dVertex
 10
724.405182790105
 20
223.0859449383512
 30
0.0
  0
VERTEX
  5
155
330
150
100
AcDbEntity
  8
Layer 2
 62
     1
420
 16711680
370
     5
100
AcDbVertex
100
AcDb2dVertex
 10
724.405182790105
 20
259.8059473366691
 30
0.0
  0
VERTEX
  5
156
330
150
100
AcDbEntity
  8
Layer 2
 62
     1
420
 16711680
370
     5
100
AcDbVertex
100
AcDb2dVertex
 10
715.9677563734873
 20
259.8059473366691
 30
0.0
  0
VERTEX
  5
157
330
150
100
AcDbEntity
  8
Layer 2
 62
     1
420
 16711680
370
     5
100
AcDbVertex
100
AcDb2dVertex
 10
715.9677563734873
 20
262.8055704438281
 30
0.0
  0
VERTEX
  5
158
330
150
100
AcDbEntity
  8
Layer 2
 62
     1
420
 16711680
370
     5
100
AcDbVertex
100
AcDb2dVertex
 10
705.967979154305
 20
262.8055704438281
 30
0.0
  0
VERTEX
  5
159
330
150
100
AcDbEntity
  8
Layer 2
 62
     1
420
 16711680
370
     5
100
AcDbVertex
100
AcDb2dVertex
 10
705.967979154305
 20
259.8059473366691
 30
0.0
  0
VERTEX
  5
15A
330
150
100
AcDbEntity
  8
Layer 2
 62
     1
420
 16711680
370
     5
100
AcDbVertex
100
AcDb2dVertex
 10
659.6686949726314
 20
259.8059473366691
 30
0.0
  0
VERTEX
  5
15B
330
150
100
AcDbEntity
  8
Layer 2
 62
     1
420
 16711680
370
     5
100
AcDbVertex
100
AcDb2dVertex
 10
659.6686949726314
 20
262.8055704438281
 30
0.0
  0
VERTEX
  5
15C
330
150
100
AcDbEntity
  8
Layer 2
 62
     1
420
 16711680
370
     5
100
AcDbVertex
100
AcDb2dVertex
 10
649.6689608171453
 20
262.8055704438281
 30
0.0
  0
VERTEX
  5
15D
330
150
100
AcDbEntity
  8
Layer 2
 62
     1
420
 16711680
370
     5
100
AcDbVertex
100
AcDb2dVertex
 10
649.6689608171453
 20
259.8059473366691
 30
0.0
  0
VERTEX
  5
15E
330
150
100
AcDbEntity
  8
Layer 2
 62
     1
420
 16711680
370
     5
100
AcDbVertex
100
AcDb2dVertex
 10
641.2315128686757
 20
259.8059473366691
 30
0.0
  0
VERTEX
  5
15F
330
150
100
AcDbEntity
  8
Layer 2
 62
     1
420
 16711680
370
     5
100
AcDbVertex
100
AcDb2dVertex
 10
641.2315128686757
 20
223.0859449383512
 30
0.0
  0
VERTEX
  5
160
330
150
100
AcDbEntity
  8
Layer 2
 62
     1
420
 16711680
370
     5
100
AcDbVertex
100
AcDb2dVertex
 10
649.6689608171453
 20
223.0859449383512
 30
0.0
  0
VERTEX
  5
161
330
150
100
AcDbEntity
  8
Layer 2
 62
     1
420
 16711680
370
     5
100
AcDbVertex
100
AcDb2dVertex
 10
649.6689608171453
 20
220.0863002993442
 30
0.0
  0
VERTEX
  5
162
330
150
100
AcDbEntity
  8
Layer 2
 62
     1
420
 16711680
370
     5
100
AcDbVertex
100
AcDb2dVertex
 10
659.6686949726314
 20
220.0863002993442
 30
0.0
  0
VERTEX
  5
163
330
150
100
AcDbEntity
  8
Layer 2
 62
     1
420
 16711680
370
     5
100
AcDbVertex
100
AcDb2dVertex
 10
659.6686949726314
 20
223.0859449383512
 30
0.0
  0
VERTEX
  5
164
330
150
100
AcDbEntity
  8
Layer 2
 62
     1
420
 16711680
370
     5
100
AcDbVertex
100
AcDb2dVertex
 10
705.967979154305
 20
223.0859449383512
 30
0.0
  0
VERTEX
  5
165
330
150
100
AcDbEntity
  8
Layer 2
 62
     1
420
 16711680
370
     5
100
AcDbVertex
100
AcDb2dVertex
 10
705.967979154305
 20
220.0863002993442
 30
0.0
  0
SEQEND
  5
166
330
150
100
AcDbEntity
  8
Layer 2
 62
     1
420
 16711680
370
     5
  0
ENDBLK
  5
14F
330
14C
100
AcDbEntity
  8
0
100
AcDbBlockEnd
  0
BLOCK
  5
169
330
167
100
AcDbEntity
  8
0
100
AcDbBlockBegin
  2
block 16
 70
     0
 10
0.0
 20
0.0
 30
0.0
  3
block 16
  1

  0
POLYLINE
  5
16B
330
167
100
AcDbEntity
  8
Layer 2
370
     0
100
AcDb2dPolyline
 66
     1
 10
0.0
 20
0.0
 30
0.0
  0
VERTEX
  5
16C
330
16B
100
AcDbEntity
  8
Layer 2
370
     0
100
AcDbVertex
100
AcDb2dVertex
 10
663.1270760876087
 20
343.5681894384174
 30
0.0
  0
VERTEX
  5
16D
330
16B
100
AcDbEntity
  8
Layer 2
370
     0
100
AcDbVertex
100
AcDb2dVertex
 10
677.1270760841126
 20
343.5681894377898
 30
0.0
  0
VERTEX
  5
16E
330
16B
100
AcDbEntity
  8
Layer 2
370
     0
100
AcDbVertex
100
AcDb2dVertex
 10
677.1270760833893
 20
327.5681894417909
 30
0.0
  0
VERTEX
  5
16F
330
16B
100
AcDbEntity
  8
Layer 2
370
     0
100
AcDbVertex
100
AcDb2dVertex
 10
663.1270760868887
 20
327.5681894424178
 30
0.0
  0
VERTEX
  5
170
330
16B
100
AcDbEntity
  8
Layer 2
370
     0
100
AcDbVertex
100
AcDb2dVertex
 10
663.1270760876087
 20
343.5681894384174
 30
0.0
  0
SEQEND
  5
172
330
16B
100
AcDbEntity
  8
Layer 2
370
     0
  0
HATCH
  5
171
330
167
100
AcDbEntity
  8
Layer 2
 62
     7
420
 16777215
100
AcDbHatch
 10
0.0
 20
0.0
 30
0.0
210
0.0
220
0.0
230
1.0
  2
SOLID
 70
     1
 71
     0
 91
        1
 92
        1
 93
        4
 72
     1
 10
663.1270760876087
 20
343.5681894384174
 11
677.1270760841126
 21
343.5681894377898
 72
     1
 10
677.1270760841126
 20
343.5681894377898
 11
677.1270760833893
 21
327.5681894417909
 72
     1
 10
677.1270760833893
 20
327.5681894417909
 11
663.1270760868887
 21
327.5681894424178
 72
     1
 10
663.1270760868887
 20
327.5681894424178
 11
663.1270760876087
 21
343.5681894384174
 97
        0
 75
     2
 76
     1
 98
        0
  0
POLYLINE
  5
173
330
167
100
AcDbEntity
  8
Layer 2
 62
     1
420
 16711680
370
     5
100
AcDb2dPolyline
 66
     1
 10
0.0
 20
0.0
 30
0.0
  0
VERTEX
  5
174
330
173
100
AcDbEntity
  8
Layer 2
 62
     1
420
 16711680
370
     5
100
AcDbVertex
100
AcDb2dVertex
 10
659.9236352348897
 20
324.7681894432596
 30
0.0
  0
VERTEX
  5
175
330
173
100
AcDbEntity
  8
Layer 2
 62
     1
420
 16711680
370
     5
100
AcDbVertex
100
AcDb2dVertex
 10
676.4236352307659
 20
324.7681894425201
 30
0.0
  0
VERTEX
  5
176
330
173
100
AcDbEntity
  8
Layer 2
 62
     1
420
 16711680
370
     5
100
AcDbVertex
100
AcDb2dVertex
 10
676.4236352300567
 20
308.9081894464856
 30
0.0
  0
VERTEX
  5
177
330
173
100
AcDbEntity
  8
Layer 2
 62
     1
420
 16711680
370
     5
100
AcDbVertex
100
AcDb2dVertex
 10
659.9236352341807
 20
308.9081894472258
 30
0.0
  0
VERTEX
  5
178
330
173
100
AcDbEntity
  8
Layer 2
 62
     1
420
 16711680
370
     5
100
AcDbVertex
100
AcDb2dVertex
 10
659.9236352348897
 20
324.7681894432596
 30
0.0
  0
SEQEND
  5
179
330
173
100
AcDbEntity
  8
Layer 2
 62
     1
420
 16711680
370
     5
  0
POLYLINE
  5
17A
330
167
100
AcDbEntity
  8
Layer 2
 62
     1
420
 16711680
370
     5
100
AcDb2dPolyline
 66
     1
 10
0.0
 20
0.0
 30
0.0
  0
VERTEX
  5
17B
330
17A
100
AcDbEntity
  8
Layer 2
 62
     1
420
 16711680
370
     5
100
AcDbVertex
100
AcDb2dVertex
 10
659.9236352340857
 20
306.8081894477513
 30
0.0
  0
VERTEX
  5
17C
330
17A
100
AcDbEntity
  8
Layer 2
 62
     1
420
 16711680
370
     5
100
AcDbVertex
100
AcDb2dVertex
 10
676.4236352299617
 20
306.8081894470108
 30
0.0
  0
VERTEX
  5
17D
330
17A
100
AcDbEntity
  8
Layer 2
 62
     1
420
 16711680
370
     5
100
AcDbVertex
100
AcDb2dVertex
 10
676.4236352292456
 20
290.948189450976
 30
0.0
  0
VERTEX
  5
17E
330
17A
100
AcDbEntity
  8
Layer 2
 62
     1
420
 16711680
370
     5
100
AcDbVertex
100
AcDb2dVertex
 10
659.9236352333728
 20
290.9481894517166
 30
0.0
  0
VERTEX
  5
17F
330
17A
100
AcDbEntity
  8
Layer 2
 62
     1
420
 16711680
370
     5
100
AcDbVertex
100
AcDb2dVertex
 10
659.9236352340857
 20
306.8081894477513
 30
0.0
  0
SEQEND
  5
180
330
17A
100
AcDbEntity
  8
Layer 2
 62
     1
420
 16711680
370
     5
  0
POLYLINE
  5
181
330
167
100
AcDbEntity
  8
Layer 2
 62
     1
420
 16711680
370
     5
100
AcDb2dPolyline
 66
     1
 10
0.0
 20
0.0
 30
0.0
  0
VERTEX
  5
182
330
181
100
AcDbEntity
  8
Layer 2
 62
     1
420
 16711680
370
     5
100
AcDbVertex
100
AcDb2dVertex
 10
684.3201874260567
 20
329.1247263622202
 30
0.0
  0
VERTEX
  5
183
330
181
100
AcDbEntity
  8
Layer 2
 62
     1
420
 16711680
370
     5
100
AcDbVertex
100
AcDb2dVertex
 10
684.3201874260567
 20
339.1245035813997
 30
0.0
  0
VERTEX
  5
184
330
181
100
AcDbEntity
  8
Layer 2
 62
     1
420
 16711680
370
     5
100
AcDbVertex
100
AcDb2dVertex
 10
681.3205643188977
 20
339.1245035813997
 30
0.0
  0
VERTEX
  5
185
330
181
100
AcDbEntity
  8
Layer 2
 62
     1
420
 16711680
370
     5
100
AcDbVertex
100
AcDb2dVertex
 10
681.3205643188977
 20
347.5619299980189
 30
0.0
  0
VERTEX
  5
186
330
181
100
AcDbEntity
  8
Layer 2
 62
     1
420
 16711680
370
     5
100
AcDbVertex
100
AcDb2dVertex
 10
644.6005619205805
 20
347.5619299980189
 30
0.0
  0
VERTEX
  5
187
330
181
100
AcDbEntity
  8
Layer 2
 62
     1
420
 16711680
370
     5
100
AcDbVertex
100
AcDb2dVertex
 10
644.6005619205805
 20
339.1245035813997
 30
0.0
  0
VERTEX
  5
188
330
181
100
AcDbEntity
  8
Layer 2
 62
     1
420
 16711680
370
     5
100
AcDbVertex
100
AcDb2dVertex
 10
641.6009172815735
 20
339.1245035813997
 30
0.0
  0
VERTEX
  5
189
330
181
100
AcDbEntity
  8
Layer 2
 62
     1
420
 16711680
370
     5
100
AcDbVertex
100
AcDb2dVertex
 10
641.6009172815735
 20
329.1247263622202
 30
0.0
  0
VERTEX
  5
18A
330
181
100
AcDbEntity
  8
Layer 2
 62
     1
420
 16711680
370
     5
100
AcDbVertex
100
AcDb2dVertex
 10
644.6005619205805
 20
329.1247263622202
 30
0.0
  0
VERTEX
  5
18B
330
181
100
AcDbEntity
  8
Layer 2
 62
     1
420
 16711680
370
     5
100
AcDbVertex
100
AcDb2dVertex
 10
644.6005619205805
 20
282.8254421805435
 30
0.0
  0
VERTEX
  5
18C
330
181
100
AcDbEntity
  8
Layer 2
 62
     1
420
 16711680
370
     5
100
AcDbVertex
100
AcDb2dVertex
 10
641.6009172815735
 20
282.8254421805435
 30
0.0
  0
VERTEX
  5
18D
330
181
100
AcDbEntity
  8
Layer 2
 62
     1
420
 16711680
370
     5
100
AcDbVertex
100
AcDb2dVertex
 10
641.6009172815735
 20
272.8257080250573
 30
0.0
  0
VERTEX
  5
18E
330
181
100
AcDbEntity
  8
Layer 2
 62
     1
420
 16711680
370
     5
100
AcDbVertex
100
AcDb2dVertex
 10
644.6005619205805
 20
272.8257080250573
 30
0.0
  0
VERTEX
  5
18F
330
181
100
AcDbEntity
  8
Layer 2
 62
     1
420
 16711680
370
     5
100
AcDbVertex
100
AcDb2dVertex
 10
644.6005619205805
 20
264.3882600765916
 30
0.0
  0
VERTEX
  5
190
330
181
100
AcDbEntity
  8
Layer 2
 62
     1
420
 16711680
370
     5
100
AcDbVertex
100
AcDb2dVertex
 10
681.3205643188977
 20
264.3882600765916
 30
0.0
  0
VERTEX
  5
191
330
181
100
AcDbEntity
  8
Layer 2
 62
     1
420
 16711680
370
     5
100
AcDbVertex
100
AcDb2dVertex
 10
681.3205643188977
 20
272.8257080250573
 30
0.0
  0
VERTEX
  5
192
330
181
100
AcDbEntity
  8
Layer 2
 62
     1
420
 16711680
370
     5
100
AcDbVertex
100
AcDb2dVertex
 10
684.3201874260567
 20
272.8257080250573
 30
0.0
  0
VERTEX
  5
193
330
181
100
AcDbEntity
  8
Layer 2
 62
     1
420
 16711680
370
     5
100
AcDbVertex
100
AcDb2dVertex
 10
684.3201874260567
 20
282.8254421805435
 30
0.0
  0
VERTEX
  5
194
330
181
100
AcDbEntity
  8
Layer 2
 62
     1
420
 16711680
370
     5
100
AcDbVertex
100
AcDb2dVertex
 10
681.3205643188977
 20
282.8254421805435
 30
0.0
  0
VERTEX
  5
195
330
181
100
AcDbEntity
  8
Layer 2
 62
     1
420
 16711680
370
     5
100
AcDbVertex
100
AcDb2dVertex
 10
681.3205643188977
 20
329.1247263622202
 30
0.0
  0
VERTEX
  5
196
330
181
100
AcDbEntity
  8
Layer 2
 62
     1
420
 16711680
370
     5
100
AcDbVertex
100
AcDb2dVertex
 10
684.3201874260567
 20
329.1247263622202
 30
0.0
  0
SEQEND
  5
197
330
181
100
AcDbEntity
  8
Layer 2
 62
     1
420
 16711680
370
     5
  0
ENDBLK
  5
16A
330
167
100
AcDbEntity
  8
0
100
AcDbBlockEnd
  0
ENDSEC
  0
SECTION
  2
ENTITIES
  0
POLYLINE
  5
41
330
1F
100
AcDbEntity
  8
Layer 2
 62
     1
420
 16711680
370
     5
100
AcDb2dPolyline
 66
     1
 10
0.0
 20
0.0
 30
0.0
  0
VERTEX
  5
42
330
41
100
AcDbEntity
  8
Layer 2
 62
     1
420
 16711680
370
     5
100
AcDbVertex
100
AcDb2dVertex
 10
519.7408803821821
 20
249.3090612371453
 30
0.0
  0
VERTEX
  5
43
330
41
100
AcDbEntity
  8
Layer 2
 62
     1
420
 16711680
370
     5
100
AcDbVertex
100
AcDb2dVertex
 10
519.7408803821821
 20
252.3087058761523
 30
0.0
  0
VERTEX
  5
44
330
41
100
AcDbEntity
  8
Layer 2
 62
     1
420
 16711680
370
     5
100
AcDbVertex
100
AcDb2dVertex
 10
509.7411246948478
 20
252.3087058761523
 30
0.0
  0
VERTEX
  5
45
330
41
100
AcDbEntity
  8
Layer 2
 62
     1
420
 16711680
370
     5
100
AcDbVertex
100
AcDb2dVertex
 10
509.7411246948478
 20
249.3090612371453
 30
0.0
  0
VERTEX
  5
46
330
41
100
AcDbEntity
  8
Layer 2
 62
     1
420
 16711680
370
     5
100
AcDbVertex
100
AcDb2dVertex
 10
463.4418189813263
 20
249.3090612371453
 30
0.0
  0
VERTEX
  5
47
330
41
100
AcDbEntity
  8
Layer 2
 62
     1
420
 16711680
370
     5
100
AcDbVertex
100
AcDb2dVertex
 10
463.4418189813263
 20
252.3087058761523
 30
0.0
  0
VERTEX
  5
48
330
41
100
AcDbEntity
  8
Layer 2
 62
     1
420
 16711680
370
     5
100
AcDbVertex
100
AcDb2dVertex
 10
453.4420848258401
 20
252.3087058761523
 30
0.0
  0
VERTEX
  5
49
330
41
100
AcDbEntity
  8
Layer 2
 62
     1
420
 16711680
370
     5
100
AcDbVertex
100
AcDb2dVertex
 10
453.4420848258401
 20
249.3090612371453
 30
0.0
  0
VERTEX
  5
4A
330
41
100
AcDbEntity
  8
Layer 2
 62
     1
420
 16711680
370
     5
100
AcDbVertex
100
AcDb2dVertex
 10
438.3174266264963
 20
249.3090612371453
 30
0.0
  0
VERTEX
  5
4B
330
41
100
AcDbEntity
  8
Layer 2
 62
     1
420
 16711680
370
     5
100
AcDbVertex
100
AcDb2dVertex
 10
438.3174266264963
 20
212.5890588388275
 30
0.0
  0
VERTEX
  5
4C
330
41
100
AcDbEntity
  8
Layer 2
 62
     1
420
 16711680
370
     5
100
AcDbVertex
100
AcDb2dVertex
 10
453.4420848258401
 20
212.5890588388275
 30
0.0
  0
VERTEX
  5
4D
330
41
100
AcDbEntity
  8
Layer 2
 62
     1
420
 16711680
370
     5
100
AcDbVertex
100
AcDb2dVertex
 10
453.4420848258401
 20
209.5894357316672
 30
0.0
  0
VERTEX
  5
4E
330
41
100
AcDbEntity
  8
Layer 2
 62
     1
420
 16711680
370
     5
100
AcDbVertex
100
AcDb2dVertex
 10
463.4418189813263
 20
209.5894357316672
 30
0.0
  0
VERTEX
  5
4F
330
41
100
AcDbEntity
  8
Layer 2
 62
     1
420
 16711680
370
     5
100
AcDbVertex
100
AcDb2dVertex
 10
463.4418189813263
 20
212.5890588388275
 30
0.0
  0
VERTEX
  5
50
330
41
100
AcDbEntity
  8
Layer 2
 62
     1
420
 16711680
370
     5
100
AcDbVertex
100
AcDb2dVertex
 10
509.7411246948478
 20
212.5890588388275
 30
0.0
  0
VERTEX
  5
51
330
41
100
AcDbEntity
  8
Layer 2
 62
     1
420
 16711680
370
     5
100
AcDbVertex
100
AcDb2dVertex
 10
509.7411246948478
 20
209.5894357316672
 30
0.0
  0
VERTEX
  5
52
330
41
100
AcDbEntity
  8
Layer 2
 62
     1
420
 16711680
370
     5
100
AcDbVertex
100
AcDb2dVertex
 10
519.7408803821821
 20
209.5894357316672
 30
0.0
  0
VERTEX
  5
53
330
41
100
AcDbEntity
  8
Layer 2
 62
     1
420
 16711680
370
     5
100
AcDbVertex
100
AcDb2dVertex
 10
519.7408803821821
 20
212.5890588388275
 30
0.0
  0
VERTEX
  5
54
330
41
100
AcDbEntity
  8
Layer 2
 62
     1
420
 16711680
370
     5
100
AcDbVertex
100
AcDb2dVertex
 10
534.8655601133669
 20
212.5890588388275
 30
0.0
  0
VERTEX
  5
55
330
41
100
AcDbEntity
  8
Layer 2
 62
     1
420
 16711680
370
     5
100
AcDbVertex
100
AcDb2dVertex
 10
534.8655601133669
 20
249.3090612371453
 30
0.0
  0
VERTEX
  5
56
330
41
100
AcDbEntity
  8
Layer 2
 62
     1
420
 16711680
370
     5
100
AcDbVertex
100
AcDb2dVertex
 10
519.7408803821821
 20
249.3090612371453
 30
0.0
  0
SEQEND
  5
57
330
41
100
AcDbEntity
  8
Layer 2
 62
     1
420
 16711680
370
     5
  0
INSERT
  5
59
330
1F
100
AcDbEntity
  8
Layer 2
100
AcDbBlockReference
  2
block 2
 10
0.0
 20
0.0
 30
0.0
  0
INSERT
  5
87
330
1F
100
AcDbEntity
  8
Layer 2
100
AcDbBlockReference
  2
block 3
 10
0.0
 20
0.0
 30
0.0
  0
SPLINE
  5
A1
330
1F
100
AcDbEntity
  8
Layer 2
 62
     1
420
 16711680
370
     5
100
AcDbSpline
210
0.0
220
0.0
230
1.0
 70
    11
 71
     3
 72
    17
 73
    13
 74
     0
 42
0.0000000001
 43
0.0000000001
 12
1.0
 22
0.0
 32
0.0
 13
1.0
 23
0.0
 33
0.0
 40
0.0
 40
0.0
 40
0.0
 40
0.0
 40
1.0
 40
1.0
 40
1.0
 40
2.0
 40
2.0
 40
2.0
 40
3.0
 40
3.0
 40
3.0
 40
4.0
 40
4.0
 40
4.0
 40
4.0
 10
518.9039707449186
 20
274.3356817267392
 30
0.0
 10
516.8327260062314
 20
274.3356817268316
 30
0.0
 10
515.1539707457791
 20
272.6568969916432
 30
0.0
 10
515.1539707456874
 20
270.5857945649843
 30
0.0
 10
515.1539707455889
 20
268.5144850740951
 30
0.0
 10
516.8327260058961
 20
266.8356817287067
 30
0.0
 10
518.9039707445799
 20
266.8356817286143
 30
0.0
 10
520.9750084255046
 20
266.8356817285206
 30
0.0
 10
522.6539707437192
 20
268.5144850737576
 30
0.0
 10
522.6539707438072
 20
270.585794564648
 30
0.0
 10
522.6539707439025
 20
272.656896991307
 30
0.0
 10
520.975008425843
 20
274.3356817266455
 30
0.0
 10
518.9039707449186
 20
274.3356817267392
 30
0.0
  0
SPLINE
  5
A2
330
1F
100
AcDbEntity
  8
Layer 2
 62
     1
420
 16711680
370
     5
100
AcDbSpline
210
0.0
220
0.0
230
1.0
 70
    11
 71
     3
 72
    17
 73
    13
 74
     0
 42
0.0000000001
 43
0.0000000001
 12
1.0
 22
0.0
 32
0.0
 13
1.0
 23
0.0
 33
0.0
 40
0.0
 40
0.0
 40
0.0
 40
0.0
 40
1.0
 40
1.0
 40
1.0
 40
2.0
 40
2.0
 40
2.0
 40
3.0
 40
3.0
 40
3.0
 40
4.0
 40
4.0
 40
4.0
 40
4.0
 10
503.6021119240276
 20
274.3356817274258
 30
0.0
 10
501.5310972495198
 20
274.3356817275182
 30
0.0
 10
499.8518818607125
 20
272.6571040565574
 30
0.0
 10
499.8518818606208
 20
270.5857945656721
 30
0.0
 10
499.8518818605255
 20
268.5146921390081
 30
0.0
 10
501.531097249181
 20
266.8356817293933
 30
0.0
 10
503.6021119236888
 20
266.8356817293009
 30
0.0
 10
505.6731496046135
 20
266.8356817292085
 30
0.0
 10
507.3518818586558
 20
268.5146921386706
 30
0.0
 10
507.351881858744
 20
270.5857945653346
 30
0.0
 10
507.3518818588394
 20
272.6571040562199
 30
0.0
 10
505.6731496049488
 20
274.3356817273334
 30
0.0
 10
503.6021119240276
 20
274.3356817274258
 30
0.0
  0
SPLINE
  5
A3
330
1F
100
AcDbEntity
  8
Layer 2
 62
     1
420
 16711680
370
     5
100
AcDbSpline
210
0.0
220
0.0
230
1.0
 70
    11
 71
     3
 72
    17
 73
    13
 74
     0
 42
0.0000000001
 43
0.0000000001
 12
1.0
 22
0.0
 32
0.0
 13
1.0
 23
0.0
 33
0.0
 40
0.0
 40
0.0
 40
0.0
 40
0.0
 40
1.0
 40
1.0
 40
1.0
 40
2.0
 40
2.0
 40
2.0
 40
3.0
 40
3.0
 40
3.0
 40
4.0
 40
4.0
 40
4.0
 40
4.0
 10
473.1030266566651
 20
336.5096556603773
 30
0.0
 10
471.0320119821573
 20
336.509655660469
 30
0.0
 10
469.35279659335
 20
334.8308774779885
 30
0.0
 10
469.3527965932618
 20
332.7597762132517
 30
0.0
 10
469.3527965931664
 20
330.6886924918031
 30
0.0
 10
471.0320119818184
 20
329.0096556623454
 30
0.0
 10
473.1030266563266
 20
329.0096556622508
 30
0.0
 10
475.174064337251
 20
329.0096556621584
 30
0.0
 10
476.8527965912933
 20
330.6886924914666
 30
0.0
 10
476.8527965913815
 20
332.7597762129149
 30
0.0
 10
476.8527965914768
 20
334.8308774776506
 30
0.0
 10
475.1740643375863
 20
336.5096556602833
 30
0.0
 10
473.1030266566651
 20
336.5096556603773
 30
0.0
  0
INSERT
  5
A5
330
1F
100
AcDbEntity
  8
Layer 2
100
AcDbBlockReference
  2
block 6
 10
0.0
 20
0.0
 30
0.0
  0
INSERT
  5
AA
330
1F
100
AcDbEntity
  8
Layer 2
100
AcDbBlockReference
  2
block 7
 10
0.0
 20
0.0
 30
0.0
  0
INSERT
  5
AF
330
1F
100
AcDbEntity
  8
Layer 2
100
AcDbBlockReference
  2
block 8
 10
0.0
 20
0.0
 30
0.0
  0
INSERT
  5
B4
330
1F
100
AcDbEntity
  8
Layer 2
100
AcDbBlockReference
  2
block 9
 10
0.0
 20
0.0
 30
0.0
  0
SPLINE
  5
B8
330
1F
100
AcDbEntity
  8
Layer 2
 62
     1
420
 16711680
370
     5
100
AcDbSpline
210
0.0
220
0.0
230
1.0
 70
    11
 71
     3
 72
    17
 73
    13
 74
     0
 42
0.0000000001
 43
0.0000000001
 12
1.0
 22
0.0
 32
0.0
 13
1.0
 23
0.0
 33
0.0
 40
0.0
 40
0.0
 40
0.0
 40
0.0
 40
1.0
 40
1.0
 40
1.0
 40
2.0
 40
2.0
 40
2.0
 40
3.0
 40
3.0
 40
3.0
 40
4.0
 40
4.0
 40
4.0
 40
4.0
 10
457.8134782602827
 20
276.4892112769299
 30
0.0
 10
454.4999180834054
 20
276.4892112770788
 30
0.0
 10
451.8134782616622
 20
273.8031519977305
 30
0.0
 10
451.8134782615178
 20
270.489488957136
 30
0.0
 10
451.813478261366
 20
267.1757754295553
 30
0.0
 10
454.4999180828693
 20
264.4892112800789
 30
0.0
 10
457.8134782597466
 20
264.48921127993
 30
0.0
 10
461.1270384366239
 20
264.4892112797812
 30
0.0
 10
463.8134782583675
 20
267.1757754290176
 30
0.0
 10
463.8134782585119
 20
270.4894889565983
 30
0.0
 10
463.8134782586636
 20
273.8031519971915
 30
0.0
 10
461.1270384371604
 20
276.489211276781
 30
0.0
 10
457.8134782602827
 20
276.4892112769299
 30
0.0
  0
SPLINE
  5
B9
330
1F
100
AcDbEntity
  8
Layer 2
 62
     1
420
 16711680
370
     5
100
AcDbSpline
210
0.0
220
0.0
230
1.0
 70
    11
 71
     3
 72
    17
 73
    13
 74
     0
 42
0.0000000001
 43
0.0000000001
 12
1.0
 22
0.0
 32
0.0
 13
1.0
 23
0.0
 33
0.0
 40
0.0
 40
0.0
 40
0.0
 40
0.0
 40
1.0
 40
1.0
 40
1.0
 40
2.0
 40
2.0
 40
2.0
 40
3.0
 40
3.0
 40
3.0
 40
4.0
 40
4.0
 40
4.0
 40
4.0
 10
478.0982004774338
 20
276.4893876649018
 30
0.0
 10
474.7846403005564
 20
276.4893876650494
 30
0.0
 10
472.0982004788132
 20
273.8034413901534
 30
0.0
 10
472.0982004786688
 20
270.4894129091031
 30
0.0
 10
472.0982004785171
 20
267.1763436404892
 30
0.0
 10
474.7846403000203
 20
264.4893876680495
 30
0.0
 10
478.0982004768977
 20
264.4893876679006
 30
0.0
 10
481.411760653775
 20
264.4893876677531
 30
0.0
 10
484.0982004755185
 20
267.1763436399502
 30
0.0
 10
484.0982004756629
 20
270.4894129085653
 30
0.0
 10
484.0982004758147
 20
273.8034413896156
 30
0.0
 10
481.4117606543115
 20
276.4893876647529
 30
0.0
 10
478.0982004774338
 20
276.4893876649018
 30
0.0
  0
POLYLINE
  5
BA
330
1F
100
AcDbEntity
  8
Layer 2
 62
     1
420
 16711680
370
     5
100
AcDb2dPolyline
 66
     1
 10
0.0
 20
0.0
 30
0.0
  0
VERTEX
  5
BB
330
BA
100
AcDbEntity
  8
Layer 2
 62
     1
420
 16711680
370
     5
100
AcDbVertex
100
AcDb2dVertex
 10
442.3986593679203
 20
278.3257975329662
 30
0.0
  0
VERTEX
  5
BC
330
BA
100
AcDbEntity
  8
Layer 2
 62
     1
420
 16711680
370
     5
100
AcDbVertex
100
AcDb2dVertex
 10
439.3990252020034
 20
278.3257975330997
 30
0.0
  0
VERTEX
  5
BD
330
BA
100
AcDbEntity
  8
Layer 2
 62
     1
420
 16711680
370
     5
100
AcDbVertex
100
AcDb2dVertex
 10
439.3990252015555
 20
268.3260647326586
 30
0.0
  0
VERTEX
  5
BE
330
BA
100
AcDbEntity
  8
Layer 2
 62
     1
420
 16711680
370
     5
100
AcDbVertex
100
AcDb2dVertex
 10
442.3986593674724
 20
268.3260647325238
 30
0.0
  0
VERTEX
  5
BF
330
BA
100
AcDbEntity
  8
Layer 2
 62
     1
420
 16711680
370
     5
100
AcDbVertex
100
AcDb2dVertex
 10
442.3986593679203
 20
278.3257975329662
 30
0.0
  0
SEQEND
  5
C0
330
BA
100
AcDbEntity
  8
Layer 2
 62
     1
420
 16711680
370
     5
  0
POLYLINE
  5
C1
330
1F
100
AcDbEntity
  8
Layer 2
 62
     1
420
 16711680
370
     5
100
AcDb2dPolyline
 66
     1
 10
0.0
 20
0.0
 30
0.0
  0
VERTEX
  5
C2
330
C1
100
AcDbEntity
  8
Layer 2
 62
     1
420
 16711680
370
     5
100
AcDbVertex
100
AcDb2dVertex
 10
442.3986593704496
 20
334.6248608188816
 30
0.0
  0
VERTEX
  5
C3
330
C1
100
AcDbEntity
  8
Layer 2
 62
     1
420
 16711680
370
     5
100
AcDbVertex
100
AcDb2dVertex
 10
439.399025204533
 20
334.6248608190148
 30
0.0
  0
VERTEX
  5
C4
330
C1
100
AcDbEntity
  8
Layer 2
 62
     1
420
 16711680
370
     5
100
AcDbVertex
100
AcDb2dVertex
 10
439.3990252040812
 20
324.6250927407984
 30
0.0
  0
VERTEX
  5
C5
330
C1
100
AcDbEntity
  8
Layer 2
 62
     1
420
 16711680
370
     5
100
AcDbVertex
100
AcDb2dVertex
 10
442.3986593700017
 20
324.6250927406649
 30
0.0
  0
VERTEX
  5
C6
330
C1
100
AcDbEntity
  8
Layer 2
 62
     1
420
 16711680
370
     5
100
AcDbVertex
100
AcDb2dVertex
 10
442.3986593704496
 20
334.6248608188816
 30
0.0
  0
SEQEND
  5
C7
330
C1
100
AcDbEntity
  8
Layer 2
 62
     1
420
 16711680
370
     5
  0
SPLINE
  5
C8
330
1F
100
AcDbEntity
  8
Layer 2
 62
     1
420
 16711680
370
     5
100
AcDbSpline
210
0.0
220
0.0
230
1.0
 70
    11
 71
     3
 72
    29
 73
    25
 74
     0
 42
0.0000000001
 43
0.0000000001
 12
1.0
 22
0.0
 32
0.0
 13
1.0
 23
0.0
 33
0.0
 40
0.0
 40
0.0
 40
0.0
 40
0.0
 40
1.0
 40
1.0
 40
1.0
 40
2.0
 40
2.0
 40
2.0
 40
3.0
 40
3.0
 40
3.0
 40
4.0
 40
4.0
 40
4.0
 40
5.0
 40
5.0
 40
5.0
 40
6.0
 40
6.0
 40
6.0
 40
7.0
 40
7.0
 40
7.0
 40
8.0
 40
8.0
 40
8.0
 40
8.0
 10
437.8990565291745
 20
256.7953195890849
 30
0.0
 10
437.8990565291357
 20
256.0061022797449
 30
0.0
 10
438.5465435588393
 20
255.3660386985657
 30
0.0
 10
439.3445589581502
 20
255.3660386985297
 30
0.0
 10
439.3445589581502
 20
255.3660386985297
 30
0.0
 10
536.0154907077612
 20
255.3660386941906
 30
0.0
 10
536.0154907077612
 20
255.3660386941906
 30
0.0
 10
536.8138286678667
 20
255.3660386941546
 30
0.0
 10
537.4609931368318
 20
256.0061022752748
 30
0.0
 10
537.4609931368706
 20
256.7953195846148
 30
0.0
 10
537.4609931368706
 20
256.7953195846148
 30
0.0
 10
537.4609931408783
 20
346.1326137141509
 30
0.0
 10
537.4609931408783
 20
346.1326137141509
 30
0.0
 10
537.4609931409171
 20
346.9218222100116
 30
0.0
 10
536.8138286720082
 20
347.5619299936422
 30
0.0
 10
536.0154907119027
 20
347.5619299936781
 30
0.0
 10
536.0154907119027
 20
347.5619299936781
 30
0.0
 10
439.3445589622917
 20
347.5619299980189
 30
0.0
 10
439.3445589622917
 20
347.5619299980189
 30
0.0
 10
438.5465435629773
 20
347.5619299980542
 30
0.0
 10
437.8990565332211
 20
346.9218222144813
 30
0.0
 10
437.8990565331823
 20
346.13261371862
 30
0.0
 10
437.8990565331823
 20
346.13261371862
 30
0.0
 10
437.8990565291745
 20
256.7953195890849
 30
0.0
 10
437.8990565291745
 20
256.7953195890849
 30
0.0
  0
POLYLINE
  5
C9
330
1F
100
AcDbEntity
  8
Layer 2
 62
     1
420
 16711680
370
     5
100
AcDb2dPolyline
 66
     1
 10
0.0
 20
0.0
 30
0.0
  0
VERTEX
  5
CA
330
C9
100
AcDbEntity
  8
Layer 2
 62
     1
420
 16711680
370
     5
100
AcDbVertex
100
AcDb2dVertex
 10
532.9475162971427
 20
278.3257975289004
 30
0.0
  0
VERTEX
  5
CB
330
C9
100
AcDbEntity
  8
Layer 2
 62
     1
420
 16711680
370
     5
100
AcDbVertex
100
AcDb2dVertex
 10
535.9471504630525
 20
278.3257975287657
 30
0.0
  0
VERTEX
  5
CC
330
C9
100
AcDbEntity
  8
Layer 2
 62
     1
420
 16711680
370
     5
100
AcDbVertex
100
AcDb2dVertex
 10
535.9471504626077
 20
268.3260647283233
 30
0.0
  0
VERTEX
  5
CD
330
C9
100
AcDbEntity
  8
Layer 2
 62
     1
420
 16711680
370
     5
100
AcDbVertex
100
AcDb2dVertex
 10
532.9475162966912
 20
268.3260647284581
 30
0.0
  0
VERTEX
  5
CE
330
C9
100
AcDbEntity
  8
Layer 2
 62
     1
420
 16711680
370
     5
100
AcDbVertex
100
AcDb2dVertex
 10
532.9475162971427
 20
278.3257975289004
 30
0.0
  0
SEQEND
  5
CF
330
C9
100
AcDbEntity
  8
Layer 2
 62
     1
420
 16711680
370
     5
  0
SPLINE
  5
D0
330
1F
100
AcDbEntity
  8
Layer 2
 62
     1
420
 16711680
370
     5
100
AcDbSpline
210
0.0
220
0.0
230
1.0
 70
    11
 71
     3
 72
    17
 73
    13
 74
     0
 42
0.0000000001
 43
0.0000000001
 12
1.0
 22
0.0
 32
0.0
 13
1.0
 23
0.0
 33
0.0
 40
0.0
 40
0.0
 40
0.0
 40
0.0
 40
1.0
 40
1.0
 40
1.0
 40
2.0
 40
2.0
 40
2.0
 40
3.0
 40
3.0
 40
3.0
 40
4.0
 40
4.0
 40
4.0
 40
4.0
 10
457.8451196907372
 20
338.6922958330507
 30
0.0
 10
454.5315595138599
 20
338.6922958331986
 30
0.0
 10
451.8451196921167
 20
336.006236553851
 30
0.0
 10
451.845119691965
 20
332.6925735132568
 30
0.0
 10
451.8451196918167
 20
329.3788599856761
 30
0.0
 10
454.5315595133164
 20
326.692295836199
 30
0.0
 10
457.8451196901941
 20
326.6922958360505
 30
0.0
 10
461.158679867075
 20
326.6922958359016
 30
0.0
 10
463.8451196888146
 20
329.378859985138
 30
0.0
 10
463.8451196889664
 20
332.6925735127187
 30
0.0
 10
463.8451196891143
 20
336.006236553312
 30
0.0
 10
461.1586798676111
 20
338.6922958329018
 30
0.0
 10
457.8451196907372
 20
338.6922958330507
 30
0.0
  0
POLYLINE
  5
D1
330
1F
100
AcDbEntity
  8
Layer 2
 62
     1
420
 16711680
370
     5
100
AcDb2dPolyline
 66
     1
 10
0.0
 20
0.0
 30
0.0
  0
VERTEX
  5
D2
330
D1
100
AcDbEntity
  8
Layer 2
 62
     1
420
 16711680
370
     5
100
AcDbVertex
100
AcDb2dVertex
 10
532.9475162996687
 20
334.6248608148152
 30
0.0
  0
VERTEX
  5
D3
330
D1
100
AcDbEntity
  8
Layer 2
 62
     1
420
 16711680
370
     5
100
AcDbVertex
100
AcDb2dVertex
 10
535.9471504655853
 20
334.6248608146807
 30
0.0
  0
VERTEX
  5
D4
330
D1
100
AcDbEntity
  8
Layer 2
 62
     1
420
 16711680
370
     5
100
AcDbVertex
100
AcDb2dVertex
 10
535.9471504651374
 20
324.625092736464
 30
0.0
  0
VERTEX
  5
D5
330
D1
100
AcDbEntity
  8
Layer 2
 62
     1
420
 16711680
370
     5
100
AcDbVertex
100
AcDb2dVertex
 10
532.9475162992208
 20
324.6250927365988
 30
0.0
  0
VERTEX
  5
D6
330
D1
100
AcDbEntity
  8
Layer 2
 62
     1
420
 16711680
370
     5
100
AcDbVertex
100
AcDb2dVertex
 10
532.9475162996687
 20
334.6248608148152
 30
0.0
  0
SEQEND
  5
D7
330
D1
100
AcDbEntity
  8
Layer 2
 62
     1
420
 16711680
370
     5
  0
POLYLINE
  5
D8
330
1F
100
AcDbEntity
  8
Layer 2
 62
     1
420
 16711680
370
     5
100
AcDb2dPolyline
 66
     1
 10
0.0
 20
0.0
 30
0.0
  0
VERTEX
  5
D9
330
D8
100
AcDbEntity
  8
Layer 2
 62
     1
420
 16711680
370
     5
100
AcDbVertex
100
AcDb2dVertex
 10
464.5234225926976
 20
343.0622958313457
 30
0.0
  0
VERTEX
  5
DA
330
D8
100
AcDbEntity
  8
Layer 2
 62
     1
420
 16711680
370
     5
100
AcDbVertex
100
AcDb2dVertex
 10
464.5234225928352
 20
346.0619299972616
 30
0.0
  0
VERTEX
  5
DB
330
D8
100
AcDbEntity
  8
Layer 2
 62
     1
420
 16711680
370
     5
100
AcDbVertex
100
AcDb2dVertex
 10
454.5236897923966
 20
346.0619299977105
 30
0.0
  0
VERTEX
  5
DC
330
D8
100
AcDbEntity
  8
Layer 2
 62
     1
420
 16711680
370
     5
100
AcDbVertex
100
AcDb2dVertex
 10
454.523689792259
 20
343.0622958317936
 30
0.0
  0
VERTEX
  5
DD
330
D8
100
AcDbEntity
  8
Layer 2
 62
     1
420
 16711680
370
     5
100
AcDbVertex
100
AcDb2dVertex
 10
464.5234225926976
 20
343.0622958313457
 30
0.0
  0
SEQEND
  5
DE
330
D8
100
AcDbEntity
  8
Layer 2
 62
     1
420
 16711680
370
     5
  0
POLYLINE
  5
DF
330
1F
100
AcDbEntity
  8
Layer 2
 62
     1
420
 16711680
370
     5
100
AcDb2dPolyline
 66
     1
 10
0.0
 20
0.0
 30
0.0
  0
VERTEX
  5
E0
330
DF
100
AcDbEntity
  8
Layer 2
 62
     1
420
 16711680
370
     5
100
AcDbVertex
100
AcDb2dVertex
 10
520.8224858786107
 20
343.062295828818
 30
0.0
  0
VERTEX
  5
E1
330
DF
100
AcDbEntity
  8
Layer 2
 62
     1
420
 16711680
370
     5
100
AcDbVertex
100
AcDb2dVertex
 10
520.8224858787484
 20
346.061929994734
 30
0.0
  0
VERTEX
  5
E2
330
DF
100
AcDbEntity
  8
Layer 2
 62
     1
420
 16711680
370
     5
100
AcDbVertex
100
AcDb2dVertex
 10
510.822717800532
 20
346.0619299951829
 30
0.0
  0
VERTEX
  5
E3
330
DF
100
AcDbEntity
  8
Layer 2
 62
     1
420
 16711680
370
     5
100
AcDbVertex
100
AcDb2dVertex
 10
510.8227178003946
 20
343.062295829266
 30
0.0
  0
VERTEX
  5
E4
330
DF
100
AcDbEntity
  8
Layer 2
 62
     1
420
 16711680
370
     5
100
AcDbVertex
100
AcDb2dVertex
 10
520.8224858786107
 20
343.062295828818
 30
0.0
  0
SEQEND
  5
E5
330
DF
100
AcDbEntity
  8
Layer 2
 62
     1
420
 16711680
370
     5
  0
POLYLINE
  5
E6
330
1F
100
AcDbEntity
  8
Layer 2
 62
     1
420
 16711680
370
     5
100
AcDb2dPolyline
 66
     1
 10
0.0
 20
0.0
 30
0.0
  0
VERTEX
  5
E7
330
E6
100
AcDbEntity
  8
Layer 2
 62
     1
420
 16711680
370
     5
100
AcDbVertex
100
AcDb2dVertex
 10
464.5234225889651
 20
259.8886297180721
 30
0.0
  0
VERTEX
  5
E8
330
E6
100
AcDbEntity
  8
Layer 2
 62
     1
420
 16711680
370
     5
100
AcDbVertex
100
AcDb2dVertex
 10
464.523422588831
 20
256.8889955521555
 30
0.0
  0
VERTEX
  5
E9
330
E6
100
AcDbEntity
  8
Layer 2
 62
     1
420
 16711680
370
     5
100
AcDbVertex
100
AcDb2dVertex
 10
454.5236897883925
 20
256.8889955526047
 30
0.0
  0
VERTEX
  5
EA
330
E6
100
AcDbEntity
  8
Layer 2
 62
     1
420
 16711680
370
     5
100
AcDbVertex
100
AcDb2dVertex
 10
454.523689788523
 20
259.8886297185213
 30
0.0
  0
VERTEX
  5
EB
330
E6
100
AcDbEntity
  8
Layer 2
 62
     1
420
 16711680
370
     5
100
AcDbVertex
100
AcDb2dVertex
 10
464.5234225889651
 20
259.8886297180721
 30
0.0
  0
SEQEND
  5
EC
330
E6
100
AcDbEntity
  8
Layer 2
 62
     1
420
 16711680
370
     5
  0
POLYLINE
  5
ED
330
1F
100
AcDbEntity
  8
Layer 2
 62
     1
420
 16711680
370
     5
100
AcDb2dPolyline
 66
     1
 10
0.0
 20
0.0
 30
0.0
  0
VERTEX
  5
EE
330
ED
100
AcDbEntity
  8
Layer 2
 62
     1
420
 16711680
370
     5
100
AcDbVertex
100
AcDb2dVertex
 10
520.8224858748817
 20
259.8886297155451
 30
0.0
  0
VERTEX
  5
EF
330
ED
100
AcDbEntity
  8
Layer 2
 62
     1
420
 16711680
370
     5
100
AcDbVertex
100
AcDb2dVertex
 10
520.8224858747444
 20
256.8889955496285
 30
0.0
  0
VERTEX
  5
F0
330
ED
100
AcDbEntity
  8
Layer 2
 62
     1
420
 16711680
370
     5
100
AcDbVertex
100
AcDb2dVertex
 10
510.8227177965245
 20
256.8889955500764
 30
0.0
  0
VERTEX
  5
F1
330
ED
100
AcDbEntity
  8
Layer 2
 62
     1
420
 16711680
370
     5
100
AcDbVertex
100
AcDb2dVertex
 10
510.8227177966622
 20
259.888629715993
 30
0.0
  0
VERTEX
  5
F2
330
ED
100
AcDbEntity
  8
Layer 2
 62
     1
420
 16711680
370
     5
100
AcDbVertex
100
AcDb2dVertex
 10
520.8224858748817
 20
259.8886297155451
 30
0.0
  0
SEQEND
  5
F3
330
ED
100
AcDbEntity
  8
Layer 2
 62
     1
420
 16711680
370
     5
  0
POLYLINE
  5
F4
330
1F
100
AcDbEntity
  8
Layer 2
 62
     1
420
 16711680
370
     5
100
AcDb2dPolyline
 66
     1
 10
0.0
 20
0.0
 30
0.0
  0
VERTEX
  5
F5
330
F4
100
AcDbEntity
  8
Layer 2
 62
     1
420
 16711680
370
     5
100
AcDbVertex
100
AcDb2dVertex
 10
450.8544310419793
 20
324.9422958364876
 30
0.0
  0
VERTEX
  5
F6
330
F4
100
AcDbEntity
  8
Layer 2
 62
     1
420
 16711680
370
     5
100
AcDbVertex
100
AcDb2dVertex
 10
524.1828311625382
 20
324.942295833196
 30
0.0
  0
VERTEX
  5
F7
330
F4
100
AcDbEntity
  8
Layer 2
 62
     1
420
 16711680
370
     5
100
AcDbVertex
100
AcDb2dVertex
 10
524.1828311606298
 20
282.521114107301
 30
0.0
  0
VERTEX
  5
F8
330
F4
100
AcDbEntity
  8
Layer 2
 62
     1
420
 16711680
370
     5
100
AcDbVertex
100
AcDb2dVertex
 10
450.8544310400706
 20
282.5211141105929
 30
0.0
  0
VERTEX
  5
F9
330
F4
100
AcDbEntity
  8
Layer 2
 62
     1
420
 16711680
370
     5
100
AcDbVertex
100
AcDb2dVertex
 10
450.8544310419793
 20
324.9422958364876
 30
0.0
  0
SEQEND
  5
FA
330
F4
100
AcDbEntity
  8
Layer 2
 62
     1
420
 16711680
370
     5
  0
INSERT
  5
FC
330
1F
100
AcDbEntity
  8
Layer 2
100
AcDbBlockReference
  2
block 10
 10
0.0
 20
0.0
 30
0.0
  0
INSERT
  5
14D
330
1F
100
AcDbEntity
  8
Layer 2
100
AcDbBlockReference
  2
block 15
 10
0.0
 20
0.0
 30
0.0
  0
INSERT
  5
168
330
1F
100
AcDbEntity
  8
Layer 2
100
AcDbBlockReference
  2
block 16
 10
0.0
 20
0.0
 30
0.0
  0
ENDSEC
  0
SECTION
  2
OBJECTS
  0
DICTIONARY
  5
C
330
0
100
AcDbDictionary
281
     1
  3
ACAD_GROUP
350
D
  3
ACAD_LAYOUT
350
1A
  3
ACAD_MATERIAL
350
3B
  3
ACAD_MLEADERSTYLE
350
199
  3
ACAD_MLINESTYLE
350
17
  3
ACAD_PLOTSETTINGS
350
19
  3
ACAD_PLOTSTYLENAME
350
E
  3
ACAD_TABLESTYLE
350
198
  3
ACAD_VISUALSTYLE
350
2A
  0
SUN
  5
3F
330
29
100
AcDbSun
 90
        1
290
     0
 63
     7
421
 16777215
 40
1.0
291
     1
 91
  2455826
 92
 54000000
292
     0
 70
     2
 71
   256
280
     1
  0
DICTIONARY
  5
D
102
{ACAD_REACTORS
330
C
102
}
330
C
100
AcDbDictionary
281
     1
  0
DICTIONARY
  5
1A
102
{ACAD_REACTORS
330
C
102
}
330
C
100
AcDbDictionary
281
     1
  3
Layout1
350
1E
  3
Layout2
350
26
  3
Model
350
22
  0
DICTIONARY
  5
3B
102
{ACAD_REACTORS
330
C
102
}
330
C
100
AcDbDictionary
281
     1
  3
ByBlock
350
3D
  3
ByLayer
350
3C
  3
Global
350
3E
  0
DICTIONARY
  5
199
102
{ACAD_REACTORS
330
C
102
}
330
C
100
AcDbDictionary
281
     1
  0
DICTIONARY
  5
17
102
{ACAD_REACTORS
330
C
102
}
330
C
100
AcDbDictionary
281
     1
  3
Standard
350
18
  0
DICTIONARY
  5
19
102
{ACAD_REACTORS
330
C
102
}
330
C
100
AcDbDictionary
281
     1
  0
ACDBDICTIONARYWDFLT
  5
E
102
{ACAD_REACTORS
330
C
102
}
330
C
100
AcDbDictionary
281
     1
  3
Normal
350
F
100
AcDbDictionaryWithDefault
340
F
  0
DICTIONARY
  5
198
102
{ACAD_REACTORS
330
C
102
}
330
C
100
AcDbDictionary
281
     1
  0
DICTIONARY
  5
2A
102
{ACAD_REACTORS
330
C
102
}
330
C
100
AcDbDictionary
281
     1
  3
2dWireframe
350
2F
  3
3D Hidden
350
31
  3
3dWireframe
350
30
  3
Basic
350
32
  3
Brighten
350
36
  3
ColorChange
350
3A
  3
Conceptual
350
34
  3
Dim
350
35
  3
Facepattern
350
39
  3
Flat
350
2B
  3
FlatWithEdges
350
2C
  3
Gouraud
350
2D
  3
GouraudWithEdges
350
2E
  3
Linepattern
350
38
  3
Realistic
350
33
  3
Thicken
350
37
  0
LAYOUT
  5
1E
102
{ACAD_REACTORS
330
1A
102
}
330
1A
100
AcDbPlotSettings
  1

  2
none_device
  4

  6

 40
0.0
 41
0.0
 42
0.0
 43
0.0
 44
0.0
 45
0.0
 46
0.0
 47
0.0
 48
0.0
 49
0.0
140
0.0
141
0.0
142
1.0
143
1.0
 70
   688
 72
     0
 73
     0
 74
     5
  7

 75
    16
 76
     0
 77
     2
 78
   300
147
1.0
148
0.0
149
0.0
100
AcDbLayout
  1
Layout1
 70
     1
 71
     1
 10
0.0
 20
0.0
 11
12.0
 21
9.0
 12
0.0
 22
0.0
 32
0.0
 14
1.000000000000000E+20
 24
1.000000000000000E+20
 34
1.000000000000000E+20
 15
-1.000000000000000E+20
 25
-1.000000000000000E+20
 35
-1.000000000000000E+20
146
0.0
 13
0.0
 23
0.0
 33
0.0
 16
1.0
 26
0.0
 36
0.0
 17
0.0
 27
1.0
 37
0.0
 76
     0
330
1B
  0
LAYOUT
  5
26
102
{ACAD_REACTORS
330
1A
102
}
330
1A
100
AcDbPlotSettings
  1

  2
none_device
  4

  6

 40
0.0
 41
0.0
 42
0.0
 43
0.0
 44
0.0
 45
0.0
 46
0.0
 47
0.0
 48
0.0
 49
0.0
140
0.0
141
0.0
142
1.0
143
1.0
 70
   688
 72
     0
 73
     0
 74
     5
  7

 75
    16
 76
     0
 77
     2
 78
   300
147
1.0
148
0.0
149
0.0
100
AcDbLayout
  1
Layout2
 70
     1
 71
     2
 10
0.0
 20
0.0
 11
0.0
 21
0.0
 12
0.0
 22
0.0
 32
0.0
 14
0.0
 24
0.0
 34
0.0
 15
0.0
 25
0.0
 35
0.0
146
0.0
 13
0.0
 23
0.0
 33
0.0
 16
1.0
 26
0.0
 36
0.0
 17
0.0
 27
1.0
 37
0.0
 76
     0
330
23
  0
LAYOUT
  5
22
102
{ACAD_REACTORS
330
1A
102
}
330
1A
100
AcDbPlotSettings
  1

  2
none_device
  4

  6

 40
0.0
 41
0.0
 42
0.0
 43
0.0
 44
0.0
 45
0.0
 46
0.0
 47
0.0
 48
0.0
 49
0.0
140
0.0
141
0.0
142
1.0
143
1.0
 70
  1712
 72
     0
 73
     0
 74
     0
  7

 75
     0
 76
     0
 77
     2
 78
   300
147
1.0
148
0.0
149
0.0
100
AcDbLayout
  1
Model
 70
     1
 71
     0
 10
0.0
 20
0.0
 11
12.0
 21
9.0
 12
0.0
 22
0.0
 32
0.0
 14
1.000000000000000E+20
 24
1.000000000000000E+20
 34
1.000000000000000E+20
 15
-1.000000000000000E+20
 25
-1.000000000000000E+20
 35
-1.000000000000000E+20
146
0.0
 13
0.0
 23
0.0
 33
0.0
 16
1.0
 26
0.0
 36
0.0
 17
0.0
 27
1.0
 37
0.0
 76
     0
330
1F
331
29
  0
MATERIAL
  5
3D
102
{ACAD_REACTORS
330
3B
102
}
330
3B
100
AcDbMaterial
  1
ByBlock
 72
     1
 94
      127
  0
MATERIAL
  5
3C
102
{ACAD_REACTORS
330
3B
102
}
330
3B
100
AcDbMaterial
  1
ByLayer
 72
     1
 94
      127
  0
MATERIAL
  5
3E
102
{ACAD_REACTORS
330
3B
102
}
330
3B
100
AcDbMaterial
  1
Global
 72
     1
 94
      127
  0
MLINESTYLE
  5
18
102
{ACAD_REACTORS
330
17
102
}
330
17
100
AcDbMlineStyle
  2
Standard
 70
     0
  3

 62
   256
 51
90.0
 52
90.0
 71
     2
 49
0.5
 62
   256
  6
BYLAYER
 49
-0.5
 62
   256
  6
BYLAYER
  0
ACDBPLACEHOLDER
  5
F
102
{ACAD_REACTORS
330
E
102
}
330
E
  0
VISUALSTYLE
  5
2F
102
{ACAD_REACTORS
330
2A
102
}
330
2A
100
AcDbVisualStyle
  2
2dWireframe
 70
     4
177
     2
291
     0
 71
     0
176
     1
 72
     2
176
     1
 73
     0
176
     1
 90
        0
176
     1
 40
-0.6
176
     1
 41
-30.0
176
     1
 62
     5
 63
     7
421
 16777215
176
     1
 74
     1
176
     1
 91
        4
176
     1
 64
     7
176
     1
 65
   257
176
     1
 75
     1
176
     1
175
     1
176
     1
 42
1.0
176
     1
 92
        0
176
     1
 66
   257
176
     1
 43
1.0
176
     1
 76
     1
176
     1
 77
     6
176
     1
 78
     2
176
     1
 67
     7
176
     1
 79
     5
176
     1
170
     0
176
     1
171
     0
176
     1
290
     0
176
     1
 93
        1
176
     1
 44
0.0
176
     1
173
     0
176
     1
  0
VISUALSTYLE
  5
31
102
{ACAD_REACTORS
330
2A
102
}
330
2A
100
AcDbVisualStyle
  2
3D Hidden
 70
     6
177
     2
291
     0
 71
     1
176
     1
 72
     2
176
     1
 73
     2
176
     1
 90
        0
176
     1
 40
-0.6
176
     1
 41
-30.0
176
     1
 62
     5
 63
     7
421
 16777215
176
     1
 74
     2
176
     1
 91
        2
176
     1
 64
     7
176
     1
 65
   257
176
     1
 75
     2
176
     1
175
     1
176
     1
 42
40.0
176
     1
 92
        0
176
     1
 66
   257
176
     1
 43
1.0
176
     1
 76
     1
176
     1
 77
     6
176
     1
 78
     2
176
     1
 67
     7
176
     1
 79
     3
176
     1
170
     0
176
     1
171
     0
176
     1
290
     0
176
     1
 93
        1
176
     1
 44
0.0
176
     1
173
     0
176
     1
  0
VISUALSTYLE
  5
30
102
{ACAD_REACTORS
330
2A
102
}
330
2A
100
AcDbVisualStyle
  2
3dWireframe
 70
     5
177
     2
291
     0
 71
     0
176
     1
 72
     2
176
     1
 73
     0
176
     1
 90
        0
176
     1
 40
-0.6
176
     1
 41
-30.0
176
     1
 62
     5
 63
     7
421
 16777215
176
     1
 74
     1
176
     1
 91
        4
176
     1
 64
     7
176
     1
 65
   257
176
     1
 75
     1
176
     1
175
     1
176
     1
 42
1.0
176
     1
 92
        0
176
     1
 66
   257
176
     1
 43
1.0
176
     1
 76
     1
176
     1
 77
     6
176
     1
 78
     2
176
     1
 67
     7
176
     1
 79
     5
176
     1
170
     0
176
     1
171
     0
176
     1
290
     0
176
     1
 93
        1
176
     1
 44
0.0
176
     1
173
     0
176
     1
  0
VISUALSTYLE
  5
32
102
{ACAD_REACTORS
330
2A
102
}
330
2A
100
AcDbVisualStyle
  2
Basic
 70
     7
177
     2
291
     1
 71
     1
176
     1
 72
     0
176
     1
 73
     1
176
     1
 90
        0
176
     1
 40
-0.6
176
     1
 41
-30.0
176
     1
 62
     5
 63
     7
421
 16777215
176
     1
 74
     0
176
     1
 91
        4
176
     1
 64
     7
176
     1
 65
   257
176
     1
 75
     1
176
     1
175
     1
176
     1
 42
1.0
176
     1
 92
        8
176
     1
 66
     7
176
     1
 43
1.0
176
     1
 76
     1
176
     1
 77
     6
176
     1
 78
     2
176
     1
 67
     7
176
     1
 79
     5
176
     1
170
     0
176
     1
171
     0
176
     1
290
     0
176
     1
 93
        1
176
     1
 44
0.0
176
     1
173
     0
176
     1
  0
VISUALSTYLE
  5
36
102
{ACAD_REACTORS
330
2A
102
}
330
2A
100
AcDbVisualStyle
  2
Brighten
 70
    12
177
     2
291
     1
 71
     2
176
     1
 72
     2
176
     1
 73
     0
176
     1
 90
        0
176
     1
 40
-0.6
176
     1
 41
-30.0
176
     1
 62
     5
 63
     7
421
 16777215
176
     1
 74
     1
176
     1
 91
        4
176
     1
 64
     7
176
     1
 65
   257
176
     1
 75
     1
176
     1
175
     1
176
     1
 42
1.0
176
     1
 92
        8
176
     1
 66
     7
176
     1
 43
1.0
176
     1
 76
     1
176
     1
 77
     6
176
     1
 78
     2
176
     1
 67
     7
176
     1
 79
     5
176
     1
170
     0
176
     1
171
     0
176
     1
290
     0
176
     1
 93
        1
176
     1
 44
50.0
176
     1
173
     0
176
     1
  0
VISUALSTYLE
  5
3A
102
{ACAD_REACTORS
330
2A
102
}
330
2A
100
AcDbVisualStyle
  2
ColorChange
 70
    16
177
     2
291
     1
 71
     2
176
     1
 72
     2
176
     1
 73
     3
176
     1
 90
        0
176
     1
 40
-0.6
176
     1
 41
-30.0
176
     1
 62
     5
 63
     8
421
  8421504
176
     1
 74
     1
176
     1
 91
        4
176
     1
 64
     7
176
     1
 65
   257
176
     1
 75
     1
176
     1
175
     1
176
     1
 42
1.0
176
     1
 92
        8
176
     1
 66
     8
424
  8421504
176
     1
 43
1.0
176
     1
 76
     1
176
     1
 77
     6
176
     1
 78
     2
176
     1
 67
     7
176
     1
 79
     5
176
     1
170
     0
176
     1
171
     0
176
     1
290
     0
176
     1
 93
        1
176
     1
 44
0.0
176
     1
173
     0
176
     1
  0
VISUALSTYLE
  5
34
102
{ACAD_REACTORS
330
2A
102
}
330
2A
100
AcDbVisualStyle
  2
Conceptual
 70
     9
177
     2
291
     0
 71
     3
176
     1
 72
     2
176
     1
 73
     0
176
     1
 90
        0
176
     1
 40
-0.6
176
     1
 41
-30.0
176
     1
 62
     5
 63
     7
421
 16777215
176
     1
 74
     2
176
     1
 91
        2
176
     1
 64
     7
176
     1
 65
   257
176
     1
 75
     1
176
     1
175
     1
176
     1
 42
40.0
176
     1
 92
        8
176
     1
 66
     7
176
     1
 43
1.0
176
     1
 76
     1
176
     1
 77
     6
176
     1
 78
     2
176
     1
 67
     7
176
     1
 79
     3
176
     1
170
     0
176
     1
171
     0
176
     1
290
     0
176
     1
 93
        1
176
     1
 44
0.0
176
     1
173
     0
176
     1
  0
VISUALSTYLE
  5
35
102
{ACAD_REACTORS
330
2A
102
}
330
2A
100
AcDbVisualStyle
  2
Dim
 70
    11
177
     2
291
     1
 71
     2
176
     1
 72
     2
176
     1
 73
     0
176
     1
 90
        0
176
     1
 40
-0.6
176
     1
 41
-30.0
176
     1
 62
     5
 63
     7
421
 16777215
176
     1
 74
     1
176
     1
 91
        4
176
     1
 64
     7
176
     1
 65
   257
176
     1
 75
     1
176
     1
175
     1
176
     1
 42
1.0
176
     1
 92
        8
176
     1
 66
     7
176
     1
 43
1.0
176
     1
 76
     1
176
     1
 77
     6
176
     1
 78
     2
176
     1
 67
     7
176
     1
 79
     5
176
     1
170
     0
176
     1
171
     0
176
     1
290
     0
176
     1
 93
        1
176
     1
 44
-50.0
176
     1
173
     0
176
     1
  0
VISUALSTYLE
  5
39
102
{ACAD_REACTORS
330
2A
102
}
330
2A
100
AcDbVisualStyle
  2
Facepattern
 70
    15
177
     2
291
     1
 71
     2
176
     1
 72
     2
176
     1
 73
     0
176
     1
 90
        0
176
     1
 40
-0.6
176
     1
 41
-30.0
176
     1
 62
     5
 63
     7
421
 16777215
176
     1
 74
     1
176
     1
 91
        4
176
     1
 64
     7
176
     1
 65
   257
176
     1
 75
     1
176
     1
175
     1
176
     1
 42
1.0
176
     1
 92
        8
176
     1
 66
     7
176
     1
 43
1.0
176
     1
 76
     1
176
     1
 77
     6
176
     1
 78
     2
176
     1
 67
     7
176
     1
 79
     5
176
     1
170
     0
176
     1
171
     0
176
     1
290
     0
176
     1
 93
        1
176
     1
 44
0.0
176
     1
173
     0
176
     1
  0
VISUALSTYLE
  5
2B
102
{ACAD_REACTORS
330
2A
102
}
330
2A
100
AcDbVisualStyle
  2
Flat
 70
     0
177
     2
291
     1
 71
     2
176
     1
 72
     1
176
     1
 73
     1
176
     1
 90
        2
176
     1
 40
-0.6
176
     1
 41
30.0
176
     1
 62
     5
 63
     7
421
 16777215
176
     1
 74
     0
176
     1
 91
        4
176
     1
 64
     7
176
     1
 65
   257
176
     1
 75
     1
176
     1
175
     1
176
     1
 42
1.0
176
     1
 92
        8
176
     1
 66
     7
176
     1
 43
1.0
176
     1
 76
     1
176
     1
 77
     6
176
     1
 78
     2
176
     1
 67
     7
176
     1
 79
     5
176
     1
170
     0
176
     1
171
     0
176
     1
290
     0
176
     1
 93
       13
176
     1
 44
0.0
176
     1
173
     0
176
     1
  0
VISUALSTYLE
  5
2C
102
{ACAD_REACTORS
330
2A
102
}
330
2A
100
AcDbVisualStyle
  2
FlatWithEdges
 70
     1
177
     2
291
     1
 71
     2
176
     1
 72
     1
176
     1
 73
     1
176
     1
 90
        2
176
     1
 40
-0.6
176
     1
 41
30.0
176
     1
 62
     5
 63
     7
421
 16777215
176
     1
 74
     1
176
     1
 91
        4
176
     1
 64
     7
176
     1
 65
   257
176
     1
 75
     1
176
     1
175
     1
176
     1
 42
1.0
176
     1
 92
        0
176
     1
 66
   257
176
     1
 43
1.0
176
     1
 76
     1
176
     1
 77
     6
176
     1
 78
     2
176
     1
 67
     7
176
     1
 79
     5
176
     1
170
     0
176
     1
171
     0
176
     1
290
     0
176
     1
 93
       13
176
     1
 44
0.0
176
     1
173
     0
176
     1
  0
VISUALSTYLE
  5
2D
102
{ACAD_REACTORS
330
2A
102
}
330
2A
100
AcDbVisualStyle
  2
Gouraud
 70
     2
177
     2
291
     1
 71
     2
176
     1
 72
     2
176
     1
 73
     1
176
     1
 90
        2
176
     1
 40
-0.6
176
     1
 41
30.0
176
     1
 62
     5
 63
     7
421
 16777215
176
     1
 74
     0
176
     1
 91
        4
176
     1
 64
     7
176
     1
 65
   257
176
     1
 75
     1
176
     1
175
     1
176
     1
 42
1.0
176
     1
 92
        0
176
     1
 66
     7
176
     1
 43
1.0
176
     1
 76
     1
176
     1
 77
     6
176
     1
 78
     2
176
     1
 67
     7
176
     1
 79
     5
176
     1
170
     0
176
     1
171
     0
176
     1
290
     0
176
     1
 93
       13
176
     1
 44
0.0
176
     1
173
     0
176
     1
  0
VISUALSTYLE
  5
2E
102
{ACAD_REACTORS
330
2A
102
}
330
2A
100
AcDbVisualStyle
  2
GouraudWithEdges
 70
     3
177
     2
291
     1
 71
     2
176
     1
 72
     2
176
     1
 73
     1
176
     1
 90
        2
176
     1
 40
-0.6
176
     1
 41
30.0
176
     1
 62
     5
 63
     7
421
 16777215
176
     1
 74
     1
176
     1
 91
        4
176
     1
 64
     7
176
     1
 65
   257
176
     1
 75
     1
176
     1
175
     1
176
     1
 42
1.0
176
     1
 92
        0
176
     1
 66
   257
176
     1
 43
1.0
176
     1
 76
     1
176
     1
 77
     6
176
     1
 78
     2
176
     1
 67
     7
176
     1
 79
     5
176
     1
170
     0
176
     1
171
     0
176
     1
290
     0
176
     1
 93
       13
176
     1
 44
0.0
176
     1
173
     0
176
     1
  0
VISUALSTYLE
  5
38
102
{ACAD_REACTORS
330
2A
102
}
330
2A
100
AcDbVisualStyle
  2
Linepattern
 70
    14
177
     2
291
     1
 71
     2
176
     1
 72
     2
176
     1
 73
     0
176
     1
 90
        0
176
     1
 40
-0.6
176
     1
 41
-30.0
176
     1
 62
     5
 63
     7
421
 16777215
176
     1
 74
     1
176
     1
 91
        4
176
     1
 64
     7
176
     1
 65
   257
176
     1
 75
     7
176
     1
175
     7
176
     1
 42
1.0
176
     1
 92
        8
176
     1
 66
     7
176
     1
 43
1.0
176
     1
 76
     1
176
     1
 77
     6
176
     1
 78
     2
176
     1
 67
     7
176
     1
 79
     5
176
     1
170
     0
176
     1
171
     0
176
     1
290
     0
176
     1
 93
        1
176
     1
 44
0.0
176
     1
173
     0
176
     1
  0
VISUALSTYLE
  5
33
102
{ACAD_REACTORS
330
2A
102
}
330
2A
100
AcDbVisualStyle
  2
Realistic
 70
     8
177
     2
291
     0
 71
     2
176
     1
 72
     2
176
     1
 73
     0
176
     1
 90
        0
176
     1
 40
-0.6
176
     1
 41
-30.0
176
     1
 62
     5
 63
     7
421
 16777215
176
     1
 74
     1
176
     1
 91
        0
176
     1
 64
     7
176
     1
 65
   257
176
     1
 75
     1
176
     1
175
     1
176
     1
 42
1.0
176
     1
 92
        8
176
     1
 66
     8
424
  7895160
176
     1
 43
1.0
176
     1
 76
     1
176
     1
 77
     6
176
     1
 78
     2
176
     1
 67
     7
176
     1
 79
     5
176
     1
170
     0
176
     1
171
     0
176
     1
290
     0
176
     1
 93
       13
176
     1
 44
0.0
176
     1
173
     0
176
     1
  0
VISUALSTYLE
  5
37
102
{ACAD_REACTORS
330
2A
102
}
330
2A
100
AcDbVisualStyle
  2
Thicken
 70
    13
177
     2
291
     1
 71
     2
176
     1
 72
     2
176
     1
 73
     0
176
     1
 90
        0
176
     1
 40
-0.6
176
     1
 41
-30.0
176
     1
 62
     5
 63
     7
421
 16777215
176
     1
 74
     1
176
     1
 91
        4
176
     1
 64
     7
176
     1
 65
   257
176
     1
 75
     1
176
     1
175
     1
176
     1
 42
1.0
176
     1
 92
       12
176
     1
 66
     7
176
     1
 43
1.0
176
     1
 76
     1
176
     1
 77
     6
176
     1
 78
     2
176
     1
 67
     7
176
     1
 79
     5
176
     1
170
     0
176
     1
171
     0
176
     1
290
     0
176
     1
 93
        1
176
     1
 44
0.0
176
     1
173
     0
176
     1
  0
ENDSEC
  0
EOF
